<?xml version="1.0" standalone="no"?>
<!DOCTYPE svg PUBLIC "-//W3C//DTD SVG 1.1//EN" "http://www.w3.org/Graphics/SVG/1.1/DTD/svg11.dtd" >
<svg xmlns="http://www.w3.org/2000/svg" xmlns:xlink="http://www.w3.org/1999/xlink" version="1.1">
<metadata>
Created by FontForge 20170731 at Wed Sep 23 00:34:57 2020
 By Aleksey,,,
Copyright 2020 The LibreFranklin Project Authors (https://github.com/impallari/Libre-Franklin)
</metadata>
<defs>
<font id="LibreFranklin-Thin" horiz-adv-x="0" >
  <font-face 
    font-family="Libre Franklin Thin"
    font-weight="100"
    font-stretch="normal"
    units-per-em="1000"
    panose-1="0 0 0 0 0 0 0 0 0 0"
    ascent="800"
    descent="-200"
    x-height="530"
    cap-height="742"
    bbox="-441.667 -236 1230 1145.57"
    underline-thickness="50"
    underline-position="-150"
    unicode-range="U+000D-FB02"
  />
<missing-glyph horiz-adv-x="736" 
d="M622 -136q0 -29 -33 -29h-448q-16 0 -21.5 6t-5.5 19v964q0 23 19 23h471q18 0 18 -21v-962v0zM570 779q0 18 -15 18h-373q-16 0 -16 -19v-872q0 -10 5 -15.5t18 -5.5h353q28 0 28 24v870zM135 806l52 27l415 -965l-60 -5z" />
    <glyph glyph-name="fi" unicode="fi" horiz-adv-x="586" 
d="M333 530q2 0 3.5 -1.5t1.5 -4.5v-23q0 -6 -6 -6h-133q-7 0 -7 -7v-477q0 -11 -9 -11h-23q-8 0 -8 10v478q0 7 -6 7h-114q-6 0 -6 6v23q0 3 1.5 4.5t4.5 1.5h113q7 0 7 7v81q0 62 26.5 93t86.5 31h72q6 0 6 -7v-21q0 -4 -2 -5.5t-6 -1.5h-80q-37 0 -50 -21t-13 -59v-90
q0 -7 7 -7h134v0zM495 12q0 -7 -2 -9.5t-10 -2.5h-17q-7 0 -9 2t-2 8v510q0 10 9 10h22q9 0 9 -10v-508zM500 660q0 -16 -12 -16h-27q-7 0 -9 4t-2 10v71q0 13 12 13h26q12 0 12 -13v-69z" />
    <glyph glyph-name="fl" unicode="fl" horiz-adv-x="586" 
d="M333 530q2 0 3.5 -1.5t1.5 -4.5v-23q0 -6 -6 -6h-133q-7 0 -7 -7v-477q0 -11 -9 -11h-23q-8 0 -8 10v478q0 7 -6 7h-114q-6 0 -6 6v23q0 3 1.5 4.5t4.5 1.5h113q7 0 7 7v81q0 62 26.5 93t86.5 31h72q6 0 6 -7v-21q0 -4 -2 -5.5t-6 -1.5h-80q-37 0 -50 -21t-13 -59v-90
q0 -7 7 -7h134v0zM495 12q0 -7 -2 -9.5t-10 -2.5h-17q-11 0 -11 10v722q0 10 9 10h22q9 0 9 -10v-720z" />
    <glyph glyph-name=".notdef" horiz-adv-x="736" 
d="M622 -136q0 -29 -33 -29h-448q-16 0 -21.5 6t-5.5 19v964q0 23 19 23h471q18 0 18 -21v-962v0zM570 779q0 18 -15 18h-373q-16 0 -16 -19v-872q0 -10 5 -15.5t18 -5.5h353q28 0 28 24v870zM135 806l52 27l415 -965l-60 -5z" />
    <glyph glyph-name="uni0000" 
 />
    <glyph glyph-name="uni0000" 
 />
    <glyph glyph-name="nonmarkingreturn" horiz-adv-x="333" 
 />
    <glyph glyph-name="CR" unicode="&#xd;" horiz-adv-x="215" 
 />
    <glyph glyph-name="space" unicode=" " horiz-adv-x="220" 
 />
    <glyph glyph-name="exclam" unicode="!" horiz-adv-x="232" 
d="M147 11q0 -11 -13 -11h-39q-10 0 -10 10v60q0 9 7 9h48q7 0 7 -8v-60zM132 156q0 -4 -2.5 -6t-7.5 -2h-14q-4 0 -6 1.5t-2 5.5l-10 580q0 4 1.5 5.5t3.5 1.5h42q6 0 6 -6z" />
    <glyph glyph-name="quotedbl" unicode="&#x22;" horiz-adv-x="371" 
d="M271 559q-1 -4 -3 -6.5t-7 -2.5h-18q-4 0 -5.5 1.5t-2.5 5.5l-19 179q0 3 2 4.5t4 1.5h63q6 0 6 -6zM135 559q-1 -4 -3 -6.5t-7 -2.5h-18q-4 0 -5.5 1.5t-2.5 5.5l-19 179q0 3 2 4.5t4 1.5h63q6 0 6 -6z" />
    <glyph glyph-name="numbersign" unicode="#" horiz-adv-x="603" 
d="M169 7q-1 -4 -3 -6t-5 -1l-24 4q-4 1 -5 2.5t-1 3.5l112 726q1 3 3 5t4 1l24 -4q8 -1 7 -11zM372 7q-1 -4 -3 -6t-5 -1l-24 4q-4 1 -5 2.5t-1 3.5l112 726q1 3 3 5t4 1l24 -4q8 -1 7 -11zM525 258q0 -8 -10 -8h-462q-4 0 -6 1.5t-2 5.5v24q0 7 5 7h468q7 0 7 -6v-24z
M558 468q0 -8 -10 -8h-462q-4 0 -6 1.5t-2 5.5v24q0 7 5 7h468q7 0 7 -6v-24z" />
    <glyph glyph-name="dollar" unicode="$" horiz-adv-x="574" 
d="M534 165q0 -50 -26 -89.5t-71.5 -62.5t-105.5 -23q-4 0 -6 -1.5t-2 -4.5v-69q0 -8 -7 -8h-24q-7 0 -7 5v72q0 4 -1 5t-4 1q-89 0 -144.5 31t-93.5 92q-6 10 2 15l16 10q4 2 9 2t7 -3q38 -51 83.5 -77.5t118.5 -26.5q7 0 7 7v291q0 9 -6 15.5t-17 11.5q-72 33 -115 60.5
t-61.5 60.5t-18.5 80q0 55 27 96.5t74.5 67t108.5 29.5q3 0 5 2t2 5v56q0 3 1.5 5t4.5 2h24q5 0 6.5 -2.5t1.5 -7.5v-54q0 -7 7 -7q62 -5 107.5 -29.5t83.5 -65.5q8 -8 0 -14l-23 -17q-4 -3 -6 -2t-7 7q-24 30 -64.5 50.5t-88.5 26.5q-5 1 -7 -1t-2 -7v-302q0 -10 11 -15
l27 -12q57 -24 96 -53.5t58.5 -66.5t19.5 -85v0zM284 701q0 9 -10 7q-70 -6 -114 -47t-44 -103q0 -28 13 -52.5t45.5 -48t89.5 -49.5q8 -4 14 -1.5t6 12.5v282zM323 39q0 -6 7 -6q71 0 113 39t42 97q0 54 -34 89.5t-111 68.5q-7 3 -12 1.5t-5 -9.5v-280v0z" />
    <glyph glyph-name="percent" unicode="%" horiz-adv-x="898" 
d="M229 753q48 0 84.5 -24t57 -71t20.5 -117t-20.5 -118t-57 -72t-84.5 -24t-85 24t-58 72t-21 118t21 117t58 71t85 24v0zM228 357q59 0 93.5 52t34.5 131q0 80 -34.5 131.5t-93.5 51.5q-39 0 -67.5 -24t-44.5 -65t-16 -94q0 -52 16 -93.5t44.5 -65.5t67.5 -24v0zM671 416
q48 0 84.5 -24t57 -71t20.5 -117t-20.5 -118t-57 -72t-84.5 -24t-85 24t-58 72t-21 118t21 117t58 71t85 24v0zM670 20q38 0 66.5 24.5t45 66t16.5 92.5q0 52 -16.5 93t-45 65.5t-66.5 24.5q-37 0 -66 -24.5t-45.5 -66t-16.5 -92.5t16.5 -92.5t45.5 -66t66 -24.5v0zM228 4
q-5 -8 -15 -8h-16q-7 0 -8 4t3 9l489 736q2 4 5 4.5t7 0.5h20q4 0 5.5 -1.5t-1.5 -6.5z" />
    <glyph glyph-name="ampersand" unicode="&#x26;" horiz-adv-x="740" 
d="M314 753q46 0 83.5 -17t60 -49.5t22.5 -78.5q0 -38 -18.5 -74t-60.5 -69.5t-113 -64.5q-7 -3 -7.5 -6t4.5 -10l188 -224q5 -5 6.5 -5t8.5 6q21 20 45.5 49.5t47 62t39.5 61.5t23 48q3 9 13 5l17 -7q3 -1 5 -4t1 -6q-9 -31 -35.5 -74.5t-61 -87.5t-69.5 -79q-4 -4 -3 -7
t5 -8q20 -20 52.5 -37t70 -27.5t70.5 -10.5q12 0 12 -10v-15q0 -8 -3 -11t-13 -3q-34 0 -77 13t-83 33t-65 41q-4 3 -7 3t-7 -4q-46 -43 -101 -67t-116 -24q-95 0 -151.5 53t-56.5 139q0 59 33 109t112 99q10 6 10.5 10.5t-9.5 14.5q-34 36 -51 72t-17 76q0 53 25.5 94.5
t70 66t100.5 24.5v0zM314 714q-47 0 -80.5 -20.5t-51 -54t-17.5 -72.5q0 -30 11 -56.5t38 -56.5l23 -25q2 -3 7 -3.5t10 1.5q98 47 139 89.5t41 93.5q0 53 -35.5 78.5t-84.5 25.5v0zM245 361q-6 8 -12 9t-16 -4q-61 -29 -96.5 -77.5t-35.5 -105.5q0 -45 22 -78.5t59.5 -52.5
t85.5 -19q51 0 99.5 21.5t84.5 54.5q7 6 7.5 11.5t-4.5 11.5l-194 229v0z" />
    <glyph glyph-name="quotesingle" unicode="'" horiz-adv-x="235" 
d="M135 559q-1 -4 -3 -6.5t-7 -2.5h-18q-4 0 -5.5 1.5t-2.5 5.5l-19 179q0 3 2 4.5t4 1.5h63q6 0 6 -6z" />
    <glyph glyph-name="parenleft" unicode="(" horiz-adv-x="268" 
d="M242 742q5 0 6 -2.5t-1 -4.5q-49 -98 -83.5 -215t-34.5 -236q0 -113 27.5 -221t79.5 -221q2 -2 1 -4.5t-6 -2.5h-10q-5 0 -9 5q-41 71 -70.5 140.5t-45.5 144.5t-16 160q0 125 40.5 241t102.5 210q5 6 12 6h7v0z" />
    <glyph glyph-name="parenright" unicode=")" horiz-adv-x="268" 
d="M26 742v0h7q8 0 12 -6q62 -94 102.5 -210t40.5 -241q0 -85 -16 -160t-45.5 -144.5t-70.5 -140.5q-4 -5 -9 -5h-10q-4 0 -5 2.5t0 4.5q53 113 80 221t27 221q0 119 -34 236t-84 215q-1 2 0 4.5t5 2.5z" />
    <glyph glyph-name="asterisk" unicode="*" horiz-adv-x="327" 
d="M171 572q-1 1 -1.5 1t-1.5 -1l-75 -117q-1 -1 -3.5 -1t-4.5 1l-22 15q-4 3 0 8l81 106q1 2 0.5 3t-3.5 2l-109 32q-3 1 -2 7l8 22q2 5 7 2l104 -38q2 -1 3.5 0t1.5 4l-7 119q0 2 1.5 3.5t5.5 1.5h30q3 0 4 -1.5t1 -3.5l-5 -119q0 -6 4 -4l107 45q5 2 6 -2l7 -21
q1 -7 -2 -8l-108 -38q-2 -1 -2.5 -2.5t0.5 -3.5l78 -99q2 -3 1.5 -5.5t-3.5 -4.5l-21 -15q-3 -2 -5.5 -1.5t-3.5 1.5z" />
    <glyph glyph-name="plus" unicode="+" horiz-adv-x="541" 
d="M471 362q0 -8 -10 -8l-383 -1q-4 0 -6 1.5t-2 5.5v24q0 7 5 7l389 1q7 0 7 -6v-24zM260 172q-8 0 -8 10l-1 383q0 5 1.5 6.5t5.5 1.5h24q7 0 7 -5l1 -389q0 -7 -6 -7h-24z" />
    <glyph glyph-name="comma" unicode="," horiz-adv-x="187" 
d="M50 -134q-3 0 -4 2.5t1 7.5l43 114q4 10 -8 10h-9q-8 0 -8 7v66q0 6 6 6h50q6 0 6 -6v-57q0 -6 -2 -12l-57 -132q-1 -3 -3.5 -4.5t-7.5 -1.5h-7v0z" />
    <glyph glyph-name="hyphen" unicode="-" horiz-adv-x="381" 
d="M311 254q0 -8 -10 -8l-223 -1q-4 0 -6 1.5t-2 5.5v26q0 7 5 7l229 1q7 0 7 -6v-26z" />
    <glyph glyph-name="period" unicode="." horiz-adv-x="182" 
d="M122 11q0 -11 -13 -11h-39q-10 0 -10 10v60q0 9 7 9h48q7 0 7 -8v-60z" />
    <glyph glyph-name="slash" unicode="/" horiz-adv-x="328" 
d="M22 -60q-7 0 -5 5l251 791q2 6 8 6h29q8 0 5 -10l-248 -784q-1 -4 -4 -6t-7 -2h-29v0z" />
    <glyph glyph-name="zero" unicode="0" horiz-adv-x="675" 
d="M338 752q54 0 101 -23.5t82.5 -71t55 -119.5t19.5 -169q0 -129 -34.5 -213t-93 -125t-131.5 -41t-131.5 41t-92.5 124.5t-34 211.5q0 98 20 170t55.5 120t82.5 71.5t101 23.5v0zM339 32q62 0 109 35t73.5 109.5t26.5 192.5q0 120 -27 195t-74.5 110.5t-108.5 35.5
t-108.5 -35.5t-75 -111t-27.5 -194.5q0 -118 27.5 -192.5t75.5 -109.5t109 -35v0z" />
    <glyph glyph-name="one" unicode="1" horiz-adv-x="438" 
d="M384 42q7 0 7 -6v-30q0 -1 -1.5 -3.5t-5.5 -2.5h-322q-6 0 -6 6v30q0 6 6 6h141q6 0 6 4v632q0 8 -6 6l-140 -56q-8 -3 -8 7v24q0 5 1 6t5 3l137 68q7 4 11.5 5t10.5 1h27q8 0 8 -9v-685q0 -6 5 -6h124v0z" />
    <glyph glyph-name="two" unicode="2" horiz-adv-x="571" 
d="M302 304q38 39 66 72t46.5 63.5t27.5 60t9 60.5q0 51 -26 84t-65 49.5t-80 16.5q-30 0 -64.5 -9.5t-66.5 -30.5t-55 -55q-2 -3 -6.5 -4t-9.5 3l-15 13q-6 5 -6 8t4 8q41 57 104 83t122 26q52 0 100 -20t79 -63.5t31 -114.5q0 -46 -17 -86.5t-55 -87t-100 -110.5
l-212 -216q-5 -5 -3 -8.5t9 -3.5h377q9 0 9 -8v-26q0 -4 -1.5 -6t-6.5 -2h-428q-7 0 -9.5 2.5t-2.5 9.5v20q0 8 1 13t4.5 10t8.5 10z" />
    <glyph glyph-name="three" unicode="3" horiz-adv-x="624" 
d="M84 645q-6 6 0 12q34 34 67.5 55t69.5 30.5t77 9.5q71 0 122.5 -24.5t80 -66t28.5 -93.5q0 -58 -35.5 -102t-96.5 -66q-11 -4 -11 -6t11 -5q41 -10 76.5 -35.5t57 -64.5t21.5 -90q0 -56 -30 -104t-89.5 -76.5t-148.5 -28.5q-46 0 -86 9.5t-75.5 30.5t-70.5 55
q-3 3 -3 4.5t4 5.5l21 20q5 5 7 3.5t4 -3.5q30 -31 62 -49t67.5 -26t74.5 -8q104 0 160.5 46t56.5 118q0 58 -32.5 96.5t-83 58t-104.5 19.5h-90q-9 0 -9 7v26q0 7 9 7h73q60 0 108.5 20.5t77 56.5t28.5 81q0 40 -23 72t-64.5 51t-95.5 19q-55 0 -102.5 -21t-85.5 -58
q-4 -4 -7.5 -4t-8.5 4l-12 14v0z" />
    <glyph glyph-name="four" unicode="4" horiz-adv-x="623" 
d="M401 737q2 2 5.5 3.5t8.5 1.5h31q9 0 9 -9v-469q0 -8 7 -8h102q10 0 10 -7v-25q0 -10 -10 -10h-101q-8 0 -8 -9v-196q0 -9 -10 -9h-28q-8 0 -8 9v199q0 6 -8 6h-338q-11 0 -11 10v31q0 5 2 10t7 12l340 460v0zM396 256q9 0 9 7v387q0 11 -3.5 12t-10.5 -8l-285 -385
q-10 -13 7 -13h283z" />
    <glyph glyph-name="five" unicode="5" horiz-adv-x="641" 
d="M533 742q6 0 8 -2t1 -7l-3 -26q-1 -5 -0.5 -6t-7.5 -1h-356q-9 0 -9 -8l-21 -275q-1 -6 2.5 -9.5t7.5 -0.5q36 21 77.5 39t102.5 18t115.5 -22t89 -70.5t34.5 -128.5t-36 -136.5t-98 -86.5t-140 -30q-64 0 -125 22.5t-111 71.5q-4 4 -3.5 6t4.5 6l19 20q4 4 10 -2
q30 -26 58.5 -45t61.5 -29t78 -10q75 0 127.5 27t80.5 75t28 110q0 65 -27 105t-71 58.5t-94 18.5q-64 0 -113.5 -24t-85.5 -47q-7 -4 -8 -3t-6 4l-22 14q-8 5 -7 5t2 11l27 350q0 6 1.5 7t11.5 1h397z" />
    <glyph glyph-name="six" unicode="6" horiz-adv-x="646" 
d="M368 752q30 0 54 -5.5t44 -15t37.5 -23t32.5 -30.5q2 -2 3.5 -5t-3.5 -6l-24 -17q-3 -2 -6.5 -1t-6.5 5q-23 26 -54 41t-76 15q-86 0 -140 -41.5t-79 -112.5t-25 -159q0 -16 2.5 -21t12.5 1q42 21 91.5 40t115.5 19q77 0 129.5 -28.5t79 -77.5t26.5 -110
q0 -69 -32.5 -121t-86.5 -80.5t-120 -28.5q-82 0 -141 43.5t-91 126.5t-32 203q0 121 34 208t98.5 134t156.5 47v0zM351 394q-30 0 -67.5 -7t-72.5 -18.5t-60 -27.5q-14 -10 -19 -19.5t-5 -29.5q0 -38 13 -82.5t39.5 -85t68 -66.5t98.5 -26q55 0 97.5 25t67.5 67.5t25 94.5
q0 47 -21.5 87t-63 64t-100.5 24v0z" />
    <glyph glyph-name="seven" unicode="7" horiz-adv-x="587" 
d="M529 742q4 0 5.5 -2t1.5 -4v-24q0 -7 -1.5 -11.5t-6.5 -12.5q-42 -62 -82.5 -136t-76 -151.5t-64 -150.5t-48 -134t-27.5 -102q-2 -14 -11 -14h-29q-12 0 -9 13q13 56 38 133t62.5 167t86.5 186t109 189q4 5 3 8.5t-9 3.5h-419q-5 0 -5 7l3 28q1 7 10 7h469z" />
    <glyph glyph-name="eight" unicode="8" horiz-adv-x="659" 
d="M331 752q69 0 119.5 -25t78.5 -70.5t28 -107.5q0 -49 -24 -88t-80 -82q-14 -10 -1 -14q44 -13 74.5 -38.5t47 -60.5t16.5 -78q0 -59 -32.5 -104t-91 -69.5t-137.5 -24.5q-80 0 -137.5 23.5t-88 67t-30.5 104.5q0 55 27.5 99t86.5 84q14 9 14 13.5t-14 11.5
q-30 15 -51 37.5t-32 51.5t-11 64q0 59 31 105.5t85 73.5t122 27v0zM331 710q-54 0 -97.5 -21.5t-69 -58.5t-25.5 -84q0 -110 124 -136l117 -25q15 -3 36.5 10t43.5 37.5t36.5 56t14.5 65.5q0 71 -49 113.5t-131 42.5v0zM330 32q98 0 156 43t58 116q0 56 -29.5 89.5
t-91.5 46.5l-152 34q-15 3 -40 -8.5t-50.5 -35.5t-43.5 -57.5t-18 -73.5q0 -73 55.5 -113.5t155.5 -40.5v0z" />
    <glyph glyph-name="nine" unicode="9" horiz-adv-x="641" 
d="M279 -10q-31 0 -57 5.5t-47.5 15t-39.5 23.5t-34 30q-2 2 -3 5t3 6l24 17q3 2 6.5 1t6.5 -5q23 -26 57 -41t84 -15q84 0 136 41.5t76.5 112.5t24.5 159q0 17 -2 21.5t-13 -1.5q-40 -21 -88.5 -40t-114.5 -19q-75 0 -127 28.5t-79 77.5t-27 110q0 70 32 121.5t86.5 80
t120.5 28.5q80 0 138 -43.5t89 -126.5t31 -203q0 -121 -33.5 -208t-96.5 -134t-153 -47v0zM293 348q33 0 69.5 7.5t71 21.5t58.5 31q14 10 19 19.5t5 29.5q0 37 -12.5 80.5t-38.5 83t-67 64.5t-97 25q-54 0 -97 -25t-68 -67t-25 -94q0 -47 22 -87.5t62.5 -64.5t97.5 -24v0z
" />
    <glyph glyph-name="colon" unicode=":" horiz-adv-x="182" 
d="M122 432q0 -11 -13 -11h-39q-10 0 -10 10v60q0 9 7 9h48q7 0 7 -8v-60zM122 14q0 -11 -13 -11h-39q-10 0 -10 10v60q0 9 7 9h48q7 0 7 -8v-60z" />
    <glyph glyph-name="semicolon" unicode=";" horiz-adv-x="210" 
d="M50 -134q-3 0 -4 2.5t1 7.5l43 114q4 10 -8 10h-9q-8 0 -8 7v66q0 6 6 6h50q6 0 6 -6v-57q0 -6 -2 -12l-57 -132q-1 -3 -3.5 -4.5t-7.5 -1.5h-7v0zM70 421q-10 0 -10 10v60q0 9 7 9h48q7 0 7 -8v-60q0 -11 -13 -11h-39v0z" />
    <glyph glyph-name="less" unicode="&#x3c;" horiz-adv-x="523" 
d="M452 195q0 -8 -4.5 -11t-11.5 0l-368 146q-4 2 -6 4t-2 6v35q0 5 2 7t6 3l368 148q9 4 13 1.5t4 -10.5v-26q0 -7 -13 -13l-319 -127l318 -128q7 -3 10 -6t3 -8v-21z" />
    <glyph glyph-name="equal" unicode="=" horiz-adv-x="541" 
d="M471 462q0 -8 -10 -8l-383 -1q-4 0 -6 1.5t-2 5.5v24q0 7 5 7l389 1q7 0 7 -6v-24zM471 242q0 -8 -10 -8l-383 -1q-4 0 -6 1.5t-2 5.5v24q0 7 5 7l389 1q7 0 7 -6v-24z" />
    <glyph glyph-name="greater" unicode="&#x3e;" horiz-adv-x="523" 
d="M71 216q0 5 3 8t10 6l318 128l-319 127q-13 6 -13 13v26q0 8 4 10.5t13 -1.5l368 -148q4 -1 6 -3t2 -7v-35q0 -4 -2 -6t-6 -4l-368 -146q-7 -3 -11.5 0t-4.5 11v21v0z" />
    <glyph glyph-name="question" unicode="?" horiz-adv-x="514" 
d="M275 11q0 -11 -13 -11h-39q-5 0 -7.5 2.5t-2.5 7.5v60q0 9 7 9h48q7 0 7 -8v-60zM44 621q-3 2 -3.5 4t0.5 4q32 56 92.5 89.5t131.5 33.5q65 0 112 -22.5t73 -63t26 -96.5q0 -53 -21.5 -93.5t-52.5 -75.5t-62.5 -70t-53 -76.5t-21.5 -96.5q0 -3 -2 -5.5t-5 -2.5h-27
q-8 0 -8 9q0 59 21 103t51.5 80t61.5 70t52 71.5t21 86.5q0 65 -45 102.5t-120 37.5q-38 0 -76 -13.5t-66.5 -36.5t-40.5 -50q-1 -2 -2.5 -3t-5.5 0z" />
    <glyph glyph-name="at" unicode="@" horiz-adv-x="834" 
d="M650 -46q-46 -32 -100 -49.5t-113 -17.5q-90 0 -161.5 29t-121 80.5t-75.5 119.5t-26 145q0 81 28.5 153t81.5 128t125.5 87.5t160.5 31.5q63 0 125 -18.5t112.5 -58t80.5 -100t30 -144.5q0 -76 -25.5 -134.5t-68.5 -91.5t-97 -33q-36 0 -57 12t-28 45q-1 8 -3.5 8
t-7.5 -6q-22 -31 -56 -52t-87 -21q-35 0 -65.5 21.5t-49.5 61.5t-19 93q0 65 24.5 117.5t67 83.5t96.5 31q41 0 72 -19.5t48 -52.5q1 -1 3 -1t3 4l10 38q1 5 7 5h29q8 0 6 -6l-38 -229q-8 -50 3.5 -70t42.5 -20q39 0 70.5 26t50.5 73.5t19 110.5q0 76 -26.5 130t-70.5 88
t-97 50t-105 16q-79 0 -143 -28.5t-109.5 -78t-69.5 -114.5t-24 -139q0 -64 21.5 -123t64.5 -105t108.5 -72.5t152.5 -26.5q43 0 73.5 8t54.5 22t49 30q12 8 19 -1l12 -16q5 -7 1.5 -12t-8.5 -8v0zM283 244q0 -63 24 -98t65 -35q36 0 67.5 21t53.5 56t29 78q9 57 -4.5 93.5
t-39.5 54t-55 17.5q-43 0 -74.5 -25.5t-48.5 -67.5t-17 -94v0z" />
    <glyph glyph-name="A" unicode="A" horiz-adv-x="700" 
d="M60 0q-4 0 -6 2.5t-1 6.5l265 722q2 6 5.5 8.5t10.5 2.5h33q15 0 18 -10l262 -722q2 -4 -0.5 -7t-7.5 -3h-24q-10 0 -13 8l-81 223q-1 4 -3 5.5t-7 1.5h-322q-7 0 -10 -7l-83 -224q-1 -4 -3.5 -5.5t-7.5 -1.5h-25v0zM494 278q10 0 7 10l-143 390q-4 10 -7.5 10t-7.5 -11
l-145 -391q-3 -8 5 -8h291z" />
    <glyph glyph-name="B" unicode="B" horiz-adv-x="684" 
d="M122 0q-4 0 -6 2t-2 6v724q0 6 2 8t7 2h205q125 0 194 -49t69 -142q0 -63 -32.5 -106t-98.5 -63q-4 -1 -4 -4.5t4 -4.5q68 -13 108.5 -57t40.5 -119q0 -99 -73.5 -148t-204.5 -49h-209v0zM326 40q119 0 177 34.5t58 116.5q0 60 -29 96t-79 52t-113 16h-169q-11 0 -11 -9
v-296q0 -10 7 -10h159zM340 395q35 0 70.5 6.5t65.5 23t48.5 46t18.5 75.5q0 81 -59 118.5t-160 37.5h-155q-9 0 -9 -8v-289q0 -10 7 -10h173z" />
    <glyph glyph-name="C" unicode="C" horiz-adv-x="695" 
d="M375 752q46 0 89.5 -16t79 -43.5t58.5 -62.5t27 -74q1 -4 0 -5.5t-5 -1.5l-36 -4q-3 -1 -4.5 1t-2.5 6q-17 71 -72.5 114.5t-131.5 43.5q-122 0 -186.5 -87.5t-64.5 -254.5q0 -161 64.5 -248.5t194.5 -87.5q78 0 129 37.5t81 116.5q2 3 6 2l34 -10q2 -1 2.5 -2.5
t-0.5 -4.5q-10 -33 -28 -61t-42 -50t-53.5 -38t-63 -24t-69.5 -8q-96 0 -164 44.5t-103.5 129t-35.5 204.5q0 121 35.5 207t102 131.5t159.5 45.5v0z" />
    <glyph glyph-name="D" unicode="D" horiz-adv-x="703" 
d="M124 742h17.5t37.5 -0.5t38.5 -0.5h21.5q140 -1 225 -41t123.5 -119.5t38.5 -201.5q0 -132 -43 -216t-132 -123.5t-226 -39.5h-102q-9 0 -9 10v722q0 5 2.5 7.5t7.5 2.5v0zM170 701q-10 0 -10 -14v-638q0 -9 11 -9h50q129 0 207.5 32.5t114 105.5t35.5 193
q0 131 -38.5 202.5t-117 99.5t-199.5 28h-53v0z" />
    <glyph glyph-name="E" unicode="E" horiz-adv-x="612" 
d="M114 732q0 10 9 10h415q7 0 7 -7v-26q0 -7 -8 -7h-368q-9 0 -9 -9v-291q0 -7 9 -7h289q7 0 7 -7v-26q0 -4 -1.5 -5.5t-6.5 -1.5h-288q-9 0 -9 -9v-297q0 -9 9 -9h383q8 0 8 -7v-26q0 -4 -1.5 -5.5t-5.5 -1.5h-430q-9 0 -9 10v722v0z" />
    <glyph glyph-name="F" unicode="F" horiz-adv-x="583" 
d="M114 732q0 10 9 10h405q7 0 7 -7v-26q0 -7 -8 -7h-358q-9 0 -9 -9v-304q0 -7 9 -7h299q7 0 7 -7v-26q0 -7 -8 -7h-298q-9 0 -9 -9v-326q0 -7 -7 -7h-30q-5 0 -7 2t-2 8v722v0z" />
    <glyph glyph-name="G" unicode="G" horiz-adv-x="730" 
d="M373 -10q-92 0 -158.5 44.5t-101.5 129t-35 204.5q0 123 36.5 209t103 130.5t156.5 44.5q62 0 117.5 -26.5t93 -70.5t43.5 -96q0 -3 -0.5 -5t-4.5 -3l-35 -6q-2 -1 -4 0.5t-3 5.5q-8 45 -37 81t-73 57t-97 21q-80 0 -135.5 -40t-84 -115.5t-28.5 -180.5q0 -110 28 -186.5
t83.5 -116t136.5 -39.5q59 0 102.5 21t71.5 55t42 73t14 74v79q0 8 -11 8h-189q-4 0 -5.5 1.5t-1.5 4.5v23q0 6 5 6h236q3 0 4.5 -1.5t1.5 -4.5v-360q0 -7 -2.5 -9t-7.5 -2h-17q-6 0 -9.5 1t-3.5 8v106q0 5 -2.5 5t-5.5 -5q-19 -35 -50 -63.5t-74 -45t-99 -16.5v0z" />
    <glyph glyph-name="H" unicode="H" horiz-adv-x="725" 
d="M166 366q-6 0 -6 -6v-351q0 -9 -10 -9h-27q-5 0 -7 2.5t-2 7.5v722q0 10 9 10h28q9 0 9 -10v-317q0 -9 9 -9h388q8 0 8 8v319q0 9 8 9h29q9 0 9 -10v-722q0 -5 -2 -7.5t-7 -2.5h-27q-10 0 -10 9v350q0 7 -7 7h-392z" />
    <glyph glyph-name="I" unicode="I" horiz-adv-x="274" 
d="M151 742q9 0 9 -10v-720q0 -7 -2 -9.5t-10 -2.5h-23q-7 0 -9 2t-2 8v722q0 10 9 10h28z" />
    <glyph glyph-name="J" unicode="J" horiz-adv-x="399" 
d="M289 144q0 -71 -29 -112.5t-102 -41.5q-41 0 -71.5 10.5t-35.5 14.5q-2 2 -3.5 4t-0.5 5l9 31q1 7 8 4q16 -7 35.5 -16t56.5 -9q49 0 68 25t19 95v579q0 9 8 9h30q8 0 8 -10v-588v0z" />
    <glyph glyph-name="K" unicode="K" horiz-adv-x="674" 
d="M623 7q2 -3 1 -5t-4 -2h-39q-8 0 -11 5l-258 404q-5 7 -12 0l-132 -146q-8 -8 -8 -17v-237q0 -9 -10 -9h-26q-5 0 -7.5 2t-2.5 7v725q0 8 8 8h30q8 0 8 -8v-411q0 -4 1.5 -4.5t5.5 3.5l383 416q2 2 4.5 3t6.5 1h38q5 0 5.5 -2.5t-2.5 -5.5l-259 -283q-2 -2 0 -6l280 -438
v0z" />
    <glyph glyph-name="L" unicode="L" horiz-adv-x="587" 
d="M114 732q0 10 9 10h28q9 0 9 -10v-683q0 -9 9 -9h363q8 0 8 -7v-26q0 -4 -1.5 -5.5t-5.5 -1.5h-410q-5 0 -7 2.5t-2 7.5v722v0z" />
    <glyph glyph-name="M" unicode="M" horiz-adv-x="879" 
d="M123 0q-9 0 -9 10v722q0 10 9 10h26q6 0 9 -1.5t4 -6.5l267 -670q4 -10 8 -9.5t8 10.5l271 670q3 7 11 7h29q9 0 9 -10v-722q0 -10 -9 -10h-27q-5 0 -7.5 2t-2.5 7v618q0 4 -1 3t-2 -3l-249 -616q-4 -11 -16 -11h-27q-15 0 -19 10l-244 612q-1 2 -2 2.5t-1 -2.5v-613
q0 -4 -2.5 -6.5t-7.5 -2.5h-25v0z" />
    <glyph glyph-name="N" unicode="N" horiz-adv-x="755" 
d="M632 742q9 0 9 -10v-722q0 -5 -2 -7.5t-7 -2.5h-15q-6 0 -10.5 0.5t-8.5 5.5l-428 631q-5 8 -8.5 7t-3.5 -7v-628q0 -9 -10 -9h-25q-9 0 -9 10v722q0 10 9 10h18q6 0 9 -1t6 -6l427 -630q5 -7 9.5 -4.5t4.5 6.5v626q0 9 8 9h27z" />
    <glyph glyph-name="O" unicode="O" horiz-adv-x="758" 
d="M379 -10q-94 0 -161.5 43t-103.5 127t-36 207q0 125 36.5 211t104 130t161.5 44t161 -44t103 -129t36 -210q0 -123 -36 -207.5t-103.5 -128t-161.5 -43.5v0zM381 32q124 0 187.5 83.5t63.5 253.5q0 172 -64.5 256.5t-187.5 84.5q-124 0 -189 -85t-65 -256
q0 -169 65.5 -253t189.5 -84v0z" />
    <glyph glyph-name="P" unicode="P" horiz-adv-x="674" 
d="M611 535q0 -74 -33.5 -120t-92 -67t-134.5 -21h-183q-8 0 -8 -9v-309q0 -9 -8 -9h-30q-4 0 -6 2t-2 6v724q0 10 9 10h222q78 0 138 -20.5t94 -66t34 -120.5v0zM563 538q0 62 -26.5 98t-75.5 51t-117 15h-175q-9 0 -9 -8v-317q0 -10 7 -10h184q96 0 154 39.5t58 131.5v0z
" />
    <glyph glyph-name="Q" unicode="Q" horiz-adv-x="758" 
d="M78 369q0 126 36 211t103.5 128.5t161.5 43.5t161.5 -43.5t103.5 -128.5t36 -211q0 -135 -40 -217.5t-113 -126.5q-6 -4 -6 -9q0 -13 20 -34t52.5 -39t69.5 -23q5 -1 6 -3t1 -4v-22q0 -8 -4.5 -10.5t-15.5 -2.5q-33 0 -79.5 24.5t-95.5 92.5q-5 7 -15 4q-19 -4 -40 -6.5
t-41 -2.5q-92 0 -159.5 42t-104.5 126.5t-37 210.5v0zM126 367q0 -169 65 -252t188 -83t188 83t65 254q0 167 -64 254t-189 87t-189 -87t-64 -256v0z" />
    <glyph glyph-name="R" unicode="R" horiz-adv-x="679" 
d="M599 14q2 -5 -0.5 -9.5t-7.5 -4.5h-28q-7 0 -12 9l-142 336q-4 10 -21 10h-216q-7 0 -9.5 -3t-2.5 -8v-333q0 -11 -10 -11h-26q-6 0 -8 2.5t-2 6.5v723q0 10 9 10h258q108 0 168 -46t60 -138q0 -61 -23.5 -100.5t-58.5 -61t-70 -30.5q-6 -1 -4 -7l146 -345v0zM346 395
q107 0 161 36t54 120q0 77 -45 114t-136 37h-209q-11 0 -11 -8v-290q0 -9 7 -9h179v0z" />
    <glyph glyph-name="S" unicode="S" horiz-adv-x="618" 
d="M500 627q-30 35 -76 59t-109 24q-82 0 -132.5 -39.5t-50.5 -113.5q0 -19 8 -44t34.5 -49.5t79.5 -44.5l138 -50q89 -32 125 -78t36 -109q0 -61 -29.5 -104t-84 -65.5t-130.5 -22.5q-55 0 -100.5 13.5t-81.5 40.5t-66 69q-4 5 -2.5 10t8.5 10l11 8q8 5 12 5t8 -5
q28 -36 56 -60.5t64.5 -36.5t90.5 -12q89 0 143.5 34t54.5 114q0 30 -10.5 54t-38.5 45.5t-83 42.5l-151 58q-54 21 -84 49.5t-42 61.5t-12 65q0 63 29.5 106.5t81.5 66.5t121 23q47 0 85 -11.5t71 -33t61 -51.5q3 -3 4 -6.5t-4 -7.5l-22 -20q-4 -3 -6 -1.5t-7 6.5v0z" />
    <glyph glyph-name="T" unicode="T" horiz-adv-x="623" 
d="M47 735q0 4 1.5 5.5t5.5 1.5h515q4 0 5.5 -1.5t1.5 -5.5v-26q0 -7 -8 -7h-213q-10 0 -10 -9v-683q0 -10 -9 -10h-27q-10 0 -10 10v683q0 9 -10 9h-234q-8 0 -8 7v26z" />
    <glyph glyph-name="U" unicode="U" horiz-adv-x="702" 
d="M598 230q0 -80 -27 -133.5t-82 -80t-138 -26.5q-84 0 -138.5 27.5t-81.5 84t-27 143.5v486q0 11 8 11h28q10 0 10 -10v-506q0 -97 50.5 -145.5t152.5 -48.5q69 0 114.5 22t68 65.5t22.5 109.5v504q0 9 8 9h24q8 0 8 -9v-503v0z" />
    <glyph glyph-name="V" unicode="V" horiz-adv-x="690" 
d="M630 742q5 0 7 -2.5t0 -6.5l-262 -722q-4 -11 -16 -11h-32q-16 0 -19 10l-255 722q-1 5 1 7.5t7 2.5h23q10 0 13 -8l237 -670q8 -21 16 1l244 670q3 7 11 7h25v0z" />
    <glyph glyph-name="W" unicode="W" horiz-adv-x="1021" 
d="M960 742q5 0 6.5 -2.5t0.5 -6.5l-207 -722q-3 -11 -16 -11h-32q-15 0 -18 10l-181 648q-1 3 -2 3t-2 -3l-185 -647q-3 -11 -16 -11h-32q-15 0 -18 10l-202 722q-1 5 1 7.5t7 2.5h25q6 0 8.5 -1.5t3.5 -6.5l185 -663q3 -10 6 -9.5t6 10.5l189 663q1 2 3.5 4.5t9.5 2.5h25
q6 0 8.5 -1.5t3.5 -6.5l185 -663q3 -10 6 -9.5t6 10.5l189 663q1 4 4.5 5.5t7.5 1.5h25v0z" />
    <glyph glyph-name="X" unicode="X" horiz-adv-x="662" 
d="M607 10q5 -6 3 -8t-7 -2h-36q-4 0 -7 4l-220 323q-5 8 -9 8t-12 -11l-217 -320q-1 -2 -3.5 -3t-4.5 -1h-36q-4 0 -5.5 2t2.5 8l242 360q4 5 3.5 10t-4.5 11l-232 343q-1 2 -0.5 5t3.5 3h39q5 0 6.5 -1t2.5 -3l207 -308q5 -6 8.5 -6t8.5 7l207 307q2 2 3.5 3t4.5 1h41
q3 0 3.5 -2t-1.5 -4l-234 -346q-3 -4 -3.5 -7.5t2.5 -8.5l245 -364v0z" />
    <glyph glyph-name="Y" unicode="Y" horiz-adv-x="638" 
d="M582 742q5 0 7 -3t-1 -8l-239 -405q-3 -4 -3.5 -8t-0.5 -12v-293q0 -13 -15 -13h-19q-7 0 -9.5 3t-2.5 8v284q0 8 -1 11.5t-4 8.5l-244 415q-3 5 -1 8.5t9 3.5h23q7 0 10 -2t6 -7l210 -357q7 -12 12.5 -12t11.5 10l209 359q4 6 6.5 7.5t9.5 1.5h26v0z" />
    <glyph glyph-name="Z" unicode="Z" horiz-adv-x="600" 
d="M63 0q-4 0 -6 1.5t-2 5.5v15q0 5 1.5 8.5t5.5 8.5l420 656q4 7 -4 7h-406q-4 0 -5.5 1.5t-1.5 5.5v27q0 6 6 6h467q6 0 6 -6v-17q0 -4 -1.5 -6t-3.5 -6l-424 -659q-2 -4 -1.5 -6t3.5 -2h421q6 0 6 -5v-28q0 -3 -1.5 -5t-5.5 -2h-474v0z" />
    <glyph glyph-name="bracketleft" unicode="[" horiz-adv-x="268" 
d="M106 736q0 6 8 6h132q7 0 7 -5v-26q0 -6 -7 -6h-89q-7 0 -7 -8l-1 -819q0 -4 1 -5t5 -1h89q8 0 8 -8v-21q0 -8 -8 -8h-128q-9 0 -9 8l-1 893v0z" />
    <glyph glyph-name="backslash" unicode="\" horiz-adv-x="328" 
d="M276 -60q-4 0 -6.5 2t-4.5 6l-248 784q-3 10 5 10h29q7 0 8 -6l251 -791q2 -5 -5 -5h-29v0z" />
    <glyph glyph-name="bracketright" unicode="]" horiz-adv-x="268" 
d="M162 736v0l-1 -893q0 -8 -9 -8h-128q-8 0 -8 8v21q0 8 8 8h89q4 0 5 1t1 5l-1 819q0 8 -7 8h-89q-7 0 -7 6v26q0 5 7 5h132q8 0 8 -6z" />
    <glyph glyph-name="asciicircum" unicode="^" horiz-adv-x="476" 
d="M242 462q-2 5 -5 5t-5 -5l-125 -316q-1 -4 -3.5 -5.5t-6.5 -1.5h-31q-10 0 -5 10l142 355q9 23 21 31.5t24.5 1t22.5 -32.5l144 -358q3 -9 -6 -9h-30q-4 0 -7.5 2t-5.5 6z" />
    <glyph glyph-name="underscore" unicode="_" horiz-adv-x="501" 
d="M431 -93q0 -8 -10 -8l-343 -1q-4 0 -6 1.5t-2 5.5v26q0 7 5 7l349 1q7 0 7 -6v-26z" />
    <glyph glyph-name="grave" unicode="`" horiz-adv-x="272" 
d="M21 748q2 5 8 3l229 -91q6 -2 3 -10l-5 -15q-1 -4 -3.5 -5t-7.5 0l-227 74q-10 4 -7 12l10 32v0z" />
    <glyph glyph-name="a" unicode="a" horiz-adv-x="538" 
d="M408 72q-41 -41 -87.5 -61.5t-102.5 -20.5q-79 0 -124.5 39t-45.5 106q0 51 27.5 87t82.5 57.5t137 28.5l105 9q8 1 12.5 4.5t4.5 10.5v31q0 64 -40.5 101.5t-108.5 37.5q-52 0 -93 -23.5t-75 -68.5q-3 -4 -5 -5t-5 1l-24 15q-2 2 -2.5 4t2.5 6q32 47 82.5 78t121.5 31
q57 0 99 -20.5t65 -59.5t23 -93v-357q0 -6 -2.5 -8t-7.5 -2h-18q-4 0 -6.5 2t-2.5 7l-2 61q-2 12 -10 2v0zM417 266q0 16 -14 14l-89 -7q-59 -4 -101.5 -15t-69.5 -28t-40 -40t-13 -52q0 -52 36.5 -81t97.5 -29q37 0 72.5 13.5t63.5 35.5q28 23 42.5 47.5t14.5 46.5v95v0z
" />
    <glyph glyph-name="b" unicode="b" horiz-adv-x="592" 
d="M102 0q-6 0 -8.5 3t-2.5 10v719q0 10 9 10h23q8 0 8 -11v-253q0 -10 3 -10.5t10 5.5q5 5 25.5 21t57 31t89.5 15q77 0 124.5 -37t70 -99t22.5 -137q0 -128 -60 -202.5t-168 -74.5q-51 0 -85.5 15.5t-54 34.5t-25.5 27q-4 5 -7 4.5t-3 -7.5l-2 -51q0 -13 -15 -13h-11z
M131 177q0 -40 25 -74t64 -54.5t81 -20.5q52 0 95 25.5t68.5 78.5t25.5 135q0 107 -46 171t-135 64q-55 0 -101.5 -25.5t-76.5 -61.5v-238z" />
    <glyph glyph-name="c" unicode="c" horiz-adv-x="537" 
d="M296 540q45 0 80.5 -13t64 -37t51.5 -57q5 -7 0 -10l-24 -16q-5 -3 -11 4q-27 34 -52.5 53.5t-50.5 28.5t-53 9q-61 0 -107 -29.5t-71 -83t-25 -124.5t25 -124.5t70.5 -83t106.5 -29.5q51 0 92 24.5t74 75.5q3 5 5 5.5t5 -1.5l23 -15q5 -3 2 -10q-18 -29 -40.5 -51
t-48.5 -36.5t-55 -22t-61 -7.5q-71 0 -125.5 34.5t-84.5 96t-30 142.5t30.5 143.5t85 98t124.5 35.5v0z" />
    <glyph glyph-name="d" unicode="d" horiz-adv-x="592" 
d="M473 0q-5 0 -7.5 3t-2.5 8v51q0 8 -3 9t-9 -5q-8 -8 -28 -26.5t-53.5 -34t-81.5 -15.5q-64 0 -116.5 29.5t-83.5 88.5t-31 147q0 85 30 149t85 100t128 36q55 0 89.5 -18t57.5 -36q9 -7 11.5 -5t2.5 12v239q0 10 9 10h23q8 0 8 -9v-721q0 -7 -2.5 -9.5t-9.5 -2.5h-16v0z
M461 426q-37 36 -75.5 56t-84.5 20q-58 0 -104 -29t-72 -83.5t-26 -130.5q0 -79 27 -130.5t71.5 -76t95.5 -24.5q48 0 86 23t60 56t22 63v256v0z" />
    <glyph glyph-name="e" unicode="e" horiz-adv-x="577" 
d="M98 240q0 -56 27 -104.5t72.5 -78t101.5 -29.5q60 0 104 24t71 69q3 5 5.5 5.5t5.5 -1.5l23 -15q6 -4 1 -10q-23 -36 -54 -60.5t-70 -37t-86 -12.5q-72 0 -126.5 34t-85.5 95.5t-31 141.5q0 88 31.5 150t86.5 95.5t125 33.5q71 0 122 -31.5t79 -91t28 -143.5q0 -6 -1 -13
t-12 -7h-411q-3 0 -4.5 -4.5t-1.5 -9.5v0zM469 290q11 0 14 3t3 11q0 55 -23 100t-65 71.5t-100 26.5q-66 0 -110.5 -32t-66.5 -81t-22 -99h370z" />
    <glyph glyph-name="f" unicode="f" horiz-adv-x="364" 
d="M333 530q2 0 3.5 -1.5t1.5 -4.5v-23q0 -6 -6 -6h-133q-7 0 -7 -7v-477q0 -11 -9 -11h-23q-8 0 -8 10v478q0 7 -6 7h-114q-6 0 -6 6v23q0 3 1.5 4.5t4.5 1.5h113q7 0 7 7v81q0 62 26.5 93t86.5 31h72q6 0 6 -7v-21q0 -4 -2 -5.5t-6 -1.5h-80q-37 0 -50 -21t-13 -59v-90
q0 -7 7 -7h134v0z" />
    <glyph glyph-name="g" unicode="g" horiz-adv-x="582" 
d="M533 530q11 0 15 -3t4 -10v-13q0 -7 -3 -11t-14 -5q-19 -1 -31 -4t-24 -10q-24 -13 -20 -23q5 -13 13 -31.5t8 -50.5q0 -44 -21 -80.5t-65.5 -58t-115.5 -21.5q-57 0 -89.5 -7t-45.5 -18.5t-13 -23.5q0 -18 25.5 -26t83.5 -11l120 -7q80 -4 117 -40t37 -95
q0 -75 -63 -115.5t-176 -40.5q-115 0 -177.5 39t-62.5 109q0 36 22.5 67.5t69.5 57.5q11 6 0 11q-20 9 -29 21.5t-9 28.5q0 11 6.5 23t21 22.5t39.5 18.5q6 2 5 5.5t-6 6.5q-41 23 -60 55.5t-19 78.5q0 80 55.5 124.5t154.5 44.5q50 0 84 -11.5t59 -33.5q5 -4 9 -4.5t9 3.5
q10 8 23 16.5t29 15t34 6.5v0zM280 247q81 0 121 31.5t40 92.5q0 62 -40.5 95.5t-120.5 33.5q-78 0 -121 -33.5t-43 -95.5q0 -61 42.5 -92.5t121.5 -31.5v0zM183 86q-16 1 -41 -12.5t-45 -38.5t-20 -58q0 -36 24.5 -61.5t71 -39t111.5 -13.5q92 0 140 28.5t48 89.5
q0 41 -25 65.5t-88 28.5z" />
    <glyph glyph-name="h" unicode="h" horiz-adv-x="576" 
d="M100 0q-9 0 -9 9v724q0 9 8 9h21q8 0 8 -8v-274q0 -5 2 -6t6 3q38 27 68 45.5t60 28t66 9.5q80 0 121 -41t41 -106v-383q0 -10 -9 -10h-22q-4 0 -6.5 2.5t-2.5 6.5v368q0 59 -29 92t-94 33q-35 0 -65 -10.5t-61.5 -30.5t-71.5 -51v-401q0 -9 -9 -9h-22v0z" />
    <glyph glyph-name="i" unicode="i" horiz-adv-x="222" 
d="M131 12q0 -7 -2 -9.5t-10 -2.5h-17q-7 0 -9 2t-2 8v510q0 10 9 10h22q9 0 9 -10v-508zM136 660q0 -16 -12 -16h-27q-7 0 -9 4t-2 10v71q0 13 12 13h26q12 0 12 -13v-69z" />
    <glyph glyph-name="j" unicode="j" horiz-adv-x="222" 
d="M131 -51q0 -61 -22.5 -90t-90.5 -29q-44 0 -54.5 1.5t-10.5 7.5v21q0 3 1.5 4.5t4.5 1.5l58 1q40 1 57 20t17 67v566q0 10 10 10h22q8 0 8 -10v-571v0zM136 660q0 -16 -12 -16h-27q-11 0 -11 14v71q0 13 12 13h26q12 0 12 -13v-69z" />
    <glyph glyph-name="k" unicode="k" horiz-adv-x="538" 
d="M504 12q4 -6 3 -9t-8 -3h-31q-4 0 -7 1.5t-5 5.5l-182 292q-1 2 -2.5 3t-5.5 -3l-128 -130q-4 -4 -5.5 -8t-1.5 -9v-140q0 -7 -2 -9.5t-10 -2.5h-17q-7 0 -9 2t-2 8v722q0 10 9 10h22q9 0 9 -10v-498q0 -9 2 -10t8 5l284 291q9 10 17 10h32q8 0 8.5 -4t-6.5 -11
l-169 -173q-2 -2 -2.5 -4.5t1.5 -6.5l198 -319v0z" />
    <glyph glyph-name="l" unicode="l" horiz-adv-x="222" 
d="M131 12q0 -7 -2 -9.5t-10 -2.5h-17q-11 0 -11 10v722q0 10 9 10h22q9 0 9 -10v-720z" />
    <glyph glyph-name="m" unicode="m" horiz-adv-x="897" 
d="M100 0q-9 0 -9 9v512q0 9 8 9h21q8 0 8 -8v-62q0 -5 2 -6t6 3q36 27 64.5 45.5t57 28t62.5 9.5q63 0 97.5 -28t44.5 -58q2 -4 6.5 -2.5t8.5 5.5q36 27 64.5 45.5t57 28t62.5 9.5q75 0 113.5 -41t38.5 -106v-383q0 -10 -9 -10h-22q-4 0 -6.5 2.5t-2.5 6.5v368
q0 59 -26.5 92t-86.5 33q-36 0 -68 -13t-57.5 -31.5t-45.5 -34.5q-9 -7 -13 -13t-4 -17v-383q0 -10 -9 -10h-22q-4 0 -6.5 2.5t-2.5 6.5v368q0 59 -26.5 92t-86.5 33q-50 0 -90.5 -23t-97.5 -69v-401q0 -9 -9 -9h-22v0z" />
    <glyph glyph-name="n" unicode="n" horiz-adv-x="576" 
d="M100 0q-9 0 -9 9v512q0 9 8 9h21q8 0 8 -8v-62q0 -5 2 -6t6 3q38 27 68 45.5t60 28t66 9.5q80 0 121 -41t41 -106v-383q0 -10 -9 -10h-22q-4 0 -6.5 2.5t-2.5 6.5v368q0 59 -29 92t-94 33q-35 0 -65 -10.5t-61.5 -30.5t-71.5 -51v-401q0 -9 -9 -9h-22v0z" />
    <glyph glyph-name="o" unicode="o" horiz-adv-x="598" 
d="M299 -10q-73 0 -128 34.5t-85 96t-30 141.5q0 82 30.5 144.5t85.5 98t128 35.5t127 -35t84.5 -97.5t30.5 -143.5t-30.5 -142.5t-85 -96.5t-127.5 -35v0zM301 28q62 0 106.5 29.5t68.5 82.5t24 124t-24.5 124.5t-69.5 83.5t-106 30t-106.5 -30t-70.5 -83.5t-25 -124.5
q0 -70 25 -123.5t70.5 -83t107.5 -29.5v0z" />
    <glyph glyph-name="p" unicode="p" horiz-adv-x="590" 
d="M119 530q10 0 10 -11v-51q0 -8 3 -9t9 5q8 9 26.5 27t51.5 33.5t85 15.5q64 0 115.5 -29.5t82 -88t30.5 -147.5q0 -85 -29.5 -149t-83 -100t-127.5 -36q-51 0 -88 16t-59 34q-8 7 -11 5t-3 -12v-188q0 -10 -9 -10h-23q-8 0 -8 9v674q0 7 2.5 9.5t9.5 2.5h16v0zM131 104
q37 -35 75.5 -55.5t84.5 -20.5q58 0 102.5 29t70.5 83.5t26 130.5q0 80 -27 131t-70.5 75.5t-93.5 24.5t-88 -22t-59 -54t-21 -62v-260v0z" />
    <glyph glyph-name="q" unicode="q" horiz-adv-x="593" 
d="M491 530q6 0 8.5 -2.5t2.5 -10.5v-672q0 -10 -9 -10h-23q-8 0 -8 11v188q0 11 -2 13t-12 -6q-26 -20 -66.5 -35.5t-90.5 -15.5q-72 0 -124.5 35t-80.5 97.5t-28 145.5q0 82 27 143t79 95t125 34q56 0 89 -14t50.5 -30t25.5 -23q9 -9 10 3l4 41q1 8 3.5 10.5t11.5 2.5h8z
M462 353q0 38 -22 72t-60 55.5t-87 21.5q-52 0 -96 -25.5t-70.5 -77.5t-26.5 -130q0 -75 25.5 -129t69.5 -83t101 -29q47 0 91 20.5t75 56.5v248z" />
    <glyph glyph-name="r" unicode="r" horiz-adv-x="356" 
d="M100 0q-4 0 -6.5 2.5t-2.5 6.5v512q0 9 8 9h21q8 0 8 -8v-68q0 -5 2 -6t6 3q30 33 56 52.5t51 28t52 8.5q35 0 35 -10v-26q0 -5 -5 -5q-4 0 -10.5 0.5t-19.5 0.5q-24 0 -52.5 -11.5t-53.5 -31t-41.5 -43.5t-16.5 -49v-356q0 -9 -9 -9h-22v0z" />
    <glyph glyph-name="s" unicode="s" horiz-adv-x="501" 
d="M404 426q-23 35 -63.5 55.5t-95.5 20.5q-64 0 -106 -28t-42 -76q0 -25 19.5 -48.5t77.5 -42.5l135 -44q59 -19 87.5 -51t28.5 -75t-26.5 -76t-72.5 -52t-103 -19q-73 0 -130.5 31t-82.5 80q-1 3 -1 5.5t3 4.5l22 14q2 2 5 1.5t4 -2.5q18 -30 44 -51.5t60 -33t76 -11.5
q45 0 81.5 13t57.5 36.5t21 54.5q0 34 -27.5 58t-90.5 43l-103 32q-75 23 -101 55.5t-26 69.5q0 46 25 79.5t68.5 52t97.5 18.5q62 0 112 -24t79 -68q2 -3 1.5 -4.5t-2.5 -3.5l-23 -15q-2 -1 -4.5 -1t-4.5 2v0z" />
    <glyph glyph-name="t" unicode="t" horiz-adv-x="358" 
d="M179 495q-7 0 -7 -7v-364q0 -55 16 -72t46 -17h79q4 0 6 -1.5t2 -5.5v-17q0 -5 -6 -7q-6 -1 -22.5 -2t-32.5 -1.5t-23 -0.5q-60 0 -82.5 27.5t-22.5 91.5v369q0 7 -7 7h-93q-6 0 -6 6v23q0 6 6 6h94q6 0 6 7l9 163q0 10 8 10h14q9 0 9 -11v-162q0 -7 7 -7h139q6 0 6 -6
v-23q0 -6 -6 -6h-139z" />
    <glyph glyph-name="u" unicode="u" horiz-adv-x="571" 
d="M246 28q51 0 98 28t96 77v388q0 9 9 9h22q9 0 9 -9v-512q0 -9 -8 -9h-21q-8 0 -8 8v64q0 5 -1.5 6t-6.5 -3q-63 -50 -106 -67.5t-82 -17.5q-47 0 -84 18.5t-58.5 52t-21.5 76.5v383q0 10 9 10h22q9 0 9 -9v-362q0 -58 32.5 -94.5t90.5 -36.5v0z" />
    <glyph glyph-name="v" unicode="v" horiz-adv-x="530" 
d="M490 530q5 0 7 -2.5t0 -6.5l-206 -510q-4 -11 -18 -11h-14q-16 0 -20 10l-206 510q-1 5 1 7.5t7 2.5h22q5 0 8 -1.5t4 -6.5l183 -454q7 -19 16 1l183 454q2 4 4.5 5.5t6.5 1.5h22v0z" />
    <glyph glyph-name="w" unicode="w" horiz-adv-x="783" 
d="M738 530q5 0 7 -2.5t1 -6.5l-147 -510q-1 -6 -5.5 -8.5t-11.5 -2.5h-27q-15 0 -18 10l-140 436q-3 8 -5.5 8t-4.5 -8l-130 -435q-1 -6 -5 -8.5t-11 -2.5h-30q-15 0 -18 10l-156 510q-1 5 1 7.5t7 2.5h23q5 0 8 -1.5t4 -6.5l139 -455q3 -10 7 -9.5t7 10.5l138 456q2 4 4 5
t6 1h23q5 0 8 -1.5t4 -6.5l146 -455q3 -10 6.5 -9.5t6.5 10.5l133 455q2 4 5.5 5.5t7.5 1.5h17v0z" />
    <glyph glyph-name="x" unicode="x" horiz-adv-x="515" 
d="M478 12q5 -7 4 -9.5t-6 -2.5h-34q-9 0 -12 5l-165 224q-4 5 -7 5t-7 -5l-173 -224q-3 -5 -12 -5h-25q-6 0 -8.5 3t3.5 11l194 245q4 5 3.5 9t-3.5 8l-182 245q-2 3 -0.5 6t5.5 3h31q5 0 7 -1t4 -4l162 -215q7 -10 14 0l158 215q2 3 4.5 4t7.5 1h27q5 0 5.5 -2.5
t-1.5 -5.5l-182 -241q-4 -4 -3.5 -8.5t3.5 -8.5l188 -252v0z" />
    <glyph glyph-name="y" unicode="y" horiz-adv-x="508" 
d="M108 -165q-29 0 -46.5 1t-17.5 9v15q0 7 5.5 9t23.5 2h60q24 0 43.5 18t32.5 45t17 55t-4 48l-189 481q-2 5 -0.5 8.5t8.5 3.5h21q5 0 8 -1.5t4 -6.5l174 -444q4 -9 9 -8.5t9 12.5l170 441q2 4 4 5.5t6 1.5h22q5 0 7 -3t0 -6l-229 -598q-10 -25 -24 -42t-31.5 -27
t-38 -14.5t-44.5 -4.5v0z" />
    <glyph glyph-name="z" unicode="z" horiz-adv-x="458" 
d="M42 0q-4 0 -5 1.5t-1 5.5v23q0 5 2 9.5t6 10.5l321 437q6 8 -3 8h-297q-4 0 -5.5 1.5t-1.5 5.5v21q0 7 6 7h344q5 0 5 -6v-25q0 -6 -1.5 -11t-5.5 -10l-321 -436q-6 -7 2 -7h327q6 0 6 -6v-21q0 -4 -1.5 -6t-6.5 -2h-370v0z" />
    <glyph glyph-name="braceleft" unicode="{" horiz-adv-x="267" 
d="M116 652q0 26 11.5 46.5t35.5 32t61 11.5h21q7 0 7 -5v-26q0 -6 -7 -6h-21q-23 0 -37 -5.5t-20.5 -17t-6.5 -30.5v-233q0 -40 -12.5 -67.5t-34 -42t-47.5 -17.5q-6 -1 -6.5 -3.5t6.5 -3.5q26 -2 47 -15.5t34 -39.5t13 -68v-235q0 -28 14 -41.5t51 -13.5h19q8 0 8 -8v-21
q0 -8 -8 -8h-19q-39 0 -63 12.5t-35 33.5t-11 46v235q0 24 -12.5 49t-37.5 41.5t-62 16.5q-4 0 -4 6v27q0 6 4 6q56 1 84 33.5t28 77.5v233v0z" />
    <glyph glyph-name="bar" unicode="|" horiz-adv-x="267" 
d="M122 -165q-7 0 -7 5l-1 1000q0 3 1.5 5t4.5 2h25q8 0 8 -10v-994q0 -8 -7 -8h-24z" />
    <glyph glyph-name="braceright" unicode="}" horiz-adv-x="267" 
d="M151 652v0v-233q0 -45 28 -77.5t84 -33.5q4 0 4 -6v-27q0 -6 -4 -6q-37 0 -62 -16.5t-37.5 -41.5t-12.5 -49v-235q0 -25 -11 -46t-34.5 -33.5t-63.5 -12.5h-19q-8 0 -8 8v21q0 8 8 8h19q38 0 51.5 13.5t13.5 41.5v235q0 42 13 68t34.5 39.5t46.5 15.5q7 1 6.5 3.5
t-6.5 3.5q-26 3 -47.5 17.5t-34 42t-12.5 67.5v233q0 19 -6.5 30.5t-20.5 17t-37 5.5h-21q-7 0 -7 6v26q0 5 7 5h21q37 0 61 -11.5t35.5 -32t11.5 -46.5z" />
    <glyph glyph-name="asciitilde" unicode="~" horiz-adv-x="542" 
d="M473 372q-10 -11 -36 -24t-70 -13q-30 0 -53 6.5t-43 15.5t-41.5 15.5t-47.5 6.5q-37 0 -61 -12t-39 -26q-4 -4 -5.5 -3.5t-3.5 5.5l-7 19q-3 7 1 9q20 17 45.5 31t65.5 14q27 0 50 -7t45 -15.5t45 -15.5t50 -7q38 0 57 11.5t32 23.5q7 7 11 -2l8 -21q2 -3 1 -5t-4 -6v0z
" />
    <glyph glyph-name="uni00A0" unicode="&#xa0;" horiz-adv-x="220" 
 />
    <glyph glyph-name="exclamdown" unicode="&#xa1;" horiz-adv-x="232" 
d="M147 459q0 -8 -7 -8h-48q-7 0 -7 9v60q0 10 10 10h39q13 0 13 -11v-60v0zM143 -159q0 -2 -1.5 -4t-4.5 -2h-42q-2 0 -3.5 1.5t-1.5 5.5l10 533q0 4 2 5.5t6 1.5h14q5 0 7.5 -1.5t2.5 -6.5l11 -533v0z" />
    <glyph glyph-name="cent" unicode="&#xa2;" horiz-adv-x="558" 
d="M305 13q0 -13 -13 -13h-16q-12 0 -12 12v100q0 9 9 9h24q8 0 8 -8v-100v0zM305 634q0 -13 -13 -13h-16q-12 0 -12 12v100q0 9 9 9h24q8 0 8 -8v-100v0zM296 651q45 0 80.5 -13t64 -37t51.5 -57q5 -7 0 -10l-24 -16q-5 -3 -11 4q-27 34 -52.5 53.5t-50.5 28.5t-53 9
q-61 0 -107 -29.5t-71 -83t-25 -124.5t25 -124.5t70.5 -83t106.5 -29.5q51 0 92 24.5t74 75.5q3 5 5 5.5t5 -1.5l23 -15q5 -3 2 -10q-18 -29 -40.5 -51t-48.5 -36.5t-55 -22t-61 -7.5q-71 0 -125.5 34.5t-84.5 96t-30 142.5t30.5 143.5t85 98t124.5 35.5v0z" />
    <glyph glyph-name="sterling" unicode="&#xa3;" horiz-adv-x="597" 
d="M20 0q-8 0 -8 8v24q0 7 7 7h35q40 -1 69 41.5t29 133.5q0 27 -3.5 62t-9.5 77q-1 5 -5 5h-93q-5 0 -5 6v26q0 6 5 6h84q8 0 6 6l-18 71q-16 64 -7 115.5t37 88t69.5 56t89.5 19.5q42 0 78.5 -13.5t63 -35t35.5 -44.5q2 -4 -0.5 -5t-5.5 -3l-23 -11q-8 -3 -11 3
q-17 31 -49.5 48.5t-85.5 17.5q-44 0 -80 -16.5t-57.5 -48.5t-21.5 -77q0 -43 9.5 -90.5t18.5 -73.5q2 -6 6 -6h171q6 0 6 -5v-27q0 -6 -6 -6h-161q-8 0 -7 -7q6 -28 9.5 -57.5t3.5 -62.5q0 -56 -10.5 -94t-23 -60t-20.5 -31q-3 -4 -2.5 -5.5t4.5 -1.5h211q54 0 90 17t55 60
q4 7 10 5l22 -9q7 -4 5 -8q-22 -53 -69 -79t-113 -26h-334v0z" />
    <glyph glyph-name="currency" unicode="&#xa4;" horiz-adv-x="513" 
d="M255 204q-55 0 -98 31q-7 5 -12 -1l-40 -41q-9 -8 -19 0l-11 12q-8 9 0 17l40 40q6 7 0 16q-13 20 -20.5 44.5t-7.5 50.5q0 28 8.5 53t22.5 45q4 7 -1 12l-40 40q-8 10 0 19l11 11q9 9 17 0l41 -41q5 -5 12 -1q20 14 45 22t52 8q54 0 96 -31q8 -4 13 1l46 46q7 7 13 0
l17 -17q5 -6 0 -12l-47 -47q-5 -5 -1 -11q14 -20 22.5 -45t8.5 -52t-8 -51t-22 -44q-5 -8 1 -14l46 -45q6 -7 0 -13l-17 -17q-6 -6 -11 0l-45 45q-8 7 -13 3q-21 -16 -46 -24.5t-53 -8.5v0zM257 248q36 0 64 17.5t44.5 46t16.5 61.5t-16.5 61.5t-44.5 46t-64 17.5
q-35 0 -63.5 -17.5t-45 -46t-16.5 -61.5t16.5 -61.5t45 -46t63.5 -17.5v0z" />
    <glyph glyph-name="yen" unicode="&#xa5;" horiz-adv-x="578" 
d="M550 742q5 0 7 -3t-1 -8l-237 -397q-3 -4 -3.5 -8t-0.5 -12v-301q0 -13 -15 -13h-19q-7 0 -9.5 3t-2.5 8v288q0 8 -1 11.5t-4 8.5l-242 411q-3 5 -1 8.5t9 3.5h27q7 0 10 -2t6 -7l209 -358q5 -9 8.5 -9.5t8.5 8.5l213 359q4 6 6.5 7.5t9.5 1.5h22v0zM475 307q0 -8 -10 -8
l-348 -1q-4 0 -6 1.5t-2 5.5v24q0 7 5 7l354 1q7 0 7 -6v-24zM475 167q0 -8 -10 -8l-348 -1q-4 0 -6 1.5t-2 5.5v24q0 7 5 7l354 1q7 0 7 -6v-24z" />
    <glyph glyph-name="brokenbar" unicode="&#xa6;" horiz-adv-x="267" 
d="M122 443q-7 0 -7 5l-1 392q0 3 1.5 5t4.5 2h25q8 0 8 -10v-386q0 -8 -7 -8h-24zM122 -165q-7 0 -7 5l-1 392q0 3 1.5 5t4.5 2h25q8 0 8 -10v-386q0 -8 -7 -8h-24z" />
    <glyph glyph-name="section" unicode="&#xa7;" horiz-adv-x="477" 
d="M332 195q47 -26 73.5 -57.5t26.5 -73.5q0 -37 -23 -67t-64 -47.5t-95 -17.5q-61 0 -117.5 30t-85.5 82q-1 2 -1 4.5t1 3.5l24 15q3 2 5.5 1.5t3.5 -3.5q26 -41 71 -67t102 -26q58 0 96.5 24t38.5 68q0 31 -24.5 59t-93.5 55l-98 38q-61 24 -87.5 59t-26.5 78
q0 47 32.5 81.5t78.5 50.5q-46 23 -70 45.5t-32.5 45.5t-8.5 47q0 37 22.5 66t62.5 46t93 17q59 0 105.5 -27.5t71.5 -64.5q2 -2 1.5 -4t-2.5 -4l-20 -13q-4 -2 -7 -2t-5 2q-25 32 -60 52.5t-79 20.5q-66 0 -102.5 -24t-36.5 -63q0 -26 19.5 -52.5t81.5 -52.5l90 -37
q76 -31 107.5 -71t31.5 -88q0 -53 -31 -82.5t-69 -46.5v0zM272 222q30 -2 56 10.5t42.5 35.5t16.5 50q0 38 -18 66t-79 53l-65 26q-32 -3 -60.5 -19t-45.5 -39t-17 -49q0 -32 19 -55t80 -49l71 -30v0z" />
    <glyph glyph-name="dieresis" unicode="&#xa8;" horiz-adv-x="181" 
d="M60 656q0 -7 -2 -9.5t-10 -2.5h-27q-7 0 -9 2t-2 8v78q0 10 9 10h32q9 0 9 -10v-76zM171 656q0 -7 -2 -9.5t-10 -2.5h-27q-7 0 -9 2t-2 8v78q0 10 9 10h32q9 0 9 -10v-76z" />
    <glyph glyph-name="copyright" unicode="&#xa9;" horiz-adv-x="830" 
d="M415 -10q-79 0 -148 29.5t-121.5 81.5t-82 121.5t-29.5 148.5t29.5 148t82 121.5t121.5 82t148 29.5t148 -29.5t121.5 -82t82 -121.5t29.5 -148t-29.5 -148.5t-82 -121.5t-121.5 -81.5t-148 -29.5v0zM415 34q66 0 126.5 23.5t108 68t74.5 106.5t27 139q0 76 -27 138
t-74.5 107t-108 69t-126.5 24q-68 0 -128.5 -24t-107.5 -69t-73.5 -107t-26.5 -138q0 -77 26.5 -139t73.5 -106.5t107.5 -68t128.5 -23.5v0zM417 590q35 0 63 -12t51 -32.5t42 -46.5q2 -3 1 -4.5t-1 -2.5l-28 -17q-4 -2 -8 4q-24 36 -53.5 54t-62.5 18q-65 0 -106.5 -49
t-41.5 -127q0 -79 41.5 -128t105.5 -49q41 0 74 22t52 57q3 6 10 1l20 -12q4 -3 2 -8q-14 -23 -31.5 -41t-38 -31t-43.5 -20t-48 -7q-56 0 -98.5 27t-66 75t-23.5 112t24 112.5t66.5 76.5t97.5 28v0z" />
    <glyph glyph-name="ordfeminine" unicode="&#xaa;" horiz-adv-x="406" 
d="M191 749q59 0 91.5 -31t32.5 -84v-162q0 -15 1 -25t8 -28q2 -4 0 -6t-5 -2h-25q-4 0 -6 1t-3 5l-6 38q-1 6 -8 1q-26 -26 -52 -38.5t-60 -12.5q-52 0 -81.5 24t-29.5 67q0 48 40 75t119 34l61 6q11 2 11 9v18q0 77 -92 77q-31 0 -53.5 -10.5t-42.5 -39.5q-3 -4 -8 -2
l-24 10q-1 1 -1 3t1 4q17 32 51.5 50.5t80.5 18.5v0zM87 497q0 -27 22 -43.5t59 -16.5q46 0 81 32q14 13 22 26t8 26v49q0 10 -10 9l-50 -4q-68 -5 -100 -25t-32 -53v0z" />
    <glyph glyph-name="guillemotleft" unicode="&#xab;" horiz-adv-x="421" 
d="M370 83q4 -5 -7 -5h-12q-6 0 -8 4l-138 168q-6 7 -1 13l140 178q2 3 3.5 3.5t3.5 0.5h14q3 0 5 -2t0 -6l-114 -174q-4 -7 0 -12zM203 83q4 -5 -7 -5h-12q-6 0 -8 4l-138 168q-6 7 -1 13l140 178q2 3 3.5 3.5t3.5 0.5h14q3 0 5 -2t0 -6l-114 -174q-4 -7 0 -12z" />
    <glyph glyph-name="logicalnot" unicode="&#xac;" horiz-adv-x="541" 
d="M471 362q0 -8 -10 -8l-383 -1q-4 0 -6 1.5t-2 5.5v24q0 7 5 7l389 1q7 0 7 -6v-24zM471 222q0 -8 -7 -8h-23q-7 0 -7 5l-1 159q0 7 6 7h24q8 0 8 -10v-153z" />
    <glyph glyph-name="uni00AD" unicode="&#xad;" horiz-adv-x="381" 
d="M311 254q0 -8 -10 -8l-223 -1q-4 0 -6 1.5t-2 5.5v26q0 7 5 7l229 1q7 0 7 -6v-26z" />
    <glyph glyph-name="registered" unicode="&#xae;" horiz-adv-x="545" 
d="M273 275q-66 0 -120.5 32t-86.5 86t-32 120t32 120t86.5 86.5t120.5 32.5t120 -32.5t86 -86.5t32 -120t-32 -120t-86 -86t-120 -32v0zM273 310q59 0 104.5 25t71.5 70.5t26 107.5t-26 107.5t-71.5 71t-104.5 25.5q-60 0 -105.5 -25.5t-71.5 -71t-26 -107.5t26 -107.5
t71.5 -70.5t105.5 -25v0zM354 398q1 -2 0 -3.5t-3 -1.5h-24q-2 0 -4 3l-41 108q-1 2 -0.5 2.5t-6.5 0.5h-56q-4 0 -4 -4v-106q0 -4 -3 -4h-23q-3 0 -3 3v230q0 4 2 4h100q35 0 54.5 -14.5t19.5 -43.5q0 -30 -16 -43.5t-33 -18.5q-3 0 -1 -2l42 -110v0zM281 535q20 0 35 7
t15 26q0 14 -10 24t-43 10h-59q-2 0 -3 1t-1 -4v-61q0 -3 3 -3h63v0z" />
    <glyph glyph-name="macron" unicode="&#xaf;" horiz-adv-x="272" 
d="M262 692q0 -8 -10 -8h-235q-4 0 -5.5 2t-1.5 6v23q0 7 5 7h242q5 0 5 -6v-24z" />
    <glyph glyph-name="degree" unicode="&#xb0;" horiz-adv-x="464" 
d="M382 708q0 -44 -19.5 -78t-53.5 -53t-77 -19t-77 19t-53.5 53t-19.5 78t19.5 78t53.5 53t77 19t77 -19t53.5 -53t19.5 -78v0zM339 707q0 50 -29.5 81t-79.5 31q-49 0 -79 -31t-29 -81t30 -81.5t79 -31.5t79 31.5t29 81.5v0z" />
    <glyph glyph-name="plusminus" unicode="&#xb1;" horiz-adv-x="541" 
d="M471 92q0 -8 -10 -8l-383 -1q-4 0 -6 1.5t-2 5.5v24q0 7 5 7l389 1q7 0 7 -6v-24zM471 432q0 -8 -10 -8l-383 -1q-4 0 -6 1.5t-2 5.5v24q0 7 5 7l389 1q7 0 7 -6v-24zM260 242q-8 0 -8 10l-1 383q0 5 1.5 6.5t5.5 1.5h24q7 0 7 -5v-389q0 -7 -6 -7h-23z" />
    <glyph glyph-name="uni00B2" unicode="&#xb2;" horiz-adv-x="452" 
d="M208 575q32 33 53 59.5t31 51t10 50.5q0 32 -16.5 53t-41 31.5t-50.5 10.5q-28 0 -61.5 -14t-55.5 -46q-4 -7 -10 -1l-9 8q-4 4 -4 5.5t2 4.5q26 36 66 52.5t77 16.5q33 0 63 -12.5t49.5 -40t19.5 -72.5q0 -28 -11 -53.5t-35 -55t-63 -69.5l-133 -136q-3 -3 -1.5 -5.5
t5.5 -2.5h237q6 0 6 -5v-16q0 -5 -5 -5h-270q-4 0 -5.5 2t-1.5 6v12q0 8 2 12t7 9z" />
    <glyph glyph-name="uni00B3" unicode="&#xb3;" horiz-adv-x="467" 
d="M81 790q-4 3 0 7q32 32 64 46t70 14q67 0 106.5 -33.5t39.5 -82.5q0 -37 -22.5 -64t-60.5 -41q-7 -3 -7 -4t7 -3q38 -10 67.5 -41t29.5 -79q0 -53 -42 -92t-126 -39q-44 0 -78.5 13.5t-67.5 45.5q-2 2 -2 3t2 4l14 12q4 5 6 0q29 -29 60.5 -40.5t68.5 -11.5
q65 0 100.5 29t35.5 74q0 37 -20.5 61t-52 36.5t-65.5 12.5h-57q-5 0 -5 4v16q0 5 5 5h46q56 0 95.5 28t39.5 71q0 38 -32 64t-83 26q-34 0 -64.5 -13.5t-54.5 -36.5q-2 -3 -4.5 -3t-5.5 3l-7 9v0z" />
    <glyph glyph-name="acute" unicode="&#xb4;" horiz-adv-x="272" 
d="M265 720q3 -8 -7 -12l-227 -74q-4 -1 -6.5 0t-4.5 5l-5 15q-3 8 3 10l229 91q6 2 8 -3z" />
    <glyph glyph-name="uni00B5" unicode="&#xb5;" horiz-adv-x="571" 
d="M247 28q49 0 96.5 28t96.5 77v388q0 9 9 9h22q9 0 9 -9v-512q0 -9 -8 -9h-21q-8 0 -8 8v65q0 5 -1.5 6t-6.5 -3q-60 -47 -100.5 -66.5t-85.5 -19.5q-37 0 -68.5 10.5t-57.5 36.5v-190q0 -7 -2 -9.5t-10 -2.5h-17q-11 0 -11 10v675q0 10 9 10h22q9 0 9 -9v-384
q0 -29 17 -54t45 -40t62 -15v0z" />
    <glyph glyph-name="paragraph" unicode="&#xb6;" horiz-adv-x="534" 
d="M394 710q-4 0 -4 -5v-785q0 -1 -0.5 -3t-3.5 -2h-25q-5 0 -5 5v786q0 4 -5 4h-35q-4 0 -4 -5v-785q0 -5 -5 -5h-25q-5 0 -5 5v381q0 3 -3 3q-71 0 -120 30.5t-73.5 78.5t-24.5 101q0 56 25.5 108.5t77 86t129.5 33.5h158q4 0 4 -4v-25q0 -3 -4 -3h-52z" />
    <glyph glyph-name="periodcentered" unicode="&#xb7;" horiz-adv-x="172" 
d="M127 345q0 -11 -13 -11h-59q-10 0 -10 10v60q0 9 7 9h68q7 0 7 -8v-60z" />
    <glyph glyph-name="cedilla" unicode="&#xb8;" horiz-adv-x="196" 
d="M186 -129q0 -25 -13.5 -41.5t-36 -25t-50.5 -8.5q-22 0 -39.5 5.5t-33.5 15.5q-4 2 -3 6l9 20q2 4 7 1q10 -8 22 -13t34 -5q32 0 46 11t14 32q0 24 -19 35.5t-58 12.5q-4 0 -4.5 1.5t0.5 2.5l36 84h34l-24 -60q-1 -3 3 -3q30 -3 46.5 -14t23 -26t6.5 -31v0z" />
    <glyph glyph-name="uni00B9" unicode="&#xb9;" horiz-adv-x="367" 
d="M248 406q4 0 4 -3v-19q0 -4 -4 -4h-203q-4 0 -4 4v19q0 3 4 3h89q3 0 3 3v397q0 5 -3 4l-88 -35q-5 -1 -5 4v16q0 2 0.5 3t2.5 2l87 43q4 2 6.5 3t6.5 1h17q5 0 5 -6v-431q0 -4 4 -4h78v0z" />
    <glyph glyph-name="ordmasculine" unicode="&#xba;" horiz-adv-x="419" 
d="M209 751q48 0 82.5 -22t53 -61t18.5 -91q0 -49 -17.5 -87.5t-52 -60.5t-84.5 -22q-49 0 -83.5 22t-52 60.5t-17.5 87.5q0 52 18.5 91t53 61t81.5 22v0zM209 716q-55 0 -83.5 -38t-28.5 -98q0 -64 28.5 -102t83.5 -38q56 0 84.5 38t28.5 102q0 60 -28.5 98t-84.5 38v0z
" />
    <glyph glyph-name="guillemotright" unicode="&#xbb;" horiz-adv-x="420" 
d="M164 251q5 6 0 12l-114 174q-2 4 0 6t5 2h14q2 0 3.5 -0.5t3.5 -3.5l140 -178q5 -6 -1 -13l-138 -168q-2 -4 -8 -4h-12q-9 0 -7 5l114 168v0zM331 251q5 6 0 12l-114 174q-2 4 0 6t5 2h14q2 0 3.5 -0.5t3.5 -3.5l140 -178q6 -6 -1 -13l-138 -168q-2 -4 -8 -4h-12
q-9 0 -7 5l114 168v0z" />
    <glyph glyph-name="onequarter" unicode="&#xbc;" horiz-adv-x="860" 
d="M254 302q4 0 4 -3v-19q0 -4 -4 -4h-203q-4 0 -4 4v19q0 3 4 3h89q3 0 3 3v397q0 5 -3 4l-88 -35q-5 -1 -5 4v16q0 2 0.5 3t2.5 2l87 43q4 2 6.5 3t6.5 1h17q5 0 5 -6v-431q0 -4 4 -4h78v0zM216 4q-5 -8 -15 -8h-16q-7 0 -8 4t3 9l489 736q2 4 5 4.5t7 0.5h20
q4 0 5.5 -1.5t-1.5 -6.5zM700 464q1 1 3.5 2t5.5 1h20q5 0 5 -6v-295q0 -5 5 -5h64q6 0 6 -4v-16q0 -6 -6 -6h-64q-5 0 -5 -6v-123q0 -6 -6 -6h-18q-5 0 -5 6v125q0 4 -5 4h-212q-7 0 -7 6v19q0 3 1 6.5t4 7.5l214 290v0zM697 161q6 0 6 4v244q0 7 -2 7.5t-7 -5.5l-179 -242
q-6 -8 4 -8h178z" />
    <glyph glyph-name="onehalf" unicode="&#xbd;" horiz-adv-x="923" 
d="M244 302q4 0 4 -3v-19q0 -4 -4 -4h-203q-4 0 -4 4v19q0 3 4 3h89q3 0 3 3v397q0 5 -3 4l-88 -35q-5 -1 -5 4v16q0 2 0.5 3t2.5 2l87 43q4 2 6.5 3t6.5 1h17q5 0 5 -6v-431q0 -4 4 -4h78v0zM206 4q-5 -8 -15 -8h-16q-7 0 -8 4t3 9l489 736q2 4 5 4.5t7 0.5h20
q4 0 5.5 -1.5t-1.5 -6.5zM723 191q32 33 53 59.5t31 51t10 50.5q0 32 -16.5 53t-41 31.5t-50.5 10.5q-28 0 -61.5 -14t-55.5 -46q-4 -7 -10 -1l-9 8q-4 4 -4 5.5t2 4.5q26 36 66 52.5t77 16.5q33 0 63 -12.5t49.5 -40t19.5 -72.5q0 -28 -11 -53.5t-35 -55t-63 -69.5
l-133 -136q-3 -3 -1.5 -5.5t5.5 -2.5h237q6 0 6 -5v-16q0 -5 -5 -5h-270q-4 0 -5.5 2t-1.5 6v12q0 8 2 12t7 9z" />
    <glyph glyph-name="threequarters" unicode="&#xbe;" horiz-adv-x="882" 
d="M67 685q-4 3 0 7q32 32 64 46t70 14q67 0 106.5 -33.5t39.5 -82.5q0 -37 -22.5 -64t-60.5 -41q-7 -3 -7 -4t7 -3q38 -10 67.5 -41t29.5 -79q0 -53 -42 -92t-126 -39q-44 0 -78.5 13.5t-67.5 45.5q-2 2 -2 3t2 4l14 12q4 5 6 0q29 -29 60.5 -40.5t68.5 -11.5
q65 0 100.5 29t35.5 74q0 37 -20.5 61t-52 36.5t-65.5 12.5h-57q-5 0 -5 4v16q0 5 5 5h46q56 0 95.5 28t39.5 71q0 38 -32 64t-83 26q-34 0 -64.5 -13.5t-54.5 -36.5q-2 -3 -4.5 -3t-5.5 3l-7 9v0zM276 4q-5 -8 -15 -8h-16q-7 0 -8 4t3 9l489 736q2 4 5 4.5t7 0.5h20
q4 0 5.5 -1.5t-1.5 -6.5zM742 464q1 1 3.5 2t5.5 1h20q5 0 5 -6v-295q0 -5 5 -5h64q6 0 6 -4v-16q0 -6 -6 -6h-64q-5 0 -5 -6v-123q0 -6 -6 -6h-18q-5 0 -5 6v125q0 4 -5 4h-212q-7 0 -7 6v19q0 3 1 6.5t4 7.5l214 290v0zM739 161q6 0 6 4v244q0 7 -2 7.5t-7 -5.5l-179 -242
q-6 -8 4 -8h178z" />
    <glyph glyph-name="questiondown" unicode="&#xbf;" horiz-adv-x="506" 
d="M231 519q0 11 13 11h39q5 0 7.5 -2.5t2.5 -7.5v-60q0 -9 -7 -9h-48q-7 0 -7 8v60zM462 -44q3 -1 4 -3.5t-1 -4.5q-31 -56 -92 -89.5t-132 -33.5q-64 0 -111.5 22.5t-73.5 63.5t-26 96q0 42 15 72t39.5 54t51 47t51 49t39.5 60.5t15 82.5q0 3 2 5.5t5 2.5h27q8 0 8 -9
q0 -51 -15 -88t-38.5 -64.5t-50 -50t-50 -45t-38.5 -50.5t-15 -66q0 -64 45 -102t120 -38q39 0 76.5 14t66.5 36.5t40 49.5q2 2 3 3.5t5 -0.5z" />
    <glyph glyph-name="Agrave" unicode="&#xc0;" horiz-adv-x="700" 
d="M60 0q-4 0 -6 2.5t-1 6.5l265 722q2 6 5.5 8.5t10.5 2.5h33q15 0 18 -10l262 -722q2 -4 -0.5 -7t-7.5 -3h-24q-10 0 -13 8l-81 223q-1 4 -3 5.5t-7 1.5h-322q-7 0 -10 -7l-83 -224q-1 -4 -3.5 -5.5t-7.5 -1.5h-25v0zM494 278q10 0 7 10l-143 390q-4 10 -7.5 10t-7.5 -11
l-145 -391q-3 -8 5 -8h291zM242 960q2 5 8 3l229 -91q6 -2 3 -10l-5 -15q-1 -4 -3.5 -5t-7.5 0l-227 74q-10 4 -7 12l10 32v0z" />
    <glyph glyph-name="Aacute" unicode="&#xc1;" horiz-adv-x="700" 
d="M60 0q-4 0 -6 2.5t-1 6.5l265 722q2 6 5.5 8.5t10.5 2.5h33q15 0 18 -10l262 -722q2 -4 -0.5 -7t-7.5 -3h-24q-10 0 -13 8l-81 223q-1 4 -3 5.5t-7 1.5h-322q-7 0 -10 -7l-83 -224q-1 -4 -3.5 -5.5t-7.5 -1.5h-25v0zM494 278q10 0 7 10l-143 390q-4 10 -7.5 10t-7.5 -11
l-145 -391q-3 -8 5 -8h291zM479 932q3 -8 -7 -12l-227 -74q-4 -1 -6.5 0t-4.5 5l-5 15q-3 8 3 10l229 91q6 2 8 -3z" />
    <glyph glyph-name="Acircumflex" unicode="&#xc2;" horiz-adv-x="700" 
d="M60 0q-4 0 -6 2.5t-1 6.5l265 722q2 6 5.5 8.5t10.5 2.5h33q15 0 18 -10l262 -722q2 -4 -0.5 -7t-7.5 -3h-24q-10 0 -13 8l-81 223q-1 4 -3 5.5t-7 1.5h-322q-7 0 -10 -7l-83 -224q-1 -4 -3.5 -5.5t-7.5 -1.5h-25v0zM494 278q10 0 7 10l-143 390q-4 10 -7.5 10t-7.5 -11
l-145 -391q-3 -8 5 -8h291zM359 910q-7 6 -9 6t-10 -6l-62 -48q-5 -4 -7.5 -5t-7.5 -1h-37q-5 0 -5.5 3t3.5 7l99 79q5 4 9 6.5t11 2.5h18q6 0 9.5 -3t6.5 -5l98 -80q12 -10 -1 -10h-41q-4 0 -7.5 1.5t-7.5 4.5z" />
    <glyph glyph-name="Atilde" unicode="&#xc3;" horiz-adv-x="700" 
d="M60 0q-4 0 -6 2.5t-1 6.5l265 722q2 6 5.5 8.5t10.5 2.5h33q15 0 18 -10l262 -722q2 -4 -0.5 -7t-7.5 -3h-24q-10 0 -13 8l-81 223q-1 4 -3 5.5t-7 1.5h-322q-7 0 -10 -7l-83 -224q-1 -4 -3.5 -5.5t-7.5 -1.5h-25v0zM494 278q10 0 7 10l-143 390q-4 10 -7.5 10t-7.5 -11
l-145 -391q-3 -8 5 -8h291zM475 904q-10 -6 -25 -12.5t-42 -6.5q-26 0 -44 6t-33.5 12t-36.5 6q-22 0 -34 -7.5t-22 -12.5q-4 -2 -6.5 -1.5t-4.5 5.5l-7 16q-1 4 -0.5 5.5t2.5 2.5q15 11 30.5 18.5t37.5 7.5t41 -6t37.5 -12.5t40.5 -6.5q17 0 27 4.5t23 11.5q5 3 8 2.5
t5 -5.5l8 -18q2 -4 -5 -9v0z" />
    <glyph glyph-name="Adieresis" unicode="&#xc4;" horiz-adv-x="700" 
d="M60 0q-4 0 -6 2.5t-1 6.5l265 722q2 6 5.5 8.5t10.5 2.5h33q15 0 18 -10l262 -722q2 -4 -0.5 -7t-7.5 -3h-24q-10 0 -13 8l-81 223q-1 4 -3 5.5t-7 1.5h-322q-7 0 -10 -7l-83 -224q-1 -4 -3.5 -5.5t-7.5 -1.5h-25v0zM494 278q10 0 7 10l-143 390q-4 10 -7.5 10t-7.5 -11
l-145 -391q-3 -8 5 -8h291zM319 868q0 -7 -2 -9.5t-10 -2.5h-27q-7 0 -9 2t-2 8v78q0 10 9 10h32q9 0 9 -10v-76zM430 868q0 -7 -2 -9.5t-10 -2.5h-27q-7 0 -9 2t-2 8v78q0 10 9 10h32q9 0 9 -10v-76z" />
    <glyph glyph-name="Aring" unicode="&#xc5;" horiz-adv-x="700" 
d="M60 0q-4 0 -6 2.5t-1 6.5l265 722q2 6 5.5 8.5t10.5 2.5h33q15 0 18 -10l262 -722q2 -4 -0.5 -7t-7.5 -3h-24q-10 0 -13 8l-81 223q-1 4 -3 5.5t-7 1.5h-322q-7 0 -10 -7l-83 -224q-1 -4 -3.5 -5.5t-7.5 -1.5h-25v0zM494 278q10 0 7 10l-143 390q-4 10 -7.5 10t-7.5 -11
l-145 -391q-3 -8 5 -8h291zM450 866q0 -43 -29 -71.5t-71 -28.5t-71 29.5t-29 72.5q0 27 13.5 48.5t36.5 34.5t50 13q28 0 50.5 -13t36 -35t13.5 -50v0zM407 865q0 26 -16.5 42.5t-41.5 16.5q-23 0 -41 -16.5t-18 -42.5q0 -23 18 -41t41 -18q25 0 41.5 18t16.5 41v0z" />
    <glyph glyph-name="AE" unicode="&#xc6;" horiz-adv-x="963" 
d="M903 40q8 0 8 -7v-26q0 -4 -1.5 -5.5t-5.5 -1.5h-400q-9 0 -9 10v223q0 5 -5 5h-254q-8 0 -12 -7l-129 -224q-2 -4 -4.5 -5.5t-7.5 -1.5h-25q-4 0 -5.5 2.5t0.5 6.5l413 722q3 6 7 8.5t11 2.5h405q7 0 7 -7v-26q0 -7 -8 -7h-338q-9 0 -9 -9v-291q0 -7 9 -7h269q7 0 7 -7
v-26q0 -4 -1.5 -5.5t-6.5 -1.5h-268q-9 0 -9 -9v-297q0 -9 9 -9h353v0zM487 278q8 0 8 9v391q-1 10 -5 10t-10 -11l-228 -391q-5 -8 3 -8h232v0z" />
    <glyph glyph-name="Ccedilla" unicode="&#xc7;" horiz-adv-x="695" 
d="M375 752q46 0 89.5 -16t79 -43.5t58.5 -62.5t27 -74q1 -4 0 -5.5t-5 -1.5l-36 -4q-3 -1 -4.5 1t-2.5 6q-17 71 -72.5 114.5t-131.5 43.5q-122 0 -186.5 -87.5t-64.5 -254.5q0 -161 64.5 -248.5t194.5 -87.5q78 0 129 37.5t81 116.5q2 3 6 2l34 -10q2 -1 2.5 -2.5
t-0.5 -4.5q-10 -33 -28 -61t-42 -50t-53.5 -38t-63 -24t-69.5 -8q-96 0 -164 44.5t-103.5 129t-35.5 204.5q0 121 35.5 207t102 131.5t159.5 45.5v0zM454 -129q0 -25 -13.5 -41.5t-36 -25t-50.5 -8.5q-22 0 -39.5 5.5t-33.5 15.5q-4 2 -3 6l9 20q2 4 7 1q10 -8 22 -13t34 -5
q32 0 46 11t14 32q0 24 -19 35.5t-58 12.5q-4 0 -4.5 1.5t0.5 2.5l36 84h34l-24 -60q-1 -3 3 -3q30 -3 46.5 -14t23 -26t6.5 -31v0z" />
    <glyph glyph-name="Egrave" unicode="&#xc8;" horiz-adv-x="612" 
d="M114 732q0 10 9 10h415q7 0 7 -7v-26q0 -7 -8 -7h-368q-9 0 -9 -9v-291q0 -7 9 -7h289q7 0 7 -7v-26q0 -4 -1.5 -5.5t-6.5 -1.5h-288q-9 0 -9 -9v-297q0 -9 9 -9h383q8 0 8 -7v-26q0 -4 -1.5 -5.5t-5.5 -1.5h-430q-9 0 -9 10v722v0zM237 960q2 5 8 3l229 -91q6 -2 3 -10
l-5 -15q-1 -4 -3.5 -5t-7.5 0l-227 74q-10 4 -7 12l10 32v0z" />
    <glyph glyph-name="Eacute" unicode="&#xc9;" horiz-adv-x="612" 
d="M114 732q0 10 9 10h415q7 0 7 -7v-26q0 -7 -8 -7h-368q-9 0 -9 -9v-291q0 -7 9 -7h289q7 0 7 -7v-26q0 -4 -1.5 -5.5t-6.5 -1.5h-288q-9 0 -9 -9v-297q0 -9 9 -9h383q8 0 8 -7v-26q0 -4 -1.5 -5.5t-5.5 -1.5h-430q-9 0 -9 10v722v0zM474 932q3 -8 -7 -12l-227 -74
q-4 -1 -6.5 0t-4.5 5l-5 15q-3 8 3 10l229 91q6 2 8 -3z" />
    <glyph glyph-name="Ecircumflex" unicode="&#xca;" horiz-adv-x="612" 
d="M114 732q0 10 9 10h415q7 0 7 -7v-26q0 -7 -8 -7h-368q-9 0 -9 -9v-291q0 -7 9 -7h289q7 0 7 -7v-26q0 -4 -1.5 -5.5t-6.5 -1.5h-288q-9 0 -9 -9v-297q0 -9 9 -9h383q8 0 8 -7v-26q0 -4 -1.5 -5.5t-5.5 -1.5h-430q-9 0 -9 10v722v0zM354 910q-7 6 -9 6t-10 -6l-62 -48
q-5 -4 -7.5 -5t-7.5 -1h-37q-5 0 -5.5 3t3.5 7l99 79q5 4 9 6.5t11 2.5h18q6 0 9.5 -3t6.5 -5l98 -80q12 -10 -1 -10h-41q-4 0 -7.5 1.5t-7.5 4.5z" />
    <glyph glyph-name="Edieresis" unicode="&#xcb;" horiz-adv-x="612" 
d="M114 732q0 10 9 10h415q7 0 7 -7v-26q0 -7 -8 -7h-368q-9 0 -9 -9v-291q0 -7 9 -7h289q7 0 7 -7v-26q0 -4 -1.5 -5.5t-6.5 -1.5h-288q-9 0 -9 -9v-297q0 -9 9 -9h383q8 0 8 -7v-26q0 -4 -1.5 -5.5t-5.5 -1.5h-430q-9 0 -9 10v722v0zM314 868q0 -7 -2 -9.5t-10 -2.5h-27
q-7 0 -9 2t-2 8v78q0 10 9 10h32q9 0 9 -10v-76zM425 868q0 -7 -2 -9.5t-10 -2.5h-27q-7 0 -9 2t-2 8v78q0 10 9 10h32q9 0 9 -10v-76z" />
    <glyph glyph-name="Igrave" unicode="&#xcc;" horiz-adv-x="274" 
d="M151 742q9 0 9 -10v-720q0 -7 -2 -9.5t-10 -2.5h-23q-7 0 -9 2t-2 8v722q0 10 9 10h28zM32 960q2 5 8 3l229 -91q6 -2 3 -10l-5 -15q-1 -4 -3.5 -5t-7.5 0l-227 74q-10 4 -7 12l10 32v0z" />
    <glyph glyph-name="Iacute" unicode="&#xcd;" horiz-adv-x="274" 
d="M151 742q9 0 9 -10v-720q0 -7 -2 -9.5t-10 -2.5h-23q-7 0 -9 2t-2 8v722q0 10 9 10h28zM269 932q3 -8 -7 -12l-227 -74q-4 -1 -6.5 0t-4.5 5l-5 15q-3 8 3 10l229 91q6 2 8 -3z" />
    <glyph glyph-name="Icircumflex" unicode="&#xce;" horiz-adv-x="274" 
d="M151 742q9 0 9 -10v-720q0 -7 -2 -9.5t-10 -2.5h-23q-7 0 -9 2t-2 8v722q0 10 9 10h28zM149 910q-7 6 -9 6t-10 -6l-62 -48q-5 -4 -7.5 -5t-7.5 -1h-37q-5 0 -5.5 3t3.5 7l99 79q5 4 9 6.5t11 2.5h18q6 0 9.5 -3t6.5 -5l98 -80q12 -10 -1 -10h-41q-4 0 -7.5 1.5t-7.5 4.5
z" />
    <glyph glyph-name="Idieresis" unicode="&#xcf;" horiz-adv-x="274" 
d="M151 742q9 0 9 -10v-720q0 -7 -2 -9.5t-10 -2.5h-23q-7 0 -9 2t-2 8v722q0 10 9 10h28zM109 868q0 -7 -2 -9.5t-10 -2.5h-27q-7 0 -9 2t-2 8v78q0 10 9 10h32q9 0 9 -10v-76zM220 868q0 -7 -2 -9.5t-10 -2.5h-27q-7 0 -9 2t-2 8v78q0 10 9 10h32q9 0 9 -10v-76z" />
    <glyph glyph-name="Eth" unicode="&#xd0;" horiz-adv-x="703" 
d="M342 364q0 -11 -13 -11h-284q-6 0 -8 2.5t-2 7.5v23q0 9 7 9h293q7 0 7 -8v-23zM124 742h17.5t37.5 -0.5t38.5 -0.5h21.5q140 -1 225 -41t123.5 -119.5t38.5 -201.5q0 -132 -43 -216t-132 -123.5t-226 -39.5h-102q-9 0 -9 10v722q0 5 2.5 7.5t7.5 2.5v0zM170 701
q-10 0 -10 -14v-638q0 -9 11 -9h50q129 0 207.5 32.5t114 105.5t35.5 193q0 131 -38.5 202.5t-117 99.5t-199.5 28h-53v0z" />
    <glyph glyph-name="Ntilde" unicode="&#xd1;" horiz-adv-x="755" 
d="M632 742q9 0 9 -10v-722q0 -5 -2 -7.5t-7 -2.5h-15q-6 0 -10.5 0.5t-8.5 5.5l-428 631q-5 8 -8.5 7t-3.5 -7v-628q0 -9 -10 -9h-25q-9 0 -9 10v722q0 10 9 10h18q6 0 9 -1t6 -6l427 -630q5 -7 9.5 -4.5t4.5 6.5v626q0 9 8 9h27zM519 904q-10 -6 -25 -12.5t-42 -6.5
q-26 0 -44 6t-33.5 12t-36.5 6q-22 0 -34 -7.5t-22 -12.5q-4 -2 -6.5 -1.5t-4.5 5.5l-7 16q-1 4 -0.5 5.5t2.5 2.5q15 11 30.5 18.5t37.5 7.5t41 -6t37.5 -12.5t40.5 -6.5q17 0 27 4.5t23 11.5q5 3 8 2.5t5 -5.5l8 -18q2 -4 -5 -9v0z" />
    <glyph glyph-name="Ograve" unicode="&#xd2;" horiz-adv-x="758" 
d="M379 -10q-94 0 -161.5 43t-103.5 127t-36 207q0 125 36.5 211t104 130t161.5 44t161 -44t103 -129t36 -210q0 -123 -36 -207.5t-103.5 -128t-161.5 -43.5v0zM381 32q124 0 187.5 83.5t63.5 253.5q0 172 -64.5 256.5t-187.5 84.5q-124 0 -189 -85t-65 -256
q0 -169 65.5 -253t189.5 -84v0zM273 960q2 5 8 3l229 -91q6 -2 3 -10l-5 -15q-1 -4 -3.5 -5t-7.5 0l-227 74q-10 4 -7 12l10 32v0z" />
    <glyph glyph-name="Oacute" unicode="&#xd3;" horiz-adv-x="758" 
d="M379 -10q-94 0 -161.5 43t-103.5 127t-36 207q0 125 36.5 211t104 130t161.5 44t161 -44t103 -129t36 -210q0 -123 -36 -207.5t-103.5 -128t-161.5 -43.5v0zM381 32q124 0 187.5 83.5t63.5 253.5q0 172 -64.5 256.5t-187.5 84.5q-124 0 -189 -85t-65 -256
q0 -169 65.5 -253t189.5 -84v0zM510 932q3 -8 -7 -12l-227 -74q-4 -1 -6.5 0t-4.5 5l-5 15q-3 8 3 10l229 91q6 2 8 -3z" />
    <glyph glyph-name="Ocircumflex" unicode="&#xd4;" horiz-adv-x="758" 
d="M379 -10q-94 0 -161.5 43t-103.5 127t-36 207q0 125 36.5 211t104 130t161.5 44t161 -44t103 -129t36 -210q0 -123 -36 -207.5t-103.5 -128t-161.5 -43.5v0zM381 32q124 0 187.5 83.5t63.5 253.5q0 172 -64.5 256.5t-187.5 84.5q-124 0 -189 -85t-65 -256
q0 -169 65.5 -253t189.5 -84v0zM390 910q-7 6 -9 6t-10 -6l-62 -48q-5 -4 -7.5 -5t-7.5 -1h-37q-5 0 -5.5 3t3.5 7l99 79q5 4 9 6.5t11 2.5h18q6 0 9.5 -3t6.5 -5l98 -80q12 -10 -1 -10h-41q-4 0 -7.5 1.5t-7.5 4.5z" />
    <glyph glyph-name="Otilde" unicode="&#xd5;" horiz-adv-x="758" 
d="M379 -10q-94 0 -161.5 43t-103.5 127t-36 207q0 125 36.5 211t104 130t161.5 44t161 -44t103 -129t36 -210q0 -123 -36 -207.5t-103.5 -128t-161.5 -43.5v0zM381 32q124 0 187.5 83.5t63.5 253.5q0 172 -64.5 256.5t-187.5 84.5q-124 0 -189 -85t-65 -256
q0 -169 65.5 -253t189.5 -84v0zM506 904q-10 -6 -25 -12.5t-42 -6.5q-26 0 -44 6t-33.5 12t-36.5 6q-22 0 -34 -7.5t-22 -12.5q-4 -2 -6.5 -1.5t-4.5 5.5l-7 16q-1 4 -0.5 5.5t2.5 2.5q15 11 30.5 18.5t37.5 7.5t41 -6t37.5 -12.5t40.5 -6.5q17 0 27 4.5t23 11.5q5 3 8 2.5
t5 -5.5l8 -18q2 -4 -5 -9v0z" />
    <glyph glyph-name="Odieresis" unicode="&#xd6;" horiz-adv-x="758" 
d="M379 -10q-94 0 -161.5 43t-103.5 127t-36 207q0 125 36.5 211t104 130t161.5 44t161 -44t103 -129t36 -210q0 -123 -36 -207.5t-103.5 -128t-161.5 -43.5v0zM381 32q124 0 187.5 83.5t63.5 253.5q0 172 -64.5 256.5t-187.5 84.5q-124 0 -189 -85t-65 -256
q0 -169 65.5 -253t189.5 -84v0zM350 868q0 -7 -2 -9.5t-10 -2.5h-27q-7 0 -9 2t-2 8v78q0 10 9 10h32q9 0 9 -10v-76zM461 868q0 -7 -2 -9.5t-10 -2.5h-27q-7 0 -9 2t-2 8v78q0 10 9 10h32q9 0 9 -10v-76z" />
    <glyph glyph-name="multiply" unicode="&#xd7;" horiz-adv-x="517" 
d="M428 188q-6 -6 -13 1l-342 341q-3 3 -3 5.5t3 5.5l17 17q5 5 8 1l346 -345q2 -2 2.5 -4.5t-1.5 -4.5zM74 203q-6 6 1 13l341 342q3 3 5.5 3t5.5 -3l17 -17q5 -4 1 -8l-345 -346q-5 -5 -9 -1z" />
    <glyph glyph-name="Oslash" unicode="&#xd8;" horiz-adv-x="708" 
d="M684 727q5 -5 1 -11l-85 -99q27 -46 41 -108.5t14 -139.5q0 -123 -36 -207.5t-103.5 -128t-161.5 -43.5q-69 0 -124 23t-93 68l-73 -84q-4 -6 -8.5 -6t-10.5 4l-17 16q-9 9 -4 15l84 97q-27 46 -41 107t-14 137q0 125 36.5 211t104 130t161.5 44q68 0 122.5 -23.5
t93.5 -69.5l75 87q7 8 13 3l25 -22v0zM104 369q0 -64 9 -116t28 -92l400 464q-63 84 -186 84q-124 0 -187.5 -84.5t-63.5 -255.5v0zM604 369q0 65 -9 118t-28 93l-400 -463q65 -84 189 -84t186 83t62 253v0z" />
    <glyph glyph-name="Ugrave" unicode="&#xd9;" horiz-adv-x="702" 
d="M598 230q0 -80 -27 -133.5t-82 -80t-138 -26.5q-84 0 -138.5 27.5t-81.5 84t-27 143.5v486q0 11 8 11h28q10 0 10 -10v-506q0 -97 50.5 -145.5t152.5 -48.5q69 0 114.5 22t68 65.5t22.5 109.5v504q0 9 8 9h24q8 0 8 -9v-503v0zM247 960q2 5 8 3l229 -91q6 -2 3 -10
l-5 -15q-1 -4 -3.5 -5t-7.5 0l-227 74q-10 4 -7 12l10 32v0z" />
    <glyph glyph-name="Uacute" unicode="&#xda;" horiz-adv-x="702" 
d="M598 230q0 -80 -27 -133.5t-82 -80t-138 -26.5q-84 0 -138.5 27.5t-81.5 84t-27 143.5v486q0 11 8 11h28q10 0 10 -10v-506q0 -97 50.5 -145.5t152.5 -48.5q69 0 114.5 22t68 65.5t22.5 109.5v504q0 9 8 9h24q8 0 8 -9v-503v0zM484 932q3 -8 -7 -12l-227 -74
q-4 -1 -6.5 0t-4.5 5l-5 15q-3 8 3 10l229 91q6 2 8 -3z" />
    <glyph glyph-name="Ucircumflex" unicode="&#xdb;" horiz-adv-x="702" 
d="M598 230q0 -80 -27 -133.5t-82 -80t-138 -26.5q-84 0 -138.5 27.5t-81.5 84t-27 143.5v486q0 11 8 11h28q10 0 10 -10v-506q0 -97 50.5 -145.5t152.5 -48.5q69 0 114.5 22t68 65.5t22.5 109.5v504q0 9 8 9h24q8 0 8 -9v-503v0zM364 910q-7 6 -9 6t-10 -6l-62 -48
q-5 -4 -7.5 -5t-7.5 -1h-37q-5 0 -5.5 3t3.5 7l99 79q5 4 9 6.5t11 2.5h18q6 0 9.5 -3t6.5 -5l98 -80q12 -10 -1 -10h-41q-4 0 -7.5 1.5t-7.5 4.5z" />
    <glyph glyph-name="Udieresis" unicode="&#xdc;" horiz-adv-x="702" 
d="M598 230q0 -80 -27 -133.5t-82 -80t-138 -26.5q-84 0 -138.5 27.5t-81.5 84t-27 143.5v486q0 11 8 11h28q10 0 10 -10v-506q0 -97 50.5 -145.5t152.5 -48.5q69 0 114.5 22t68 65.5t22.5 109.5v504q0 9 8 9h24q8 0 8 -9v-503v0zM324 868q0 -7 -2 -9.5t-10 -2.5h-27
q-7 0 -9 2t-2 8v78q0 10 9 10h32q9 0 9 -10v-76zM435 868q0 -7 -2 -9.5t-10 -2.5h-27q-7 0 -9 2t-2 8v78q0 10 9 10h32q9 0 9 -10v-76z" />
    <glyph glyph-name="Yacute" unicode="&#xdd;" horiz-adv-x="638" 
d="M582 742q5 0 7 -3t-1 -8l-239 -405q-3 -4 -3.5 -8t-0.5 -12v-293q0 -13 -15 -13h-19q-7 0 -9.5 3t-2.5 8v284q0 8 -1 11.5t-4 8.5l-244 415q-3 5 -1 8.5t9 3.5h23q7 0 10 -2t6 -7l210 -357q7 -12 12.5 -12t11.5 10l209 359q4 6 6.5 7.5t9.5 1.5h26v0zM443 932
q3 -8 -7 -12l-227 -74q-4 -1 -6.5 0t-4.5 5l-5 15q-3 8 3 10l229 91q6 2 8 -3z" />
    <glyph glyph-name="Thorn" unicode="&#xde;" horiz-adv-x="674" 
d="M611 390q0 -75 -34 -121t-92.5 -66.5t-133.5 -20.5h-183q-8 0 -8 -9v-164q0 -9 -8 -9h-30q-4 0 -6 2t-2 6v724q0 10 9 10h28q9 0 9 -10v-148q0 -5 6 -5h179q78 0 138 -19.5t94 -61.5t34 -108v0zM563 390q0 83 -59 116t-160 33h-175q-9 0 -9 -8v-299q0 -10 7 -10h184
q96 0 154 38.5t58 129.5v0z" />
    <glyph glyph-name="germandbls" unicode="&#xdf;" horiz-adv-x="582" 
d="M310 742q59 0 92 -20.5t46.5 -51t13.5 -61.5q0 -40 -17 -64t-43 -38.5t-53 -29.5q-46 -25 -64 -39t-18 -40q0 -25 17 -36t62 -25q24 -7 54.5 -18.5t59 -30.5t47.5 -50.5t19 -79.5q0 -55 -26 -92.5t-68.5 -56.5t-92.5 -19q-33 0 -71 8t-64 24q-7 4 -4 10l16 24q3 4 10 0
q23 -13 47 -20.5t58 -7.5q71 0 112 33.5t41 93.5q0 46 -22 73t-56.5 42.5t-72.5 26.5q-24 8 -49 17.5t-42 28.5t-17 54q0 38 24 62t78 51q22 11 43 23t35.5 30.5t14.5 48.5q0 43 -31 67.5t-87 24.5q-68 0 -112 -41.5t-44 -127.5v-525q1 -10 -8 -10h-24q-8 0 -8 8v477
q0 10 -8 10h-62q-6 0 -6 6v23q0 2 1.5 4t4.5 2h63q5 0 5.5 2.5t0.5 5.5q0 48 15 86t42 64t65 40t83 14v0z" />
    <glyph glyph-name="agrave" unicode="&#xe0;" horiz-adv-x="538" 
d="M408 72q-41 -41 -87.5 -61.5t-102.5 -20.5q-79 0 -124.5 39t-45.5 106q0 51 27.5 87t82.5 57.5t137 28.5l105 9q8 1 12.5 4.5t4.5 10.5v31q0 64 -40.5 101.5t-108.5 37.5q-52 0 -93 -23.5t-75 -68.5q-3 -4 -5 -5t-5 1l-24 15q-2 2 -2.5 4t2.5 6q32 47 82.5 78t121.5 31
q57 0 99 -20.5t65 -59.5t23 -93v-357q0 -6 -2.5 -8t-7.5 -2h-18q-4 0 -6.5 2t-2.5 7l-2 61q-2 12 -10 2v0zM417 266q0 16 -14 14l-89 -7q-59 -4 -101.5 -15t-69.5 -28t-40 -40t-13 -52q0 -52 36.5 -81t97.5 -29q37 0 72.5 13.5t63.5 35.5q28 23 42.5 47.5t14.5 46.5v95v0z
M158 748q2 5 8 3l229 -91q6 -2 3 -10l-5 -15q-1 -4 -3.5 -5t-7.5 0l-227 74q-10 4 -7 12l10 32v0z" />
    <glyph glyph-name="aacute" unicode="&#xe1;" horiz-adv-x="538" 
d="M408 72q-41 -41 -87.5 -61.5t-102.5 -20.5q-79 0 -124.5 39t-45.5 106q0 51 27.5 87t82.5 57.5t137 28.5l105 9q8 1 12.5 4.5t4.5 10.5v31q0 64 -40.5 101.5t-108.5 37.5q-52 0 -93 -23.5t-75 -68.5q-3 -4 -5 -5t-5 1l-24 15q-2 2 -2.5 4t2.5 6q32 47 82.5 78t121.5 31
q57 0 99 -20.5t65 -59.5t23 -93v-357q0 -6 -2.5 -8t-7.5 -2h-18q-4 0 -6.5 2t-2.5 7l-2 61q-2 12 -10 2v0zM417 266q0 16 -14 14l-89 -7q-59 -4 -101.5 -15t-69.5 -28t-40 -40t-13 -52q0 -52 36.5 -81t97.5 -29q37 0 72.5 13.5t63.5 35.5q28 23 42.5 47.5t14.5 46.5v95v0z
M395 720q3 -8 -7 -12l-227 -74q-4 -1 -6.5 0t-4.5 5l-5 15q-3 8 3 10l229 91q6 2 8 -3z" />
    <glyph glyph-name="acircumflex" unicode="&#xe2;" horiz-adv-x="538" 
d="M408 72q-41 -41 -87.5 -61.5t-102.5 -20.5q-79 0 -124.5 39t-45.5 106q0 51 27.5 87t82.5 57.5t137 28.5l105 9q8 1 12.5 4.5t4.5 10.5v31q0 64 -40.5 101.5t-108.5 37.5q-52 0 -93 -23.5t-75 -68.5q-3 -4 -5 -5t-5 1l-24 15q-2 2 -2.5 4t2.5 6q32 47 82.5 78t121.5 31
q57 0 99 -20.5t65 -59.5t23 -93v-357q0 -6 -2.5 -8t-7.5 -2h-18q-4 0 -6.5 2t-2.5 7l-2 61q-2 12 -10 2v0zM417 266q0 16 -14 14l-89 -7q-59 -4 -101.5 -15t-69.5 -28t-40 -40t-13 -52q0 -52 36.5 -81t97.5 -29q37 0 72.5 13.5t63.5 35.5q28 23 42.5 47.5t14.5 46.5v95v0z
M275 698q-7 6 -9 6t-10 -6l-62 -48q-5 -4 -7.5 -5t-7.5 -1h-37q-5 0 -5.5 3t3.5 7l99 79q5 4 9 6.5t11 2.5h18q6 0 9.5 -3t6.5 -5l98 -80q12 -10 -1 -10h-41q-4 0 -7.5 1.5t-7.5 4.5z" />
    <glyph glyph-name="atilde" unicode="&#xe3;" horiz-adv-x="538" 
d="M408 72q-41 -41 -87.5 -61.5t-102.5 -20.5q-79 0 -124.5 39t-45.5 106q0 51 27.5 87t82.5 57.5t137 28.5l105 9q8 1 12.5 4.5t4.5 10.5v31q0 64 -40.5 101.5t-108.5 37.5q-52 0 -93 -23.5t-75 -68.5q-3 -4 -5 -5t-5 1l-24 15q-2 2 -2.5 4t2.5 6q32 47 82.5 78t121.5 31
q57 0 99 -20.5t65 -59.5t23 -93v-357q0 -6 -2.5 -8t-7.5 -2h-18q-4 0 -6.5 2t-2.5 7l-2 61q-2 12 -10 2v0zM417 266q0 16 -14 14l-89 -7q-59 -4 -101.5 -15t-69.5 -28t-40 -40t-13 -52q0 -52 36.5 -81t97.5 -29q37 0 72.5 13.5t63.5 35.5q28 23 42.5 47.5t14.5 46.5v95v0z
M391 692q-10 -6 -25 -12.5t-42 -6.5q-26 0 -44 6t-33.5 12t-36.5 6q-22 0 -34 -7.5t-22 -12.5q-4 -2 -6.5 -1.5t-4.5 5.5l-7 16q-1 4 -0.5 5.5t2.5 2.5q15 11 30.5 18.5t37.5 7.5t41 -6t37.5 -12.5t40.5 -6.5q17 0 27 4.5t23 11.5q5 3 8 2.5t5 -5.5l8 -18q2 -4 -5 -9v0z" />
    <glyph glyph-name="adieresis" unicode="&#xe4;" horiz-adv-x="538" 
d="M408 72q-41 -41 -87.5 -61.5t-102.5 -20.5q-79 0 -124.5 39t-45.5 106q0 51 27.5 87t82.5 57.5t137 28.5l105 9q8 1 12.5 4.5t4.5 10.5v31q0 64 -40.5 101.5t-108.5 37.5q-52 0 -93 -23.5t-75 -68.5q-3 -4 -5 -5t-5 1l-24 15q-2 2 -2.5 4t2.5 6q32 47 82.5 78t121.5 31
q57 0 99 -20.5t65 -59.5t23 -93v-357q0 -6 -2.5 -8t-7.5 -2h-18q-4 0 -6.5 2t-2.5 7l-2 61q-2 12 -10 2v0zM417 266q0 16 -14 14l-89 -7q-59 -4 -101.5 -15t-69.5 -28t-40 -40t-13 -52q0 -52 36.5 -81t97.5 -29q37 0 72.5 13.5t63.5 35.5q28 23 42.5 47.5t14.5 46.5v95v0z
M235 656q0 -7 -2 -9.5t-10 -2.5h-27q-7 0 -9 2t-2 8v78q0 10 9 10h32q9 0 9 -10v-76zM346 656q0 -7 -2 -9.5t-10 -2.5h-27q-7 0 -9 2t-2 8v78q0 10 9 10h32q9 0 9 -10v-76z" />
    <glyph glyph-name="aring" unicode="&#xe5;" horiz-adv-x="538" 
d="M408 72q-41 -41 -87.5 -61.5t-102.5 -20.5q-79 0 -124.5 39t-45.5 106q0 51 27.5 87t82.5 57.5t137 28.5l105 9q8 1 12.5 4.5t4.5 10.5v31q0 64 -40.5 101.5t-108.5 37.5q-52 0 -93 -23.5t-75 -68.5q-3 -4 -5 -5t-5 1l-24 15q-2 2 -2.5 4t2.5 6q32 47 82.5 78t121.5 31
q57 0 99 -20.5t65 -59.5t23 -93v-357q0 -6 -2.5 -8t-7.5 -2h-18q-4 0 -6.5 2t-2.5 7l-2 61q-2 12 -10 2v0zM417 266q0 16 -14 14l-89 -7q-59 -4 -101.5 -15t-69.5 -28t-40 -40t-13 -52q0 -52 36.5 -81t97.5 -29q37 0 72.5 13.5t63.5 35.5q28 23 42.5 47.5t14.5 46.5v95v0z
M366 701q0 -43 -29 -71.5t-71 -28.5t-71 29.5t-29 72.5q0 27 13.5 48.5t36.5 34.5t50 13q28 0 50.5 -13t36 -35t13.5 -50v0zM323 700q0 26 -16.5 42.5t-41.5 16.5q-23 0 -41 -16.5t-18 -42.5q0 -23 18 -41t41 -18q25 0 41.5 18t16.5 41v0z" />
    <glyph glyph-name="ae" unicode="&#xe6;" horiz-adv-x="930" 
d="M471 253q-13 0 -16.5 -4.5t-3.5 -20.5q0 -35 15.5 -70.5t42.5 -65t63.5 -47t78.5 -17.5q52 0 85.5 15t55 36.5t35.5 41.5q4 5 5.5 5.5t5.5 -1.5l22 -15q5 -3 1 -10q-17 -31 -48.5 -56t-73 -39.5t-90.5 -14.5q-61 0 -101 20.5t-64.5 48.5t-39.5 49q-2 4 -5 0
q-18 -23 -45.5 -50.5t-70.5 -47.5t-109 -20q-78 0 -122 39t-44 107q0 74 58.5 118t180.5 54l112 9q9 1 13.5 4.5t4.5 10.5v31q0 64 -39.5 101.5t-114.5 37.5q-48 0 -88.5 -23.5t-75.5 -68.5q-4 -4 -6 -5t-5 1l-22 15q-2 2 -2 4t2 6q22 35 53.5 59t70.5 37t81 13
q74 0 117 -29.5t58 -89.5q30 59 83 89t123 30q69 0 120.5 -31t80 -90.5t28.5 -144.5q0 -10 -3.5 -15t-14.5 -5l-392 -1v0zM649 502q-55 0 -99 -26.5t-70 -73.5t-27 -111l368 -1q12 0 14.5 3.5t2.5 12.5q0 54 -24.5 98.5t-67 71t-97.5 26.5v0zM417 265q0 8 -2.5 11.5
t-12.5 2.5l-95 -7q-75 -6 -122.5 -23t-70.5 -44.5t-23 -66.5q0 -50 35 -81t98 -28q54 3 97.5 23.5t69.5 53t26 71.5v88v0z" />
    <glyph glyph-name="ccedilla" unicode="&#xe7;" horiz-adv-x="537" 
d="M296 540q45 0 80.5 -13t64 -37t51.5 -57q5 -7 0 -10l-24 -16q-5 -3 -11 4q-27 34 -52.5 53.5t-50.5 28.5t-53 9q-61 0 -107 -29.5t-71 -83t-25 -124.5t25 -124.5t70.5 -83t106.5 -29.5q51 0 92 24.5t74 75.5q3 5 5 5.5t5 -1.5l23 -15q5 -3 2 -10q-18 -29 -40.5 -51
t-48.5 -36.5t-55 -22t-61 -7.5q-71 0 -125.5 34.5t-84.5 96t-30 142.5t30.5 143.5t85 98t124.5 35.5v0zM370 -129q0 -25 -13.5 -41.5t-36 -25t-50.5 -8.5q-22 0 -39.5 5.5t-33.5 15.5q-4 2 -3 6l9 20q2 4 7 1q10 -8 22 -13t34 -5q32 0 46 11t14 32q0 24 -19 35.5t-58 12.5
q-4 0 -4.5 1.5t0.5 2.5l36 84h34l-24 -60q-1 -3 3 -3q30 -3 46.5 -14t23 -26t6.5 -31v0z" />
    <glyph glyph-name="egrave" unicode="&#xe8;" horiz-adv-x="577" 
d="M98 240q0 -56 27 -104.5t72.5 -78t101.5 -29.5q60 0 104 24t71 69q3 5 5.5 5.5t5.5 -1.5l23 -15q6 -4 1 -10q-23 -36 -54 -60.5t-70 -37t-86 -12.5q-72 0 -126.5 34t-85.5 95.5t-31 141.5q0 88 31.5 150t86.5 95.5t125 33.5q71 0 122 -31.5t79 -91t28 -143.5q0 -6 -1 -13
t-12 -7h-411q-3 0 -4.5 -4.5t-1.5 -9.5v0zM469 290q11 0 14 3t3 11q0 55 -23 100t-65 71.5t-100 26.5q-66 0 -110.5 -32t-66.5 -81t-22 -99h370zM189 748q2 5 8 3l229 -91q6 -2 3 -10l-5 -15q-1 -4 -3.5 -5t-7.5 0l-227 74q-10 4 -7 12l10 32v0z" />
    <glyph glyph-name="eacute" unicode="&#xe9;" horiz-adv-x="577" 
d="M98 240q0 -56 27 -104.5t72.5 -78t101.5 -29.5q60 0 104 24t71 69q3 5 5.5 5.5t5.5 -1.5l23 -15q6 -4 1 -10q-23 -36 -54 -60.5t-70 -37t-86 -12.5q-72 0 -126.5 34t-85.5 95.5t-31 141.5q0 88 31.5 150t86.5 95.5t125 33.5q71 0 122 -31.5t79 -91t28 -143.5q0 -6 -1 -13
t-12 -7h-411q-3 0 -4.5 -4.5t-1.5 -9.5v0zM469 290q11 0 14 3t3 11q0 55 -23 100t-65 71.5t-100 26.5q-66 0 -110.5 -32t-66.5 -81t-22 -99h370zM426 720q3 -8 -7 -12l-227 -74q-4 -1 -6.5 0t-4.5 5l-5 15q-3 8 3 10l229 91q6 2 8 -3z" />
    <glyph glyph-name="ecircumflex" unicode="&#xea;" horiz-adv-x="577" 
d="M98 240q0 -56 27 -104.5t72.5 -78t101.5 -29.5q60 0 104 24t71 69q3 5 5.5 5.5t5.5 -1.5l23 -15q6 -4 1 -10q-23 -36 -54 -60.5t-70 -37t-86 -12.5q-72 0 -126.5 34t-85.5 95.5t-31 141.5q0 88 31.5 150t86.5 95.5t125 33.5q71 0 122 -31.5t79 -91t28 -143.5q0 -6 -1 -13
t-12 -7h-411q-3 0 -4.5 -4.5t-1.5 -9.5v0zM469 290q11 0 14 3t3 11q0 55 -23 100t-65 71.5t-100 26.5q-66 0 -110.5 -32t-66.5 -81t-22 -99h370zM306 698q-7 6 -9 6t-10 -6l-62 -48q-5 -4 -7.5 -5t-7.5 -1h-37q-5 0 -5.5 3t3.5 7l99 79q5 4 9 6.5t11 2.5h18q6 0 9.5 -3
t6.5 -5l98 -80q12 -10 -1 -10h-41q-4 0 -7.5 1.5t-7.5 4.5z" />
    <glyph glyph-name="edieresis" unicode="&#xeb;" horiz-adv-x="577" 
d="M98 240q0 -56 27 -104.5t72.5 -78t101.5 -29.5q60 0 104 24t71 69q3 5 5.5 5.5t5.5 -1.5l23 -15q6 -4 1 -10q-23 -36 -54 -60.5t-70 -37t-86 -12.5q-72 0 -126.5 34t-85.5 95.5t-31 141.5q0 88 31.5 150t86.5 95.5t125 33.5q71 0 122 -31.5t79 -91t28 -143.5q0 -6 -1 -13
t-12 -7h-411q-3 0 -4.5 -4.5t-1.5 -9.5v0zM469 290q11 0 14 3t3 11q0 55 -23 100t-65 71.5t-100 26.5q-66 0 -110.5 -32t-66.5 -81t-22 -99h370zM266 656q0 -7 -2 -9.5t-10 -2.5h-27q-7 0 -9 2t-2 8v78q0 10 9 10h32q9 0 9 -10v-76zM377 656q0 -7 -2 -9.5t-10 -2.5h-27
q-7 0 -9 2t-2 8v78q0 10 9 10h32q9 0 9 -10v-76z" />
    <glyph glyph-name="igrave" unicode="&#xec;" horiz-adv-x="222" 
d="M131 12q0 -7 -2 -9.5t-10 -2.5h-17q-7 0 -9 2t-2 8v510q0 10 9 10h22q9 0 9 -10v-508zM3 748q2 5 8 3l229 -91q6 -2 3 -10l-5 -15q-1 -4 -3.5 -5t-7.5 0l-227 74q-10 4 -7 12l10 32v0z" />
    <glyph glyph-name="iacute" unicode="&#xed;" horiz-adv-x="222" 
d="M131 12q0 -7 -2 -9.5t-10 -2.5h-17q-7 0 -9 2t-2 8v510q0 10 9 10h22q9 0 9 -10v-508zM240 720q3 -8 -7 -12l-227 -74q-4 -1 -6.5 0t-4.5 5l-5 15q-3 8 3 10l229 91q6 2 8 -3z" />
    <glyph glyph-name="icircumflex" unicode="&#xee;" horiz-adv-x="222" 
d="M131 12q0 -7 -2 -9.5t-10 -2.5h-17q-7 0 -9 2t-2 8v510q0 10 9 10h22q9 0 9 -10v-508zM120 698q-7 6 -9 6t-10 -6l-62 -48q-5 -4 -7.5 -5t-7.5 -1h-37q-5 0 -5.5 3t3.5 7l99 79q5 4 9 6.5t11 2.5h18q6 0 9.5 -3t6.5 -5l98 -80q12 -10 -1 -10h-41q-4 0 -7.5 1.5t-7.5 4.5z
" />
    <glyph glyph-name="idieresis" unicode="&#xef;" horiz-adv-x="222" 
d="M131 12q0 -7 -2 -9.5t-10 -2.5h-17q-7 0 -9 2t-2 8v510q0 10 9 10h22q9 0 9 -10v-508zM80 656q0 -7 -2 -9.5t-10 -2.5h-27q-7 0 -9 2t-2 8v78q0 10 9 10h32q9 0 9 -10v-76zM191 656q0 -7 -2 -9.5t-10 -2.5h-27q-7 0 -9 2t-2 8v78q0 10 9 10h32q9 0 9 -10v-76z" />
    <glyph glyph-name="eth" unicode="&#xf0;" horiz-adv-x="598" 
d="M542 255q0 -77 -29 -137t-84 -94t-132 -34q-72 0 -126 33.5t-84.5 92.5t-30.5 136q0 78 30 138.5t83 95t121 34.5q53 0 97 -18.5t76 -50.5q-23 54 -64 104t-106 93l-168 -95q-7 -4 -13 5l-9 14q-3 5 -2 7.5t3 3.5l155 87q-25 14 -53 27.5t-60 26.5q-4 2 -4.5 5t3.5 6
l18 12q5 3 8 4t10 -2q33 -13 61.5 -27t54.5 -30l104 58q6 4 9 -1l12 -22q3 -5 -1 -8l-90 -50q117 -79 164 -184t47 -230v0zM301 28q58 0 102.5 30t70.5 81.5t26 114.5q0 64 -26.5 115.5t-71.5 82t-102 30.5t-103 -31t-72.5 -82.5t-26.5 -114.5t26.5 -114t72.5 -81.5
t104 -30.5v0z" />
    <glyph glyph-name="ntilde" unicode="&#xf1;" horiz-adv-x="576" 
d="M100 0q-9 0 -9 9v512q0 9 8 9h21q8 0 8 -8v-62q0 -5 2 -6t6 3q38 27 68 45.5t60 28t66 9.5q80 0 121 -41t41 -106v-383q0 -10 -9 -10h-22q-4 0 -6.5 2.5t-2.5 6.5v368q0 59 -29 92t-94 33q-35 0 -65 -10.5t-61.5 -30.5t-71.5 -51v-401q0 -9 -9 -9h-22v0zM428 692
q-10 -6 -25 -12.5t-42 -6.5q-26 0 -44 6t-33.5 12t-36.5 6q-22 0 -34 -7.5t-22 -12.5q-4 -2 -6.5 -1.5t-4.5 5.5l-7 16q-1 4 -0.5 5.5t2.5 2.5q15 11 30.5 18.5t37.5 7.5t41 -6t37.5 -12.5t40.5 -6.5q17 0 27 4.5t23 11.5q5 3 8 2.5t5 -5.5l8 -18q2 -4 -5 -9v0z" />
    <glyph glyph-name="ograve" unicode="&#xf2;" horiz-adv-x="598" 
d="M299 -10q-73 0 -128 34.5t-85 96t-30 141.5q0 82 30.5 144.5t85.5 98t128 35.5t127 -35t84.5 -97.5t30.5 -143.5t-30.5 -142.5t-85 -96.5t-127.5 -35v0zM301 28q62 0 106.5 29.5t68.5 82.5t24 124t-24.5 124.5t-69.5 83.5t-106 30t-106.5 -30t-70.5 -83.5t-25 -124.5
q0 -70 25 -123.5t70.5 -83t107.5 -29.5v0zM193 748q2 5 8 3l229 -91q6 -2 3 -10l-5 -15q-1 -4 -3.5 -5t-7.5 0l-227 74q-10 4 -7 12l10 32v0z" />
    <glyph glyph-name="oacute" unicode="&#xf3;" horiz-adv-x="598" 
d="M299 -10q-73 0 -128 34.5t-85 96t-30 141.5q0 82 30.5 144.5t85.5 98t128 35.5t127 -35t84.5 -97.5t30.5 -143.5t-30.5 -142.5t-85 -96.5t-127.5 -35v0zM301 28q62 0 106.5 29.5t68.5 82.5t24 124t-24.5 124.5t-69.5 83.5t-106 30t-106.5 -30t-70.5 -83.5t-25 -124.5
q0 -70 25 -123.5t70.5 -83t107.5 -29.5v0zM430 720q3 -8 -7 -12l-227 -74q-4 -1 -6.5 0t-4.5 5l-5 15q-3 8 3 10l229 91q6 2 8 -3z" />
    <glyph glyph-name="ocircumflex" unicode="&#xf4;" horiz-adv-x="598" 
d="M299 -10q-73 0 -128 34.5t-85 96t-30 141.5q0 82 30.5 144.5t85.5 98t128 35.5t127 -35t84.5 -97.5t30.5 -143.5t-30.5 -142.5t-85 -96.5t-127.5 -35v0zM301 28q62 0 106.5 29.5t68.5 82.5t24 124t-24.5 124.5t-69.5 83.5t-106 30t-106.5 -30t-70.5 -83.5t-25 -124.5
q0 -70 25 -123.5t70.5 -83t107.5 -29.5v0zM310 698q-7 6 -9 6t-10 -6l-62 -48q-5 -4 -7.5 -5t-7.5 -1h-37q-5 0 -5.5 3t3.5 7l99 79q5 4 9 6.5t11 2.5h18q6 0 9.5 -3t6.5 -5l98 -80q12 -10 -1 -10h-41q-4 0 -7.5 1.5t-7.5 4.5z" />
    <glyph glyph-name="otilde" unicode="&#xf5;" horiz-adv-x="598" 
d="M299 -10q-73 0 -128 34.5t-85 96t-30 141.5q0 82 30.5 144.5t85.5 98t128 35.5t127 -35t84.5 -97.5t30.5 -143.5t-30.5 -142.5t-85 -96.5t-127.5 -35v0zM301 28q62 0 106.5 29.5t68.5 82.5t24 124t-24.5 124.5t-69.5 83.5t-106 30t-106.5 -30t-70.5 -83.5t-25 -124.5
q0 -70 25 -123.5t70.5 -83t107.5 -29.5v0zM426 692q-10 -6 -25 -12.5t-42 -6.5q-26 0 -44 6t-33.5 12t-36.5 6q-22 0 -34 -7.5t-22 -12.5q-4 -2 -6.5 -1.5t-4.5 5.5l-7 16q-1 4 -0.5 5.5t2.5 2.5q15 11 30.5 18.5t37.5 7.5t41 -6t37.5 -12.5t40.5 -6.5q17 0 27 4.5t23 11.5
q5 3 8 2.5t5 -5.5l8 -18q2 -4 -5 -9v0z" />
    <glyph glyph-name="odieresis" unicode="&#xf6;" horiz-adv-x="598" 
d="M299 -10q-73 0 -128 34.5t-85 96t-30 141.5q0 82 30.5 144.5t85.5 98t128 35.5t127 -35t84.5 -97.5t30.5 -143.5t-30.5 -142.5t-85 -96.5t-127.5 -35v0zM301 28q62 0 106.5 29.5t68.5 82.5t24 124t-24.5 124.5t-69.5 83.5t-106 30t-106.5 -30t-70.5 -83.5t-25 -124.5
q0 -70 25 -123.5t70.5 -83t107.5 -29.5v0zM270 656q0 -7 -2 -9.5t-10 -2.5h-27q-7 0 -9 2t-2 8v78q0 10 9 10h32q9 0 9 -10v-76zM381 656q0 -7 -2 -9.5t-10 -2.5h-27q-7 0 -9 2t-2 8v78q0 10 9 10h32q9 0 9 -10v-76z" />
    <glyph glyph-name="divide" unicode="&#xf7;" horiz-adv-x="541" 
d="M312 185q0 -11 -13 -11h-59q-10 0 -10 10v60q0 9 7 9h68q7 0 7 -8v-60zM471 362q0 -8 -10 -8l-383 -1q-4 0 -6 1.5t-2 5.5v24q0 7 5 7l389 1q7 0 7 -6v-24zM312 503q0 -11 -13 -11h-59q-10 0 -10 10v60q0 9 7 9h68q7 0 7 -8v-60z" />
    <glyph glyph-name="oslash" unicode="&#xf8;" horiz-adv-x="575" 
d="M51 4q-4 -4 -8.5 -4t-7.5 4l-11 12q-9 9 1 19l497 489q9 9 17 0l13 -13q6 -8 0 -14zM297 -10q-73 0 -128 34.5t-85 96t-30 141.5q0 82 30.5 144.5t85.5 98t128 35.5t127 -35t84.5 -97.5t30.5 -143.5t-30.5 -142.5t-85 -96.5t-127.5 -35v0zM299 28q62 0 106.5 29.5
t68.5 82.5t24 124t-24.5 124.5t-69.5 83.5t-106 30t-106.5 -30t-70.5 -83.5t-25 -124.5q0 -70 25 -123.5t70.5 -83t107.5 -29.5v0z" />
    <glyph glyph-name="ugrave" unicode="&#xf9;" horiz-adv-x="571" 
d="M246 28q51 0 98 28t96 77v388q0 9 9 9h22q9 0 9 -9v-512q0 -9 -8 -9h-21q-8 0 -8 8v64q0 5 -1.5 6t-6.5 -3q-63 -50 -106 -67.5t-82 -17.5q-47 0 -84 18.5t-58.5 52t-21.5 76.5v383q0 10 9 10h22q9 0 9 -9v-362q0 -58 32.5 -94.5t90.5 -36.5v0zM160 748q2 5 8 3l229 -91
q6 -2 3 -10l-5 -15q-1 -4 -3.5 -5t-7.5 0l-227 74q-10 4 -7 12l10 32v0z" />
    <glyph glyph-name="uacute" unicode="&#xfa;" horiz-adv-x="571" 
d="M246 28q51 0 98 28t96 77v388q0 9 9 9h22q9 0 9 -9v-512q0 -9 -8 -9h-21q-8 0 -8 8v64q0 5 -1.5 6t-6.5 -3q-63 -50 -106 -67.5t-82 -17.5q-47 0 -84 18.5t-58.5 52t-21.5 76.5v383q0 10 9 10h22q9 0 9 -9v-362q0 -58 32.5 -94.5t90.5 -36.5v0zM397 720q3 -8 -7 -12
l-227 -74q-4 -1 -6.5 0t-4.5 5l-5 15q-3 8 3 10l229 91q6 2 8 -3z" />
    <glyph glyph-name="ucircumflex" unicode="&#xfb;" horiz-adv-x="571" 
d="M246 28q51 0 98 28t96 77v388q0 9 9 9h22q9 0 9 -9v-512q0 -9 -8 -9h-21q-8 0 -8 8v64q0 5 -1.5 6t-6.5 -3q-63 -50 -106 -67.5t-82 -17.5q-47 0 -84 18.5t-58.5 52t-21.5 76.5v383q0 10 9 10h22q9 0 9 -9v-362q0 -58 32.5 -94.5t90.5 -36.5v0zM277 698q-7 6 -9 6t-10 -6
l-62 -48q-5 -4 -7.5 -5t-7.5 -1h-37q-5 0 -5.5 3t3.5 7l99 79q5 4 9 6.5t11 2.5h18q6 0 9.5 -3t6.5 -5l98 -80q12 -10 -1 -10h-41q-4 0 -7.5 1.5t-7.5 4.5z" />
    <glyph glyph-name="udieresis" unicode="&#xfc;" horiz-adv-x="571" 
d="M246 28q51 0 98 28t96 77v388q0 9 9 9h22q9 0 9 -9v-512q0 -9 -8 -9h-21q-8 0 -8 8v64q0 5 -1.5 6t-6.5 -3q-63 -50 -106 -67.5t-82 -17.5q-47 0 -84 18.5t-58.5 52t-21.5 76.5v383q0 10 9 10h22q9 0 9 -9v-362q0 -58 32.5 -94.5t90.5 -36.5v0zM237 656q0 -7 -2 -9.5
t-10 -2.5h-27q-7 0 -9 2t-2 8v78q0 10 9 10h32q9 0 9 -10v-76zM348 656q0 -7 -2 -9.5t-10 -2.5h-27q-7 0 -9 2t-2 8v78q0 10 9 10h32q9 0 9 -10v-76z" />
    <glyph glyph-name="yacute" unicode="&#xfd;" horiz-adv-x="508" 
d="M108 -165q-29 0 -46.5 1t-17.5 9v15q0 7 5.5 9t23.5 2h60q24 0 43.5 18t32.5 45t17 55t-4 48l-189 481q-2 5 -0.5 8.5t8.5 3.5h21q5 0 8 -1.5t4 -6.5l174 -444q4 -9 9 -8.5t9 12.5l170 441q2 4 4 5.5t6 1.5h22q5 0 7 -3t0 -6l-229 -598q-10 -25 -24 -42t-31.5 -27
t-38 -14.5t-44.5 -4.5v0zM384 720q3 -8 -7 -12l-227 -74q-4 -1 -6.5 0t-4.5 5l-5 15q-3 8 3 10l229 91q6 2 8 -3z" />
    <glyph glyph-name="thorn" unicode="&#xfe;" horiz-adv-x="588" 
d="M119 742q10 0 10 -11v-263q0 -8 3 -9t9 5q8 9 26.5 27t51.5 33.5t85 15.5q64 0 115.5 -29.5t82 -88t30.5 -147.5q0 -85 -29.5 -149t-83 -100t-127.5 -36q-51 0 -88 16t-59 34q-8 7 -11 5t-3 -12v-188q0 -10 -9 -10h-23q-8 0 -8 9v886q0 7 2.5 9.5t9.5 2.5h16v0zM131 104
q37 -35 75.5 -55.5t84.5 -20.5q58 0 102.5 29t70.5 83.5t26 130.5q0 80 -27 131t-70.5 75.5t-93.5 24.5t-88 -22t-59 -54t-21 -62v-260v0z" />
    <glyph glyph-name="ydieresis" unicode="&#xff;" horiz-adv-x="508" 
d="M108 -165q-29 0 -46.5 1t-17.5 9v15q0 7 5.5 9t23.5 2h60q24 0 43.5 18t32.5 45t17 55t-4 48l-189 481q-2 5 -0.5 8.5t8.5 3.5h21q5 0 8 -1.5t4 -6.5l174 -444q4 -9 9 -8.5t9 12.5l170 441q2 4 4 5.5t6 1.5h22q5 0 7 -3t0 -6l-229 -598q-10 -25 -24 -42t-31.5 -27
t-38 -14.5t-44.5 -4.5v0zM224 656q0 -7 -2 -9.5t-10 -2.5h-27q-7 0 -9 2t-2 8v78q0 10 9 10h32q9 0 9 -10v-76zM335 656q0 -7 -2 -9.5t-10 -2.5h-27q-7 0 -9 2t-2 8v78q0 10 9 10h32q9 0 9 -10v-76z" />
    <glyph glyph-name="Amacron" unicode="&#x100;" horiz-adv-x="700" 
d="M60 0q-4 0 -6 2.5t-1 6.5l265 722q2 6 5.5 8.5t10.5 2.5h33q15 0 18 -10l262 -722q2 -4 -0.5 -7t-7.5 -3h-24q-10 0 -13 8l-81 223q-1 4 -3 5.5t-7 1.5h-322q-7 0 -10 -7l-83 -224q-1 -4 -3.5 -5.5t-7.5 -1.5h-25v0zM494 278q10 0 7 10l-143 390q-4 10 -7.5 10t-7.5 -11
l-145 -391q-3 -8 5 -8h291zM476 904q0 -8 -10 -8h-235q-4 0 -5.5 2t-1.5 6v23q0 7 5 7h242q5 0 5 -6v-24z" />
    <glyph glyph-name="amacron" unicode="&#x101;" horiz-adv-x="538" 
d="M408 72q-41 -41 -87.5 -61.5t-102.5 -20.5q-79 0 -124.5 39t-45.5 106q0 51 27.5 87t82.5 57.5t137 28.5l105 9q8 1 12.5 4.5t4.5 10.5v31q0 64 -40.5 101.5t-108.5 37.5q-52 0 -93 -23.5t-75 -68.5q-3 -4 -5 -5t-5 1l-24 15q-2 2 -2.5 4t2.5 6q32 47 82.5 78t121.5 31
q57 0 99 -20.5t65 -59.5t23 -93v-357q0 -6 -2.5 -8t-7.5 -2h-18q-4 0 -6.5 2t-2.5 7l-2 61q-2 12 -10 2v0zM417 266q0 16 -14 14l-89 -7q-59 -4 -101.5 -15t-69.5 -28t-40 -40t-13 -52q0 -52 36.5 -81t97.5 -29q37 0 72.5 13.5t63.5 35.5q28 23 42.5 47.5t14.5 46.5v95v0z
M392 692q0 -8 -10 -8h-235q-4 0 -5.5 2t-1.5 6v23q0 7 5 7h242q5 0 5 -6v-24z" />
    <glyph glyph-name="Abreve" unicode="&#x102;" horiz-adv-x="700" 
d="M60 0q-4 0 -6 2.5t-1 6.5l265 722q2 6 5.5 8.5t10.5 2.5h33q15 0 18 -10l262 -722q2 -4 -0.5 -7t-7.5 -3h-24q-10 0 -13 8l-81 223q-1 4 -3 5.5t-7 1.5h-322q-7 0 -10 -7l-83 -224q-1 -4 -3.5 -5.5t-7.5 -1.5h-25v0zM494 278q10 0 7 10l-143 390q-4 10 -7.5 10t-7.5 -11
l-145 -391q-3 -8 5 -8h291zM472 954q10 0 7 -9q-4 -16 -20 -35.5t-43.5 -33.5t-67.5 -14q-38 0 -64 13.5t-41 33t-21 37.5q-1 2 -0.5 5t4.5 3h35q5 0 7 -1.5t5 -5.5q5 -6 13 -16.5t23 -19t39 -8.5q35 0 53.5 15.5t26.5 29.5q2 4 4 5t5 1h35v0z" />
    <glyph glyph-name="abreve" unicode="&#x103;" horiz-adv-x="538" 
d="M408 72q-41 -41 -87.5 -61.5t-102.5 -20.5q-79 0 -124.5 39t-45.5 106q0 51 27.5 87t82.5 57.5t137 28.5l105 9q8 1 12.5 4.5t4.5 10.5v31q0 64 -40.5 101.5t-108.5 37.5q-52 0 -93 -23.5t-75 -68.5q-3 -4 -5 -5t-5 1l-24 15q-2 2 -2.5 4t2.5 6q32 47 82.5 78t121.5 31
q57 0 99 -20.5t65 -59.5t23 -93v-357q0 -6 -2.5 -8t-7.5 -2h-18q-4 0 -6.5 2t-2.5 7l-2 61q-2 12 -10 2v0zM417 266q0 16 -14 14l-89 -7q-59 -4 -101.5 -15t-69.5 -28t-40 -40t-13 -52q0 -52 36.5 -81t97.5 -29q37 0 72.5 13.5t63.5 35.5q28 23 42.5 47.5t14.5 46.5v95v0z
M388 742q10 0 7 -9q-4 -16 -20 -35.5t-43.5 -33.5t-67.5 -14q-38 0 -64 13.5t-41 33t-21 37.5q-1 2 -0.5 5t4.5 3h35q5 0 7 -1.5t5 -5.5q5 -6 13 -16.5t23 -19t39 -8.5q35 0 53.5 15.5t26.5 29.5q2 4 4 5t5 1h35v0z" />
    <glyph glyph-name="Aogonek" unicode="&#x104;" horiz-adv-x="700" 
d="M60 0q-4 0 -6 2.5t-1 6.5l265 722q2 6 5.5 8.5t10.5 2.5h33q15 0 18 -10l262 -722q2 -4 -0.5 -7t-7.5 -3h-24q-10 0 -13 8l-81 223q-1 4 -3 5.5t-7 1.5h-322q-7 0 -10 -7l-83 -224q-1 -4 -3.5 -5.5t-7.5 -1.5h-25v0zM494 278q10 0 7 10l-143 390q-4 10 -7.5 10t-7.5 -11
l-145 -391q-3 -8 5 -8h291zM499 -91q0 33 24 58t87 43l34 -9q-50 -23 -75.5 -44t-25.5 -50q0 -21 13.5 -31.5t44.5 -10.5q23 0 41 4.5t24 7.5q8 4 8 -3v-20q0 -5 -5 -8q-11 -5 -32.5 -10t-45.5 -5q-48 0 -70 22t-22 56v0z" />
    <glyph glyph-name="aogonek" unicode="&#x105;" horiz-adv-x="538" 
d="M408 72q-41 -41 -87.5 -61.5t-102.5 -20.5q-79 0 -124.5 39t-45.5 106q0 51 27.5 87t82.5 57.5t137 28.5l105 9q8 1 12.5 4.5t4.5 10.5v31q0 64 -40.5 101.5t-108.5 37.5q-52 0 -93 -23.5t-75 -68.5q-3 -4 -5 -5t-5 1l-24 15q-2 2 -2.5 4t2.5 6q32 47 82.5 78t121.5 31
q57 0 99 -20.5t65 -59.5t23 -93v-357q0 -6 -2.5 -8t-7.5 -2h-18q-4 0 -6.5 2t-2.5 7l-2 61q-2 12 -10 2v0zM417 266q0 16 -14 14l-89 -7q-59 -4 -101.5 -15t-69.5 -28t-40 -40t-13 -52q0 -52 36.5 -81t97.5 -29q37 0 72.5 13.5t63.5 35.5q28 23 42.5 47.5t14.5 46.5v95v0z
M311 -88q0 33 24 58t87 43l34 -9q-50 -23 -75.5 -44t-25.5 -50q0 -21 13.5 -31.5t44.5 -10.5q23 0 41 4.5t24 7.5q8 4 8 -3v-20q0 -5 -5 -8q-11 -5 -32.5 -10t-45.5 -5q-48 0 -70 22t-22 56v0z" />
    <glyph glyph-name="Cacute" unicode="&#x106;" horiz-adv-x="695" 
d="M375 752q46 0 89.5 -16t79 -43.5t58.5 -62.5t27 -74q1 -4 0 -5.5t-5 -1.5l-36 -4q-3 -1 -4.5 1t-2.5 6q-17 71 -72.5 114.5t-131.5 43.5q-122 0 -186.5 -87.5t-64.5 -254.5q0 -161 64.5 -248.5t194.5 -87.5q78 0 129 37.5t81 116.5q2 3 6 2l34 -10q2 -1 2.5 -2.5
t-0.5 -4.5q-10 -33 -28 -61t-42 -50t-53.5 -38t-63 -24t-69.5 -8q-96 0 -164 44.5t-103.5 129t-35.5 204.5q0 121 35.5 207t102 131.5t159.5 45.5v0zM504 932q3 -8 -7 -12l-227 -74q-4 -1 -6.5 0t-4.5 5l-5 15q-3 8 3 10l229 91q6 2 8 -3z" />
    <glyph glyph-name="cacute" unicode="&#x107;" horiz-adv-x="537" 
d="M296 540q45 0 80.5 -13t64 -37t51.5 -57q5 -7 0 -10l-24 -16q-5 -3 -11 4q-27 34 -52.5 53.5t-50.5 28.5t-53 9q-61 0 -107 -29.5t-71 -83t-25 -124.5t25 -124.5t70.5 -83t106.5 -29.5q51 0 92 24.5t74 75.5q3 5 5 5.5t5 -1.5l23 -15q5 -3 2 -10q-18 -29 -40.5 -51
t-48.5 -36.5t-55 -22t-61 -7.5q-71 0 -125.5 34.5t-84.5 96t-30 142.5t30.5 143.5t85 98t124.5 35.5v0zM424 720q3 -8 -7 -12l-227 -74q-4 -1 -6.5 0t-4.5 5l-5 15q-3 8 3 10l229 91q6 2 8 -3z" />
    <glyph glyph-name="Ccircumflex" unicode="&#x108;" horiz-adv-x="695" 
d="M375 752q46 0 89.5 -16t79 -43.5t58.5 -62.5t27 -74q1 -4 0 -5.5t-5 -1.5l-36 -4q-3 -1 -4.5 1t-2.5 6q-17 71 -72.5 114.5t-131.5 43.5q-122 0 -186.5 -87.5t-64.5 -254.5q0 -161 64.5 -248.5t194.5 -87.5q78 0 129 37.5t81 116.5q2 3 6 2l34 -10q2 -1 2.5 -2.5
t-0.5 -4.5q-10 -33 -28 -61t-42 -50t-53.5 -38t-63 -24t-69.5 -8q-96 0 -164 44.5t-103.5 129t-35.5 204.5q0 121 35.5 207t102 131.5t159.5 45.5v0zM384 910q-7 6 -9 6t-10 -6l-62 -48q-5 -4 -7.5 -5t-7.5 -1h-37q-5 0 -5.5 3t3.5 7l99 79q5 4 9 6.5t11 2.5h18q6 0 9.5 -3
t6.5 -5l98 -80q12 -10 -1 -10h-41q-4 0 -7.5 1.5t-7.5 4.5z" />
    <glyph glyph-name="ccircumflex" unicode="&#x109;" horiz-adv-x="537" 
d="M296 540q45 0 80.5 -13t64 -37t51.5 -57q5 -7 0 -10l-24 -16q-5 -3 -11 4q-27 34 -52.5 53.5t-50.5 28.5t-53 9q-61 0 -107 -29.5t-71 -83t-25 -124.5t25 -124.5t70.5 -83t106.5 -29.5q51 0 92 24.5t74 75.5q3 5 5 5.5t5 -1.5l23 -15q5 -3 2 -10q-18 -29 -40.5 -51
t-48.5 -36.5t-55 -22t-61 -7.5q-71 0 -125.5 34.5t-84.5 96t-30 142.5t30.5 143.5t85 98t124.5 35.5v0zM304 698q-7 6 -9 6t-10 -6l-62 -48q-5 -4 -7.5 -5t-7.5 -1h-37q-5 0 -5.5 3t3.5 7l99 79q5 4 9 6.5t11 2.5h18q6 0 9.5 -3t6.5 -5l98 -80q12 -10 -1 -10h-41
q-4 0 -7.5 1.5t-7.5 4.5z" />
    <glyph glyph-name="Cdotaccent" unicode="&#x10a;" horiz-adv-x="695" 
d="M375 752q46 0 89.5 -16t79 -43.5t58.5 -62.5t27 -74q1 -4 0 -5.5t-5 -1.5l-36 -4q-3 -1 -4.5 1t-2.5 6q-17 71 -72.5 114.5t-131.5 43.5q-122 0 -186.5 -87.5t-64.5 -254.5q0 -161 64.5 -248.5t194.5 -87.5q78 0 129 37.5t81 116.5q2 3 6 2l34 -10q2 -1 2.5 -2.5
t-0.5 -4.5q-10 -33 -28 -61t-42 -50t-53.5 -38t-63 -24t-69.5 -8q-96 0 -164 44.5t-103.5 129t-35.5 204.5q0 121 35.5 207t102 131.5t159.5 45.5v0zM400 868q0 -7 -2 -9.5t-10 -2.5h-27q-7 0 -9 2t-2 8v78q0 10 9 10h32q9 0 9 -10v-76z" />
    <glyph glyph-name="cdotaccent" unicode="&#x10b;" horiz-adv-x="537" 
d="M296 540q45 0 80.5 -13t64 -37t51.5 -57q5 -7 0 -10l-24 -16q-5 -3 -11 4q-27 34 -52.5 53.5t-50.5 28.5t-53 9q-61 0 -107 -29.5t-71 -83t-25 -124.5t25 -124.5t70.5 -83t106.5 -29.5q51 0 92 24.5t74 75.5q3 5 5 5.5t5 -1.5l23 -15q5 -3 2 -10q-18 -29 -40.5 -51
t-48.5 -36.5t-55 -22t-61 -7.5q-71 0 -125.5 34.5t-84.5 96t-30 142.5t30.5 143.5t85 98t124.5 35.5v0zM320 656q0 -7 -2 -9.5t-10 -2.5h-27q-7 0 -9 2t-2 8v78q0 10 9 10h32q9 0 9 -10v-76z" />
    <glyph glyph-name="Ccaron" unicode="&#x10c;" horiz-adv-x="695" 
d="M375 752q46 0 89.5 -16t79 -43.5t58.5 -62.5t27 -74q1 -4 0 -5.5t-5 -1.5l-36 -4q-3 -1 -4.5 1t-2.5 6q-17 71 -72.5 114.5t-131.5 43.5q-122 0 -186.5 -87.5t-64.5 -254.5q0 -161 64.5 -248.5t194.5 -87.5q78 0 129 37.5t81 116.5q2 3 6 2l34 -10q2 -1 2.5 -2.5
t-0.5 -4.5q-10 -33 -28 -61t-42 -50t-53.5 -38t-63 -24t-69.5 -8q-96 0 -164 44.5t-103.5 129t-35.5 204.5q0 121 35.5 207t102 131.5t159.5 45.5v0zM443 948q4 3 7.5 4.5t7.5 1.5h41q13 0 1 -10l-98 -80q-3 -2 -6.5 -5t-9.5 -3h-18q-7 0 -11 2.5t-9 6.5l-99 79q-4 4 -3.5 7
t5.5 3h37q5 0 7.5 -1t7.5 -5l62 -48q8 -6 10 -6t9 6l59 48v0z" />
    <glyph glyph-name="ccaron" unicode="&#x10d;" horiz-adv-x="537" 
d="M296 540q45 0 80.5 -13t64 -37t51.5 -57q5 -7 0 -10l-24 -16q-5 -3 -11 4q-27 34 -52.5 53.5t-50.5 28.5t-53 9q-61 0 -107 -29.5t-71 -83t-25 -124.5t25 -124.5t70.5 -83t106.5 -29.5q51 0 92 24.5t74 75.5q3 5 5 5.5t5 -1.5l23 -15q5 -3 2 -10q-18 -29 -40.5 -51
t-48.5 -36.5t-55 -22t-61 -7.5q-71 0 -125.5 34.5t-84.5 96t-30 142.5t30.5 143.5t85 98t124.5 35.5v0zM363 736q4 3 7.5 4.5t7.5 1.5h41q13 0 1 -10l-98 -80q-3 -2 -6.5 -5t-9.5 -3h-18q-7 0 -11 2.5t-9 6.5l-99 79q-4 4 -3.5 7t5.5 3h37q5 0 7.5 -1t7.5 -5l62 -48
q8 -6 10 -6t9 6l59 48v0z" />
    <glyph glyph-name="Dcaron" unicode="&#x10e;" horiz-adv-x="703" 
d="M124 742h17.5t37.5 -0.5t38.5 -0.5h21.5q140 -1 225 -41t123.5 -119.5t38.5 -201.5q0 -132 -43 -216t-132 -123.5t-226 -39.5h-102q-9 0 -9 10v722q0 5 2.5 7.5t7.5 2.5v0zM170 701q-10 0 -10 -14v-638q0 -9 11 -9h50q129 0 207.5 32.5t114 105.5t35.5 193
q0 131 -38.5 202.5t-117 99.5t-199.5 28h-53v0zM404 948q4 3 7.5 4.5t7.5 1.5h41q13 0 1 -10l-98 -80q-3 -2 -6.5 -5t-9.5 -3h-18q-7 0 -11 2.5t-9 6.5l-99 79q-4 4 -3.5 7t5.5 3h37q5 0 7.5 -1t7.5 -5l62 -48q8 -6 10 -6t9 6l59 48v0z" />
    <glyph glyph-name="dcaron" unicode="&#x10f;" horiz-adv-x="642" 
d="M473 0q-5 0 -7.5 3t-2.5 8v51q0 8 -3 9t-9 -5q-8 -8 -28 -26.5t-53.5 -34t-81.5 -15.5q-64 0 -116.5 29.5t-83.5 88.5t-31 147q0 85 30 149t85 100t128 36q55 0 89.5 -18t57.5 -36q9 -7 11.5 -5t2.5 12v239q0 10 9 10h23q8 0 8 -9v-721q0 -7 -2.5 -9.5t-9.5 -2.5h-16v0z
M461 426q-37 36 -75.5 56t-84.5 20q-58 0 -104 -29t-72 -83.5t-26 -130.5q0 -79 27 -130.5t71.5 -76t95.5 -24.5q48 0 86 23t60 56t22 63v256v0zM569 567q-3 0 -4.5 2.5t-0.5 4.5l30 70q3 8 -3 9l-5 1q-8 1 -8 8v73q0 7 6 7h43q5 0 5 -6v-82q0 -1 -0.5 -2t-0.5 -2l-33 -76
q-1 -4 -4 -5.5t-9 -1.5h-16v0z" />
    <glyph glyph-name="Dcroat" unicode="&#x110;" horiz-adv-x="703" 
d="M342 364q0 -11 -13 -11h-284q-6 0 -8 2.5t-2 7.5v23q0 9 7 9h293q7 0 7 -8v-23zM124 742h17.5t37.5 -0.5t38.5 -0.5h21.5q140 -1 225 -41t123.5 -119.5t38.5 -201.5q0 -132 -43 -216t-132 -123.5t-226 -39.5h-102q-9 0 -9 10v722q0 5 2.5 7.5t7.5 2.5v0zM170 701
q-10 0 -10 -14v-638q0 -9 11 -9h50q129 0 207.5 32.5t114 105.5t35.5 193q0 131 -38.5 202.5t-117 99.5t-199.5 28h-53v0z" />
    <glyph glyph-name="dcroat" unicode="&#x111;" horiz-adv-x="602" 
d="M577 635q0 -8 -10 -8h-272q-4 0 -5.5 2t-1.5 6v20q0 7 5 7h279q5 0 5 -6v-21zM473 0q-5 0 -7.5 3t-2.5 8v51q0 8 -3 9t-9 -5q-8 -8 -28 -26.5t-53.5 -34t-81.5 -15.5q-64 0 -116.5 29.5t-83.5 88.5t-31 147q0 85 30 149t85 100t128 36q55 0 89.5 -18t57.5 -36
q9 -7 11.5 -5t2.5 12v239q0 10 9 10h23q8 0 8 -9v-721q0 -7 -2.5 -9.5t-9.5 -2.5h-16v0zM461 426q-37 36 -75.5 56t-84.5 20q-58 0 -104 -29t-72 -83.5t-26 -130.5q0 -79 27 -130.5t71.5 -76t95.5 -24.5q48 0 86 23t60 56t22 63v256v0z" />
    <glyph glyph-name="Emacron" unicode="&#x112;" horiz-adv-x="612" 
d="M114 732q0 10 9 10h415q7 0 7 -7v-26q0 -7 -8 -7h-368q-9 0 -9 -9v-291q0 -7 9 -7h289q7 0 7 -7v-26q0 -4 -1.5 -5.5t-6.5 -1.5h-288q-9 0 -9 -9v-297q0 -9 9 -9h383q8 0 8 -7v-26q0 -4 -1.5 -5.5t-5.5 -1.5h-430q-9 0 -9 10v722v0zM471 904q0 -8 -10 -8h-235
q-4 0 -5.5 2t-1.5 6v23q0 7 5 7h242q5 0 5 -6v-24z" />
    <glyph glyph-name="emacron" unicode="&#x113;" horiz-adv-x="577" 
d="M98 240q0 -56 27 -104.5t72.5 -78t101.5 -29.5q60 0 104 24t71 69q3 5 5.5 5.5t5.5 -1.5l23 -15q6 -4 1 -10q-23 -36 -54 -60.5t-70 -37t-86 -12.5q-72 0 -126.5 34t-85.5 95.5t-31 141.5q0 88 31.5 150t86.5 95.5t125 33.5q71 0 122 -31.5t79 -91t28 -143.5q0 -6 -1 -13
t-12 -7h-411q-3 0 -4.5 -4.5t-1.5 -9.5v0zM469 290q11 0 14 3t3 11q0 55 -23 100t-65 71.5t-100 26.5q-66 0 -110.5 -32t-66.5 -81t-22 -99h370zM423 692q0 -8 -10 -8h-235q-4 0 -5.5 2t-1.5 6v23q0 7 5 7h242q5 0 5 -6v-24z" />
    <glyph glyph-name="Ebreve" unicode="&#x114;" horiz-adv-x="612" 
d="M114 732q0 10 9 10h415q7 0 7 -7v-26q0 -7 -8 -7h-368q-9 0 -9 -9v-291q0 -7 9 -7h289q7 0 7 -7v-26q0 -4 -1.5 -5.5t-6.5 -1.5h-288q-9 0 -9 -9v-297q0 -9 9 -9h383q8 0 8 -7v-26q0 -4 -1.5 -5.5t-5.5 -1.5h-430q-9 0 -9 10v722v0zM467 954q10 0 7 -9q-4 -16 -20 -35.5
t-43.5 -33.5t-67.5 -14q-38 0 -64 13.5t-41 33t-21 37.5q-1 2 -0.5 5t4.5 3h35q5 0 7 -1.5t5 -5.5q5 -6 13 -16.5t23 -19t39 -8.5q35 0 53.5 15.5t26.5 29.5q2 4 4 5t5 1h35v0z" />
    <glyph glyph-name="ebreve" unicode="&#x115;" horiz-adv-x="577" 
d="M98 240q0 -56 27 -104.5t72.5 -78t101.5 -29.5q60 0 104 24t71 69q3 5 5.5 5.5t5.5 -1.5l23 -15q6 -4 1 -10q-23 -36 -54 -60.5t-70 -37t-86 -12.5q-72 0 -126.5 34t-85.5 95.5t-31 141.5q0 88 31.5 150t86.5 95.5t125 33.5q71 0 122 -31.5t79 -91t28 -143.5q0 -6 -1 -13
t-12 -7h-411q-3 0 -4.5 -4.5t-1.5 -9.5v0zM469 290q11 0 14 3t3 11q0 55 -23 100t-65 71.5t-100 26.5q-66 0 -110.5 -32t-66.5 -81t-22 -99h370zM419 742q10 0 7 -9q-4 -16 -20 -35.5t-43.5 -33.5t-67.5 -14q-38 0 -64 13.5t-41 33t-21 37.5q-1 2 -0.5 5t4.5 3h35
q5 0 7 -1.5t5 -5.5q5 -6 13 -16.5t23 -19t39 -8.5q35 0 53.5 15.5t26.5 29.5q2 4 4 5t5 1h35v0z" />
    <glyph glyph-name="Edotaccent" unicode="&#x116;" horiz-adv-x="612" 
d="M114 732q0 10 9 10h415q7 0 7 -7v-26q0 -7 -8 -7h-368q-9 0 -9 -9v-291q0 -7 9 -7h289q7 0 7 -7v-26q0 -4 -1.5 -5.5t-6.5 -1.5h-288q-9 0 -9 -9v-297q0 -9 9 -9h383q8 0 8 -7v-26q0 -4 -1.5 -5.5t-5.5 -1.5h-430q-9 0 -9 10v722v0zM370 868q0 -7 -2 -9.5t-10 -2.5h-27
q-7 0 -9 2t-2 8v78q0 10 9 10h32q9 0 9 -10v-76z" />
    <glyph glyph-name="edotaccent" unicode="&#x117;" horiz-adv-x="577" 
d="M98 240q0 -56 27 -104.5t72.5 -78t101.5 -29.5q60 0 104 24t71 69q3 5 5.5 5.5t5.5 -1.5l23 -15q6 -4 1 -10q-23 -36 -54 -60.5t-70 -37t-86 -12.5q-72 0 -126.5 34t-85.5 95.5t-31 141.5q0 88 31.5 150t86.5 95.5t125 33.5q71 0 122 -31.5t79 -91t28 -143.5q0 -6 -1 -13
t-12 -7h-411q-3 0 -4.5 -4.5t-1.5 -9.5v0zM469 290q11 0 14 3t3 11q0 55 -23 100t-65 71.5t-100 26.5q-66 0 -110.5 -32t-66.5 -81t-22 -99h370zM330 656q0 -7 -2 -9.5t-10 -2.5h-27q-7 0 -9 2t-2 8v78q0 10 9 10h32q9 0 9 -10v-76z" />
    <glyph glyph-name="Eogonek" unicode="&#x118;" horiz-adv-x="612" 
d="M114 732q0 10 9 10h415q7 0 7 -7v-26q0 -7 -8 -7h-368q-9 0 -9 -9v-291q0 -7 9 -7h289q7 0 7 -7v-26q0 -4 -1.5 -5.5t-6.5 -1.5h-288q-9 0 -9 -9v-297q0 -9 9 -9h383q8 0 8 -7v-26q0 -4 -1.5 -5.5t-5.5 -1.5h-430q-9 0 -9 10v722v0zM409 -92q0 33 24 58t87 43l34 -9
q-50 -23 -75.5 -44t-25.5 -50q0 -21 13.5 -31.5t44.5 -10.5q23 0 41 4.5t24 7.5q8 4 8 -3v-20q0 -5 -5 -8q-11 -5 -32.5 -10t-45.5 -5q-48 0 -70 22t-22 56v0z" />
    <glyph glyph-name="eogonek" unicode="&#x119;" horiz-adv-x="577" 
d="M98 240q0 -56 27 -104.5t72.5 -78t101.5 -29.5q60 0 104 24t71 69q3 5 5.5 5.5t5.5 -1.5l23 -15q6 -4 1 -10q-23 -36 -54 -60.5t-70 -37t-86 -12.5q-72 0 -126.5 34t-85.5 95.5t-31 141.5q0 88 31.5 150t86.5 95.5t125 33.5q71 0 122 -31.5t79 -91t28 -143.5q0 -6 -1 -13
t-12 -7h-411q-3 0 -4.5 -4.5t-1.5 -9.5v0zM469 290q11 0 14 3t3 11q0 55 -23 100t-65 71.5t-100 26.5q-66 0 -110.5 -32t-66.5 -81t-22 -99h370zM253 -84q0 33 24 58t87 43l34 -9q-50 -23 -75.5 -44t-25.5 -50q0 -21 13.5 -31.5t44.5 -10.5q23 0 41 4.5t24 7.5q8 4 8 -3v-20
q0 -5 -5 -8q-11 -5 -32.5 -10t-45.5 -5q-48 0 -70 22t-22 56v0z" />
    <glyph glyph-name="Ecaron" unicode="&#x11a;" horiz-adv-x="612" 
d="M114 732q0 10 9 10h415q7 0 7 -7v-26q0 -7 -8 -7h-368q-9 0 -9 -9v-291q0 -7 9 -7h289q7 0 7 -7v-26q0 -4 -1.5 -5.5t-6.5 -1.5h-288q-9 0 -9 -9v-297q0 -9 9 -9h383q8 0 8 -7v-26q0 -4 -1.5 -5.5t-5.5 -1.5h-430q-9 0 -9 10v722v0zM413 948q4 3 7.5 4.5t7.5 1.5h41
q13 0 1 -10l-98 -80q-3 -2 -6.5 -5t-9.5 -3h-18q-7 0 -11 2.5t-9 6.5l-99 79q-4 4 -3.5 7t5.5 3h37q5 0 7.5 -1t7.5 -5l62 -48q8 -6 10 -6t9 6l59 48v0z" />
    <glyph glyph-name="ecaron" unicode="&#x11b;" horiz-adv-x="577" 
d="M98 240q0 -56 27 -104.5t72.5 -78t101.5 -29.5q60 0 104 24t71 69q3 5 5.5 5.5t5.5 -1.5l23 -15q6 -4 1 -10q-23 -36 -54 -60.5t-70 -37t-86 -12.5q-72 0 -126.5 34t-85.5 95.5t-31 141.5q0 88 31.5 150t86.5 95.5t125 33.5q71 0 122 -31.5t79 -91t28 -143.5q0 -6 -1 -13
t-12 -7h-411q-3 0 -4.5 -4.5t-1.5 -9.5v0zM469 290q11 0 14 3t3 11q0 55 -23 100t-65 71.5t-100 26.5q-66 0 -110.5 -32t-66.5 -81t-22 -99h370zM365 736q4 3 7.5 4.5t7.5 1.5h41q13 0 1 -10l-98 -80q-3 -2 -6.5 -5t-9.5 -3h-18q-7 0 -11 2.5t-9 6.5l-99 79q-4 4 -3.5 7
t5.5 3h37q5 0 7.5 -1t7.5 -5l62 -48q8 -6 10 -6t9 6l59 48v0z" />
    <glyph glyph-name="Gcircumflex" unicode="&#x11c;" horiz-adv-x="730" 
d="M373 -10q-92 0 -158.5 44.5t-101.5 129t-35 204.5q0 123 36.5 209t103 130.5t156.5 44.5q62 0 117.5 -26.5t93 -70.5t43.5 -96q0 -3 -0.5 -5t-4.5 -3l-35 -6q-2 -1 -4 0.5t-3 5.5q-8 45 -37 81t-73 57t-97 21q-80 0 -135.5 -40t-84 -115.5t-28.5 -180.5q0 -110 28 -186.5
t83.5 -116t136.5 -39.5q59 0 102.5 21t71.5 55t42 73t14 74v79q0 8 -11 8h-189q-4 0 -5.5 1.5t-1.5 4.5v23q0 6 5 6h236q3 0 4.5 -1.5t1.5 -4.5v-360q0 -7 -2.5 -9t-7.5 -2h-17q-6 0 -9.5 1t-3.5 8v106q0 5 -2.5 5t-5.5 -5q-19 -35 -50 -63.5t-74 -45t-99 -16.5v0zM383 910
q-7 6 -9 6t-10 -6l-62 -48q-5 -4 -7.5 -5t-7.5 -1h-37q-5 0 -5.5 3t3.5 7l99 79q5 4 9 6.5t11 2.5h18q6 0 9.5 -3t6.5 -5l98 -80q12 -10 -1 -10h-41q-4 0 -7.5 1.5t-7.5 4.5z" />
    <glyph glyph-name="gcircumflex" unicode="&#x11d;" horiz-adv-x="582" 
d="M533 530q11 0 15 -3t4 -10v-13q0 -7 -3 -11t-14 -5q-19 -1 -31 -4t-24 -10q-24 -13 -20 -23q5 -13 13 -31.5t8 -50.5q0 -44 -21 -80.5t-65.5 -58t-115.5 -21.5q-57 0 -89.5 -7t-45.5 -18.5t-13 -23.5q0 -18 25.5 -26t83.5 -11l120 -7q80 -4 117 -40t37 -95
q0 -75 -63 -115.5t-176 -40.5q-115 0 -177.5 39t-62.5 109q0 36 22.5 67.5t69.5 57.5q11 6 0 11q-20 9 -29 21.5t-9 28.5q0 11 6.5 23t21 22.5t39.5 18.5q6 2 5 5.5t-6 6.5q-41 23 -60 55.5t-19 78.5q0 80 55.5 124.5t154.5 44.5q50 0 84 -11.5t59 -33.5q5 -4 9 -4.5t9 3.5
q10 8 23 16.5t29 15t34 6.5v0zM280 247q81 0 121 31.5t40 92.5q0 62 -40.5 95.5t-120.5 33.5q-78 0 -121 -33.5t-43 -95.5q0 -61 42.5 -92.5t121.5 -31.5v0zM183 86q-16 1 -41 -12.5t-45 -38.5t-20 -58q0 -36 24.5 -61.5t71 -39t111.5 -13.5q92 0 140 28.5t48 89.5
q0 41 -25 65.5t-88 28.5zM292 698q-7 6 -9 6t-10 -6l-62 -48q-5 -4 -7.5 -5t-7.5 -1h-37q-5 0 -5.5 3t3.5 7l99 79q5 4 9 6.5t11 2.5h18q6 0 9.5 -3t6.5 -5l98 -80q12 -10 -1 -10h-41q-4 0 -7.5 1.5t-7.5 4.5z" />
    <glyph glyph-name="Gbreve" unicode="&#x11e;" horiz-adv-x="730" 
d="M373 -10q-92 0 -158.5 44.5t-101.5 129t-35 204.5q0 123 36.5 209t103 130.5t156.5 44.5q62 0 117.5 -26.5t93 -70.5t43.5 -96q0 -3 -0.5 -5t-4.5 -3l-35 -6q-2 -1 -4 0.5t-3 5.5q-8 45 -37 81t-73 57t-97 21q-80 0 -135.5 -40t-84 -115.5t-28.5 -180.5q0 -110 28 -186.5
t83.5 -116t136.5 -39.5q59 0 102.5 21t71.5 55t42 73t14 74v79q0 8 -11 8h-189q-4 0 -5.5 1.5t-1.5 4.5v23q0 6 5 6h236q3 0 4.5 -1.5t1.5 -4.5v-360q0 -7 -2.5 -9t-7.5 -2h-17q-6 0 -9.5 1t-3.5 8v106q0 5 -2.5 5t-5.5 -5q-19 -35 -50 -63.5t-74 -45t-99 -16.5v0zM496 954
q10 0 7 -9q-4 -16 -20 -35.5t-43.5 -33.5t-67.5 -14q-38 0 -64 13.5t-41 33t-21 37.5q-1 2 -0.5 5t4.5 3h35q5 0 7 -1.5t5 -5.5q5 -6 13 -16.5t23 -19t39 -8.5q35 0 53.5 15.5t26.5 29.5q2 4 4 5t5 1h35v0z" />
    <glyph glyph-name="gbreve" unicode="&#x11f;" horiz-adv-x="582" 
d="M533 530q11 0 15 -3t4 -10v-13q0 -7 -3 -11t-14 -5q-19 -1 -31 -4t-24 -10q-24 -13 -20 -23q5 -13 13 -31.5t8 -50.5q0 -44 -21 -80.5t-65.5 -58t-115.5 -21.5q-57 0 -89.5 -7t-45.5 -18.5t-13 -23.5q0 -18 25.5 -26t83.5 -11l120 -7q80 -4 117 -40t37 -95
q0 -75 -63 -115.5t-176 -40.5q-115 0 -177.5 39t-62.5 109q0 36 22.5 67.5t69.5 57.5q11 6 0 11q-20 9 -29 21.5t-9 28.5q0 11 6.5 23t21 22.5t39.5 18.5q6 2 5 5.5t-6 6.5q-41 23 -60 55.5t-19 78.5q0 80 55.5 124.5t154.5 44.5q50 0 84 -11.5t59 -33.5q5 -4 9 -4.5t9 3.5
q10 8 23 16.5t29 15t34 6.5v0zM280 247q81 0 121 31.5t40 92.5q0 62 -40.5 95.5t-120.5 33.5q-78 0 -121 -33.5t-43 -95.5q0 -61 42.5 -92.5t121.5 -31.5v0zM183 86q-16 1 -41 -12.5t-45 -38.5t-20 -58q0 -36 24.5 -61.5t71 -39t111.5 -13.5q92 0 140 28.5t48 89.5
q0 41 -25 65.5t-88 28.5zM405 742q10 0 7 -9q-4 -16 -20 -35.5t-43.5 -33.5t-67.5 -14q-38 0 -64 13.5t-41 33t-21 37.5q-1 2 -0.5 5t4.5 3h35q5 0 7 -1.5t5 -5.5q5 -6 13 -16.5t23 -19t39 -8.5q35 0 53.5 15.5t26.5 29.5q2 4 4 5t5 1h35v0z" />
    <glyph glyph-name="Gdotaccent" unicode="&#x120;" horiz-adv-x="730" 
d="M373 -10q-92 0 -158.5 44.5t-101.5 129t-35 204.5q0 123 36.5 209t103 130.5t156.5 44.5q62 0 117.5 -26.5t93 -70.5t43.5 -96q0 -3 -0.5 -5t-4.5 -3l-35 -6q-2 -1 -4 0.5t-3 5.5q-8 45 -37 81t-73 57t-97 21q-80 0 -135.5 -40t-84 -115.5t-28.5 -180.5q0 -110 28 -186.5
t83.5 -116t136.5 -39.5q59 0 102.5 21t71.5 55t42 73t14 74v79q0 8 -11 8h-189q-4 0 -5.5 1.5t-1.5 4.5v23q0 6 5 6h236q3 0 4.5 -1.5t1.5 -4.5v-360q0 -7 -2.5 -9t-7.5 -2h-17q-6 0 -9.5 1t-3.5 8v106q0 5 -2.5 5t-5.5 -5q-19 -35 -50 -63.5t-74 -45t-99 -16.5v0zM399 868
q0 -7 -2 -9.5t-10 -2.5h-27q-7 0 -9 2t-2 8v78q0 10 9 10h32q9 0 9 -10v-76z" />
    <glyph glyph-name="gdotaccent" unicode="&#x121;" horiz-adv-x="582" 
d="M533 530q11 0 15 -3t4 -10v-13q0 -7 -3 -11t-14 -5q-19 -1 -31 -4t-24 -10q-24 -13 -20 -23q5 -13 13 -31.5t8 -50.5q0 -44 -21 -80.5t-65.5 -58t-115.5 -21.5q-57 0 -89.5 -7t-45.5 -18.5t-13 -23.5q0 -18 25.5 -26t83.5 -11l120 -7q80 -4 117 -40t37 -95
q0 -75 -63 -115.5t-176 -40.5q-115 0 -177.5 39t-62.5 109q0 36 22.5 67.5t69.5 57.5q11 6 0 11q-20 9 -29 21.5t-9 28.5q0 11 6.5 23t21 22.5t39.5 18.5q6 2 5 5.5t-6 6.5q-41 23 -60 55.5t-19 78.5q0 80 55.5 124.5t154.5 44.5q50 0 84 -11.5t59 -33.5q5 -4 9 -4.5t9 3.5
q10 8 23 16.5t29 15t34 6.5v0zM280 247q81 0 121 31.5t40 92.5q0 62 -40.5 95.5t-120.5 33.5q-78 0 -121 -33.5t-43 -95.5q0 -61 42.5 -92.5t121.5 -31.5v0zM183 86q-16 1 -41 -12.5t-45 -38.5t-20 -58q0 -36 24.5 -61.5t71 -39t111.5 -13.5q92 0 140 28.5t48 89.5
q0 41 -25 65.5t-88 28.5zM308 656q0 -7 -2 -9.5t-10 -2.5h-27q-7 0 -9 2t-2 8v78q0 10 9 10h32q9 0 9 -10v-76z" />
    <glyph glyph-name="uni0122" unicode="&#x122;" horiz-adv-x="730" 
d="M373 -10q-92 0 -158.5 44.5t-101.5 129t-35 204.5q0 123 36.5 209t103 130.5t156.5 44.5q62 0 117.5 -26.5t93 -70.5t43.5 -96q0 -3 -0.5 -5t-4.5 -3l-35 -6q-2 -1 -4 0.5t-3 5.5q-8 45 -37 81t-73 57t-97 21q-80 0 -135.5 -40t-84 -115.5t-28.5 -180.5q0 -110 28 -186.5
t83.5 -116t136.5 -39.5q59 0 102.5 21t71.5 55t42 73t14 74v79q0 8 -11 8h-189q-4 0 -5.5 1.5t-1.5 4.5v23q0 6 5 6h236q3 0 4.5 -1.5t1.5 -4.5v-360q0 -7 -2.5 -9t-7.5 -2h-17q-6 0 -9.5 1t-3.5 8v106q0 5 -2.5 5t-5.5 -5q-19 -35 -50 -63.5t-74 -45t-99 -16.5v0zM352 -236
q-3 0 -4 2.5t0 5.5l25 54q2 5 1 7t-5 2h-8q-8 0 -8 9v66q0 8 7 8h45q6 0 6 -7v-76q0 -1 -0.5 -3t-0.5 -3l-31 -59q-2 -4 -5 -5t-9 -1h-13v0z" />
    <glyph glyph-name="uni0123" unicode="&#x123;" horiz-adv-x="582" 
d="M257 632q-6 0 -6 7v76q0 2 0.5 3.5t0.5 2.5l31 59q2 4 5 5t9 1h13q3 0 4.5 -2.5t-0.5 -5.5l-25 -54q-2 -4 -1 -6.5t5 -2.5h8q8 0 8 -9v-66q0 -8 -7 -8h-45v0zM533 530q11 0 15 -3t4 -10v-13q0 -7 -3 -11t-14 -5q-19 -1 -31 -4t-24 -10q-24 -13 -20 -23q5 -13 13 -31.5
t8 -50.5q0 -44 -21 -80.5t-65.5 -58t-115.5 -21.5q-57 0 -89.5 -7t-45.5 -18.5t-13 -23.5q0 -18 25.5 -26t83.5 -11l120 -7q80 -4 117 -40t37 -95q0 -75 -63 -115.5t-176 -40.5q-115 0 -177.5 39t-62.5 109q0 36 22.5 67.5t69.5 57.5q11 6 0 11q-20 9 -29 21.5t-9 28.5
q0 11 6.5 23t21 22.5t39.5 18.5q6 2 5 5.5t-6 6.5q-41 23 -60 55.5t-19 78.5q0 80 55.5 124.5t154.5 44.5q50 0 84 -11.5t59 -33.5q5 -4 9 -4.5t9 3.5q10 8 23 16.5t29 15t34 6.5v0zM280 247q81 0 121 31.5t40 92.5q0 62 -40.5 95.5t-120.5 33.5q-78 0 -121 -33.5t-43 -95.5
q0 -61 42.5 -92.5t121.5 -31.5v0zM183 86q-16 1 -41 -12.5t-45 -38.5t-20 -58q0 -36 24.5 -61.5t71 -39t111.5 -13.5q92 0 140 28.5t48 89.5q0 41 -25 65.5t-88 28.5z" />
    <glyph glyph-name="Hcircumflex" unicode="&#x124;" horiz-adv-x="725" 
d="M166 366q-6 0 -6 -6v-351q0 -9 -10 -9h-27q-5 0 -7 2.5t-2 7.5v722q0 10 9 10h28q9 0 9 -10v-317q0 -9 9 -9h388q8 0 8 8v319q0 9 8 9h29q9 0 9 -10v-722q0 -5 -2 -7.5t-7 -2.5h-27q-10 0 -10 9v350q0 7 -7 7h-392zM372 910q-7 6 -9 6t-10 -6l-62 -48q-5 -4 -7.5 -5
t-7.5 -1h-37q-5 0 -5.5 3t3.5 7l99 79q5 4 9 6.5t11 2.5h18q6 0 9.5 -3t6.5 -5l98 -80q12 -10 -1 -10h-41q-4 0 -7.5 1.5t-7.5 4.5z" />
    <glyph glyph-name="hcircumflex" unicode="&#x125;" horiz-adv-x="576" 
d="M100 0q-9 0 -9 9v724q0 9 8 9h21q8 0 8 -8v-274q0 -5 2 -6t6 3q38 27 68 45.5t60 28t66 9.5q80 0 121 -41t41 -106v-383q0 -10 -9 -10h-22q-4 0 -6.5 2.5t-2.5 6.5v368q0 59 -29 92t-94 33q-35 0 -65 -10.5t-61.5 -30.5t-71.5 -51v-401q0 -9 -9 -9h-22v0zM298 920
q-7 6 -9 6t-10 -6l-62 -48q-5 -4 -7.5 -5t-7.5 -1h-37q-5 0 -5.5 3t3.5 7l99 79q5 4 9 6.5t11 2.5h18q6 0 9.5 -3t6.5 -5l98 -80q12 -10 -1 -10h-41q-4 0 -7.5 1.5t-7.5 4.5z" />
    <glyph glyph-name="Hbar" unicode="&#x126;" horiz-adv-x="707" 
d="M702 589q0 -11 -13 -11h-674q-6 0 -8 2.5t-2 7.5v21q0 9 7 9h683q7 0 7 -8v-21zM165 366q-6 0 -6 -6v-351q0 -9 -10 -9h-27q-5 0 -7 2.5t-2 7.5v722q0 10 9 10h28q9 0 9 -10v-317q0 -9 9 -9h388q8 0 8 8v319q0 9 8 9h29q9 0 9 -10v-722q0 -5 -2 -7.5t-7 -2.5h-27
q-10 0 -10 9v350q0 7 -7 7h-392z" />
    <glyph glyph-name="hbar" unicode="&#x127;" horiz-adv-x="576" 
d="M309 635q0 -8 -10 -8h-272q-4 0 -5.5 2t-1.5 6v20q0 7 5 7h279q5 0 5 -6v-21zM100 0q-9 0 -9 9v724q0 9 8 9h21q8 0 8 -8v-274q0 -5 2 -6t6 3q38 27 68 45.5t60 28t66 9.5q80 0 121 -41t41 -106v-383q0 -10 -9 -10h-22q-4 0 -6.5 2.5t-2.5 6.5v368q0 59 -29 92t-94 33
q-35 0 -65 -10.5t-61.5 -30.5t-71.5 -51v-401q0 -9 -9 -9h-22v0z" />
    <glyph glyph-name="Itilde" unicode="&#x128;" horiz-adv-x="274" 
d="M151 742q9 0 9 -10v-720q0 -7 -2 -9.5t-10 -2.5h-23q-7 0 -9 2t-2 8v722q0 10 9 10h28zM265 904q-10 -6 -25 -12.5t-42 -6.5q-26 0 -44 6t-33.5 12t-36.5 6q-22 0 -34 -7.5t-22 -12.5q-4 -2 -6.5 -1.5t-4.5 5.5l-7 16q-1 4 -0.5 5.5t2.5 2.5q15 11 30.5 18.5t37.5 7.5
t41 -6t37.5 -12.5t40.5 -6.5q17 0 27 4.5t23 11.5q5 3 8 2.5t5 -5.5l8 -18q2 -4 -5 -9v0z" />
    <glyph glyph-name="itilde" unicode="&#x129;" horiz-adv-x="222" 
d="M131 12q0 -7 -2 -9.5t-10 -2.5h-17q-7 0 -9 2t-2 8v510q0 10 9 10h22q9 0 9 -10v-508zM236 692q-10 -6 -25 -12.5t-42 -6.5q-26 0 -44 6t-33.5 12t-36.5 6q-22 0 -34 -7.5t-22 -12.5q-4 -2 -6.5 -1.5t-4.5 5.5l-7 16q-1 4 -0.5 5.5t2.5 2.5q15 11 30.5 18.5t37.5 7.5
t41 -6t37.5 -12.5t40.5 -6.5q17 0 27 4.5t23 11.5q5 3 8 2.5t5 -5.5l8 -18q2 -4 -5 -9v0z" />
    <glyph glyph-name="Imacron" unicode="&#x12a;" horiz-adv-x="274" 
d="M151 742q9 0 9 -10v-720q0 -7 -2 -9.5t-10 -2.5h-23q-7 0 -9 2t-2 8v722q0 10 9 10h28zM266 904q0 -8 -10 -8h-235q-4 0 -5.5 2t-1.5 6v23q0 7 5 7h242q5 0 5 -6v-24z" />
    <glyph glyph-name="imacron" unicode="&#x12b;" horiz-adv-x="222" 
d="M131 12q0 -7 -2 -9.5t-10 -2.5h-17q-7 0 -9 2t-2 8v510q0 10 9 10h22q9 0 9 -10v-508zM237 692q0 -8 -10 -8h-235q-4 0 -5.5 2t-1.5 6v23q0 7 5 7h242q5 0 5 -6v-24z" />
    <glyph glyph-name="Ibreve" unicode="&#x12c;" horiz-adv-x="274" 
d="M151 742q9 0 9 -10v-720q0 -7 -2 -9.5t-10 -2.5h-23q-7 0 -9 2t-2 8v722q0 10 9 10h28zM262 954q10 0 7 -9q-4 -16 -20 -35.5t-43.5 -33.5t-67.5 -14q-38 0 -64 13.5t-41 33t-21 37.5q-1 2 -0.5 5t4.5 3h35q5 0 7 -1.5t5 -5.5q5 -6 13 -16.5t23 -19t39 -8.5
q35 0 53.5 15.5t26.5 29.5q2 4 4 5t5 1h35v0z" />
    <glyph glyph-name="ibreve" unicode="&#x12d;" horiz-adv-x="222" 
d="M131 12q0 -7 -2 -9.5t-10 -2.5h-17q-7 0 -9 2t-2 8v510q0 10 9 10h22q9 0 9 -10v-508zM233 742q10 0 7 -9q-4 -16 -20 -35.5t-43.5 -33.5t-67.5 -14q-38 0 -64 13.5t-41 33t-21 37.5q-1 2 -0.5 5t4.5 3h35q5 0 7 -1.5t5 -5.5q5 -6 13 -16.5t23 -19t39 -8.5
q35 0 53.5 15.5t26.5 29.5q2 4 4 5t5 1h35v0z" />
    <glyph glyph-name="Iogonek" unicode="&#x12e;" horiz-adv-x="274" 
d="M151 742q9 0 9 -10v-720q0 -7 -2 -9.5t-10 -2.5h-23q-7 0 -9 2t-2 8v722q0 10 9 10h28zM11 -91q0 33 24 58t87 43l34 -9q-50 -23 -75.5 -44t-25.5 -50q0 -21 13.5 -31.5t44.5 -10.5q23 0 41 4.5t24 7.5q8 4 8 -3v-20q0 -5 -5 -8q-11 -5 -32.5 -10t-45.5 -5q-48 0 -70 22
t-22 56v0z" />
    <glyph glyph-name="iogonek" unicode="&#x12f;" horiz-adv-x="222" 
d="M131 12q0 -7 -2 -9.5t-10 -2.5h-17q-7 0 -9 2t-2 8v510q0 10 9 10h22q9 0 9 -10v-508zM136 656q0 -7 -2 -9.5t-10 -2.5h-27q-7 0 -9 2t-2 8v78q0 10 9 10h32q9 0 9 -10v-76zM-17 -89q0 33 24 58t87 43l34 -9q-50 -23 -75.5 -44t-25.5 -50q0 -21 13.5 -31.5t44.5 -10.5
q23 0 41 4.5t24 7.5q8 4 8 -3v-20q0 -5 -5 -8q-11 -5 -32.5 -10t-45.5 -5q-48 0 -70 22t-22 56v0z" />
    <glyph glyph-name="Idotaccent" unicode="&#x130;" horiz-adv-x="274" 
d="M151 742q9 0 9 -10v-720q0 -7 -2 -9.5t-10 -2.5h-23q-7 0 -9 2t-2 8v722q0 10 9 10h28zM165 868q0 -7 -2 -9.5t-10 -2.5h-27q-7 0 -9 2t-2 8v78q0 10 9 10h32q9 0 9 -10v-76z" />
    <glyph glyph-name="dotlessi" unicode="&#x131;" horiz-adv-x="222" 
d="M131 12q0 -7 -2 -9.5t-10 -2.5h-17q-7 0 -9 2t-2 8v510q0 10 9 10h22q9 0 9 -10v-508z" />
    <glyph glyph-name="IJ" unicode="&#x132;" horiz-adv-x="673" 
d="M151 742q9 0 9 -10v-720q0 -7 -2 -9.5t-10 -2.5h-23q-7 0 -9 2t-2 8v722q0 10 9 10h28zM563 144q0 -71 -29 -112.5t-102 -41.5q-41 0 -71.5 10.5t-35.5 14.5q-2 2 -3.5 4t-0.5 5l9 31q1 7 8 4q16 -7 35.5 -16t56.5 -9q49 0 68 25t19 95v579q0 9 8 9h30q8 0 8 -10v-588v0z
" />
    <glyph glyph-name="ij" unicode="&#x133;" horiz-adv-x="444" 
d="M131 12q0 -7 -2 -9.5t-10 -2.5h-17q-7 0 -9 2t-2 8v510q0 10 9 10h22q9 0 9 -10v-508zM136 660q0 -16 -12 -16h-27q-7 0 -9 4t-2 10v71q0 13 12 13h26q12 0 12 -13v-69zM353 -51q0 -61 -22.5 -90t-90.5 -29q-44 0 -54.5 1.5t-10.5 7.5v21q0 3 1.5 4.5t4.5 1.5l58 1
q40 1 57 20t17 67v566q0 10 10 10h22q8 0 8 -10v-571v0zM358 660q0 -16 -12 -16h-27q-11 0 -11 14v71q0 13 12 13h26q12 0 12 -13v-69z" />
    <glyph glyph-name="Jcircumflex" unicode="&#x134;" horiz-adv-x="399" 
d="M289 144q0 -71 -29 -112.5t-102 -41.5q-41 0 -71.5 10.5t-35.5 14.5q-2 2 -3.5 4t-0.5 5l9 31q1 7 8 4q16 -7 35.5 -16t56.5 -9q49 0 68 25t19 95v579q0 9 8 9h30q8 0 8 -10v-588v0zM275 910q-7 6 -9 6t-10 -6l-62 -48q-5 -4 -7.5 -5t-7.5 -1h-37q-5 0 -5.5 3t3.5 7
l99 79q5 4 9 6.5t11 2.5h18q6 0 9.5 -3t6.5 -5l98 -80q12 -10 -1 -10h-41q-4 0 -7.5 1.5t-7.5 4.5z" />
    <glyph glyph-name="jcircumflex" unicode="&#x135;" horiz-adv-x="222" 
d="M131 -51q0 -61 -22.5 -90t-90.5 -29q-44 0 -54.5 1.5t-10.5 7.5v21q0 3 1.5 4.5t4.5 1.5l58 1q40 1 57 20t17 67v566q0 10 10 10h22q8 0 8 -10v-571v0zM120 698q-7 6 -9 6t-10 -6l-62 -48q-5 -4 -7.5 -5t-7.5 -1h-37q-5 0 -5.5 3t3.5 7l99 79q5 4 9 6.5t11 2.5h18
q6 0 9.5 -3t6.5 -5l98 -80q12 -10 -1 -10h-41q-4 0 -7.5 1.5t-7.5 4.5z" />
    <glyph glyph-name="uni0136" unicode="&#x136;" horiz-adv-x="674" 
d="M623 7q2 -3 1 -5t-4 -2h-39q-8 0 -11 5l-258 404q-5 7 -12 0l-132 -146q-8 -8 -8 -17v-237q0 -9 -10 -9h-26q-5 0 -7.5 2t-2.5 7v725q0 8 8 8h30q8 0 8 -8v-411q0 -4 1.5 -4.5t5.5 3.5l383 416q2 2 4.5 3t6.5 1h38q5 0 5.5 -2.5t-2.5 -5.5l-259 -283q-2 -2 0 -6l280 -438
v0zM316 -236q-3 0 -4 2.5t0 5.5l25 54q2 5 1 7t-5 2h-8q-8 0 -8 9v66q0 8 7 8h45q6 0 6 -7v-76q0 -1 -0.5 -3t-0.5 -3l-31 -59q-2 -4 -5 -5t-9 -1h-13v0z" />
    <glyph glyph-name="uni0137" unicode="&#x137;" horiz-adv-x="538" 
d="M504 12q4 -6 3 -9t-8 -3h-31q-4 0 -7 1.5t-5 5.5l-182 292q-1 2 -2.5 3t-5.5 -3l-128 -130q-4 -4 -5.5 -8t-1.5 -9v-140q0 -7 -2 -9.5t-10 -2.5h-17q-7 0 -9 2t-2 8v722q0 10 9 10h22q9 0 9 -10v-498q0 -9 2 -10t8 5l284 291q9 10 17 10h32q8 0 8.5 -4t-6.5 -11
l-169 -173q-2 -2 -2.5 -4.5t1.5 -6.5l198 -319v0zM246 -236q-3 0 -4 2.5t0 5.5l25 54q2 5 1 7t-5 2h-8q-8 0 -8 9v66q0 8 7 8h45q6 0 6 -7v-76q0 -1 -0.5 -3t-0.5 -3l-31 -59q-2 -4 -5 -5t-9 -1h-13v0z" />
    <glyph glyph-name="kgreenlandic" unicode="&#x138;" horiz-adv-x="538" 
d="M504 12q4 -6 3 -9t-8 -3h-31q-4 0 -7 1.5t-5 5.5l-182 292q-1 2 -2.5 3t-5.5 -3l-128 -130q-4 -4 -5.5 -8t-1.5 -9v-140q0 -7 -2 -9.5t-10 -2.5h-17q-7 0 -9 2t-2 8v510q0 10 9 10h22q9 0 9 -10v-286q0 -9 2 -10t8 5l284 291q9 10 17 10h32q8 0 8.5 -4t-6.5 -11
l-169 -173q-2 -2 -2.5 -4.5t1.5 -6.5l198 -319v0z" />
    <glyph glyph-name="Lacute" unicode="&#x139;" horiz-adv-x="587" 
d="M114 732q0 10 9 10h28q9 0 9 -10v-683q0 -9 9 -9h363q8 0 8 -7v-26q0 -4 -1.5 -5.5t-5.5 -1.5h-410q-5 0 -7 2.5t-2 7.5v722v0zM267 932q3 -8 -7 -12l-227 -74q-4 -1 -6.5 0t-4.5 5l-5 15q-3 8 3 10l229 91q6 2 8 -3z" />
    <glyph glyph-name="lacute" unicode="&#x13a;" horiz-adv-x="222" 
d="M131 12q0 -7 -2 -9.5t-10 -2.5h-17q-11 0 -11 10v722q0 10 9 10h22q9 0 9 -10v-720zM240 932q3 -8 -7 -12l-227 -74q-4 -1 -6.5 0t-4.5 5l-5 15q-3 8 3 10l229 91q6 2 8 -3z" />
    <glyph glyph-name="uni013B" unicode="&#x13b;" horiz-adv-x="587" 
d="M114 732q0 10 9 10h28q9 0 9 -10v-683q0 -9 9 -9h363q8 0 8 -7v-26q0 -4 -1.5 -5.5t-5.5 -1.5h-410q-5 0 -7 2.5t-2 7.5v722v0zM278 -236q-3 0 -4 2.5t0 5.5l25 54q2 5 1 7t-5 2h-8q-8 0 -8 9v66q0 8 7 8h45q6 0 6 -7v-76q0 -1 -0.5 -3t-0.5 -3l-31 -59q-2 -4 -5 -5
t-9 -1h-13v0z" />
    <glyph glyph-name="uni013C" unicode="&#x13c;" horiz-adv-x="222" 
d="M131 12q0 -7 -2 -9.5t-10 -2.5h-17q-11 0 -11 10v722q0 10 9 10h22q9 0 9 -10v-720zM84 -236q-3 0 -4 2.5t0 5.5l25 54q2 5 1 7t-5 2h-8q-8 0 -8 9v66q0 8 7 8h45q6 0 6 -7v-76q0 -1 -0.5 -3t-0.5 -3l-31 -59q-2 -4 -5 -5t-9 -1h-13v0z" />
    <glyph glyph-name="Lcaron" unicode="&#x13d;" horiz-adv-x="587" 
d="M114 732q0 10 9 10h28q9 0 9 -10v-683q0 -9 9 -9h363q8 0 8 -7v-26q0 -4 -1.5 -5.5t-5.5 -1.5h-410q-5 0 -7 2.5t-2 7.5v722v0zM395 567q-3 0 -4.5 2.5t-0.5 4.5l30 70q3 8 -3 9l-5 1q-8 1 -8 8v73q0 7 6 7h43q5 0 5 -6v-82q0 -1 -0.5 -2t-0.5 -2l-33 -76q-1 -4 -4 -5.5
t-9 -1.5h-16v0z" />
    <glyph glyph-name="lcaron" unicode="&#x13e;" horiz-adv-x="222" 
d="M131 12q0 -7 -2 -9.5t-10 -2.5h-17q-11 0 -11 10v722q0 10 9 10h22q9 0 9 -10v-720zM198 567q-3 0 -4.5 2.5t-0.5 4.5l30 70q3 8 -3 9l-5 1q-8 1 -8 8v73q0 7 6 7h43q5 0 5 -6v-82q0 -1 -0.5 -2t-0.5 -2l-33 -76q-1 -4 -4 -5.5t-9 -1.5h-16v0z" />
    <glyph glyph-name="Ldot" unicode="&#x13f;" horiz-adv-x="616" 
d="M114 732q0 10 9 10h28q9 0 9 -10v-683q0 -9 9 -9h363q8 0 8 -7v-26q0 -4 -1.5 -5.5t-5.5 -1.5h-410q-5 0 -7 2.5t-2 7.5v722v0zM498 368q0 -11 -13 -11h-59q-10 0 -10 10v60q0 9 7 9h68q7 0 7 -8v-60z" />
    <glyph glyph-name="ldot" unicode="&#x140;" horiz-adv-x="294" 
d="M131 12q0 -7 -2 -9.5t-10 -2.5h-17q-11 0 -11 10v722q0 10 9 10h22q9 0 9 -10v-720zM301 270q0 -11 -13 -11h-59q-10 0 -10 10v60q0 9 7 9h68q7 0 7 -8v-60z" />
    <glyph glyph-name="Lslash" unicode="&#x141;" horiz-adv-x="587" 
d="M327 408q0 -6 -6 -8l-281 -73q-4 -1 -5.5 0t-1.5 5v24q0 4 1.5 6t3.5 3l282 72q7 1 7 -5v-24zM114 732q0 10 9 10h28q9 0 9 -10v-683q0 -9 9 -9h363q8 0 8 -7v-26q0 -4 -1.5 -5.5t-5.5 -1.5h-410q-5 0 -7 2.5t-2 7.5v722v0z" />
    <glyph glyph-name="lslash" unicode="&#x142;" horiz-adv-x="242" 
d="M240 403q0 -5 -6 -11l-224 -211q-4 -3 -5.5 -1t-1.5 6v29q0 5 5 10l225 210q7 6 7 -2v-30zM141 12q0 -7 -2 -9.5t-10 -2.5h-17q-11 0 -11 10v722q0 10 9 10h22q9 0 9 -10v-720z" />
    <glyph glyph-name="Nacute" unicode="&#x143;" horiz-adv-x="755" 
d="M632 742q9 0 9 -10v-722q0 -5 -2 -7.5t-7 -2.5h-15q-6 0 -10.5 0.5t-8.5 5.5l-428 631q-5 8 -8.5 7t-3.5 -7v-628q0 -9 -10 -9h-25q-9 0 -9 10v722q0 10 9 10h18q6 0 9 -1t6 -6l427 -630q5 -7 9.5 -4.5t4.5 6.5v626q0 9 8 9h27zM523 932q3 -8 -7 -12l-227 -74
q-4 -1 -6.5 0t-4.5 5l-5 15q-3 8 3 10l229 91q6 2 8 -3z" />
    <glyph glyph-name="nacute" unicode="&#x144;" horiz-adv-x="576" 
d="M100 0q-9 0 -9 9v512q0 9 8 9h21q8 0 8 -8v-62q0 -5 2 -6t6 3q38 27 68 45.5t60 28t66 9.5q80 0 121 -41t41 -106v-383q0 -10 -9 -10h-22q-4 0 -6.5 2.5t-2.5 6.5v368q0 59 -29 92t-94 33q-35 0 -65 -10.5t-61.5 -30.5t-71.5 -51v-401q0 -9 -9 -9h-22v0zM432 720
q3 -8 -7 -12l-227 -74q-4 -1 -6.5 0t-4.5 5l-5 15q-3 8 3 10l229 91q6 2 8 -3z" />
    <glyph glyph-name="uni0145" unicode="&#x145;" horiz-adv-x="755" 
d="M632 742q9 0 9 -10v-722q0 -5 -2 -7.5t-7 -2.5h-15q-6 0 -10.5 0.5t-8.5 5.5l-428 631q-5 8 -8.5 7t-3.5 -7v-628q0 -9 -10 -9h-25q-9 0 -9 10v722q0 10 9 10h18q6 0 9 -1t6 -6l427 -630q5 -7 9.5 -4.5t4.5 6.5v626q0 9 8 9h27zM332 -236q-3 0 -4 2.5t0 5.5l25 54
q2 5 1 7t-5 2h-8q-8 0 -8 9v66q0 8 7 8h45q6 0 6 -7v-76q0 -1 -0.5 -3t-0.5 -3l-31 -59q-2 -4 -5 -5t-9 -1h-13v0z" />
    <glyph glyph-name="uni0146" unicode="&#x146;" horiz-adv-x="576" 
d="M100 0q-9 0 -9 9v512q0 9 8 9h21q8 0 8 -8v-62q0 -5 2 -6t6 3q38 27 68 45.5t60 28t66 9.5q80 0 121 -41t41 -106v-383q0 -10 -9 -10h-22q-4 0 -6.5 2.5t-2.5 6.5v368q0 59 -29 92t-94 33q-35 0 -65 -10.5t-61.5 -30.5t-71.5 -51v-401q0 -9 -9 -9h-22v0zM266 -236
q-3 0 -4 2.5t0 5.5l25 54q2 5 1 7t-5 2h-8q-8 0 -8 9v66q0 8 7 8h45q6 0 6 -7v-76q0 -1 -0.5 -3t-0.5 -3l-31 -59q-2 -4 -5 -5t-9 -1h-13v0z" />
    <glyph glyph-name="Ncaron" unicode="&#x147;" horiz-adv-x="755" 
d="M632 742q9 0 9 -10v-722q0 -5 -2 -7.5t-7 -2.5h-15q-6 0 -10.5 0.5t-8.5 5.5l-428 631q-5 8 -8.5 7t-3.5 -7v-628q0 -9 -10 -9h-25q-9 0 -9 10v722q0 10 9 10h18q6 0 9 -1t6 -6l427 -630q5 -7 9.5 -4.5t4.5 6.5v626q0 9 8 9h27zM462 948q4 3 7.5 4.5t7.5 1.5h41
q13 0 1 -10l-98 -80q-3 -2 -6.5 -5t-9.5 -3h-18q-7 0 -11 2.5t-9 6.5l-99 79q-4 4 -3.5 7t5.5 3h37q5 0 7.5 -1t7.5 -5l62 -48q8 -6 10 -6t9 6l59 48v0z" />
    <glyph glyph-name="ncaron" unicode="&#x148;" horiz-adv-x="576" 
d="M100 0q-9 0 -9 9v512q0 9 8 9h21q8 0 8 -8v-62q0 -5 2 -6t6 3q38 27 68 45.5t60 28t66 9.5q80 0 121 -41t41 -106v-383q0 -10 -9 -10h-22q-4 0 -6.5 2.5t-2.5 6.5v368q0 59 -29 92t-94 33q-35 0 -65 -10.5t-61.5 -30.5t-71.5 -51v-401q0 -9 -9 -9h-22v0zM371 736
q4 3 7.5 4.5t7.5 1.5h41q13 0 1 -10l-98 -80q-3 -2 -6.5 -5t-9.5 -3h-18q-7 0 -11 2.5t-9 6.5l-99 79q-4 4 -3.5 7t5.5 3h37q5 0 7.5 -1t7.5 -5l62 -48q8 -6 10 -6t9 6l59 48v0z" />
    <glyph glyph-name="napostrophe" unicode="&#x149;" horiz-adv-x="596" 
d="M35 477q-3 0 -4.5 2.5t-0.5 4.5l31 120q2 6 0.5 8t-3.5 2h-5q-8 0 -8 8v113q0 7 6 7h43q5 0 5 -6v-122q0 -1 -0.5 -2t-0.5 -2l-34 -126q-1 -4 -4 -5.5t-9 -1.5h-16v0zM120 0q-9 0 -9 9v512q0 9 8 9h21q8 0 8 -8v-62q0 -5 2 -6t6 3q38 27 68 45.5t60 28t66 9.5
q80 0 121 -41t41 -106v-383q0 -10 -9 -10h-22q-4 0 -6.5 2.5t-2.5 6.5v368q0 59 -29 92t-94 33q-35 0 -65 -10.5t-61.5 -30.5t-71.5 -51v-401q0 -9 -9 -9h-22v0z" />
    <glyph glyph-name="Eng" unicode="&#x14a;" horiz-adv-x="755" 
d="M632 742q9 0 9 -10v-778q0 -58 -28 -93.5t-99 -35.5q-31 0 -53.5 5.5t-27.5 9.5q-2 2 -3 4t-1 5l3 25q1 7 8 4q12 -4 30 -8.5t40 -4.5q41 0 63 20.5t22 73.5v53l-428 628q-5 8 -7 7t-2 -7v-631q0 -9 -10 -9h-25q-9 0 -9 10v722q0 10 9 10h21q5 0 8 -1t6 -6l426 -631
q5 -7 9.5 -4t4.5 7v626q0 9 8 9h26v0z" />
    <glyph glyph-name="eng" unicode="&#x14b;" horiz-adv-x="578" 
d="M330 540q77 0 119.5 -41t42.5 -106v-434q0 -41 -11.5 -70t-36.5 -44t-65 -15q-39 0 -48.5 1.5t-9.5 7.5v19q0 3 1.5 4.5t4.5 1.5l51 1q40 1 57 21t17 68v417q0 59 -28 95.5t-99 36.5q-47 0 -96 -25.5t-98 -69.5v-399q0 -9 -9 -9h-22q-9 0 -9 9v512q0 9 8 9h21q8 0 8 -8
v-63q0 -5 2 -6t6 3q44 34 75.5 52t59.5 25t59 7v0z" />
    <glyph glyph-name="Omacron" unicode="&#x14c;" horiz-adv-x="758" 
d="M379 -10q-94 0 -161.5 43t-103.5 127t-36 207q0 125 36.5 211t104 130t161.5 44t161 -44t103 -129t36 -210q0 -123 -36 -207.5t-103.5 -128t-161.5 -43.5v0zM381 32q124 0 187.5 83.5t63.5 253.5q0 172 -64.5 256.5t-187.5 84.5q-124 0 -189 -85t-65 -256
q0 -169 65.5 -253t189.5 -84v0zM507 904q0 -8 -10 -8h-235q-4 0 -5.5 2t-1.5 6v23q0 7 5 7h242q5 0 5 -6v-24z" />
    <glyph glyph-name="omacron" unicode="&#x14d;" horiz-adv-x="598" 
d="M299 -10q-73 0 -128 34.5t-85 96t-30 141.5q0 82 30.5 144.5t85.5 98t128 35.5t127 -35t84.5 -97.5t30.5 -143.5t-30.5 -142.5t-85 -96.5t-127.5 -35v0zM301 28q62 0 106.5 29.5t68.5 82.5t24 124t-24.5 124.5t-69.5 83.5t-106 30t-106.5 -30t-70.5 -83.5t-25 -124.5
q0 -70 25 -123.5t70.5 -83t107.5 -29.5v0zM427 692q0 -8 -10 -8h-235q-4 0 -5.5 2t-1.5 6v23q0 7 5 7h242q5 0 5 -6v-24z" />
    <glyph glyph-name="Obreve" unicode="&#x14e;" horiz-adv-x="758" 
d="M379 -10q-94 0 -161.5 43t-103.5 127t-36 207q0 125 36.5 211t104 130t161.5 44t161 -44t103 -129t36 -210q0 -123 -36 -207.5t-103.5 -128t-161.5 -43.5v0zM381 32q124 0 187.5 83.5t63.5 253.5q0 172 -64.5 256.5t-187.5 84.5q-124 0 -189 -85t-65 -256
q0 -169 65.5 -253t189.5 -84v0zM503 954q10 0 7 -9q-4 -16 -20 -35.5t-43.5 -33.5t-67.5 -14q-38 0 -64 13.5t-41 33t-21 37.5q-1 2 -0.5 5t4.5 3h35q5 0 7 -1.5t5 -5.5q5 -6 13 -16.5t23 -19t39 -8.5q35 0 53.5 15.5t26.5 29.5q2 4 4 5t5 1h35v0z" />
    <glyph glyph-name="obreve" unicode="&#x14f;" horiz-adv-x="598" 
d="M299 -10q-73 0 -128 34.5t-85 96t-30 141.5q0 82 30.5 144.5t85.5 98t128 35.5t127 -35t84.5 -97.5t30.5 -143.5t-30.5 -142.5t-85 -96.5t-127.5 -35v0zM301 28q62 0 106.5 29.5t68.5 82.5t24 124t-24.5 124.5t-69.5 83.5t-106 30t-106.5 -30t-70.5 -83.5t-25 -124.5
q0 -70 25 -123.5t70.5 -83t107.5 -29.5v0zM423 742q10 0 7 -9q-4 -16 -20 -35.5t-43.5 -33.5t-67.5 -14q-38 0 -64 13.5t-41 33t-21 37.5q-1 2 -0.5 5t4.5 3h35q5 0 7 -1.5t5 -5.5q5 -6 13 -16.5t23 -19t39 -8.5q35 0 53.5 15.5t26.5 29.5q2 4 4 5t5 1h35v0z" />
    <glyph glyph-name="Ohungarumlaut" unicode="&#x150;" horiz-adv-x="758" 
d="M379 -10q-94 0 -161.5 43t-103.5 127t-36 207q0 125 36.5 211t104 130t161.5 44t161 -44t103 -129t36 -210q0 -123 -36 -207.5t-103.5 -128t-161.5 -43.5v0zM381 32q124 0 187.5 83.5t63.5 253.5q0 172 -64.5 256.5t-187.5 84.5q-124 0 -189 -85t-65 -256
q0 -169 65.5 -253t189.5 -84v0zM433 932q3 -4 2.5 -6t-5.5 -7l-124 -117q-4 -3 -7 -3t-5 4l-9 13q-5 5 0 10l117 133q5 5 9 0zM574 932q3 -4 2.5 -6t-5.5 -7l-124 -117q-4 -3 -7 -3t-5 4l-9 13q-5 5 0 10l117 133q5 5 9 0z" />
    <glyph glyph-name="ohungarumlaut" unicode="&#x151;" horiz-adv-x="598" 
d="M299 -10q-73 0 -128 34.5t-85 96t-30 141.5q0 82 30.5 144.5t85.5 98t128 35.5t127 -35t84.5 -97.5t30.5 -143.5t-30.5 -142.5t-85 -96.5t-127.5 -35v0zM301 28q62 0 106.5 29.5t68.5 82.5t24 124t-24.5 124.5t-69.5 83.5t-106 30t-106.5 -30t-70.5 -83.5t-25 -124.5
q0 -70 25 -123.5t70.5 -83t107.5 -29.5v0zM353 720q3 -4 2.5 -6t-5.5 -7l-124 -117q-4 -3 -7 -3t-5 4l-9 13q-5 5 0 10l117 133q5 5 9 0zM494 720q3 -4 2.5 -6t-5.5 -7l-124 -117q-4 -3 -7 -3t-5 4l-9 13q-5 5 0 10l117 133q5 5 9 0z" />
    <glyph glyph-name="OE" unicode="&#x152;" horiz-adv-x="1122" 
d="M1062 40q8 0 8 -7v-26q0 -4 -1.5 -5.5t-5.5 -1.5h-421q-9 0 -9 10v121q-37 -74 -101.5 -107.5t-152.5 -33.5q-94 0 -161.5 43t-103.5 127t-36 207q0 125 36.5 211t104 130t161.5 44q88 0 152.5 -38t101.5 -113v131q0 10 9 10h405q7 0 7 -7v-26q0 -7 -8 -7h-358
q-9 0 -9 -9v-291q0 -7 9 -7h278q7 0 7 -7v-26q0 -4 -1.5 -5.5t-6.5 -1.5h-277q-9 0 -9 -9v-297q0 -9 9 -9h373v0zM381 32q124 0 187.5 77.5t63.5 223.5v100q0 84 -29.5 146.5t-86 96.5t-136.5 34q-124 0 -189 -85t-65 -256q0 -169 65.5 -253t189.5 -84v0z" />
    <glyph glyph-name="oe" unicode="&#x153;" horiz-adv-x="1019" 
d="M299 -10q-73 0 -128 34t-85 95t-30 143q0 83 30.5 145.5t85.5 97.5t128 35q74 0 130 -36.5t84 -101.5q7 -13 13 0q28 64 83.5 101t127.5 37q74 0 125.5 -32t79 -92.5t27.5 -144.5q0 -7 -3.5 -12t-13.5 -5h-397q-15 0 -15 -18q0 -56 27.5 -103.5t73 -75.5t99.5 -28
q60 0 104 23.5t71 68.5q3 5 5.5 5.5t5.5 -1.5l23 -15q6 -4 1 -10q-23 -36 -54 -60.5t-70 -37t-86 -12.5q-72 0 -127.5 34.5t-85.5 95.5q-7 18 -18 -3q-30 -60 -84.5 -93.5t-126.5 -33.5v0zM301 29q61 0 105.5 29t69 82t24.5 124t-25 124t-70 83t-105 30t-105.5 -30t-71 -83
t-25.5 -124q0 -70 25.5 -123t71 -82.5t106.5 -29.5v0zM740 501q-57 0 -101.5 -27.5t-69.5 -74.5t-25 -108l368 -1q11 0 14 3t3 11q0 55 -24 99.5t-66.5 71t-98.5 26.5v0z" />
    <glyph glyph-name="Racute" unicode="&#x154;" horiz-adv-x="679" 
d="M599 14q2 -5 -0.5 -9.5t-7.5 -4.5h-28q-7 0 -12 9l-142 336q-4 10 -21 10h-216q-7 0 -9.5 -3t-2.5 -8v-333q0 -11 -10 -11h-26q-6 0 -8 2.5t-2 6.5v723q0 10 9 10h258q108 0 168 -46t60 -138q0 -61 -23.5 -100.5t-58.5 -61t-70 -30.5q-6 -1 -4 -7l146 -345v0zM346 395
q107 0 161 36t54 120q0 77 -45 114t-136 37h-209q-11 0 -11 -8v-290q0 -9 7 -9h179v0zM463 932q3 -8 -7 -12l-227 -74q-4 -1 -6.5 0t-4.5 5l-5 15q-3 8 3 10l229 91q6 2 8 -3z" />
    <glyph glyph-name="racute" unicode="&#x155;" horiz-adv-x="356" 
d="M100 0q-4 0 -6.5 2.5t-2.5 6.5v512q0 9 8 9h21q8 0 8 -8v-68q0 -5 2 -6t6 3q30 33 56 52.5t51 28t52 8.5q35 0 35 -10v-26q0 -5 -5 -5q-4 0 -10.5 0.5t-19.5 0.5q-24 0 -52.5 -11.5t-53.5 -31t-41.5 -43.5t-16.5 -49v-356q0 -9 -9 -9h-22v0zM332 720q3 -8 -7 -12
l-227 -74q-4 -1 -6.5 0t-4.5 5l-5 15q-3 8 3 10l229 91q6 2 8 -3z" />
    <glyph glyph-name="uni0156" unicode="&#x156;" horiz-adv-x="679" 
d="M599 14q2 -5 -0.5 -9.5t-7.5 -4.5h-28q-7 0 -12 9l-142 336q-4 10 -21 10h-216q-7 0 -9.5 -3t-2.5 -8v-333q0 -11 -10 -11h-26q-6 0 -8 2.5t-2 6.5v723q0 10 9 10h258q108 0 168 -46t60 -138q0 -61 -23.5 -100.5t-58.5 -61t-70 -30.5q-6 -1 -4 -7l146 -345v0zM346 395
q107 0 161 36t54 120q0 77 -45 114t-136 37h-209q-11 0 -11 -8v-290q0 -9 7 -9h179v0zM314 -236q-3 0 -4 2.5t0 5.5l25 54q2 5 1 7t-5 2h-8q-8 0 -8 9v66q0 8 7 8h45q6 0 6 -7v-76q0 -1 -0.5 -3t-0.5 -3l-31 -59q-2 -4 -5 -5t-9 -1h-13v0z" />
    <glyph glyph-name="uni0157" unicode="&#x157;" horiz-adv-x="356" 
d="M100 0q-4 0 -6.5 2.5t-2.5 6.5v512q0 9 8 9h21q8 0 8 -8v-68q0 -5 2 -6t6 3q30 33 56 52.5t51 28t52 8.5q35 0 35 -10v-26q0 -5 -5 -5q-4 0 -10.5 0.5t-19.5 0.5q-24 0 -52.5 -11.5t-53.5 -31t-41.5 -43.5t-16.5 -49v-356q0 -9 -9 -9h-22v0zM81 -236q-3 0 -4 2.5t0 5.5
l25 54q2 5 1 7t-5 2h-8q-8 0 -8 9v66q0 8 7 8h45q6 0 6 -7v-76q0 -1 -0.5 -3t-0.5 -3l-31 -59q-2 -4 -5 -5t-9 -1h-13v0z" />
    <glyph glyph-name="Rcaron" unicode="&#x158;" horiz-adv-x="679" 
d="M599 14q2 -5 -0.5 -9.5t-7.5 -4.5h-28q-7 0 -12 9l-142 336q-4 10 -21 10h-216q-7 0 -9.5 -3t-2.5 -8v-333q0 -11 -10 -11h-26q-6 0 -8 2.5t-2 6.5v723q0 10 9 10h258q108 0 168 -46t60 -138q0 -61 -23.5 -100.5t-58.5 -61t-70 -30.5q-6 -1 -4 -7l146 -345v0zM346 395
q107 0 161 36t54 120q0 77 -45 114t-136 37h-209q-11 0 -11 -8v-290q0 -9 7 -9h179v0zM402 948q4 3 7.5 4.5t7.5 1.5h41q13 0 1 -10l-98 -80q-3 -2 -6.5 -5t-9.5 -3h-18q-7 0 -11 2.5t-9 6.5l-99 79q-4 4 -3.5 7t5.5 3h37q5 0 7.5 -1t7.5 -5l62 -48q8 -6 10 -6t9 6l59 48v0z
" />
    <glyph glyph-name="rcaron" unicode="&#x159;" horiz-adv-x="356" 
d="M100 0q-4 0 -6.5 2.5t-2.5 6.5v512q0 9 8 9h21q8 0 8 -8v-68q0 -5 2 -6t6 3q30 33 56 52.5t51 28t52 8.5q35 0 35 -10v-26q0 -5 -5 -5q-4 0 -10.5 0.5t-19.5 0.5q-24 0 -52.5 -11.5t-53.5 -31t-41.5 -43.5t-16.5 -49v-356q0 -9 -9 -9h-22v0zM271 736q4 3 7.5 4.5t7.5 1.5
h41q13 0 1 -10l-98 -80q-3 -2 -6.5 -5t-9.5 -3h-18q-7 0 -11 2.5t-9 6.5l-99 79q-4 4 -3.5 7t5.5 3h37q5 0 7.5 -1t7.5 -5l62 -48q8 -6 10 -6t9 6l59 48v0z" />
    <glyph glyph-name="Sacute" unicode="&#x15a;" horiz-adv-x="618" 
d="M500 627q-30 35 -76 59t-109 24q-82 0 -132.5 -39.5t-50.5 -113.5q0 -19 8 -44t34.5 -49.5t79.5 -44.5l138 -50q89 -32 125 -78t36 -109q0 -61 -29.5 -104t-84 -65.5t-130.5 -22.5q-55 0 -100.5 13.5t-81.5 40.5t-66 69q-4 5 -2.5 10t8.5 10l11 8q8 5 12 5t8 -5
q28 -36 56 -60.5t64.5 -36.5t90.5 -12q89 0 143.5 34t54.5 114q0 30 -10.5 54t-38.5 45.5t-83 42.5l-151 58q-54 21 -84 49.5t-42 61.5t-12 65q0 63 29.5 106.5t81.5 66.5t121 23q47 0 85 -11.5t71 -33t61 -51.5q3 -3 4 -6.5t-4 -7.5l-22 -20q-4 -3 -6 -1.5t-7 6.5v0z
M448 932q3 -8 -7 -12l-227 -74q-4 -1 -6.5 0t-4.5 5l-5 15q-3 8 3 10l229 91q6 2 8 -3z" />
    <glyph glyph-name="sacute" unicode="&#x15b;" horiz-adv-x="501" 
d="M404 426q-23 35 -63.5 55.5t-95.5 20.5q-64 0 -106 -28t-42 -76q0 -25 19.5 -48.5t77.5 -42.5l135 -44q59 -19 87.5 -51t28.5 -75t-26.5 -76t-72.5 -52t-103 -19q-73 0 -130.5 31t-82.5 80q-1 3 -1 5.5t3 4.5l22 14q2 2 5 1.5t4 -2.5q18 -30 44 -51.5t60 -33t76 -11.5
q45 0 81.5 13t57.5 36.5t21 54.5q0 34 -27.5 58t-90.5 43l-103 32q-75 23 -101 55.5t-26 69.5q0 46 25 79.5t68.5 52t97.5 18.5q62 0 112 -24t79 -68q2 -3 1.5 -4.5t-2.5 -3.5l-23 -15q-2 -1 -4.5 -1t-4.5 2v0zM363 720q3 -8 -7 -12l-227 -74q-4 -1 -6.5 0t-4.5 5l-5 15
q-3 8 3 10l229 91q6 2 8 -3z" />
    <glyph glyph-name="Scircumflex" unicode="&#x15c;" horiz-adv-x="618" 
d="M500 627q-30 35 -76 59t-109 24q-82 0 -132.5 -39.5t-50.5 -113.5q0 -19 8 -44t34.5 -49.5t79.5 -44.5l138 -50q89 -32 125 -78t36 -109q0 -61 -29.5 -104t-84 -65.5t-130.5 -22.5q-55 0 -100.5 13.5t-81.5 40.5t-66 69q-4 5 -2.5 10t8.5 10l11 8q8 5 12 5t8 -5
q28 -36 56 -60.5t64.5 -36.5t90.5 -12q89 0 143.5 34t54.5 114q0 30 -10.5 54t-38.5 45.5t-83 42.5l-151 58q-54 21 -84 49.5t-42 61.5t-12 65q0 63 29.5 106.5t81.5 66.5t121 23q47 0 85 -11.5t71 -33t61 -51.5q3 -3 4 -6.5t-4 -7.5l-22 -20q-4 -3 -6 -1.5t-7 6.5v0z
M328 910q-7 6 -9 6t-10 -6l-62 -48q-5 -4 -7.5 -5t-7.5 -1h-37q-5 0 -5.5 3t3.5 7l99 79q5 4 9 6.5t11 2.5h18q6 0 9.5 -3t6.5 -5l98 -80q12 -10 -1 -10h-41q-4 0 -7.5 1.5t-7.5 4.5z" />
    <glyph glyph-name="scircumflex" unicode="&#x15d;" horiz-adv-x="501" 
d="M404 426q-23 35 -63.5 55.5t-95.5 20.5q-64 0 -106 -28t-42 -76q0 -25 19.5 -48.5t77.5 -42.5l135 -44q59 -19 87.5 -51t28.5 -75t-26.5 -76t-72.5 -52t-103 -19q-73 0 -130.5 31t-82.5 80q-1 3 -1 5.5t3 4.5l22 14q2 2 5 1.5t4 -2.5q18 -30 44 -51.5t60 -33t76 -11.5
q45 0 81.5 13t57.5 36.5t21 54.5q0 34 -27.5 58t-90.5 43l-103 32q-75 23 -101 55.5t-26 69.5q0 46 25 79.5t68.5 52t97.5 18.5q62 0 112 -24t79 -68q2 -3 1.5 -4.5t-2.5 -3.5l-23 -15q-2 -1 -4.5 -1t-4.5 2v0zM243 698q-7 6 -9 6t-10 -6l-62 -48q-5 -4 -7.5 -5t-7.5 -1h-37
q-5 0 -5.5 3t3.5 7l99 79q5 4 9 6.5t11 2.5h18q6 0 9.5 -3t6.5 -5l98 -80q12 -10 -1 -10h-41q-4 0 -7.5 1.5t-7.5 4.5z" />
    <glyph glyph-name="Scedilla" unicode="&#x15e;" horiz-adv-x="618" 
d="M500 627q-30 35 -76 59t-109 24q-82 0 -132.5 -39.5t-50.5 -113.5q0 -19 8 -44t34.5 -49.5t79.5 -44.5l138 -50q89 -32 125 -78t36 -109q0 -61 -29.5 -104t-84 -65.5t-130.5 -22.5q-55 0 -100.5 13.5t-81.5 40.5t-66 69q-4 5 -2.5 10t8.5 10l11 8q8 5 12 5t8 -5
q28 -36 56 -60.5t64.5 -36.5t90.5 -12q89 0 143.5 34t54.5 114q0 30 -10.5 54t-38.5 45.5t-83 42.5l-151 58q-54 21 -84 49.5t-42 61.5t-12 65q0 63 29.5 106.5t81.5 66.5t121 23q47 0 85 -11.5t71 -33t61 -51.5q3 -3 4 -6.5t-4 -7.5l-22 -20q-4 -3 -6 -1.5t-7 6.5v0z
M396 -129q0 -25 -13.5 -41.5t-36 -25t-50.5 -8.5q-22 0 -39.5 5.5t-33.5 15.5q-4 2 -3 6l9 20q2 4 7 1q10 -8 22 -13t34 -5q32 0 46 11t14 32q0 24 -19 35.5t-58 12.5q-4 0 -4.5 1.5t0.5 2.5l36 84h34l-24 -60q-1 -3 3 -3q30 -3 46.5 -14t23 -26t6.5 -31v0z" />
    <glyph glyph-name="scedilla" unicode="&#x15f;" horiz-adv-x="501" 
d="M404 426q-23 35 -63.5 55.5t-95.5 20.5q-64 0 -106 -28t-42 -76q0 -25 19.5 -48.5t77.5 -42.5l135 -44q59 -19 87.5 -51t28.5 -75t-26.5 -76t-72.5 -52t-103 -19q-73 0 -130.5 31t-82.5 80q-1 3 -1 5.5t3 4.5l22 14q2 2 5 1.5t4 -2.5q18 -30 44 -51.5t60 -33t76 -11.5
q45 0 81.5 13t57.5 36.5t21 54.5q0 34 -27.5 58t-90.5 43l-103 32q-75 23 -101 55.5t-26 69.5q0 46 25 79.5t68.5 52t97.5 18.5q62 0 112 -24t79 -68q2 -3 1.5 -4.5t-2.5 -3.5l-23 -15q-2 -1 -4.5 -1t-4.5 2v0zM315 -129q0 -25 -13.5 -41.5t-36 -25t-50.5 -8.5
q-22 0 -39.5 5.5t-33.5 15.5q-4 2 -3 6l9 20q2 4 7 1q10 -8 22 -13t34 -5q32 0 46 11t14 32q0 24 -19 35.5t-58 12.5q-4 0 -4.5 1.5t0.5 2.5l36 84h34l-24 -60q-1 -3 3 -3q30 -3 46.5 -14t23 -26t6.5 -31v0z" />
    <glyph glyph-name="Scaron" unicode="&#x160;" horiz-adv-x="618" 
d="M500 627q-30 35 -76 59t-109 24q-82 0 -132.5 -39.5t-50.5 -113.5q0 -19 8 -44t34.5 -49.5t79.5 -44.5l138 -50q89 -32 125 -78t36 -109q0 -61 -29.5 -104t-84 -65.5t-130.5 -22.5q-55 0 -100.5 13.5t-81.5 40.5t-66 69q-4 5 -2.5 10t8.5 10l11 8q8 5 12 5t8 -5
q28 -36 56 -60.5t64.5 -36.5t90.5 -12q89 0 143.5 34t54.5 114q0 30 -10.5 54t-38.5 45.5t-83 42.5l-151 58q-54 21 -84 49.5t-42 61.5t-12 65q0 63 29.5 106.5t81.5 66.5t121 23q47 0 85 -11.5t71 -33t61 -51.5q3 -3 4 -6.5t-4 -7.5l-22 -20q-4 -3 -6 -1.5t-7 6.5v0z
M387 948q4 3 7.5 4.5t7.5 1.5h41q13 0 1 -10l-98 -80q-3 -2 -6.5 -5t-9.5 -3h-18q-7 0 -11 2.5t-9 6.5l-99 79q-4 4 -3.5 7t5.5 3h37q5 0 7.5 -1t7.5 -5l62 -48q8 -6 10 -6t9 6l59 48v0z" />
    <glyph glyph-name="scaron" unicode="&#x161;" horiz-adv-x="501" 
d="M404 426q-23 35 -63.5 55.5t-95.5 20.5q-64 0 -106 -28t-42 -76q0 -25 19.5 -48.5t77.5 -42.5l135 -44q59 -19 87.5 -51t28.5 -75t-26.5 -76t-72.5 -52t-103 -19q-73 0 -130.5 31t-82.5 80q-1 3 -1 5.5t3 4.5l22 14q2 2 5 1.5t4 -2.5q18 -30 44 -51.5t60 -33t76 -11.5
q45 0 81.5 13t57.5 36.5t21 54.5q0 34 -27.5 58t-90.5 43l-103 32q-75 23 -101 55.5t-26 69.5q0 46 25 79.5t68.5 52t97.5 18.5q62 0 112 -24t79 -68q2 -3 1.5 -4.5t-2.5 -3.5l-23 -15q-2 -1 -4.5 -1t-4.5 2v0zM302 736q4 3 7.5 4.5t7.5 1.5h41q13 0 1 -10l-98 -80
q-3 -2 -6.5 -5t-9.5 -3h-18q-7 0 -11 2.5t-9 6.5l-99 79q-4 4 -3.5 7t5.5 3h37q5 0 7.5 -1t7.5 -5l62 -48q8 -6 10 -6t9 6l59 48v0z" />
    <glyph glyph-name="uni0162" unicode="&#x162;" horiz-adv-x="623" 
d="M47 735q0 4 1.5 5.5t5.5 1.5h515q4 0 5.5 -1.5t1.5 -5.5v-26q0 -7 -8 -7h-213q-10 0 -10 -9v-683q0 -10 -9 -10h-27q-10 0 -10 10v683q0 9 -10 9h-234q-8 0 -8 7v26zM396 -129q0 -25 -13.5 -41.5t-36 -25t-50.5 -8.5q-22 0 -39.5 5.5t-33.5 15.5q-4 2 -3 6l9 20q2 4 7 1
q10 -8 22 -13t34 -5q32 0 46 11t14 32q0 24 -19 35.5t-58 12.5q-4 0 -4.5 1.5t0.5 2.5l36 84h34l-24 -60q-1 -3 3 -3q30 -3 46.5 -14t23 -26t6.5 -31v0z" />
    <glyph glyph-name="uni0163" unicode="&#x163;" horiz-adv-x="358" 
d="M179 495q-7 0 -7 -7v-364q0 -55 16 -72t46 -17h79q4 0 6 -1.5t2 -5.5v-17q0 -5 -6 -7q-6 -1 -22.5 -2t-32.5 -1.5t-23 -0.5q-60 0 -82.5 27.5t-22.5 91.5v369q0 7 -7 7h-93q-6 0 -6 6v23q0 6 6 6h94q6 0 6 7l9 163q0 10 8 10h14q9 0 9 -11v-162q0 -7 7 -7h139q6 0 6 -6
v-23q0 -6 -6 -6h-139zM304 -129q0 -25 -13.5 -41.5t-36 -25t-50.5 -8.5q-22 0 -39.5 5.5t-33.5 15.5q-4 2 -3 6l9 20q2 4 7 1q10 -8 22 -13t34 -5q32 0 46 11t14 32q0 24 -19 35.5t-58 12.5q-4 0 -4.5 1.5t0.5 2.5l36 84h34l-24 -60q-1 -3 3 -3q30 -3 46.5 -14t23 -26
t6.5 -31v0z" />
    <glyph glyph-name="Tcaron" unicode="&#x164;" horiz-adv-x="623" 
d="M47 735q0 4 1.5 5.5t5.5 1.5h515q4 0 5.5 -1.5t1.5 -5.5v-26q0 -7 -8 -7h-213q-10 0 -10 -9v-683q0 -10 -9 -10h-27q-10 0 -10 10v683q0 9 -10 9h-234q-8 0 -8 7v26zM391 948q4 3 7.5 4.5t7.5 1.5h41q13 0 1 -10l-98 -80q-3 -2 -6.5 -5t-9.5 -3h-18q-7 0 -11 2.5t-9 6.5
l-99 79q-4 4 -3.5 7t5.5 3h37q5 0 7.5 -1t7.5 -5l62 -48q8 -6 10 -6t9 6l59 48v0z" />
    <glyph glyph-name="tcaron" unicode="&#x165;" horiz-adv-x="358" 
d="M179 495q-7 0 -7 -7v-364q0 -55 16 -72t46 -17h79q4 0 6 -1.5t2 -5.5v-17q0 -5 -6 -7q-6 -1 -22.5 -2t-32.5 -1.5t-23 -0.5q-60 0 -82.5 27.5t-22.5 91.5v369q0 7 -7 7h-93q-6 0 -6 6v23q0 6 6 6h94q6 0 6 7l9 163q0 10 8 10h14q9 0 9 -11v-162q0 -7 7 -7h139q6 0 6 -6
v-23q0 -6 -6 -6h-139zM278 580q-3 0 -4.5 2.5t-0.5 4.5l30 70q3 8 -3 9l-5 1q-8 1 -8 8v73q0 7 6 7h43q5 0 5 -6v-82q0 -1 -0.5 -2t-0.5 -2l-33 -76q-1 -4 -4 -5.5t-9 -1.5h-16v0z" />
    <glyph glyph-name="Tbar" unicode="&#x166;" horiz-adv-x="623" 
d="M504 371q0 -11 -13 -11h-343q-6 0 -8 2.5t-2 7.5v23q0 9 7 9h352q7 0 7 -8v-23zM47 735q0 4 1.5 5.5t5.5 1.5h515q4 0 5.5 -1.5t1.5 -5.5v-26q0 -7 -8 -7h-213q-10 0 -10 -9v-683q0 -10 -9 -10h-27q-10 0 -10 10v683q0 9 -10 9h-234q-8 0 -8 7v26z" />
    <glyph glyph-name="tbar" unicode="&#x167;" horiz-adv-x="358" 
d="M276 288q0 -8 -10 -8h-212q-4 0 -5.5 2t-1.5 6v20q0 7 5 7h219q5 0 5 -6v-21zM179 495q-7 0 -7 -7v-364q0 -55 16 -72t46 -17h79q4 0 6 -1.5t2 -5.5v-17q0 -5 -6 -7q-6 -1 -22.5 -2t-32.5 -1.5t-23 -0.5q-60 0 -82.5 27.5t-22.5 91.5v369q0 7 -7 7h-93q-6 0 -6 6v23
q0 6 6 6h94q6 0 6 7l9 163q0 10 8 10h14q9 0 9 -11v-162q0 -7 7 -7h139q6 0 6 -6v-23q0 -6 -6 -6h-139z" />
    <glyph glyph-name="Utilde" unicode="&#x168;" horiz-adv-x="702" 
d="M598 230q0 -80 -27 -133.5t-82 -80t-138 -26.5q-84 0 -138.5 27.5t-81.5 84t-27 143.5v486q0 11 8 11h28q10 0 10 -10v-506q0 -97 50.5 -145.5t152.5 -48.5q69 0 114.5 22t68 65.5t22.5 109.5v504q0 9 8 9h24q8 0 8 -9v-503v0zM480 904q-10 -6 -25 -12.5t-42 -6.5
q-26 0 -44 6t-33.5 12t-36.5 6q-22 0 -34 -7.5t-22 -12.5q-4 -2 -6.5 -1.5t-4.5 5.5l-7 16q-1 4 -0.5 5.5t2.5 2.5q15 11 30.5 18.5t37.5 7.5t41 -6t37.5 -12.5t40.5 -6.5q17 0 27 4.5t23 11.5q5 3 8 2.5t5 -5.5l8 -18q2 -4 -5 -9v0z" />
    <glyph glyph-name="utilde" unicode="&#x169;" horiz-adv-x="571" 
d="M246 28q51 0 98 28t96 77v388q0 9 9 9h22q9 0 9 -9v-512q0 -9 -8 -9h-21q-8 0 -8 8v64q0 5 -1.5 6t-6.5 -3q-63 -50 -106 -67.5t-82 -17.5q-47 0 -84 18.5t-58.5 52t-21.5 76.5v383q0 10 9 10h22q9 0 9 -9v-362q0 -58 32.5 -94.5t90.5 -36.5v0zM393 692q-10 -6 -25 -12.5
t-42 -6.5q-26 0 -44 6t-33.5 12t-36.5 6q-22 0 -34 -7.5t-22 -12.5q-4 -2 -6.5 -1.5t-4.5 5.5l-7 16q-1 4 -0.5 5.5t2.5 2.5q15 11 30.5 18.5t37.5 7.5t41 -6t37.5 -12.5t40.5 -6.5q17 0 27 4.5t23 11.5q5 3 8 2.5t5 -5.5l8 -18q2 -4 -5 -9v0z" />
    <glyph glyph-name="Umacron" unicode="&#x16a;" horiz-adv-x="702" 
d="M598 230q0 -80 -27 -133.5t-82 -80t-138 -26.5q-84 0 -138.5 27.5t-81.5 84t-27 143.5v486q0 11 8 11h28q10 0 10 -10v-506q0 -97 50.5 -145.5t152.5 -48.5q69 0 114.5 22t68 65.5t22.5 109.5v504q0 9 8 9h24q8 0 8 -9v-503v0zM481 904q0 -8 -10 -8h-235q-4 0 -5.5 2
t-1.5 6v23q0 7 5 7h242q5 0 5 -6v-24z" />
    <glyph glyph-name="umacron" unicode="&#x16b;" horiz-adv-x="571" 
d="M246 28q51 0 98 28t96 77v388q0 9 9 9h22q9 0 9 -9v-512q0 -9 -8 -9h-21q-8 0 -8 8v64q0 5 -1.5 6t-6.5 -3q-63 -50 -106 -67.5t-82 -17.5q-47 0 -84 18.5t-58.5 52t-21.5 76.5v383q0 10 9 10h22q9 0 9 -9v-362q0 -58 32.5 -94.5t90.5 -36.5v0zM394 692q0 -8 -10 -8h-235
q-4 0 -5.5 2t-1.5 6v23q0 7 5 7h242q5 0 5 -6v-24z" />
    <glyph glyph-name="Ubreve" unicode="&#x16c;" horiz-adv-x="702" 
d="M598 230q0 -80 -27 -133.5t-82 -80t-138 -26.5q-84 0 -138.5 27.5t-81.5 84t-27 143.5v486q0 11 8 11h28q10 0 10 -10v-506q0 -97 50.5 -145.5t152.5 -48.5q69 0 114.5 22t68 65.5t22.5 109.5v504q0 9 8 9h24q8 0 8 -9v-503v0zM477 954q10 0 7 -9q-4 -16 -20 -35.5
t-43.5 -33.5t-67.5 -14q-38 0 -64 13.5t-41 33t-21 37.5q-1 2 -0.5 5t4.5 3h35q5 0 7 -1.5t5 -5.5q5 -6 13 -16.5t23 -19t39 -8.5q35 0 53.5 15.5t26.5 29.5q2 4 4 5t5 1h35v0z" />
    <glyph glyph-name="ubreve" unicode="&#x16d;" horiz-adv-x="571" 
d="M246 28q51 0 98 28t96 77v388q0 9 9 9h22q9 0 9 -9v-512q0 -9 -8 -9h-21q-8 0 -8 8v64q0 5 -1.5 6t-6.5 -3q-63 -50 -106 -67.5t-82 -17.5q-47 0 -84 18.5t-58.5 52t-21.5 76.5v383q0 10 9 10h22q9 0 9 -9v-362q0 -58 32.5 -94.5t90.5 -36.5v0zM390 742q10 0 7 -9
q-4 -16 -20 -35.5t-43.5 -33.5t-67.5 -14q-38 0 -64 13.5t-41 33t-21 37.5q-1 2 -0.5 5t4.5 3h35q5 0 7 -1.5t5 -5.5q5 -6 13 -16.5t23 -19t39 -8.5q35 0 53.5 15.5t26.5 29.5q2 4 4 5t5 1h35v0z" />
    <glyph glyph-name="Uring" unicode="&#x16e;" horiz-adv-x="702" 
d="M598 230q0 -80 -27 -133.5t-82 -80t-138 -26.5q-84 0 -138.5 27.5t-81.5 84t-27 143.5v486q0 11 8 11h28q10 0 10 -10v-506q0 -97 50.5 -145.5t152.5 -48.5q69 0 114.5 22t68 65.5t22.5 109.5v504q0 9 8 9h24q8 0 8 -9v-503v0zM459 866q0 -43 -29 -71.5t-71 -28.5
t-71 29.5t-29 72.5q0 27 13.5 48.5t36.5 34.5t50 13q28 0 50.5 -13t36 -35t13.5 -50v0zM416 865q0 26 -16.5 42.5t-41.5 16.5q-23 0 -41 -16.5t-18 -42.5q0 -23 18 -41t41 -18q25 0 41.5 18t16.5 41v0z" />
    <glyph glyph-name="uring" unicode="&#x16f;" horiz-adv-x="571" 
d="M246 28q51 0 98 28t96 77v388q0 9 9 9h22q9 0 9 -9v-512q0 -9 -8 -9h-21q-8 0 -8 8v64q0 5 -1.5 6t-6.5 -3q-63 -50 -106 -67.5t-82 -17.5q-47 0 -84 18.5t-58.5 52t-21.5 76.5v383q0 10 9 10h22q9 0 9 -9v-362q0 -58 32.5 -94.5t90.5 -36.5v0zM368 701q0 -43 -29 -71.5
t-71 -28.5t-71 29.5t-29 72.5q0 27 13.5 48.5t36.5 34.5t50 13q28 0 50.5 -13t36 -35t13.5 -50v0zM325 700q0 26 -16.5 42.5t-41.5 16.5q-23 0 -41 -16.5t-18 -42.5q0 -23 18 -41t41 -18q25 0 41.5 18t16.5 41v0z" />
    <glyph glyph-name="Uhungarumlaut" unicode="&#x170;" horiz-adv-x="702" 
d="M598 230q0 -80 -27 -133.5t-82 -80t-138 -26.5q-84 0 -138.5 27.5t-81.5 84t-27 143.5v486q0 11 8 11h28q10 0 10 -10v-506q0 -97 50.5 -145.5t152.5 -48.5q69 0 114.5 22t68 65.5t22.5 109.5v504q0 9 8 9h24q8 0 8 -9v-503v0zM407 932q3 -4 2.5 -6t-5.5 -7l-124 -117
q-4 -3 -7 -3t-5 4l-9 13q-5 5 0 10l117 133q5 5 9 0zM548 932q3 -4 2.5 -6t-5.5 -7l-124 -117q-4 -3 -7 -3t-5 4l-9 13q-5 5 0 10l117 133q5 5 9 0z" />
    <glyph glyph-name="uhungarumlaut" unicode="&#x171;" horiz-adv-x="571" 
d="M246 28q51 0 98 28t96 77v388q0 9 9 9h22q9 0 9 -9v-512q0 -9 -8 -9h-21q-8 0 -8 8v64q0 5 -1.5 6t-6.5 -3q-63 -50 -106 -67.5t-82 -17.5q-47 0 -84 18.5t-58.5 52t-21.5 76.5v383q0 10 9 10h22q9 0 9 -9v-362q0 -58 32.5 -94.5t90.5 -36.5v0zM320 720q3 -4 2.5 -6
t-5.5 -7l-124 -117q-4 -3 -7 -3t-5 4l-9 13q-5 5 0 10l117 133q5 5 9 0zM461 720q3 -4 2.5 -6t-5.5 -7l-124 -117q-4 -3 -7 -3t-5 4l-9 13q-5 5 0 10l117 133q5 5 9 0z" />
    <glyph glyph-name="Uogonek" unicode="&#x172;" horiz-adv-x="702" 
d="M598 230q0 -80 -27 -133.5t-82 -80t-138 -26.5q-84 0 -138.5 27.5t-81.5 84t-27 143.5v486q0 11 8 11h28q10 0 10 -10v-506q0 -97 50.5 -145.5t152.5 -48.5q69 0 114.5 22t68 65.5t22.5 109.5v504q0 9 8 9h24q8 0 8 -9v-503v0zM283 -93q0 33 24 58t87 43l34 -9
q-50 -23 -75.5 -44t-25.5 -50q0 -21 13.5 -31.5t44.5 -10.5q23 0 41 4.5t24 7.5q8 4 8 -3v-20q0 -5 -5 -8q-11 -5 -32.5 -10t-45.5 -5q-48 0 -70 22t-22 56v0z" />
    <glyph glyph-name="uogonek" unicode="&#x173;" horiz-adv-x="571" 
d="M246 28q51 0 98 28t96 77v388q0 9 9 9h22q9 0 9 -9v-512q0 -9 -8 -9h-21q-8 0 -8 8v64q0 5 -1.5 6t-6.5 -3q-63 -50 -106 -67.5t-82 -17.5q-47 0 -84 18.5t-58.5 52t-21.5 76.5v383q0 10 9 10h22q9 0 9 -9v-362q0 -58 32.5 -94.5t90.5 -36.5v0zM333 -89q0 33 24 58t87 43
l34 -9q-50 -23 -75.5 -44t-25.5 -50q0 -21 13.5 -31.5t44.5 -10.5q23 0 41 4.5t24 7.5q8 4 8 -3v-20q0 -5 -5 -8q-11 -5 -32.5 -10t-45.5 -5q-48 0 -70 22t-22 56v0z" />
    <glyph glyph-name="Wcircumflex" unicode="&#x174;" horiz-adv-x="1021" 
d="M960 742q5 0 6.5 -2.5t0.5 -6.5l-207 -722q-3 -11 -16 -11h-32q-15 0 -18 10l-181 648q-1 3 -2 3t-2 -3l-185 -647q-3 -11 -16 -11h-32q-15 0 -18 10l-202 722q-1 5 1 7.5t7 2.5h25q6 0 8.5 -1.5t3.5 -6.5l185 -663q3 -10 6 -9.5t6 10.5l189 663q1 2 3.5 4.5t9.5 2.5h25
q6 0 8.5 -1.5t3.5 -6.5l185 -663q3 -10 6 -9.5t6 10.5l189 663q1 4 4.5 5.5t7.5 1.5h25v0zM522 910q-7 6 -9 6t-10 -6l-62 -48q-5 -4 -7.5 -5t-7.5 -1h-37q-5 0 -5.5 3t3.5 7l99 79q5 4 9 6.5t11 2.5h18q6 0 9.5 -3t6.5 -5l98 -80q12 -10 -1 -10h-41q-4 0 -7.5 1.5t-7.5 4.5
z" />
    <glyph glyph-name="wcircumflex" unicode="&#x175;" horiz-adv-x="783" 
d="M738 530q5 0 7 -2.5t1 -6.5l-147 -510q-1 -6 -5.5 -8.5t-11.5 -2.5h-27q-15 0 -18 10l-140 436q-3 8 -5.5 8t-4.5 -8l-130 -435q-1 -6 -5 -8.5t-11 -2.5h-30q-15 0 -18 10l-156 510q-1 5 1 7.5t7 2.5h23q5 0 8 -1.5t4 -6.5l139 -455q3 -10 7 -9.5t7 10.5l138 456q2 4 4 5
t6 1h23q5 0 8 -1.5t4 -6.5l146 -455q3 -10 6.5 -9.5t6.5 10.5l133 455q2 4 5.5 5.5t7.5 1.5h17v0zM405 698q-7 6 -9 6t-10 -6l-62 -48q-5 -4 -7.5 -5t-7.5 -1h-37q-5 0 -5.5 3t3.5 7l99 79q5 4 9 6.5t11 2.5h18q6 0 9.5 -3t6.5 -5l98 -80q12 -10 -1 -10h-41q-4 0 -7.5 1.5
t-7.5 4.5z" />
    <glyph glyph-name="Ycircumflex" unicode="&#x176;" horiz-adv-x="638" 
d="M582 742q5 0 7 -3t-1 -8l-239 -405q-3 -4 -3.5 -8t-0.5 -12v-293q0 -13 -15 -13h-19q-7 0 -9.5 3t-2.5 8v284q0 8 -1 11.5t-4 8.5l-244 415q-3 5 -1 8.5t9 3.5h23q7 0 10 -2t6 -7l210 -357q7 -12 12.5 -12t11.5 10l209 359q4 6 6.5 7.5t9.5 1.5h26v0zM323 910q-7 6 -9 6
t-10 -6l-62 -48q-5 -4 -7.5 -5t-7.5 -1h-37q-5 0 -5.5 3t3.5 7l99 79q5 4 9 6.5t11 2.5h18q6 0 9.5 -3t6.5 -5l98 -80q12 -10 -1 -10h-41q-4 0 -7.5 1.5t-7.5 4.5z" />
    <glyph glyph-name="ycircumflex" unicode="&#x177;" horiz-adv-x="508" 
d="M108 -165q-29 0 -46.5 1t-17.5 9v15q0 7 5.5 9t23.5 2h60q24 0 43.5 18t32.5 45t17 55t-4 48l-189 481q-2 5 -0.5 8.5t8.5 3.5h21q5 0 8 -1.5t4 -6.5l174 -444q4 -9 9 -8.5t9 12.5l170 441q2 4 4 5.5t6 1.5h22q5 0 7 -3t0 -6l-229 -598q-10 -25 -24 -42t-31.5 -27
t-38 -14.5t-44.5 -4.5v0zM264 698q-7 6 -9 6t-10 -6l-62 -48q-5 -4 -7.5 -5t-7.5 -1h-37q-5 0 -5.5 3t3.5 7l99 79q5 4 9 6.5t11 2.5h18q6 0 9.5 -3t6.5 -5l98 -80q12 -10 -1 -10h-41q-4 0 -7.5 1.5t-7.5 4.5z" />
    <glyph glyph-name="Ydieresis" unicode="&#x178;" horiz-adv-x="638" 
d="M582 742q5 0 7 -3t-1 -8l-239 -405q-3 -4 -3.5 -8t-0.5 -12v-293q0 -13 -15 -13h-19q-7 0 -9.5 3t-2.5 8v284q0 8 -1 11.5t-4 8.5l-244 415q-3 5 -1 8.5t9 3.5h23q7 0 10 -2t6 -7l210 -357q7 -12 12.5 -12t11.5 10l209 359q4 6 6.5 7.5t9.5 1.5h26v0zM283 868
q0 -7 -2 -9.5t-10 -2.5h-27q-7 0 -9 2t-2 8v78q0 10 9 10h32q9 0 9 -10v-76zM394 868q0 -7 -2 -9.5t-10 -2.5h-27q-7 0 -9 2t-2 8v78q0 10 9 10h32q9 0 9 -10v-76z" />
    <glyph glyph-name="Zacute" unicode="&#x179;" horiz-adv-x="600" 
d="M63 0q-4 0 -6 1.5t-2 5.5v15q0 5 1.5 8.5t5.5 8.5l420 656q4 7 -4 7h-406q-4 0 -5.5 1.5t-1.5 5.5v27q0 6 6 6h467q6 0 6 -6v-17q0 -4 -1.5 -6t-3.5 -6l-424 -659q-2 -4 -1.5 -6t3.5 -2h421q6 0 6 -5v-28q0 -3 -1.5 -5t-5.5 -2h-474v0zM434 932q3 -8 -7 -12l-227 -74
q-4 -1 -6.5 0t-4.5 5l-5 15q-3 8 3 10l229 91q6 2 8 -3z" />
    <glyph glyph-name="zacute" unicode="&#x17a;" horiz-adv-x="458" 
d="M42 0q-4 0 -5 1.5t-1 5.5v23q0 5 2 9.5t6 10.5l321 437q6 8 -3 8h-297q-4 0 -5.5 1.5t-1.5 5.5v21q0 7 6 7h344q5 0 5 -6v-25q0 -6 -1.5 -11t-5.5 -10l-321 -436q-6 -7 2 -7h327q6 0 6 -6v-21q0 -4 -1.5 -6t-6.5 -2h-370v0zM373 720q3 -8 -7 -12l-227 -74q-4 -1 -6.5 0
t-4.5 5l-5 15q-3 8 3 10l229 91q6 2 8 -3z" />
    <glyph glyph-name="Zdotaccent" unicode="&#x17b;" horiz-adv-x="600" 
d="M63 0q-4 0 -6 1.5t-2 5.5v15q0 5 1.5 8.5t5.5 8.5l420 656q4 7 -4 7h-406q-4 0 -5.5 1.5t-1.5 5.5v27q0 6 6 6h467q6 0 6 -6v-17q0 -4 -1.5 -6t-3.5 -6l-424 -659q-2 -4 -1.5 -6t3.5 -2h421q6 0 6 -5v-28q0 -3 -1.5 -5t-5.5 -2h-474v0zM330 868q0 -7 -2 -9.5t-10 -2.5
h-27q-7 0 -9 2t-2 8v78q0 10 9 10h32q9 0 9 -10v-76z" />
    <glyph glyph-name="zdotaccent" unicode="&#x17c;" horiz-adv-x="458" 
d="M42 0q-4 0 -5 1.5t-1 5.5v23q0 5 2 9.5t6 10.5l321 437q6 8 -3 8h-297q-4 0 -5.5 1.5t-1.5 5.5v21q0 7 6 7h344q5 0 5 -6v-25q0 -6 -1.5 -11t-5.5 -10l-321 -436q-6 -7 2 -7h327q6 0 6 -6v-21q0 -4 -1.5 -6t-6.5 -2h-370v0zM269 656q0 -7 -2 -9.5t-10 -2.5h-27q-7 0 -9 2
t-2 8v78q0 10 9 10h32q9 0 9 -10v-76z" />
    <glyph glyph-name="Zcaron" unicode="&#x17d;" horiz-adv-x="600" 
d="M63 0q-4 0 -6 1.5t-2 5.5v15q0 5 1.5 8.5t5.5 8.5l420 656q4 7 -4 7h-406q-4 0 -5.5 1.5t-1.5 5.5v27q0 6 6 6h467q6 0 6 -6v-17q0 -4 -1.5 -6t-3.5 -6l-424 -659q-2 -4 -1.5 -6t3.5 -2h421q6 0 6 -5v-28q0 -3 -1.5 -5t-5.5 -2h-474v0zM373 948q4 3 7.5 4.5t7.5 1.5h41
q13 0 1 -10l-98 -80q-3 -2 -6.5 -5t-9.5 -3h-18q-7 0 -11 2.5t-9 6.5l-99 79q-4 4 -3.5 7t5.5 3h37q5 0 7.5 -1t7.5 -5l62 -48q8 -6 10 -6t9 6l59 48v0z" />
    <glyph glyph-name="zcaron" unicode="&#x17e;" horiz-adv-x="458" 
d="M42 0q-4 0 -5 1.5t-1 5.5v23q0 5 2 9.5t6 10.5l321 437q6 8 -3 8h-297q-4 0 -5.5 1.5t-1.5 5.5v21q0 7 6 7h344q5 0 5 -6v-25q0 -6 -1.5 -11t-5.5 -10l-321 -436q-6 -7 2 -7h327q6 0 6 -6v-21q0 -4 -1.5 -6t-6.5 -2h-370v0zM312 736q4 3 7.5 4.5t7.5 1.5h41q13 0 1 -10
l-98 -80q-3 -2 -6.5 -5t-9.5 -3h-18q-7 0 -11 2.5t-9 6.5l-99 79q-4 4 -3.5 7t5.5 3h37q5 0 7.5 -1t7.5 -5l62 -48q8 -6 10 -6t9 6l59 48v0z" />
    <glyph glyph-name="uni018F" unicode="&#x18f;" horiz-adv-x="757" 
d="M627 386q0 35 -5 78.5t-19.5 86.5t-42 78.5t-72 57.5t-109.5 22q-63 0 -104.5 -18.5t-67 -46t-39 -57.5t-20 -54t-10.5 -33q-1 -1 -2.5 -1t-4.5 1l-38 13q-4 1 -1 9q5 11 14 38t27.5 59.5t50 62.5t79.5 50t116 20q75 0 127.5 -24t86.5 -64.5t52.5 -90.5t26 -103.5
t7.5 -103.5q0 -70 -15 -137t-49 -121t-92 -86t-144 -32q-88 0 -146.5 31.5t-92 85t-48 121.5t-14.5 141q0 5 1 8t7 3h535q6 0 6 6v0zM138 338q-4 0 -6 -1.5t-2 -4.5q0 -52 11.5 -105t39 -97t76 -70.5t122.5 -26.5t121.5 26.5t75 71t39 98.5t12.5 109h-489z" />
    <glyph glyph-name="florin" unicode="&#x192;" horiz-adv-x="405" 
d="M320 530q2 0 3 -1.5t1 -4.5l-4 -23q-1 -6 -8 -6h-133q-7 0 -8 -7l-92 -529q-10 -61 -43 -95t-93 -34h-49q-9 0 -7 9l3 19q1 3 2.5 4.5t4.5 1.5l52 1q40 1 60.5 21t28.5 68l93 534q2 7 -5 7h-74q-5 0 -4 6l4 23q0 3 2 4.5t5 1.5h73q7 0 8 7l14 81q11 62 45 93t90 31h72
q5 0 4 -7l-3 -21q-1 -4 -3.5 -5.5t-6.5 -1.5h-73q-32 0 -54.5 -23t-29.5 -61l-15 -86q-1 -7 6 -7h134v0z" />
    <glyph glyph-name="Ohorn" unicode="&#x1a0;" horiz-adv-x="758" 
d="M379 -10q-94 0 -161.5 43t-103.5 127t-36 207q0 125 36.5 211t104 130t161.5 44t161 -44t103 -129t36 -210q0 -123 -36 -207.5t-103.5 -128t-161.5 -43.5v0zM381 32q124 0 187.5 83.5t63.5 253.5q0 172 -64.5 256.5t-187.5 84.5q-124 0 -189 -85t-65 -256
q0 -169 65.5 -253t189.5 -84v0zM572 803q6 0 7.5 -2.5t-0.5 -8.5q-5 -18 -19.5 -39t-40 -36t-65.5 -15l5 41q35 0 50 19t21 37q2 4 4.5 4h5.5h32v0z" />
    <glyph glyph-name="ohorn" unicode="&#x1a1;" horiz-adv-x="598" 
d="M299 -10q-73 0 -128 34.5t-85 96t-30 141.5q0 82 30.5 144.5t85.5 98t128 35.5t127 -35t84.5 -97.5t30.5 -143.5t-30.5 -142.5t-85 -96.5t-127.5 -35v0zM301 28q62 0 106.5 29.5t68.5 82.5t24 124t-24.5 124.5t-69.5 83.5t-106 30t-106.5 -30t-70.5 -83.5t-25 -124.5
q0 -70 25 -123.5t70.5 -83t107.5 -29.5v0zM484 591q6 0 7.5 -2.5t-0.5 -8.5q-5 -18 -19.5 -39t-40 -36t-65.5 -15l5 41q35 0 50 19t21 37q2 4 4.5 4h5.5h32v0z" />
    <glyph glyph-name="Uhorn" unicode="&#x1af;" horiz-adv-x="702" 
d="M598 230q0 -80 -27 -133.5t-82 -80t-138 -26.5q-84 0 -138.5 27.5t-81.5 84t-27 143.5v486q0 11 8 11h28q10 0 10 -10v-506q0 -97 50.5 -145.5t152.5 -48.5q69 0 114.5 22t68 65.5t22.5 109.5v504q0 9 8 9h24q8 0 8 -9v-503v0zM687 803q6 0 7.5 -2.5t-0.5 -8.5
q-5 -18 -19.5 -39t-40 -36t-65.5 -15l5 41q35 0 50 19t21 37q2 4 4.5 4h5.5h32v0z" />
    <glyph glyph-name="uhorn" unicode="&#x1b0;" horiz-adv-x="571" 
d="M246 28q51 0 98 28t96 77v388q0 9 9 9h22q9 0 9 -9v-512q0 -9 -8 -9h-21q-8 0 -8 8v64q0 5 -1.5 6t-6.5 -3q-63 -50 -106 -67.5t-82 -17.5q-47 0 -84 18.5t-58.5 52t-21.5 76.5v383q0 10 9 10h22q9 0 9 -9v-362q0 -58 32.5 -94.5t90.5 -36.5v0zM573 591q6 0 7.5 -2.5
t-0.5 -8.5q-5 -18 -19.5 -39t-40 -36t-65.5 -15l5 41q35 0 50 19t21 37q2 4 4.5 4h5.5h32v0z" />
    <glyph glyph-name="DZcaron" unicode="&#x1c4;" horiz-adv-x="1283" 
d="M124 742h17.5t37.5 -0.5t38.5 -0.5h21.5q140 -1 225 -41t123.5 -119.5t38.5 -201.5q0 -132 -43 -216t-132 -123.5t-226 -39.5h-102q-9 0 -9 10v722q0 5 2.5 7.5t7.5 2.5v0zM170 701q-10 0 -10 -14v-638q0 -9 11 -9h50q129 0 207.5 32.5t114 105.5t35.5 193
q0 131 -38.5 202.5t-117 99.5t-199.5 28h-53v0zM746 0q-4 0 -6 1.5t-2 5.5v15q0 5 1.5 8.5t5.5 8.5l420 656q4 7 -4 7h-406q-4 0 -5.5 1.5t-1.5 5.5v27q0 6 6 6h467q6 0 6 -6v-17q0 -4 -1.5 -6t-3.5 -6l-424 -659q-2 -4 -1.5 -6t3.5 -2h421q6 0 6 -5v-28q0 -3 -1.5 -5
t-5.5 -2h-474v0zM1056 948q4 3 7.5 4.5t7.5 1.5h41q13 0 1 -10l-98 -80q-3 -2 -6.5 -5t-9.5 -3h-18q-7 0 -11 2.5t-9 6.5l-99 79q-4 4 -3.5 7t5.5 3h37q5 0 7.5 -1t7.5 -5l62 -48q8 -6 10 -6t9 6l59 48v0z" />
    <glyph glyph-name="Dzcaron" unicode="&#x1c5;" horiz-adv-x="1161" 
d="M124 742h17.5t37.5 -0.5t38.5 -0.5h21.5q140 -1 225 -41t123.5 -119.5t38.5 -201.5q0 -132 -43 -216t-132 -123.5t-226 -39.5h-102q-9 0 -9 10v722q0 5 2.5 7.5t7.5 2.5v0zM170 701q-10 0 -10 -14v-638q0 -9 11 -9h50q129 0 207.5 32.5t114 105.5t35.5 193
q0 131 -38.5 202.5t-117 99.5t-199.5 28h-53v0zM745 0q-4 0 -5 1.5t-1 5.5v23q0 5 2 9.5t6 10.5l321 437q6 8 -3 8h-297q-4 0 -5.5 1.5t-1.5 5.5v21q0 7 6 7h344q5 0 5 -6v-25q0 -6 -1.5 -11t-5.5 -10l-321 -436q-6 -7 2 -7h327q6 0 6 -6v-21q0 -4 -1.5 -6t-6.5 -2h-370v0z
M1015 736q4 3 7.5 4.5t7.5 1.5h41q13 0 1 -10l-98 -80q-3 -2 -6.5 -5t-9.5 -3h-18q-7 0 -11 2.5t-9 6.5l-99 79q-4 4 -3.5 7t5.5 3h37q5 0 7.5 -1t7.5 -5l62 -48q8 -6 10 -6t9 6l59 48v0z" />
    <glyph glyph-name="dzcaron" unicode="&#x1c6;" horiz-adv-x="1050" 
d="M473 0q-5 0 -7.5 3t-2.5 8v51q0 8 -3 9t-9 -5q-8 -8 -28 -26.5t-53.5 -34t-81.5 -15.5q-64 0 -116.5 29.5t-83.5 88.5t-31 147q0 85 30 149t85 100t128 36q55 0 89.5 -18t57.5 -36q9 -7 11.5 -5t2.5 12v239q0 10 9 10h23q8 0 8 -9v-721q0 -7 -2.5 -9.5t-9.5 -2.5h-16v0z
M461 426q-37 36 -75.5 56t-84.5 20q-58 0 -104 -29t-72 -83.5t-26 -130.5q0 -79 27 -130.5t71.5 -76t95.5 -24.5q48 0 86 23t60 56t22 63v256v0zM634 0q-4 0 -5 1.5t-1 5.5v23q0 5 2 9.5t6 10.5l321 437q6 8 -3 8h-297q-4 0 -5.5 1.5t-1.5 5.5v21q0 7 6 7h344q5 0 5 -6v-25
q0 -6 -1.5 -11t-5.5 -10l-321 -436q-6 -7 2 -7h327q6 0 6 -6v-21q0 -4 -1.5 -6t-6.5 -2h-370v0zM904 736q4 3 7.5 4.5t7.5 1.5h41q13 0 1 -10l-98 -80q-3 -2 -6.5 -5t-9.5 -3h-18q-7 0 -11 2.5t-9 6.5l-99 79q-4 4 -3.5 7t5.5 3h37q5 0 7.5 -1t7.5 -5l62 -48q8 -6 10 -6t9 6
l59 48v0z" />
    <glyph glyph-name="LJ" unicode="&#x1c7;" horiz-adv-x="986" 
d="M114 732q0 10 9 10h28q9 0 9 -10v-683q0 -9 9 -9h363q8 0 8 -7v-26q0 -4 -1.5 -5.5t-5.5 -1.5h-410q-5 0 -7 2.5t-2 7.5v722v0zM876 144q0 -71 -29 -112.5t-102 -41.5q-41 0 -71.5 10.5t-35.5 14.5q-2 2 -3.5 4t-0.5 5l9 31q1 7 8 4q16 -7 35.5 -16t56.5 -9q49 0 68 25
t19 95v579q0 9 8 9h30q8 0 8 -10v-588v0z" />
    <glyph glyph-name="Lj" unicode="&#x1c8;" horiz-adv-x="809" 
d="M114 732q0 10 9 10h28q9 0 9 -10v-683q0 -9 9 -9h363q8 0 8 -7v-26q0 -4 -1.5 -5.5t-5.5 -1.5h-410q-5 0 -7 2.5t-2 7.5v722v0zM718 -51q0 -61 -22.5 -90t-90.5 -29q-44 0 -54.5 1.5t-10.5 7.5v21q0 3 1.5 4.5t4.5 1.5l58 1q40 1 57 20t17 67v566q0 10 10 10h22
q8 0 8 -10v-571v0zM723 660q0 -16 -12 -16h-27q-11 0 -11 14v71q0 13 12 13h26q12 0 12 -13v-69z" />
    <glyph glyph-name="lj" unicode="&#x1c9;" horiz-adv-x="444" 
d="M131 12q0 -7 -2 -9.5t-10 -2.5h-17q-11 0 -11 10v722q0 10 9 10h22q9 0 9 -10v-720zM353 -51q0 -61 -22.5 -90t-90.5 -29q-44 0 -54.5 1.5t-10.5 7.5v21q0 3 1.5 4.5t4.5 1.5l58 1q40 1 57 20t17 67v566q0 10 10 10h22q8 0 8 -10v-571v0zM358 660q0 -16 -12 -16h-27
q-11 0 -11 14v71q0 13 12 13h26q12 0 12 -13v-69z" />
    <glyph glyph-name="NJ" unicode="&#x1ca;" horiz-adv-x="1154" 
d="M632 742q9 0 9 -10v-722q0 -5 -2 -7.5t-7 -2.5h-15q-6 0 -10.5 0.5t-8.5 5.5l-428 631q-5 8 -8.5 7t-3.5 -7v-628q0 -9 -10 -9h-25q-9 0 -9 10v722q0 10 9 10h18q6 0 9 -1t6 -6l427 -630q5 -7 9.5 -4.5t4.5 6.5v626q0 9 8 9h27zM1044 144q0 -71 -29 -112.5t-102 -41.5
q-41 0 -71.5 10.5t-35.5 14.5q-2 2 -3.5 4t-0.5 5l9 31q1 7 8 4q16 -7 35.5 -16t56.5 -9q49 0 68 25t19 95v579q0 9 8 9h30q8 0 8 -10v-588v0z" />
    <glyph glyph-name="Nj" unicode="&#x1cb;" horiz-adv-x="977" 
d="M632 742q9 0 9 -10v-722q0 -5 -2 -7.5t-7 -2.5h-15q-6 0 -10.5 0.5t-8.5 5.5l-428 631q-5 8 -8.5 7t-3.5 -7v-628q0 -9 -10 -9h-25q-9 0 -9 10v722q0 10 9 10h18q6 0 9 -1t6 -6l427 -630q5 -7 9.5 -4.5t4.5 6.5v626q0 9 8 9h27zM886 -51q0 -61 -22.5 -90t-90.5 -29
q-44 0 -54.5 1.5t-10.5 7.5v21q0 3 1.5 4.5t4.5 1.5l58 1q40 1 57 20t17 67v566q0 10 10 10h22q8 0 8 -10v-571v0zM891 660q0 -16 -12 -16h-27q-11 0 -11 14v71q0 13 12 13h26q12 0 12 -13v-69z" />
    <glyph glyph-name="nj" unicode="&#x1cc;" horiz-adv-x="798" 
d="M100 0q-9 0 -9 9v512q0 9 8 9h21q8 0 8 -8v-62q0 -5 2 -6t6 3q38 27 68 45.5t60 28t66 9.5q80 0 121 -41t41 -106v-383q0 -10 -9 -10h-22q-4 0 -6.5 2.5t-2.5 6.5v368q0 59 -29 92t-94 33q-35 0 -65 -10.5t-61.5 -30.5t-71.5 -51v-401q0 -9 -9 -9h-22v0zM707 -51
q0 -61 -22.5 -90t-90.5 -29q-44 0 -54.5 1.5t-10.5 7.5v21q0 3 1.5 4.5t4.5 1.5l58 1q40 1 57 20t17 67v566q0 10 10 10h22q8 0 8 -10v-571v0zM712 660q0 -16 -12 -16h-27q-11 0 -11 14v71q0 13 12 13h26q12 0 12 -13v-69z" />
    <glyph glyph-name="uni01EA" unicode="&#x1ea;" horiz-adv-x="758" 
d="M379 -10q-94 0 -161.5 43t-103.5 127t-36 207q0 125 36.5 211t104 130t161.5 44t161 -44t103 -129t36 -210q0 -123 -36 -207.5t-103.5 -128t-161.5 -43.5v0zM381 32q124 0 187.5 83.5t63.5 253.5q0 172 -64.5 256.5t-187.5 84.5q-124 0 -189 -85t-65 -256
q0 -169 65.5 -253t189.5 -84v0zM311 -93q0 33 24 58t87 43l34 -9q-50 -23 -75.5 -44t-25.5 -50q0 -21 13.5 -31.5t44.5 -10.5q23 0 41 4.5t24 7.5q8 4 8 -3v-20q0 -5 -5 -8q-11 -5 -32.5 -10t-45.5 -5q-48 0 -70 22t-22 56v0z" />
    <glyph glyph-name="uni01EB" unicode="&#x1eb;" horiz-adv-x="598" 
d="M299 -10q-73 0 -128 34.5t-85 96t-30 141.5q0 82 30.5 144.5t85.5 98t128 35.5t127 -35t84.5 -97.5t30.5 -143.5t-30.5 -142.5t-85 -96.5t-127.5 -35v0zM301 28q62 0 106.5 29.5t68.5 82.5t24 124t-24.5 124.5t-69.5 83.5t-106 30t-106.5 -30t-70.5 -83.5t-25 -124.5
q0 -70 25 -123.5t70.5 -83t107.5 -29.5v0zM223 -92q0 33 24 58t87 43l34 -9q-50 -23 -75.5 -44t-25.5 -50q0 -21 13.5 -31.5t44.5 -10.5q23 0 41 4.5t24 7.5q8 4 8 -3v-20q0 -5 -5 -8q-11 -5 -32.5 -10t-45.5 -5q-48 0 -70 22t-22 56v0z" />
    <glyph glyph-name="DZ" unicode="&#x1f1;" horiz-adv-x="1241" 
d="M124 742h17.5t37.5 -0.5t38.5 -0.5h21.5q140 -1 225 -41t123.5 -119.5t38.5 -201.5q0 -132 -43 -216t-132 -123.5t-226 -39.5h-102q-9 0 -9 10v722q0 5 2.5 7.5t7.5 2.5v0zM170 701q-10 0 -10 -14v-638q0 -9 11 -9h50q129 0 207.5 32.5t114 105.5t35.5 193
q0 131 -38.5 202.5t-117 99.5t-199.5 28h-53v0zM704 0q-4 0 -6 1.5t-2 5.5v15q0 5 1.5 8.5t5.5 8.5l420 656q4 7 -4 7h-406q-4 0 -5.5 1.5t-1.5 5.5v27q0 6 6 6h467q6 0 6 -6v-17q0 -4 -1.5 -6t-3.5 -6l-424 -659q-2 -4 -1.5 -6t3.5 -2h421q6 0 6 -5v-28q0 -3 -1.5 -5
t-5.5 -2h-474v0z" />
    <glyph glyph-name="Dz" unicode="&#x1f2;" horiz-adv-x="1110" 
d="M124 742h17.5t37.5 -0.5t38.5 -0.5h21.5q140 -1 225 -41t123.5 -119.5t38.5 -201.5q0 -132 -43 -216t-132 -123.5t-226 -39.5h-102q-9 0 -9 10v722q0 5 2.5 7.5t7.5 2.5v0zM170 701q-10 0 -10 -14v-638q0 -9 11 -9h50q129 0 207.5 32.5t114 105.5t35.5 193
q0 131 -38.5 202.5t-117 99.5t-199.5 28h-53v0zM694 0q-4 0 -5 1.5t-1 5.5v23q0 5 2 9.5t6 10.5l321 437q6 8 -3 8h-297q-4 0 -5.5 1.5t-1.5 5.5v21q0 7 6 7h344q5 0 5 -6v-25q0 -6 -1.5 -11t-5.5 -10l-321 -436q-6 -7 2 -7h327q6 0 6 -6v-21q0 -4 -1.5 -6t-6.5 -2h-370v0z
" />
    <glyph glyph-name="dz" unicode="&#x1f3;" horiz-adv-x="1050" 
d="M473 0q-5 0 -7.5 3t-2.5 8v51q0 8 -3 9t-9 -5q-8 -8 -28 -26.5t-53.5 -34t-81.5 -15.5q-64 0 -116.5 29.5t-83.5 88.5t-31 147q0 85 30 149t85 100t128 36q55 0 89.5 -18t57.5 -36q9 -7 11.5 -5t2.5 12v239q0 10 9 10h23q8 0 8 -9v-721q0 -7 -2.5 -9.5t-9.5 -2.5h-16v0z
M461 426q-37 36 -75.5 56t-84.5 20q-58 0 -104 -29t-72 -83.5t-26 -130.5q0 -79 27 -130.5t71.5 -76t95.5 -24.5q48 0 86 23t60 56t22 63v256v0zM634 0q-4 0 -5 1.5t-1 5.5v23q0 5 2 9.5t6 10.5l321 437q6 8 -3 8h-297q-4 0 -5.5 1.5t-1.5 5.5v21q0 7 6 7h344q5 0 5 -6v-25
q0 -6 -1.5 -11t-5.5 -10l-321 -436q-6 -7 2 -7h327q6 0 6 -6v-21q0 -4 -1.5 -6t-6.5 -2h-370v0z" />
    <glyph glyph-name="Gacute" unicode="&#x1f4;" horiz-adv-x="730" 
d="M373 -10q-92 0 -158.5 44.5t-101.5 129t-35 204.5q0 123 36.5 209t103 130.5t156.5 44.5q62 0 117.5 -26.5t93 -70.5t43.5 -96q0 -3 -0.5 -5t-4.5 -3l-35 -6q-2 -1 -4 0.5t-3 5.5q-8 45 -37 81t-73 57t-97 21q-80 0 -135.5 -40t-84 -115.5t-28.5 -180.5q0 -110 28 -186.5
t83.5 -116t136.5 -39.5q59 0 102.5 21t71.5 55t42 73t14 74v79q0 8 -11 8h-189q-4 0 -5.5 1.5t-1.5 4.5v23q0 6 5 6h236q3 0 4.5 -1.5t1.5 -4.5v-360q0 -7 -2.5 -9t-7.5 -2h-17q-6 0 -9.5 1t-3.5 8v106q0 5 -2.5 5t-5.5 -5q-19 -35 -50 -63.5t-74 -45t-99 -16.5v0zM503 932
q3 -8 -7 -12l-227 -74q-4 -1 -6.5 0t-4.5 5l-5 15q-3 8 3 10l229 91q6 2 8 -3z" />
    <glyph glyph-name="gacute" unicode="&#x1f5;" horiz-adv-x="582" 
d="M533 530q11 0 15 -3t4 -10v-13q0 -7 -3 -11t-14 -5q-19 -1 -31 -4t-24 -10q-24 -13 -20 -23q5 -13 13 -31.5t8 -50.5q0 -44 -21 -80.5t-65.5 -58t-115.5 -21.5q-57 0 -89.5 -7t-45.5 -18.5t-13 -23.5q0 -18 25.5 -26t83.5 -11l120 -7q80 -4 117 -40t37 -95
q0 -75 -63 -115.5t-176 -40.5q-115 0 -177.5 39t-62.5 109q0 36 22.5 67.5t69.5 57.5q11 6 0 11q-20 9 -29 21.5t-9 28.5q0 11 6.5 23t21 22.5t39.5 18.5q6 2 5 5.5t-6 6.5q-41 23 -60 55.5t-19 78.5q0 80 55.5 124.5t154.5 44.5q50 0 84 -11.5t59 -33.5q5 -4 9 -4.5t9 3.5
q10 8 23 16.5t29 15t34 6.5v0zM280 247q81 0 121 31.5t40 92.5q0 62 -40.5 95.5t-120.5 33.5q-78 0 -121 -33.5t-43 -95.5q0 -61 42.5 -92.5t121.5 -31.5v0zM183 86q-16 1 -41 -12.5t-45 -38.5t-20 -58q0 -36 24.5 -61.5t71 -39t111.5 -13.5q92 0 140 28.5t48 89.5
q0 41 -25 65.5t-88 28.5zM412 720q3 -8 -7 -12l-227 -74q-4 -1 -6.5 0t-4.5 5l-5 15q-3 8 3 10l229 91q6 2 8 -3z" />
    <glyph glyph-name="Aringacute" unicode="&#x1fa;" horiz-adv-x="637" 
d="M418 802q0 -43 -29 -71.5t-71 -28.5t-71 29.5t-29 72.5q0 40 29.5 68t70.5 28q42 0 71 -28.5t29 -69.5v0zM375 801q0 26 -16.5 42.5t-41.5 16.5q-23 0 -41 -16.5t-18 -42.5q0 -23 18 -41t41 -18q25 0 41.5 18t16.5 41v0zM335 742q15 0 18 -10l243 -722q2 -4 -0.5 -7
t-7.5 -3h-27q-9 0 -12 8l-76 223q-1 4 -3 5.5t-7 1.5h-296q-7 0 -10 -7l-77 -224q-1 -4 -3.5 -5.5t-7.5 -1.5h-22q-4 0 -6 2.5t-1 6.5l247 722q2 6 5.5 8.5t10.5 2.5h32zM323 678q-3 10 -7 10t-8 -11l-133 -391q-3 -8 4 -8h269q10 0 7 10zM362 964q8 0 10.5 -4t-0.5 -12
l-31 -73h-38l18 76q2 7 6 10t12 3h23z" />
    <glyph glyph-name="aringacute" unicode="&#x1fb;" horiz-adv-x="538" 
d="M408 72q-41 -41 -87.5 -61.5t-102.5 -20.5q-79 0 -124.5 39t-45.5 106q0 51 27.5 87t82.5 57.5t137 28.5l105 9q8 1 12.5 4.5t4.5 10.5v31q0 64 -40.5 101.5t-108.5 37.5q-52 0 -93 -23.5t-75 -68.5q-3 -4 -5 -5t-5 1l-24 15q-2 2 -2.5 4t2.5 6q32 47 82.5 78t121.5 31
q57 0 99 -20.5t65 -59.5t23 -93v-357q0 -6 -2.5 -8t-7.5 -2h-18q-4 0 -6.5 2t-2.5 7l-2 61q-2 12 -10 2v0zM417 266q0 16 -14 14l-89 -7q-59 -4 -101.5 -15t-69.5 -28t-40 -40t-13 -52q0 -52 36.5 -81t97.5 -29q37 0 72.5 13.5t63.5 35.5q28 23 42.5 47.5t14.5 46.5v95v0z
M395 926q3 -8 -7 -12l-227 -74q-4 -1 -6.5 0t-4.5 5l-5 15q-3 8 3 10l229 91q6 2 8 -3zM389 692q0 -43 -29 -71.5t-71 -28.5t-71 29.5t-29 72.5q0 27 13.5 48.5t36.5 34.5t50 13q28 0 50.5 -13t36 -35t13.5 -50v0zM346 691q0 26 -16.5 42.5t-41.5 16.5q-23 0 -41 -16.5
t-18 -42.5q0 -23 18 -41t41 -18q25 0 41.5 18t16.5 41v0z" />
    <glyph glyph-name="AEacute" unicode="&#x1fc;" horiz-adv-x="963" 
d="M903 40q8 0 8 -7v-26q0 -4 -1.5 -5.5t-5.5 -1.5h-400q-9 0 -9 10v223q0 5 -5 5h-254q-8 0 -12 -7l-129 -224q-2 -4 -4.5 -5.5t-7.5 -1.5h-25q-4 0 -5.5 2.5t0.5 6.5l413 722q3 6 7 8.5t11 2.5h405q7 0 7 -7v-26q0 -7 -8 -7h-338q-9 0 -9 -9v-291q0 -7 9 -7h269q7 0 7 -7
v-26q0 -4 -1.5 -5.5t-6.5 -1.5h-268q-9 0 -9 -9v-297q0 -9 9 -9h353v0zM487 278q8 0 8 9v391q-1 10 -5 10t-10 -11l-228 -391q-5 -8 3 -8h232v0zM810 932q3 -8 -7 -12l-227 -74q-4 -1 -6.5 0t-4.5 5l-5 15q-3 8 3 10l229 91q6 2 8 -3z" />
    <glyph glyph-name="aeacute" unicode="&#x1fd;" horiz-adv-x="930" 
d="M471 253q-13 0 -16.5 -4.5t-3.5 -20.5q0 -35 15.5 -70.5t42.5 -65t63.5 -47t78.5 -17.5q52 0 85.5 15t55 36.5t35.5 41.5q4 5 5.5 5.5t5.5 -1.5l22 -15q5 -3 1 -10q-17 -31 -48.5 -56t-73 -39.5t-90.5 -14.5q-61 0 -101 20.5t-64.5 48.5t-39.5 49q-2 4 -5 0
q-18 -23 -45.5 -50.5t-70.5 -47.5t-109 -20q-78 0 -122 39t-44 107q0 74 58.5 118t180.5 54l112 9q9 1 13.5 4.5t4.5 10.5v31q0 64 -39.5 101.5t-114.5 37.5q-48 0 -88.5 -23.5t-75.5 -68.5q-4 -4 -6 -5t-5 1l-22 15q-2 2 -2 4t2 6q22 35 53.5 59t70.5 37t81 13
q74 0 117 -29.5t58 -89.5q30 59 83 89t123 30q69 0 120.5 -31t80 -90.5t28.5 -144.5q0 -10 -3.5 -15t-14.5 -5l-392 -1v0zM649 502q-55 0 -99 -26.5t-70 -73.5t-27 -111l368 -1q12 0 14.5 3.5t2.5 12.5q0 54 -24.5 98.5t-67 71t-97.5 26.5v0zM417 265q0 8 -2.5 11.5
t-12.5 2.5l-95 -7q-75 -6 -122.5 -23t-70.5 -44.5t-23 -66.5q0 -50 35 -81t98 -28q54 3 97.5 23.5t69.5 53t26 71.5v88v0zM582 720q3 -8 -7 -12l-227 -74q-4 -1 -6.5 0t-4.5 5l-5 15q-3 8 3 10l229 91q6 2 8 -3z" />
    <glyph glyph-name="Oslashacute" unicode="&#x1fe;" horiz-adv-x="708" 
d="M684 727q5 -5 1 -11l-85 -99q27 -46 41 -108.5t14 -139.5q0 -123 -36 -207.5t-103.5 -128t-161.5 -43.5q-69 0 -124 23t-93 68l-73 -84q-4 -6 -8.5 -6t-10.5 4l-17 16q-9 9 -4 15l84 97q-27 46 -41 107t-14 137q0 125 36.5 211t104 130t161.5 44q68 0 122.5 -23.5
t93.5 -69.5l75 87q7 8 13 3l25 -22v0zM104 369q0 -64 9 -116t28 -92l400 464q-63 84 -186 84q-124 0 -187.5 -84.5t-63.5 -255.5v0zM604 369q0 65 -9 118t-28 93l-400 -463q65 -84 189 -84t186 83t62 253v0zM484 932q3 -8 -7 -12l-227 -74q-4 -1 -6.5 0t-4.5 5l-5 15
q-3 8 3 10l229 91q6 2 8 -3z" />
    <glyph glyph-name="oslashacute" unicode="&#x1ff;" horiz-adv-x="575" 
d="M51 4q-4 -4 -8.5 -4t-7.5 4l-11 12q-9 9 1 19l497 489q9 9 17 0l13 -13q6 -8 0 -14zM297 -10q-73 0 -128 34.5t-85 96t-30 141.5q0 82 30.5 144.5t85.5 98t128 35.5t127 -35t84.5 -97.5t30.5 -143.5t-30.5 -142.5t-85 -96.5t-127.5 -35v0zM299 28q62 0 106.5 29.5
t68.5 82.5t24 124t-24.5 124.5t-69.5 83.5t-106 30t-106.5 -30t-70.5 -83.5t-25 -124.5q0 -70 25 -123.5t70.5 -83t107.5 -29.5v0zM417 720q3 -8 -7 -12l-227 -74q-4 -1 -6.5 0t-4.5 5l-5 15q-3 8 3 10l229 91q6 2 8 -3z" />
    <glyph glyph-name="uni0200" unicode="&#x200;" horiz-adv-x="700" 
d="M60 0q-4 0 -6 2.5t-1 6.5l265 722q2 6 5.5 8.5t10.5 2.5h33q15 0 18 -10l262 -722q2 -4 -0.5 -7t-7.5 -3h-24q-10 0 -13 8l-81 223q-1 4 -3 5.5t-7 1.5h-322q-7 0 -10 -7l-83 -224q-1 -4 -3.5 -5.5t-7.5 -1.5h-25v0zM494 278q10 0 7 10l-143 390q-4 10 -7.5 10t-7.5 -11
l-145 -391q-3 -8 5 -8h291zM180 959q5 5 9 0l117 -133q5 -5 0 -10l-9 -13q-2 -4 -5 -4t-7 3l-124 117q-5 5 -5.5 7t2.5 6l22 27v0zM320 959q5 5 9 0l117 -133q5 -5 0 -10l-9 -13q-2 -4 -5 -4t-7 3l-124 117q-5 5 -5.5 7t2.5 6l22 27v0z" />
    <glyph glyph-name="uni0201" unicode="&#x201;" horiz-adv-x="538" 
d="M408 72q-41 -41 -87.5 -61.5t-102.5 -20.5q-79 0 -124.5 39t-45.5 106q0 51 27.5 87t82.5 57.5t137 28.5l105 9q8 1 12.5 4.5t4.5 10.5v31q0 64 -40.5 101.5t-108.5 37.5q-52 0 -93 -23.5t-75 -68.5q-3 -4 -5 -5t-5 1l-24 15q-2 2 -2.5 4t2.5 6q32 47 82.5 78t121.5 31
q57 0 99 -20.5t65 -59.5t23 -93v-357q0 -6 -2.5 -8t-7.5 -2h-18q-4 0 -6.5 2t-2.5 7l-2 61q-2 12 -10 2v0zM417 266q0 16 -14 14l-89 -7q-59 -4 -101.5 -15t-69.5 -28t-40 -40t-13 -52q0 -52 36.5 -81t97.5 -29q37 0 72.5 13.5t63.5 35.5q28 23 42.5 47.5t14.5 46.5v95v0z
M96 747q5 5 9 0l117 -133q5 -5 0 -10l-9 -13q-2 -4 -5 -4t-7 3l-124 117q-5 5 -5.5 7t2.5 6l22 27v0zM236 747q5 5 9 0l117 -133q5 -5 0 -10l-9 -13q-2 -4 -5 -4t-7 3l-124 117q-5 5 -5.5 7t2.5 6l22 27v0z" />
    <glyph glyph-name="uni0202" unicode="&#x202;" horiz-adv-x="700" 
d="M60 0q-4 0 -6 2.5t-1 6.5l265 722q2 6 5.5 8.5t10.5 2.5h33q15 0 18 -10l262 -722q2 -4 -0.5 -7t-7.5 -3h-24q-10 0 -13 8l-81 223q-1 4 -3 5.5t-7 1.5h-322q-7 0 -10 -7l-83 -224q-1 -4 -3.5 -5.5t-7.5 -1.5h-25v0zM494 278q10 0 7 10l-143 390q-4 10 -7.5 10t-7.5 -11
l-145 -391q-3 -8 5 -8h291zM471 870v0h-35q-3 0 -5 1t-4 5q-8 14 -26.5 29.5t-53.5 15.5q-24 0 -39 -8.5t-23 -18.5t-13 -17q-3 -4 -5 -5.5t-7 -1.5h-35q-4 0 -4.5 3t0.5 5q6 18 21 37.5t41 33t64 13.5q40 0 67.5 -14t43.5 -33.5t20 -35.5q3 -9 -7 -9z" />
    <glyph glyph-name="uni0203" unicode="&#x203;" horiz-adv-x="538" 
d="M408 72q-41 -41 -87.5 -61.5t-102.5 -20.5q-79 0 -124.5 39t-45.5 106q0 51 27.5 87t82.5 57.5t137 28.5l105 9q8 1 12.5 4.5t4.5 10.5v31q0 64 -40.5 101.5t-108.5 37.5q-52 0 -93 -23.5t-75 -68.5q-3 -4 -5 -5t-5 1l-24 15q-2 2 -2.5 4t2.5 6q32 47 82.5 78t121.5 31
q57 0 99 -20.5t65 -59.5t23 -93v-357q0 -6 -2.5 -8t-7.5 -2h-18q-4 0 -6.5 2t-2.5 7l-2 61q-2 12 -10 2v0zM417 266q0 16 -14 14l-89 -7q-59 -4 -101.5 -15t-69.5 -28t-40 -40t-13 -52q0 -52 36.5 -81t97.5 -29q37 0 72.5 13.5t63.5 35.5q28 23 42.5 47.5t14.5 46.5v95v0z
M387 658v0h-35q-3 0 -5 1t-4 5q-8 14 -26.5 29.5t-53.5 15.5q-24 0 -39 -8.5t-23 -18.5t-13 -17q-3 -4 -5 -5.5t-7 -1.5h-35q-4 0 -4.5 3t0.5 5q6 18 21 37.5t41 33t64 13.5q40 0 67.5 -14t43.5 -33.5t20 -35.5q3 -9 -7 -9z" />
    <glyph glyph-name="uni0204" unicode="&#x204;" horiz-adv-x="612" 
d="M114 732q0 10 9 10h415q7 0 7 -7v-26q0 -7 -8 -7h-368q-9 0 -9 -9v-291q0 -7 9 -7h289q7 0 7 -7v-26q0 -4 -1.5 -5.5t-6.5 -1.5h-288q-9 0 -9 -9v-297q0 -9 9 -9h383q8 0 8 -7v-26q0 -4 -1.5 -5.5t-5.5 -1.5h-430q-9 0 -9 10v722v0zM175 959q5 5 9 0l117 -133q5 -5 0 -10
l-9 -13q-2 -4 -5 -4t-7 3l-124 117q-5 5 -5.5 7t2.5 6l22 27v0zM315 959q5 5 9 0l117 -133q5 -5 0 -10l-9 -13q-2 -4 -5 -4t-7 3l-124 117q-5 5 -5.5 7t2.5 6l22 27v0z" />
    <glyph glyph-name="uni0205" unicode="&#x205;" horiz-adv-x="577" 
d="M98 240q0 -56 27 -104.5t72.5 -78t101.5 -29.5q60 0 104 24t71 69q3 5 5.5 5.5t5.5 -1.5l23 -15q6 -4 1 -10q-23 -36 -54 -60.5t-70 -37t-86 -12.5q-72 0 -126.5 34t-85.5 95.5t-31 141.5q0 88 31.5 150t86.5 95.5t125 33.5q71 0 122 -31.5t79 -91t28 -143.5q0 -6 -1 -13
t-12 -7h-411q-3 0 -4.5 -4.5t-1.5 -9.5v0zM469 290q11 0 14 3t3 11q0 55 -23 100t-65 71.5t-100 26.5q-66 0 -110.5 -32t-66.5 -81t-22 -99h370zM127 747q5 5 9 0l117 -133q5 -5 0 -10l-9 -13q-2 -4 -5 -4t-7 3l-124 117q-5 5 -5.5 7t2.5 6l22 27v0zM267 747q5 5 9 0
l117 -133q5 -5 0 -10l-9 -13q-2 -4 -5 -4t-7 3l-124 117q-5 5 -5.5 7t2.5 6l22 27v0z" />
    <glyph glyph-name="uni0206" unicode="&#x206;" horiz-adv-x="612" 
d="M114 732q0 10 9 10h415q7 0 7 -7v-26q0 -7 -8 -7h-368q-9 0 -9 -9v-291q0 -7 9 -7h289q7 0 7 -7v-26q0 -4 -1.5 -5.5t-6.5 -1.5h-288q-9 0 -9 -9v-297q0 -9 9 -9h383q8 0 8 -7v-26q0 -4 -1.5 -5.5t-5.5 -1.5h-430q-9 0 -9 10v722v0zM466 870v0h-35q-3 0 -5 1t-4 5
q-8 14 -26.5 29.5t-53.5 15.5q-24 0 -39 -8.5t-23 -18.5t-13 -17q-3 -4 -5 -5.5t-7 -1.5h-35q-4 0 -4.5 3t0.5 5q6 18 21 37.5t41 33t64 13.5q40 0 67.5 -14t43.5 -33.5t20 -35.5q3 -9 -7 -9z" />
    <glyph glyph-name="uni0207" unicode="&#x207;" horiz-adv-x="577" 
d="M98 240q0 -56 27 -104.5t72.5 -78t101.5 -29.5q60 0 104 24t71 69q3 5 5.5 5.5t5.5 -1.5l23 -15q6 -4 1 -10q-23 -36 -54 -60.5t-70 -37t-86 -12.5q-72 0 -126.5 34t-85.5 95.5t-31 141.5q0 88 31.5 150t86.5 95.5t125 33.5q71 0 122 -31.5t79 -91t28 -143.5q0 -6 -1 -13
t-12 -7h-411q-3 0 -4.5 -4.5t-1.5 -9.5v0zM469 290q11 0 14 3t3 11q0 55 -23 100t-65 71.5t-100 26.5q-66 0 -110.5 -32t-66.5 -81t-22 -99h370zM418 658v0h-35q-3 0 -5 1t-4 5q-8 14 -26.5 29.5t-53.5 15.5q-24 0 -39 -8.5t-23 -18.5t-13 -17q-3 -4 -5 -5.5t-7 -1.5h-35
q-4 0 -4.5 3t0.5 5q6 18 21 37.5t41 33t64 13.5q40 0 67.5 -14t43.5 -33.5t20 -35.5q3 -9 -7 -9z" />
    <glyph glyph-name="uni0208" unicode="&#x208;" horiz-adv-x="274" 
d="M151 742q9 0 9 -10v-720q0 -7 -2 -9.5t-10 -2.5h-23q-7 0 -9 2t-2 8v722q0 10 9 10h28zM-30 959q5 5 9 0l117 -133q5 -5 0 -10l-9 -13q-2 -4 -5 -4t-7 3l-124 117q-5 5 -5.5 7t2.5 6l22 27v0zM110 959q5 5 9 0l117 -133q5 -5 0 -10l-9 -13q-2 -4 -5 -4t-7 3l-124 117
q-5 5 -5.5 7t2.5 6l22 27v0z" />
    <glyph glyph-name="uni0209" unicode="&#x209;" horiz-adv-x="222" 
d="M131 12q0 -7 -2 -9.5t-10 -2.5h-17q-7 0 -9 2t-2 8v510q0 10 9 10h22q9 0 9 -10v-508zM-59 747q5 5 9 0l117 -133q5 -5 0 -10l-9 -13q-2 -4 -5 -4t-7 3l-124 117q-5 5 -5.5 7t2.5 6l22 27v0zM81 747q5 5 9 0l117 -133q5 -5 0 -10l-9 -13q-2 -4 -5 -4t-7 3l-124 117
q-5 5 -5.5 7t2.5 6l22 27v0z" />
    <glyph glyph-name="uni020A" unicode="&#x20a;" horiz-adv-x="274" 
d="M151 742q9 0 9 -10v-720q0 -7 -2 -9.5t-10 -2.5h-23q-7 0 -9 2t-2 8v722q0 10 9 10h28zM261 870v0h-35q-3 0 -5 1t-4 5q-8 14 -26.5 29.5t-53.5 15.5q-24 0 -39 -8.5t-23 -18.5t-13 -17q-3 -4 -5 -5.5t-7 -1.5h-35q-4 0 -4.5 3t0.5 5q6 18 21 37.5t41 33t64 13.5
q40 0 67.5 -14t43.5 -33.5t20 -35.5q3 -9 -7 -9z" />
    <glyph glyph-name="uni020B" unicode="&#x20b;" horiz-adv-x="222" 
d="M131 12q0 -7 -2 -9.5t-10 -2.5h-17q-7 0 -9 2t-2 8v510q0 10 9 10h22q9 0 9 -10v-508zM232 658v0h-35q-3 0 -5 1t-4 5q-8 14 -26.5 29.5t-53.5 15.5q-24 0 -39 -8.5t-23 -18.5t-13 -17q-3 -4 -5 -5.5t-7 -1.5h-35q-4 0 -4.5 3t0.5 5q6 18 21 37.5t41 33t64 13.5
q40 0 67.5 -14t43.5 -33.5t20 -35.5q3 -9 -7 -9z" />
    <glyph glyph-name="uni020C" unicode="&#x20c;" horiz-adv-x="758" 
d="M379 -10q-94 0 -161.5 43t-103.5 127t-36 207q0 125 36.5 211t104 130t161.5 44t161 -44t103 -129t36 -210q0 -123 -36 -207.5t-103.5 -128t-161.5 -43.5v0zM381 32q124 0 187.5 83.5t63.5 253.5q0 172 -64.5 256.5t-187.5 84.5q-124 0 -189 -85t-65 -256
q0 -169 65.5 -253t189.5 -84v0zM211 959q5 5 9 0l117 -133q5 -5 0 -10l-9 -13q-2 -4 -5 -4t-7 3l-124 117q-5 5 -5.5 7t2.5 6l22 27v0zM351 959q5 5 9 0l117 -133q5 -5 0 -10l-9 -13q-2 -4 -5 -4t-7 3l-124 117q-5 5 -5.5 7t2.5 6l22 27v0z" />
    <glyph glyph-name="uni020D" unicode="&#x20d;" horiz-adv-x="598" 
d="M299 -10q-73 0 -128 34.5t-85 96t-30 141.5q0 82 30.5 144.5t85.5 98t128 35.5t127 -35t84.5 -97.5t30.5 -143.5t-30.5 -142.5t-85 -96.5t-127.5 -35v0zM301 28q62 0 106.5 29.5t68.5 82.5t24 124t-24.5 124.5t-69.5 83.5t-106 30t-106.5 -30t-70.5 -83.5t-25 -124.5
q0 -70 25 -123.5t70.5 -83t107.5 -29.5v0zM131 747q5 5 9 0l117 -133q5 -5 0 -10l-9 -13q-2 -4 -5 -4t-7 3l-124 117q-5 5 -5.5 7t2.5 6l22 27v0zM271 747q5 5 9 0l117 -133q5 -5 0 -10l-9 -13q-2 -4 -5 -4t-7 3l-124 117q-5 5 -5.5 7t2.5 6l22 27v0z" />
    <glyph glyph-name="uni020E" unicode="&#x20e;" horiz-adv-x="758" 
d="M379 -10q-94 0 -161.5 43t-103.5 127t-36 207q0 125 36.5 211t104 130t161.5 44t161 -44t103 -129t36 -210q0 -123 -36 -207.5t-103.5 -128t-161.5 -43.5v0zM381 32q124 0 187.5 83.5t63.5 253.5q0 172 -64.5 256.5t-187.5 84.5q-124 0 -189 -85t-65 -256
q0 -169 65.5 -253t189.5 -84v0zM502 870v0h-35q-3 0 -5 1t-4 5q-8 14 -26.5 29.5t-53.5 15.5q-24 0 -39 -8.5t-23 -18.5t-13 -17q-3 -4 -5 -5.5t-7 -1.5h-35q-4 0 -4.5 3t0.5 5q6 18 21 37.5t41 33t64 13.5q40 0 67.5 -14t43.5 -33.5t20 -35.5q3 -9 -7 -9z" />
    <glyph glyph-name="uni020F" unicode="&#x20f;" horiz-adv-x="598" 
d="M299 -10q-73 0 -128 34.5t-85 96t-30 141.5q0 82 30.5 144.5t85.5 98t128 35.5t127 -35t84.5 -97.5t30.5 -143.5t-30.5 -142.5t-85 -96.5t-127.5 -35v0zM301 28q62 0 106.5 29.5t68.5 82.5t24 124t-24.5 124.5t-69.5 83.5t-106 30t-106.5 -30t-70.5 -83.5t-25 -124.5
q0 -70 25 -123.5t70.5 -83t107.5 -29.5v0zM422 658v0h-35q-3 0 -5 1t-4 5q-8 14 -26.5 29.5t-53.5 15.5q-24 0 -39 -8.5t-23 -18.5t-13 -17q-3 -4 -5 -5.5t-7 -1.5h-35q-4 0 -4.5 3t0.5 5q6 18 21 37.5t41 33t64 13.5q40 0 67.5 -14t43.5 -33.5t20 -35.5q3 -9 -7 -9z" />
    <glyph glyph-name="uni0210" unicode="&#x210;" horiz-adv-x="679" 
d="M599 14q2 -5 -0.5 -9.5t-7.5 -4.5h-28q-7 0 -12 9l-142 336q-4 10 -21 10h-216q-7 0 -9.5 -3t-2.5 -8v-333q0 -11 -10 -11h-26q-6 0 -8 2.5t-2 6.5v723q0 10 9 10h258q108 0 168 -46t60 -138q0 -61 -23.5 -100.5t-58.5 -61t-70 -30.5q-6 -1 -4 -7l146 -345v0zM346 395
q107 0 161 36t54 120q0 77 -45 114t-136 37h-209q-11 0 -11 -8v-290q0 -9 7 -9h179v0zM164 959q5 5 9 0l117 -133q5 -5 0 -10l-9 -13q-2 -4 -5 -4t-7 3l-124 117q-5 5 -5.5 7t2.5 6l22 27v0zM304 959q5 5 9 0l117 -133q5 -5 0 -10l-9 -13q-2 -4 -5 -4t-7 3l-124 117
q-5 5 -5.5 7t2.5 6l22 27v0z" />
    <glyph glyph-name="uni0211" unicode="&#x211;" horiz-adv-x="356" 
d="M100 0q-4 0 -6.5 2.5t-2.5 6.5v512q0 9 8 9h21q8 0 8 -8v-68q0 -5 2 -6t6 3q30 33 56 52.5t51 28t52 8.5q35 0 35 -10v-26q0 -5 -5 -5q-4 0 -10.5 0.5t-19.5 0.5q-24 0 -52.5 -11.5t-53.5 -31t-41.5 -43.5t-16.5 -49v-356q0 -9 -9 -9h-22v0zM33 747q5 5 9 0l117 -133
q5 -5 0 -10l-9 -13q-2 -4 -5 -4t-7 3l-124 117q-5 5 -5.5 7t2.5 6l22 27v0zM173 747q5 5 9 0l117 -133q5 -5 0 -10l-9 -13q-2 -4 -5 -4t-7 3l-124 117q-5 5 -5.5 7t2.5 6l22 27v0z" />
    <glyph glyph-name="uni0212" unicode="&#x212;" horiz-adv-x="679" 
d="M599 14q2 -5 -0.5 -9.5t-7.5 -4.5h-28q-7 0 -12 9l-142 336q-4 10 -21 10h-216q-7 0 -9.5 -3t-2.5 -8v-333q0 -11 -10 -11h-26q-6 0 -8 2.5t-2 6.5v723q0 10 9 10h258q108 0 168 -46t60 -138q0 -61 -23.5 -100.5t-58.5 -61t-70 -30.5q-6 -1 -4 -7l146 -345v0zM346 395
q107 0 161 36t54 120q0 77 -45 114t-136 37h-209q-11 0 -11 -8v-290q0 -9 7 -9h179v0zM455 870v0h-35q-3 0 -5 1t-4 5q-8 14 -26.5 29.5t-53.5 15.5q-24 0 -39 -8.5t-23 -18.5t-13 -17q-3 -4 -5 -5.5t-7 -1.5h-35q-4 0 -4.5 3t0.5 5q6 18 21 37.5t41 33t64 13.5
q40 0 67.5 -14t43.5 -33.5t20 -35.5q3 -9 -7 -9z" />
    <glyph glyph-name="uni0213" unicode="&#x213;" horiz-adv-x="356" 
d="M100 0q-4 0 -6.5 2.5t-2.5 6.5v512q0 9 8 9h21q8 0 8 -8v-68q0 -5 2 -6t6 3q30 33 56 52.5t51 28t52 8.5q35 0 35 -10v-26q0 -5 -5 -5q-4 0 -10.5 0.5t-19.5 0.5q-24 0 -52.5 -11.5t-53.5 -31t-41.5 -43.5t-16.5 -49v-356q0 -9 -9 -9h-22v0zM324 658v0h-35q-3 0 -5 1
t-4 5q-8 14 -26.5 29.5t-53.5 15.5q-24 0 -39 -8.5t-23 -18.5t-13 -17q-3 -4 -5 -5.5t-7 -1.5h-35q-4 0 -4.5 3t0.5 5q6 18 21 37.5t41 33t64 13.5q40 0 67.5 -14t43.5 -33.5t20 -35.5q3 -9 -7 -9z" />
    <glyph glyph-name="uni0214" unicode="&#x214;" horiz-adv-x="702" 
d="M598 230q0 -80 -27 -133.5t-82 -80t-138 -26.5q-84 0 -138.5 27.5t-81.5 84t-27 143.5v486q0 11 8 11h28q10 0 10 -10v-506q0 -97 50.5 -145.5t152.5 -48.5q69 0 114.5 22t68 65.5t22.5 109.5v504q0 9 8 9h24q8 0 8 -9v-503v0zM185 959q5 5 9 0l117 -133q5 -5 0 -10
l-9 -13q-2 -4 -5 -4t-7 3l-124 117q-5 5 -5.5 7t2.5 6l22 27v0zM325 959q5 5 9 0l117 -133q5 -5 0 -10l-9 -13q-2 -4 -5 -4t-7 3l-124 117q-5 5 -5.5 7t2.5 6l22 27v0z" />
    <glyph glyph-name="uni0215" unicode="&#x215;" horiz-adv-x="571" 
d="M246 28q51 0 98 28t96 77v388q0 9 9 9h22q9 0 9 -9v-512q0 -9 -8 -9h-21q-8 0 -8 8v64q0 5 -1.5 6t-6.5 -3q-63 -50 -106 -67.5t-82 -17.5q-47 0 -84 18.5t-58.5 52t-21.5 76.5v383q0 10 9 10h22q9 0 9 -9v-362q0 -58 32.5 -94.5t90.5 -36.5v0zM98 747q5 5 9 0l117 -133
q5 -5 0 -10l-9 -13q-2 -4 -5 -4t-7 3l-124 117q-5 5 -5.5 7t2.5 6l22 27v0zM238 747q5 5 9 0l117 -133q5 -5 0 -10l-9 -13q-2 -4 -5 -4t-7 3l-124 117q-5 5 -5.5 7t2.5 6l22 27v0z" />
    <glyph glyph-name="uni0216" unicode="&#x216;" horiz-adv-x="702" 
d="M598 230q0 -80 -27 -133.5t-82 -80t-138 -26.5q-84 0 -138.5 27.5t-81.5 84t-27 143.5v486q0 11 8 11h28q10 0 10 -10v-506q0 -97 50.5 -145.5t152.5 -48.5q69 0 114.5 22t68 65.5t22.5 109.5v504q0 9 8 9h24q8 0 8 -9v-503v0zM476 870v0h-35q-3 0 -5 1t-4 5
q-8 14 -26.5 29.5t-53.5 15.5q-24 0 -39 -8.5t-23 -18.5t-13 -17q-3 -4 -5 -5.5t-7 -1.5h-35q-4 0 -4.5 3t0.5 5q6 18 21 37.5t41 33t64 13.5q40 0 67.5 -14t43.5 -33.5t20 -35.5q3 -9 -7 -9z" />
    <glyph glyph-name="uni0217" unicode="&#x217;" horiz-adv-x="571" 
d="M246 28q51 0 98 28t96 77v388q0 9 9 9h22q9 0 9 -9v-512q0 -9 -8 -9h-21q-8 0 -8 8v64q0 5 -1.5 6t-6.5 -3q-63 -50 -106 -67.5t-82 -17.5q-47 0 -84 18.5t-58.5 52t-21.5 76.5v383q0 10 9 10h22q9 0 9 -9v-362q0 -58 32.5 -94.5t90.5 -36.5v0zM389 658v0h-35q-3 0 -5 1
t-4 5q-8 14 -26.5 29.5t-53.5 15.5q-24 0 -39 -8.5t-23 -18.5t-13 -17q-3 -4 -5 -5.5t-7 -1.5h-35q-4 0 -4.5 3t0.5 5q6 18 21 37.5t41 33t64 13.5q40 0 67.5 -14t43.5 -33.5t20 -35.5q3 -9 -7 -9z" />
    <glyph glyph-name="uni0218" unicode="&#x218;" horiz-adv-x="618" 
d="M500 627q-30 35 -76 59t-109 24q-82 0 -132.5 -39.5t-50.5 -113.5q0 -19 8 -44t34.5 -49.5t79.5 -44.5l138 -50q89 -32 125 -78t36 -109q0 -61 -29.5 -104t-84 -65.5t-130.5 -22.5q-55 0 -100.5 13.5t-81.5 40.5t-66 69q-4 5 -2.5 10t8.5 10l11 8q8 5 12 5t8 -5
q28 -36 56 -60.5t64.5 -36.5t90.5 -12q89 0 143.5 34t54.5 114q0 30 -10.5 54t-38.5 45.5t-83 42.5l-151 58q-54 21 -84 49.5t-42 61.5t-12 65q0 63 29.5 106.5t81.5 66.5t121 23q47 0 85 -11.5t71 -33t61 -51.5q3 -3 4 -6.5t-4 -7.5l-22 -20q-4 -3 -6 -1.5t-7 6.5v0z
M296 -236q-3 0 -4 2.5t0 5.5l25 54q2 5 1 7t-5 2h-8q-8 0 -8 9v66q0 8 7 8h45q6 0 6 -7v-76q0 -1 -0.5 -3t-0.5 -3l-31 -59q-2 -4 -5 -5t-9 -1h-13v0z" />
    <glyph glyph-name="uni0219" unicode="&#x219;" horiz-adv-x="501" 
d="M404 426q-23 35 -63.5 55.5t-95.5 20.5q-64 0 -106 -28t-42 -76q0 -25 19.5 -48.5t77.5 -42.5l135 -44q59 -19 87.5 -51t28.5 -75t-26.5 -76t-72.5 -52t-103 -19q-73 0 -130.5 31t-82.5 80q-1 3 -1 5.5t3 4.5l22 14q2 2 5 1.5t4 -2.5q18 -30 44 -51.5t60 -33t76 -11.5
q45 0 81.5 13t57.5 36.5t21 54.5q0 34 -27.5 58t-90.5 43l-103 32q-75 23 -101 55.5t-26 69.5q0 46 25 79.5t68.5 52t97.5 18.5q62 0 112 -24t79 -68q2 -3 1.5 -4.5t-2.5 -3.5l-23 -15q-2 -1 -4.5 -1t-4.5 2v0zM215 -236q-3 0 -4 2.5t0 5.5l25 54q2 5 1 7t-5 2h-8q-8 0 -8 9
v66q0 8 7 8h45q6 0 6 -7v-76q0 -1 -0.5 -3t-0.5 -3l-31 -59q-2 -4 -5 -5t-9 -1h-13v0z" />
    <glyph glyph-name="uni021A" unicode="&#x21a;" horiz-adv-x="623" 
d="M47 735q0 4 1.5 5.5t5.5 1.5h515q4 0 5.5 -1.5t1.5 -5.5v-26q0 -7 -8 -7h-213q-10 0 -10 -9v-683q0 -10 -9 -10h-27q-10 0 -10 10v683q0 9 -10 9h-234q-8 0 -8 7v26zM296 -236q-3 0 -4 2.5t0 5.5l25 54q2 5 1 7t-5 2h-8q-8 0 -8 9v66q0 8 7 8h45q6 0 6 -7v-76
q0 -1 -0.5 -3t-0.5 -3l-31 -59q-2 -4 -5 -5t-9 -1h-13v0z" />
    <glyph glyph-name="uni021B" unicode="&#x21b;" horiz-adv-x="358" 
d="M179 495q-7 0 -7 -7v-364q0 -55 16 -72t46 -17h79q4 0 6 -1.5t2 -5.5v-17q0 -5 -6 -7q-6 -1 -22.5 -2t-32.5 -1.5t-23 -0.5q-60 0 -82.5 27.5t-22.5 91.5v369q0 7 -7 7h-93q-6 0 -6 6v23q0 6 6 6h94q6 0 6 7l9 163q0 10 8 10h14q9 0 9 -11v-162q0 -7 7 -7h139q6 0 6 -6
v-23q0 -6 -6 -6h-139zM204 -236q-3 0 -4 2.5t0 5.5l25 54q2 5 1 7t-5 2h-8q-8 0 -8 9v66q0 8 7 8h45q6 0 6 -7v-76q0 -1 -0.5 -3t-0.5 -3l-31 -59q-2 -4 -5 -5t-9 -1h-13v0z" />
    <glyph glyph-name="uni0237" unicode="&#x237;" horiz-adv-x="222" 
d="M131 -51q0 -61 -22.5 -90t-90.5 -29q-44 0 -54.5 1.5t-10.5 7.5v21q0 3 1.5 4.5t4.5 1.5l58 1q40 1 57 20t17 67v566q0 10 10 10h22q8 0 8 -10v-571v0z" />
    <glyph glyph-name="uni0259" unicode="&#x259;" horiz-adv-x="577" 
d="M479 290q0 57 -27 105t-72.5 77.5t-101.5 29.5q-60 0 -104 -24t-71 -69q-3 -4 -5.5 -5t-5.5 1l-23 15q-6 4 -1 10q23 37 54 61t70 36.5t86 12.5q72 0 127 -34t85.5 -95t30.5 -142q0 -87 -31.5 -149.5t-86 -96t-125.5 -33.5q-70 0 -121.5 31.5t-79.5 91t-28 143.5
q0 6 1 13t12 7h411q3 0 4.5 4.5t1.5 9.5v0zM108 240q-10 0 -13.5 -3t-3.5 -11q0 -55 23 -100t65 -71.5t100 -26.5q66 0 110.5 32t67 81t21.5 99h-370z" />
    <glyph glyph-name="uni02BC" unicode="&#x2bc;" horiz-adv-x="129" 
d="M35 477q-3 0 -4.5 2.5t-0.5 4.5l31 120q2 6 0.5 8t-3.5 2h-5q-8 0 -8 8v113q0 7 6 7h43q5 0 5 -6v-122q0 -1 -0.5 -2t-0.5 -2l-34 -126q-1 -4 -4 -5.5t-9 -1.5h-16v0z" />
    <glyph glyph-name="circumflex" unicode="&#x2c6;" horiz-adv-x="280" 
d="M149 698q-7 6 -9 6t-10 -6l-62 -48q-5 -4 -7.5 -5t-7.5 -1h-37q-5 0 -5.5 3t3.5 7l99 79q5 4 9 6.5t11 2.5h18q6 0 9.5 -3t6.5 -5l98 -80q12 -10 -1 -10h-41q-4 0 -7.5 1.5t-7.5 4.5z" />
    <glyph glyph-name="caron" unicode="&#x2c7;" horiz-adv-x="280" 
d="M208 736q4 3 7.5 4.5t7.5 1.5h41q13 0 1 -10l-98 -80q-3 -2 -6.5 -5t-9.5 -3h-18q-7 0 -11 2.5t-9 6.5l-99 79q-4 4 -3.5 7t5.5 3h37q5 0 7.5 -1t7.5 -5l62 -48q8 -6 10 -6t9 6l59 48v0z" />
    <glyph glyph-name="breve" unicode="&#x2d8;" horiz-adv-x="279" 
d="M261 742q10 0 7 -9q-4 -16 -20 -35.5t-43.5 -33.5t-67.5 -14q-38 0 -64 13.5t-41 33t-21 37.5q-1 2 -0.5 5t4.5 3h35q5 0 7 -1.5t5 -5.5q5 -6 13 -16.5t23 -19t39 -8.5q35 0 53.5 15.5t26.5 29.5q2 4 4 5t5 1h35v0z" />
    <glyph glyph-name="dotaccent" unicode="&#x2d9;" horiz-adv-x="70" 
d="M60 656q0 -7 -2 -9.5t-10 -2.5h-27q-7 0 -9 2t-2 8v78q0 10 9 10h32q9 0 9 -10v-76z" />
    <glyph glyph-name="ring" unicode="&#x2da;" horiz-adv-x="220" 
d="M210 701q0 -43 -29 -71.5t-71 -28.5t-71 29.5t-29 72.5q0 27 13.5 48.5t36.5 34.5t50 13q28 0 50.5 -13t36 -35t13.5 -50v0zM167 700q0 26 -16.5 42.5t-41.5 16.5q-23 0 -41 -16.5t-18 -42.5q0 -23 18 -41t41 -18q25 0 41.5 18t16.5 41v0z" />
    <glyph glyph-name="ogonek" unicode="&#x2db;" horiz-adv-x="195" 
d="M10 -90q0 33 24 58t87 43l34 -9q-50 -23 -75.5 -44t-25.5 -50q0 -21 13.5 -31.5t44.5 -10.5q23 0 41 4.5t24 7.5q8 4 8 -3v-20q0 -5 -5 -8q-11 -5 -32.5 -10t-45.5 -5q-48 0 -70 22t-22 56v0z" />
    <glyph glyph-name="tilde" unicode="&#x2dc;" horiz-adv-x="282" 
d="M266 692q-10 -6 -25 -12.5t-42 -6.5q-26 0 -44 6t-33.5 12t-36.5 6q-22 0 -34 -7.5t-22 -12.5q-4 -2 -6.5 -1.5t-4.5 5.5l-7 16q-1 4 -0.5 5.5t2.5 2.5q15 11 30.5 18.5t37.5 7.5t41 -6t37.5 -12.5t40.5 -6.5q17 0 27 4.5t23 11.5q5 3 8 2.5t5 -5.5l8 -18q2 -4 -5 -9v0z
" />
    <glyph glyph-name="hungarumlaut" unicode="&#x2dd;" horiz-adv-x="353" 
d="M180 720q3 -4 2.5 -6t-5.5 -7l-124 -117q-4 -3 -7 -3t-5 4l-9 13q-5 5 0 10l117 133q5 5 9 0zM321 720q3 -4 2.5 -6t-5.5 -7l-124 -117q-4 -3 -7 -3t-5 4l-9 13q-5 5 0 10l117 133q5 5 9 0z" />
    <glyph glyph-name="gravecomb" unicode="&#x300;" 
d="M-251 748q2 5 8 3l229 -91q6 -2 3 -10l-5 -15q-1 -4 -3.5 -5t-7.5 0l-227 74q-10 4 -7 12l10 32v0z" />
    <glyph glyph-name="acutecomb" unicode="&#x301;" 
d="M-7 720q3 -8 -7 -12l-227 -74q-4 -1 -6.5 0t-4.5 5l-5 15q-3 8 3 10l229 91q6 2 8 -3z" />
    <glyph glyph-name="uni0302" unicode="&#x302;" 
d="M-131 698q-7 6 -9 6t-10 -6l-62 -48q-5 -4 -7.5 -5t-7.5 -1h-37q-5 0 -5.5 3t3.5 7l99 79q5 4 9 6.5t11 2.5h18q6 0 9.5 -3t6.5 -5l98 -80q12 -10 -1 -10h-41q-4 0 -7.5 1.5t-7.5 4.5z" />
    <glyph glyph-name="tildecomb" unicode="&#x303;" 
d="M-16 692q-10 -6 -25 -12.5t-42 -6.5q-26 0 -44 6t-33.5 12t-36.5 6q-22 0 -34 -7.5t-22 -12.5q-4 -2 -6.5 -1.5t-4.5 5.5l-7 16q-1 4 -0.5 5.5t2.5 2.5q15 11 30.5 18.5t37.5 7.5t41 -6t37.5 -12.5t40.5 -6.5q17 0 27 4.5t23 11.5q5 3 8 2.5t5 -5.5l8 -18q2 -4 -5 -9v0z
" />
    <glyph glyph-name="uni0304" unicode="&#x304;" 
d="M-10 692q0 -8 -10 -8h-235q-4 0 -5.5 2t-1.5 6v23q0 7 5 7h242q5 0 5 -6v-24z" />
    <glyph glyph-name="uni0306" unicode="&#x306;" 
d="M-18 742q10 0 7 -9q-4 -16 -20 -35.5t-43.5 -33.5t-67.5 -14q-38 0 -64 13.5t-41 33t-21 37.5q-1 2 -0.5 5t4.5 3h35q5 0 7 -1.5t5 -5.5q5 -6 13 -16.5t23 -19t39 -8.5q35 0 53.5 15.5t26.5 29.5q2 4 4 5t5 1h35v0z" />
    <glyph glyph-name="uni0307" unicode="&#x307;" 
d="M-10 656q0 -7 -2 -9.5t-10 -2.5h-27q-7 0 -9 2t-2 8v78q0 10 9 10h32q9 0 9 -10v-76z" />
    <glyph glyph-name="uni0308" unicode="&#x308;" 
d="M-121 656q0 -7 -2 -9.5t-10 -2.5h-27q-7 0 -9 2t-2 8v78q0 10 9 10h32q9 0 9 -10v-76zM-10 656q0 -7 -2 -9.5t-10 -2.5h-27q-7 0 -9 2t-2 8v78q0 10 9 10h32q9 0 9 -10v-76z" />
    <glyph glyph-name="hookabovecomb" unicode="&#x309;" 
d="M-366 733q-4 -3 -2 -7l10 -23q2 -4 5 -2q13 8 25 14t25 6q19 0 30.5 -7t11.5 -26q0 -13 -12.5 -29.5t-30.5 -34.5q-1 -1 -1.5 -3t0.5 -4l14 -17q4 -3 6 -1q23 23 39.5 45.5t16.5 45.5q0 30 -19.5 47.5t-51.5 17.5q-15 0 -33.5 -6.5t-32.5 -15.5v0z" />
    <glyph glyph-name="uni030A" unicode="&#x30a;" 
d="M-10 701q0 -43 -29 -71.5t-71 -28.5t-71 29.5t-29 72.5q0 27 13.5 48.5t36.5 34.5t50 13q28 0 50.5 -13t36 -35t13.5 -50v0zM-53 700q0 26 -16.5 42.5t-41.5 16.5q-23 0 -41 -16.5t-18 -42.5q0 -23 18 -41t41 -18q25 0 41.5 18t16.5 41v0z" />
    <glyph glyph-name="uni030B" unicode="&#x30b;" 
d="M-173 720q3 -4 2.5 -6t-5.5 -7l-124 -117q-4 -3 -7 -3t-5 4l-9 13q-5 5 0 10l117 133q5 5 9 0zM-32 720q3 -4 2.5 -6t-5.5 -7l-124 -117q-4 -3 -7 -3t-5 4l-9 13q-5 5 0 10l117 133q5 5 9 0z" />
    <glyph glyph-name="uni030C" unicode="&#x30c;" 
d="M-72 736q4 3 7.5 4.5t7.5 1.5h41q13 0 1 -10l-98 -80q-3 -2 -6.5 -5t-9.5 -3h-18q-7 0 -11 2.5t-9 6.5l-99 79q-4 4 -3.5 7t5.5 3h37q5 0 7.5 -1t7.5 -5l62 -48q8 -6 10 -6t9 6l59 48v0z" />
    <glyph glyph-name="uni030F" unicode="&#x30f;" 
d="M-298 747q5 5 9 0l117 -133q5 -5 0 -10l-9 -13q-2 -4 -5 -4t-7 3l-124 117q-5 5 -5.5 7t2.5 6l22 27v0zM-158 747q5 5 9 0l117 -133q5 -5 0 -10l-9 -13q-2 -4 -5 -4t-7 3l-124 117q-5 5 -5.5 7t2.5 6l22 27v0z" />
    <glyph glyph-name="uni0311" unicode="&#x311;" 
d="M-18 658v0h-35q-3 0 -5 1t-4 5q-8 14 -26.5 29.5t-53.5 15.5q-24 0 -39 -8.5t-23 -18.5t-13 -17q-3 -4 -5 -5.5t-7 -1.5h-35q-4 0 -4.5 3t0.5 5q6 18 21 37.5t41 33t64 13.5q40 0 67.5 -14t43.5 -33.5t20 -35.5q3 -9 -7 -9z" />
    <glyph glyph-name="uni031B" unicode="&#x31b;" 
d="M43 591q6 0 7.5 -2.5t-0.5 -8.5q-5 -18 -19.5 -39t-40 -36t-65.5 -15l5 41q35 0 50 19t21 37q2 4 4.5 4h5.5h32v0z" />
    <glyph glyph-name="dotbelowcomb" unicode="&#x323;" 
d="M-10 -153q0 -7 -2 -9.5t-10 -2.5h-29q-7 0 -9 2t-2 8v83q0 10 9 10h34q9 0 9 -10v-81z" />
    <glyph glyph-name="uni0326" unicode="&#x326;" 
d="M-69 -236q-3 0 -4 2.5t0 5.5l25 54q2 5 1 7t-5 2h-8q-8 0 -8 9v66q0 8 7 8h45q6 0 6 -7v-76q0 -1 -0.5 -3t-0.5 -3l-31 -59q-2 -4 -5 -5t-9 -1h-13v0z" />
    <glyph glyph-name="uni0327" unicode="&#x327;" 
d="M-10 -129q0 -25 -13.5 -41.5t-36 -25t-50.5 -8.5q-22 0 -39.5 5.5t-33.5 15.5q-4 2 -3 6l9 20q2 4 7 1q10 -8 22 -13t34 -5q32 0 46 11t14 32q0 24 -19 35.5t-58 12.5q-4 0 -4.5 1.5t0.5 2.5l36 84h34l-24 -60q-1 -3 3 -3q30 -3 46.5 -14t23 -26t6.5 -31v0z" />
    <glyph glyph-name="uni0328" unicode="&#x328;" 
d="M-185 -90q0 33 24 58t87 43l34 -9q-50 -23 -75.5 -44t-25.5 -50q0 -21 13.5 -31.5t44.5 -10.5q23 0 41 4.5t24 7.5q8 4 8 -3v-20q0 -5 -5 -8q-11 -5 -32.5 -10t-45.5 -5q-48 0 -70 22t-22 56v0z" />
    <glyph glyph-name="Delta" unicode="&#x394;" horiz-adv-x="637" 
d="M40 11v15q0 11 1.5 20t5.5 22l244 665q3 10 12 10l32 -1q9 0 13 -11l242 -660q5 -13 6 -21t1 -17v-21q0 -6 -2 -9t-8 -3h-537q-4 0 -7 2.5t-3 8.5zM99 42h444q12 0 7 14l-224 614q-4 11 -7 11t-7 -11l-224 -614q-6 -14 11 -14z" />
    <glyph glyph-name="Omega" unicode="&#x3a9;" horiz-adv-x="767" 
d="M383 709q-68 0 -117.5 -26.5t-82 -70.5t-48 -98.5t-15.5 -110.5q0 -73 22.5 -130t56.5 -99.5t70 -72t62 -48.5q5 -3 8 -7.5t3 -15.5v-20q0 -10 -9 -10h-217q-3 0 -5.5 2t-2.5 6v27q0 7 8 7h149q7 0 9 3t-4 8t-28 21.5t-51 45t-56.5 69.5t-45.5 95.5t-18 123.5
q0 68 20.5 129.5t60 110t97.5 76.5t134 28t134 -28t97.5 -76.5t60 -110t20.5 -128.5q0 -68 -18.5 -123t-46 -96t-56.5 -70t-50.5 -45.5t-27.5 -21.5t-4 -8t9 -3h149q8 0 8 -7v-27q0 -8 -8 -8h-217q-9 0 -9 10v20q0 11 3.5 15.5t7.5 7.5q27 20 62.5 49.5t69.5 72t56.5 99
t22.5 129.5q0 56 -15.5 110.5t-48 98.5t-82 70.5t-117.5 26.5z" />
    <glyph glyph-name="mu" unicode="&#x3bc;" horiz-adv-x="571" 
d="M247 28q49 0 96.5 28t96.5 77v388q0 9 9 9h22q9 0 9 -9v-512q0 -9 -8 -9h-21q-8 0 -8 8v65q0 5 -1.5 6t-6.5 -3q-60 -47 -100.5 -66.5t-85.5 -19.5q-37 0 -68.5 10.5t-57.5 36.5v-190q0 -7 -2 -9.5t-10 -2.5h-17q-11 0 -11 10v675q0 10 9 10h22q9 0 9 -9v-384
q0 -29 17 -54t45 -40t62 -15z" />
    <glyph glyph-name="pi" unicode="&#x3c0;" horiz-adv-x="658" 
d="M503 495q-10 0 -10 -10v-474q0 -11 -10 -11h-22q-8 0 -8 13l-1 473q0 9 -10 9h-254q-10 0 -10 -9q0 -74 -4.5 -144.5t-12.5 -133.5t-18 -114t-22 -86q-3 -8 -10 -8h-15q-12 0 -9 11q11 41 20.5 93.5t17.5 113.5t12.5 128t4.5 139q0 10 -9 10h-93q-10 0 -10 9v17q0 9 11 9
h579q8 0 8 -10v-15q0 -5 -2.5 -7.5t-5.5 -2.5h-117z" />
    <glyph glyph-name="uni1E0C" unicode="&#x1e0c;" horiz-adv-x="703" 
d="M124 742h17.5t37.5 -0.5t38.5 -0.5h21.5q140 -1 225 -41t123.5 -119.5t38.5 -201.5q0 -132 -43 -216t-132 -123.5t-226 -39.5h-102q-9 0 -9 10v722q0 5 2.5 7.5t7.5 2.5v0zM170 701q-10 0 -10 -14v-638q0 -9 11 -9h50q129 0 207.5 32.5t114 105.5t35.5 193
q0 131 -38.5 202.5t-117 99.5t-199.5 28h-53v0zM358 -153q0 -7 -2 -9.5t-10 -2.5h-29q-7 0 -9 2t-2 8v83q0 10 9 10h34q9 0 9 -10v-81z" />
    <glyph glyph-name="uni1E0D" unicode="&#x1e0d;" horiz-adv-x="592" 
d="M473 0q-5 0 -7.5 3t-2.5 8v51q0 8 -3 9t-9 -5q-8 -8 -28 -26.5t-53.5 -34t-81.5 -15.5q-64 0 -116.5 29.5t-83.5 88.5t-31 147q0 85 30 149t85 100t128 36q55 0 89.5 -18t57.5 -36q9 -7 11.5 -5t2.5 12v239q0 10 9 10h23q8 0 8 -9v-721q0 -7 -2.5 -9.5t-9.5 -2.5h-16v0z
M461 426q-37 36 -75.5 56t-84.5 20q-58 0 -104 -29t-72 -83.5t-26 -130.5q0 -79 27 -130.5t71.5 -76t95.5 -24.5q48 0 86 23t60 56t22 63v256v0zM328 -153q0 -7 -2 -9.5t-10 -2.5h-29q-7 0 -9 2t-2 8v83q0 10 9 10h34q9 0 9 -10v-81z" />
    <glyph glyph-name="uni1E24" unicode="&#x1e24;" horiz-adv-x="725" 
d="M166 366q-6 0 -6 -6v-351q0 -9 -10 -9h-27q-5 0 -7 2.5t-2 7.5v722q0 10 9 10h28q9 0 9 -10v-317q0 -9 9 -9h388q8 0 8 8v319q0 9 8 9h29q9 0 9 -10v-722q0 -5 -2 -7.5t-7 -2.5h-27q-10 0 -10 9v350q0 7 -7 7h-392zM389 -153q0 -7 -2 -9.5t-10 -2.5h-29q-7 0 -9 2t-2 8
v83q0 10 9 10h34q9 0 9 -10v-81z" />
    <glyph glyph-name="uni1E25" unicode="&#x1e25;" horiz-adv-x="576" 
d="M100 0q-9 0 -9 9v724q0 9 8 9h21q8 0 8 -8v-274q0 -5 2 -6t6 3q38 27 68 45.5t60 28t66 9.5q80 0 121 -41t41 -106v-383q0 -10 -9 -10h-22q-4 0 -6.5 2.5t-2.5 6.5v368q0 59 -29 92t-94 33q-35 0 -65 -10.5t-61.5 -30.5t-71.5 -51v-401q0 -9 -9 -9h-22v0zM329 -153
q0 -7 -2 -9.5t-10 -2.5h-29q-7 0 -9 2t-2 8v83q0 10 9 10h34q9 0 9 -10v-81z" />
    <glyph glyph-name="uni1E44" unicode="&#x1e44;" horiz-adv-x="755" 
d="M632 742q9 0 9 -10v-722q0 -5 -2 -7.5t-7 -2.5h-15q-6 0 -10.5 0.5t-8.5 5.5l-428 631q-5 8 -8.5 7t-3.5 -7v-628q0 -9 -10 -9h-25q-9 0 -9 10v722q0 10 9 10h18q6 0 9 -1t6 -6l427 -630q5 -7 9.5 -4.5t4.5 6.5v626q0 9 8 9h27zM419 868q0 -7 -2 -9.5t-10 -2.5h-27
q-7 0 -9 2t-2 8v78q0 10 9 10h32q9 0 9 -10v-76z" />
    <glyph glyph-name="uni1E45" unicode="&#x1e45;" horiz-adv-x="576" 
d="M100 0q-9 0 -9 9v512q0 9 8 9h21q8 0 8 -8v-62q0 -5 2 -6t6 3q38 27 68 45.5t60 28t66 9.5q80 0 121 -41t41 -106v-383q0 -10 -9 -10h-22q-4 0 -6.5 2.5t-2.5 6.5v368q0 59 -29 92t-94 33q-35 0 -65 -10.5t-61.5 -30.5t-71.5 -51v-401q0 -9 -9 -9h-22v0zM328 656
q0 -7 -2 -9.5t-10 -2.5h-27q-7 0 -9 2t-2 8v78q0 10 9 10h32q9 0 9 -10v-76z" />
    <glyph glyph-name="uni1E5A" unicode="&#x1e5a;" horiz-adv-x="679" 
d="M599 14q2 -5 -0.5 -9.5t-7.5 -4.5h-28q-7 0 -12 9l-142 336q-4 10 -21 10h-216q-7 0 -9.5 -3t-2.5 -8v-333q0 -11 -10 -11h-26q-6 0 -8 2.5t-2 6.5v723q0 10 9 10h258q108 0 168 -46t60 -138q0 -61 -23.5 -100.5t-58.5 -61t-70 -30.5q-6 -1 -4 -7l146 -345v0zM346 395
q107 0 161 36t54 120q0 77 -45 114t-136 37h-209q-11 0 -11 -8v-290q0 -9 7 -9h179v0zM367 -153q0 -7 -2 -9.5t-10 -2.5h-29q-7 0 -9 2t-2 8v83q0 10 9 10h34q9 0 9 -10v-81z" />
    <glyph glyph-name="uni1E5B" unicode="&#x1e5b;" horiz-adv-x="356" 
d="M100 0q-4 0 -6.5 2.5t-2.5 6.5v512q0 9 8 9h21q8 0 8 -8v-68q0 -5 2 -6t6 3q30 33 56 52.5t51 28t52 8.5q35 0 35 -10v-26q0 -5 -5 -5q-4 0 -10.5 0.5t-19.5 0.5q-24 0 -52.5 -11.5t-53.5 -31t-41.5 -43.5t-16.5 -49v-356q0 -9 -9 -9h-22v0zM136 -153q0 -7 -2 -9.5
t-10 -2.5h-29q-7 0 -9 2t-2 8v83q0 10 9 10h34q9 0 9 -10v-81z" />
    <glyph glyph-name="uni1E62" unicode="&#x1e62;" horiz-adv-x="618" 
d="M500 627q-30 35 -76 59t-109 24q-82 0 -132.5 -39.5t-50.5 -113.5q0 -19 8 -44t34.5 -49.5t79.5 -44.5l138 -50q89 -32 125 -78t36 -109q0 -61 -29.5 -104t-84 -65.5t-130.5 -22.5q-55 0 -100.5 13.5t-81.5 40.5t-66 69q-4 5 -2.5 10t8.5 10l11 8q8 5 12 5t8 -5
q28 -36 56 -60.5t64.5 -36.5t90.5 -12q89 0 143.5 34t54.5 114q0 30 -10.5 54t-38.5 45.5t-83 42.5l-151 58q-54 21 -84 49.5t-42 61.5t-12 65q0 63 29.5 106.5t81.5 66.5t121 23q47 0 85 -11.5t71 -33t61 -51.5q3 -3 4 -6.5t-4 -7.5l-22 -20q-4 -3 -6 -1.5t-7 6.5v0z
M349 -153q0 -7 -2 -9.5t-10 -2.5h-29q-7 0 -9 2t-2 8v83q0 10 9 10h34q9 0 9 -10v-81z" />
    <glyph glyph-name="uni1E63" unicode="&#x1e63;" horiz-adv-x="501" 
d="M404 426q-23 35 -63.5 55.5t-95.5 20.5q-64 0 -106 -28t-42 -76q0 -25 19.5 -48.5t77.5 -42.5l135 -44q59 -19 87.5 -51t28.5 -75t-26.5 -76t-72.5 -52t-103 -19q-73 0 -130.5 31t-82.5 80q-1 3 -1 5.5t3 4.5l22 14q2 2 5 1.5t4 -2.5q18 -30 44 -51.5t60 -33t76 -11.5
q45 0 81.5 13t57.5 36.5t21 54.5q0 34 -27.5 58t-90.5 43l-103 32q-75 23 -101 55.5t-26 69.5q0 46 25 79.5t68.5 52t97.5 18.5q62 0 112 -24t79 -68q2 -3 1.5 -4.5t-2.5 -3.5l-23 -15q-2 -1 -4.5 -1t-4.5 2v0zM268 -153q0 -7 -2 -9.5t-10 -2.5h-29q-7 0 -9 2t-2 8v83
q0 10 9 10h34q9 0 9 -10v-81z" />
    <glyph glyph-name="uni1E6C" unicode="&#x1e6c;" horiz-adv-x="623" 
d="M47 735q0 4 1.5 5.5t5.5 1.5h515q4 0 5.5 -1.5t1.5 -5.5v-26q0 -7 -8 -7h-213q-10 0 -10 -9v-683q0 -10 -9 -10h-27q-10 0 -10 10v683q0 9 -10 9h-234q-8 0 -8 7v26zM349 -153q0 -7 -2 -9.5t-10 -2.5h-29q-7 0 -9 2t-2 8v83q0 10 9 10h34q9 0 9 -10v-81z" />
    <glyph glyph-name="uni1E6D" unicode="&#x1e6d;" horiz-adv-x="358" 
d="M179 495q-7 0 -7 -7v-364q0 -55 16 -72t46 -17h79q4 0 6 -1.5t2 -5.5v-17q0 -5 -6 -7q-6 -1 -22.5 -2t-32.5 -1.5t-23 -0.5q-60 0 -82.5 27.5t-22.5 91.5v369q0 7 -7 7h-93q-6 0 -6 6v23q0 6 6 6h94q6 0 6 7l9 163q0 10 8 10h14q9 0 9 -11v-162q0 -7 7 -7h139q6 0 6 -6
v-23q0 -6 -6 -6h-139zM222 -153q0 -7 -2 -9.5t-10 -2.5h-29q-7 0 -9 2t-2 8v83q0 10 9 10h34q9 0 9 -10v-81z" />
    <glyph glyph-name="Wgrave" unicode="&#x1e80;" horiz-adv-x="1021" 
d="M960 742q5 0 6.5 -2.5t0.5 -6.5l-207 -722q-3 -11 -16 -11h-32q-15 0 -18 10l-181 648q-1 3 -2 3t-2 -3l-185 -647q-3 -11 -16 -11h-32q-15 0 -18 10l-202 722q-1 5 1 7.5t7 2.5h25q6 0 8.5 -1.5t3.5 -6.5l185 -663q3 -10 6 -9.5t6 10.5l189 663q1 2 3.5 4.5t9.5 2.5h25
q6 0 8.5 -1.5t3.5 -6.5l185 -663q3 -10 6 -9.5t6 10.5l189 663q1 4 4.5 5.5t7.5 1.5h25v0zM405 960q2 5 8 3l229 -91q6 -2 3 -10l-5 -15q-1 -4 -3.5 -5t-7.5 0l-227 74q-10 4 -7 12l10 32v0z" />
    <glyph glyph-name="wgrave" unicode="&#x1e81;" horiz-adv-x="783" 
d="M738 530q5 0 7 -2.5t1 -6.5l-147 -510q-1 -6 -5.5 -8.5t-11.5 -2.5h-27q-15 0 -18 10l-140 436q-3 8 -5.5 8t-4.5 -8l-130 -435q-1 -6 -5 -8.5t-11 -2.5h-30q-15 0 -18 10l-156 510q-1 5 1 7.5t7 2.5h23q5 0 8 -1.5t4 -6.5l139 -455q3 -10 7 -9.5t7 10.5l138 456q2 4 4 5
t6 1h23q5 0 8 -1.5t4 -6.5l146 -455q3 -10 6.5 -9.5t6.5 10.5l133 455q2 4 5.5 5.5t7.5 1.5h17v0zM288 748q2 5 8 3l229 -91q6 -2 3 -10l-5 -15q-1 -4 -3.5 -5t-7.5 0l-227 74q-10 4 -7 12l10 32v0z" />
    <glyph glyph-name="Wacute" unicode="&#x1e82;" horiz-adv-x="1021" 
d="M960 742q5 0 6.5 -2.5t0.5 -6.5l-207 -722q-3 -11 -16 -11h-32q-15 0 -18 10l-181 648q-1 3 -2 3t-2 -3l-185 -647q-3 -11 -16 -11h-32q-15 0 -18 10l-202 722q-1 5 1 7.5t7 2.5h25q6 0 8.5 -1.5t3.5 -6.5l185 -663q3 -10 6 -9.5t6 10.5l189 663q1 2 3.5 4.5t9.5 2.5h25
q6 0 8.5 -1.5t3.5 -6.5l185 -663q3 -10 6 -9.5t6 10.5l189 663q1 4 4.5 5.5t7.5 1.5h25v0zM642 932q3 -8 -7 -12l-227 -74q-4 -1 -6.5 0t-4.5 5l-5 15q-3 8 3 10l229 91q6 2 8 -3z" />
    <glyph glyph-name="wacute" unicode="&#x1e83;" horiz-adv-x="783" 
d="M738 530q5 0 7 -2.5t1 -6.5l-147 -510q-1 -6 -5.5 -8.5t-11.5 -2.5h-27q-15 0 -18 10l-140 436q-3 8 -5.5 8t-4.5 -8l-130 -435q-1 -6 -5 -8.5t-11 -2.5h-30q-15 0 -18 10l-156 510q-1 5 1 7.5t7 2.5h23q5 0 8 -1.5t4 -6.5l139 -455q3 -10 7 -9.5t7 10.5l138 456q2 4 4 5
t6 1h23q5 0 8 -1.5t4 -6.5l146 -455q3 -10 6.5 -9.5t6.5 10.5l133 455q2 4 5.5 5.5t7.5 1.5h17v0zM525 720q3 -8 -7 -12l-227 -74q-4 -1 -6.5 0t-4.5 5l-5 15q-3 8 3 10l229 91q6 2 8 -3z" />
    <glyph glyph-name="Wdieresis" unicode="&#x1e84;" horiz-adv-x="1021" 
d="M960 742q5 0 6.5 -2.5t0.5 -6.5l-207 -722q-3 -11 -16 -11h-32q-15 0 -18 10l-181 648q-1 3 -2 3t-2 -3l-185 -647q-3 -11 -16 -11h-32q-15 0 -18 10l-202 722q-1 5 1 7.5t7 2.5h25q6 0 8.5 -1.5t3.5 -6.5l185 -663q3 -10 6 -9.5t6 10.5l189 663q1 2 3.5 4.5t9.5 2.5h25
q6 0 8.5 -1.5t3.5 -6.5l185 -663q3 -10 6 -9.5t6 10.5l189 663q1 4 4.5 5.5t7.5 1.5h25v0zM482 868q0 -7 -2 -9.5t-10 -2.5h-27q-7 0 -9 2t-2 8v78q0 10 9 10h32q9 0 9 -10v-76zM593 868q0 -7 -2 -9.5t-10 -2.5h-27q-7 0 -9 2t-2 8v78q0 10 9 10h32q9 0 9 -10v-76z" />
    <glyph glyph-name="wdieresis" unicode="&#x1e85;" horiz-adv-x="783" 
d="M738 530q5 0 7 -2.5t1 -6.5l-147 -510q-1 -6 -5.5 -8.5t-11.5 -2.5h-27q-15 0 -18 10l-140 436q-3 8 -5.5 8t-4.5 -8l-130 -435q-1 -6 -5 -8.5t-11 -2.5h-30q-15 0 -18 10l-156 510q-1 5 1 7.5t7 2.5h23q5 0 8 -1.5t4 -6.5l139 -455q3 -10 7 -9.5t7 10.5l138 456q2 4 4 5
t6 1h23q5 0 8 -1.5t4 -6.5l146 -455q3 -10 6.5 -9.5t6.5 10.5l133 455q2 4 5.5 5.5t7.5 1.5h17v0zM365 656q0 -7 -2 -9.5t-10 -2.5h-27q-7 0 -9 2t-2 8v78q0 10 9 10h32q9 0 9 -10v-76zM476 656q0 -7 -2 -9.5t-10 -2.5h-27q-7 0 -9 2t-2 8v78q0 10 9 10h32q9 0 9 -10v-76z
" />
    <glyph glyph-name="uni1E92" unicode="&#x1e92;" horiz-adv-x="600" 
d="M63 0q-4 0 -6 1.5t-2 5.5v15q0 5 1.5 8.5t5.5 8.5l420 656q4 7 -4 7h-406q-4 0 -5.5 1.5t-1.5 5.5v27q0 6 6 6h467q6 0 6 -6v-17q0 -4 -1.5 -6t-3.5 -6l-424 -659q-2 -4 -1.5 -6t3.5 -2h421q6 0 6 -5v-28q0 -3 -1.5 -5t-5.5 -2h-474v0zM338 -153q0 -7 -2 -9.5t-10 -2.5
h-29q-7 0 -9 2t-2 8v83q0 10 9 10h34q9 0 9 -10v-81z" />
    <glyph glyph-name="uni1E93" unicode="&#x1e93;" horiz-adv-x="458" 
d="M42 0q-4 0 -5 1.5t-1 5.5v23q0 5 2 9.5t6 10.5l321 437q6 8 -3 8h-297q-4 0 -5.5 1.5t-1.5 5.5v21q0 7 6 7h344q5 0 5 -6v-25q0 -6 -1.5 -11t-5.5 -10l-321 -436q-6 -7 2 -7h327q6 0 6 -6v-21q0 -4 -1.5 -6t-6.5 -2h-370v0zM251 -153q0 -7 -2 -9.5t-10 -2.5h-29
q-7 0 -9 2t-2 8v83q0 10 9 10h34q9 0 9 -10v-81z" />
    <glyph glyph-name="uni1EA0" unicode="&#x1ea0;" horiz-adv-x="700" 
d="M60 0q-4 0 -6 2.5t-1 6.5l265 722q2 6 5.5 8.5t10.5 2.5h33q15 0 18 -10l262 -722q2 -4 -0.5 -7t-7.5 -3h-24q-10 0 -13 8l-81 223q-1 4 -3 5.5t-7 1.5h-322q-7 0 -10 -7l-83 -224q-1 -4 -3.5 -5.5t-7.5 -1.5h-25v0zM494 278q10 0 7 10l-143 390q-4 10 -7.5 10t-7.5 -11
l-145 -391q-3 -8 5 -8h291zM376 -153q0 -7 -2 -9.5t-10 -2.5h-29q-7 0 -9 2t-2 8v83q0 10 9 10h34q9 0 9 -10v-81z" />
    <glyph glyph-name="uni1EA1" unicode="&#x1ea1;" horiz-adv-x="538" 
d="M408 72q-41 -41 -87.5 -61.5t-102.5 -20.5q-79 0 -124.5 39t-45.5 106q0 51 27.5 87t82.5 57.5t137 28.5l105 9q8 1 12.5 4.5t4.5 10.5v31q0 64 -40.5 101.5t-108.5 37.5q-52 0 -93 -23.5t-75 -68.5q-3 -4 -5 -5t-5 1l-24 15q-2 2 -2.5 4t2.5 6q32 47 82.5 78t121.5 31
q57 0 99 -20.5t65 -59.5t23 -93v-357q0 -6 -2.5 -8t-7.5 -2h-18q-4 0 -6.5 2t-2.5 7l-2 61q-2 12 -10 2v0zM417 266q0 16 -14 14l-89 -7q-59 -4 -101.5 -15t-69.5 -28t-40 -40t-13 -52q0 -52 36.5 -81t97.5 -29q37 0 72.5 13.5t63.5 35.5q28 23 42.5 47.5t14.5 46.5v95v0z
M295 -153q0 -7 -2 -9.5t-10 -2.5h-29q-7 0 -9 2t-2 8v83q0 10 9 10h34q9 0 9 -10v-81z" />
    <glyph glyph-name="uni1EA2" unicode="&#x1ea2;" horiz-adv-x="700" 
d="M60 0q-4 0 -6 2.5t-1 6.5l265 722q2 6 5.5 8.5t10.5 2.5h33q15 0 18 -10l262 -722q2 -4 -0.5 -7t-7.5 -3h-24q-10 0 -13 8l-81 223q-1 4 -3 5.5t-7 1.5h-322q-7 0 -10 -7l-83 -224q-1 -4 -3.5 -5.5t-7.5 -1.5h-25v0zM494 278q10 0 7 10l-143 390q-4 10 -7.5 10t-7.5 -11
l-145 -391q-3 -8 5 -8h291zM271 945q-4 -3 -2 -7l10 -23q2 -4 5 -2q13 8 25 14t25 6q19 0 30.5 -7t11.5 -26q0 -13 -12.5 -29.5t-30.5 -34.5q-1 -1 -1.5 -3t0.5 -4l14 -17q4 -3 6 -1q23 23 39.5 45.5t16.5 45.5q0 30 -19.5 47.5t-51.5 17.5q-15 0 -33.5 -6.5t-32.5 -15.5v0z
" />
    <glyph glyph-name="uni1EA3" unicode="&#x1ea3;" horiz-adv-x="538" 
d="M408 72q-41 -41 -87.5 -61.5t-102.5 -20.5q-79 0 -124.5 39t-45.5 106q0 51 27.5 87t82.5 57.5t137 28.5l105 9q8 1 12.5 4.5t4.5 10.5v31q0 64 -40.5 101.5t-108.5 37.5q-52 0 -93 -23.5t-75 -68.5q-3 -4 -5 -5t-5 1l-24 15q-2 2 -2.5 4t2.5 6q32 47 82.5 78t121.5 31
q57 0 99 -20.5t65 -59.5t23 -93v-357q0 -6 -2.5 -8t-7.5 -2h-18q-4 0 -6.5 2t-2.5 7l-2 61q-2 12 -10 2v0zM417 266q0 16 -14 14l-89 -7q-59 -4 -101.5 -15t-69.5 -28t-40 -40t-13 -52q0 -52 36.5 -81t97.5 -29q37 0 72.5 13.5t63.5 35.5q28 23 42.5 47.5t14.5 46.5v95v0z
M187 733q-4 -3 -2 -7l10 -23q2 -4 5 -2q13 8 25 14t25 6q19 0 30.5 -7t11.5 -26q0 -13 -12.5 -29.5t-30.5 -34.5q-1 -1 -1.5 -3t0.5 -4l14 -17q4 -3 6 -1q23 23 39.5 45.5t16.5 45.5q0 30 -19.5 47.5t-51.5 17.5q-15 0 -33.5 -6.5t-32.5 -15.5v0z" />
    <glyph glyph-name="uni1EA4" unicode="&#x1ea4;" horiz-adv-x="700" 
d="M60 0q-4 0 -6 2.5t-1 6.5l265 722q2 6 5.5 8.5t10.5 2.5h33q15 0 18 -10l262 -722q2 -4 -0.5 -7t-7.5 -3h-24q-10 0 -13 8l-81 223q-1 4 -3 5.5t-7 1.5h-322q-7 0 -10 -7l-83 -224q-1 -4 -3.5 -5.5t-7.5 -1.5h-25v0zM494 278q10 0 7 10l-143 390q-4 10 -7.5 10t-7.5 -11
l-145 -391q-3 -8 5 -8h291zM359 910q-7 6 -9 6t-10 -6l-62 -48q-5 -4 -7.5 -5t-7.5 -1h-37q-5 0 -5.5 3t3.5 7l99 79q5 4 9 6.5t11 2.5h18q6 0 9.5 -3t6.5 -5l98 -80q12 -10 -1 -10h-41q-4 0 -7.5 1.5t-7.5 4.5zM479 1066q3 -8 -7 -12l-227 -74q-4 -1 -6.5 0t-4.5 5l-5 15
q-3 8 3 10l229 91q6 2 8 -3z" />
    <glyph glyph-name="uni1EA5" unicode="&#x1ea5;" horiz-adv-x="538" 
d="M408 72q-41 -41 -87.5 -61.5t-102.5 -20.5q-79 0 -124.5 39t-45.5 106q0 51 27.5 87t82.5 57.5t137 28.5l105 9q8 1 12.5 4.5t4.5 10.5v31q0 64 -40.5 101.5t-108.5 37.5q-52 0 -93 -23.5t-75 -68.5q-3 -4 -5 -5t-5 1l-24 15q-2 2 -2.5 4t2.5 6q32 47 82.5 78t121.5 31
q57 0 99 -20.5t65 -59.5t23 -93v-357q0 -6 -2.5 -8t-7.5 -2h-18q-4 0 -6.5 2t-2.5 7l-2 61q-2 12 -10 2v0zM417 266q0 16 -14 14l-89 -7q-59 -4 -101.5 -15t-69.5 -28t-40 -40t-13 -52q0 -52 36.5 -81t97.5 -29q37 0 72.5 13.5t63.5 35.5q28 23 42.5 47.5t14.5 46.5v95v0z
M275 698q-7 6 -9 6t-10 -6l-62 -48q-5 -4 -7.5 -5t-7.5 -1h-37q-5 0 -5.5 3t3.5 7l99 79q5 4 9 6.5t11 2.5h18q6 0 9.5 -3t6.5 -5l98 -80q12 -10 -1 -10h-41q-4 0 -7.5 1.5t-7.5 4.5zM394 854q3 -8 -7 -12l-227 -74q-4 -1 -6.5 0t-4.5 5l-5 15q-3 8 3 10l229 91q6 2 8 -3z
" />
    <glyph glyph-name="uni1EA6" unicode="&#x1ea6;" horiz-adv-x="700" 
d="M60 0q-4 0 -6 2.5t-1 6.5l265 722q2 6 5.5 8.5t10.5 2.5h33q15 0 18 -10l262 -722q2 -4 -0.5 -7t-7.5 -3h-24q-10 0 -13 8l-81 223q-1 4 -3 5.5t-7 1.5h-322q-7 0 -10 -7l-83 -224q-1 -4 -3.5 -5.5t-7.5 -1.5h-25v0zM494 278q10 0 7 10l-143 390q-4 10 -7.5 10t-7.5 -11
l-145 -391q-3 -8 5 -8h291zM359 910q-7 6 -9 6t-10 -6l-62 -48q-5 -4 -7.5 -5t-7.5 -1h-37q-5 0 -5.5 3t3.5 7l99 79q5 4 9 6.5t11 2.5h18q6 0 9.5 -3t6.5 -5l98 -80q12 -10 -1 -10h-41q-4 0 -7.5 1.5t-7.5 4.5zM241 1094q2 5 8 3l229 -91q6 -2 3 -10l-5 -15q-1 -4 -3.5 -5
t-7.5 0l-227 74q-10 4 -7 12l10 32v0z" />
    <glyph glyph-name="uni1EA7" unicode="&#x1ea7;" horiz-adv-x="538" 
d="M408 72q-41 -41 -87.5 -61.5t-102.5 -20.5q-79 0 -124.5 39t-45.5 106q0 51 27.5 87t82.5 57.5t137 28.5l105 9q8 1 12.5 4.5t4.5 10.5v31q0 64 -40.5 101.5t-108.5 37.5q-52 0 -93 -23.5t-75 -68.5q-3 -4 -5 -5t-5 1l-24 15q-2 2 -2.5 4t2.5 6q32 47 82.5 78t121.5 31
q57 0 99 -20.5t65 -59.5t23 -93v-357q0 -6 -2.5 -8t-7.5 -2h-18q-4 0 -6.5 2t-2.5 7l-2 61q-2 12 -10 2v0zM417 266q0 16 -14 14l-89 -7q-59 -4 -101.5 -15t-69.5 -28t-40 -40t-13 -52q0 -52 36.5 -81t97.5 -29q37 0 72.5 13.5t63.5 35.5q28 23 42.5 47.5t14.5 46.5v95v0z
M275 698q-7 6 -9 6t-10 -6l-62 -48q-5 -4 -7.5 -5t-7.5 -1h-37q-5 0 -5.5 3t3.5 7l99 79q5 4 9 6.5t11 2.5h18q6 0 9.5 -3t6.5 -5l98 -80q12 -10 -1 -10h-41q-4 0 -7.5 1.5t-7.5 4.5zM157 882q2 5 8 3l229 -91q6 -2 3 -10l-5 -15q-1 -4 -3.5 -5t-7.5 0l-227 74q-10 4 -7 12
l10 32v0z" />
    <glyph glyph-name="uni1EA8" unicode="&#x1ea8;" horiz-adv-x="700" 
d="M60 0q-4 0 -6 2.5t-1 6.5l265 722q2 6 5.5 8.5t10.5 2.5h33q15 0 18 -10l262 -722q2 -4 -0.5 -7t-7.5 -3h-24q-10 0 -13 8l-81 223q-1 4 -3 5.5t-7 1.5h-322q-7 0 -10 -7l-83 -224q-1 -4 -3.5 -5.5t-7.5 -1.5h-25v0zM494 278q10 0 7 10l-143 390q-4 10 -7.5 10t-7.5 -11
l-145 -391q-3 -8 5 -8h291zM359 910q-7 6 -9 6t-10 -6l-62 -48q-5 -4 -7.5 -5t-7.5 -1h-37q-5 0 -5.5 3t3.5 7l99 79q5 4 9 6.5t11 2.5h18q6 0 9.5 -3t6.5 -5l98 -80q12 -10 -1 -10h-41q-4 0 -7.5 1.5t-7.5 4.5zM401 1076q-4 -3 -2 -7l10 -23q2 -4 5 -2q13 8 25 14t25 6
q19 0 30.5 -7t11.5 -26q0 -13 -12.5 -29.5t-30.5 -34.5q-1 -1 -1.5 -3t0.5 -4l14 -17q4 -3 6 -1q23 23 39.5 45.5t16.5 45.5q0 30 -19.5 47.5t-51.5 17.5q-15 0 -33.5 -6.5t-32.5 -15.5v0z" />
    <glyph glyph-name="uni1EA9" unicode="&#x1ea9;" horiz-adv-x="538" 
d="M408 72q-41 -41 -87.5 -61.5t-102.5 -20.5q-79 0 -124.5 39t-45.5 106q0 51 27.5 87t82.5 57.5t137 28.5l105 9q8 1 12.5 4.5t4.5 10.5v31q0 64 -40.5 101.5t-108.5 37.5q-52 0 -93 -23.5t-75 -68.5q-3 -4 -5 -5t-5 1l-24 15q-2 2 -2.5 4t2.5 6q32 47 82.5 78t121.5 31
q57 0 99 -20.5t65 -59.5t23 -93v-357q0 -6 -2.5 -8t-7.5 -2h-18q-4 0 -6.5 2t-2.5 7l-2 61q-2 12 -10 2v0zM417 266q0 16 -14 14l-89 -7q-59 -4 -101.5 -15t-69.5 -28t-40 -40t-13 -52q0 -52 36.5 -81t97.5 -29q37 0 72.5 13.5t63.5 35.5q28 23 42.5 47.5t14.5 46.5v95v0z
M275 698q-7 6 -9 6t-10 -6l-62 -48q-5 -4 -7.5 -5t-7.5 -1h-37q-5 0 -5.5 3t3.5 7l99 79q5 4 9 6.5t11 2.5h18q6 0 9.5 -3t6.5 -5l98 -80q12 -10 -1 -10h-41q-4 0 -7.5 1.5t-7.5 4.5zM317 864q-4 -3 -2 -7l10 -23q2 -4 5 -2q13 8 25 14t25 6q19 0 30.5 -7t11.5 -26
q0 -13 -12.5 -29.5t-30.5 -34.5q-1 -1 -1.5 -3t0.5 -4l14 -17q4 -3 6 -1q23 23 39.5 45.5t16.5 45.5q0 30 -19.5 47.5t-51.5 17.5q-15 0 -33.5 -6.5t-32.5 -15.5v0z" />
    </font>
</defs>
</svg>
