<?xml version="1.0" standalone="no"?>
<!DOCTYPE svg PUBLIC "-//W3C//DTD SVG 1.1//EN" "http://www.w3.org/Graphics/SVG/1.1/DTD/svg11.dtd" >
<svg xmlns="http://www.w3.org/2000/svg" xmlns:xlink="http://www.w3.org/1999/xlink" version="1.1">
<metadata>
Created by FontForge 20170731 at Thu Sep 26 15:28:00 1996
 By Aleksey,,,
(c)1995-2001 Arts &#38; Letters Corporation
</metadata>
<defs>
<font id="SavoyBold" horiz-adv-x="612" >
  <font-face 
    font-family="Savoy"
    font-weight="700"
    font-stretch="normal"
    units-per-em="1000"
    panose-1="0 0 0 0 0 0 0 0 0 0"
    ascent="800"
    descent="-200"
    x-height="474"
    cap-height="701"
    bbox="-194 -225 1013 866"
    underline-thickness="20"
    underline-position="-163"
    unicode-range="U+0020-2122"
  />
<missing-glyph horiz-adv-x="500" 
d="M63 0v800h375v-800h-375zM125 63h250v675h-250v-675z" />
    <glyph glyph-name=".notdef" horiz-adv-x="500" 
d="M63 0v800h375v-800h-375zM125 63h250v675h-250v-675z" />
    <glyph glyph-name=".null" horiz-adv-x="0" 
 />
    <glyph glyph-name="nonmarkingreturn" horiz-adv-x="500" 
 />
    <glyph glyph-name="space" unicode=" " horiz-adv-x="500" 
 />
    <glyph glyph-name="exclam" unicode="!" horiz-adv-x="168" 
d="M154 622l-28 -436l-96 5l-33 437q11 71 82 71q35 0 56 -24.5t19 -52.5zM148 76q0 -28 -19 -45.5t-49 -17.5q-27 0 -48 20t-21 44q0 27 20 45.5t49 18.5t48.5 -18.5t19.5 -46.5z" />
    <glyph glyph-name="quotedbl" unicode="&#x22;" horiz-adv-x="306" 
d="M286 705l-36 -137h-49l-38 137q-3 11 -3 21q0 26 19 40.5t45 14.5t45.5 -15t19.5 -41q0 -10 -3 -20zM146 705l-36 -137h-49l-38 137q-3 11 -3 21q0 26 19 40.5t45 14.5t45.5 -15t19.5 -41q0 -10 -3 -20z" />
    <glyph glyph-name="numbersign" unicode="#" horiz-adv-x="715" 
d="M716 285q0 -19 -56 -46l-101 -4l7 -138q-4 -16 -9.5 -34t-20.5 -28q-20 -13 -59 -13q-53 0 -53 68q0 23 3.5 61t3.5 56q0 13 -1 26l-144 -4l23 -158q-48 -54 -84 -54q-33 0 -74 50l-9 158l-75 -2q-51 11 -53 12q-29 12 -29 44q0 35 73 35q28 0 80 -4l-3 70q-52 -3 -96 -6
q-60 32 -59 54q1 21 55 46l96 3l-6 126q5 16 11 34.5t20 27.5q20 13 58 13q54 0 54 -68q0 -18 -5 -55.5t-5 -50.5q1 -8 2 -25l143 5l-20 145q47 54 83 54q34 0 74 -50l8 -146l80 2q46 -8 54 -11q28 -13 28 -45q0 -35 -76 -35q-31 0 -83 4l4 -71q56 3 100 7q62 -30 61 -53z
M422 322q-2 26 -9 77q-75 -3 -145 -9q3 -26 8 -77z" />
    <glyph glyph-name="dollar" unicode="$" horiz-adv-x="447" 
d="M448 204q0 -65 -40 -130q-19 -31 -63 -56t-96 -32q3 -15 8 -33l-78 8v27q-33 7 -58 20q-65 35 -83.5 62.5t-30.5 34.5q-23 14 -23 32q0 17 19 30t39 13q23 0 28 -15q13 -31 26 -63q13 -24 45 -24q17 0 37 4l-1 195q-12 -2 -20 -2q-42 0 -95 27q-24 12 -42.5 58t-18.5 98
q0 67 31 114q37 56 111 70q9 2 31 4v44l69 -5l-8 -40q30 -5 66 -27q32 -19 53 -19q7 0 14 1q16 3 26 -10.5t10 -35.5q0 -28 -15 -50q-17 -25 -44 -25q-22 0 -102 63l4 -189q35 11 53 11q34 0 72 -19q76 -38 76 -141zM176 347v13v116q-1 86 -1 100q-56 3 -56 -95
q0 -47 14 -84q15 -42 41 -49h1q0 -1 1 -1zM317 220q0 30 -24 49q-20 15 -45 19l4 -183q31 19 49 53q16 31 16 62z" />
    <glyph glyph-name="percent" unicode="%" horiz-adv-x="618" 
d="M625 149q0 -87 -67 -131q-36 -24 -80 -24q-80 0 -122 69q-25 41 -25 90q0 56 42.5 101.5t106.5 45.5q83 0 124 -70q21 -36 21 -81zM551 681l-2 -93h-9l-323 -532q-3 -19 -30 -37q-30 -20 -66 -20q-37 0 -51 14q-7 7 -14 34l363 522l-149 30q7 -22 7 -47q0 -86 -66 -131
q-36 -25 -80 -25q-82 0 -123 70q-25 42 -25 89q0 57 43 102t107 45q31 0 76 -18q57 -23 151 -23q85 0 191 20zM187 523q0 36 -24.5 68t-56.5 32q-8 0 -18 -5q-16 -8 -16 -35q0 -34 23 -65q25 -34 57 -34q35 0 35 39zM536 122q0 36 -25 67.5t-57 31.5q-9 0 -18 -5
q-16 -9 -16 -35q0 -36 23 -66q25 -33 57 -33q36 0 36 40z" />
    <glyph glyph-name="ampersand" unicode="&#x26;" horiz-adv-x="548" 
d="M564 33l-18 -16q-20 -15 -41 -17q-38 -4 -98 16l-52 84q-75 -92 -130 -95q-21 -1 -30 -1q-160 0 -204 139q-8 25 -8 54q0 45 19 91q17 41 39 63l67 65q-42 48 -43 48q-25 34 -25 65q0 45 50.5 87.5t100.5 42.5q31 0 66 -14q84 -33 84 -109q0 -56 -93 -122
q50 -33 131 -121l74 133l75 -110l-75 -113q112 -144 112 -167q0 -2 -1 -3zM224 542q0 20 -16.5 36.5t-36.5 16.5q-18 0 -30.5 -15.5t-12.5 -34.5q0 -39 48 -74q48 31 48 71zM303 188l-144 163q-11 -6 -55 -36q-36 -24 -36 -82q0 -41 17.5 -76t43.5 -38q16 -2 30 -2
q93 0 144 71z" />
    <glyph glyph-name="quotesingle" unicode="'" horiz-adv-x="168" 
d="M146 705l-36 -137h-49l-38 137q-3 11 -3 21q0 26 19 40.5t45 14.5t45.5 -15t19.5 -41q0 -10 -3 -20z" />
    <glyph glyph-name="parenleft" unicode="(" horiz-adv-x="231" 
d="M235 669q0 -19 -21 -57q-51 -92 -58 -108q-3 -7 -48 -129q-27 -73 -27 -154t28 -166q19 -59 52 -120l28 -52v-11q-17 0 -58 36q-145 127 -145 321q0 72 21 171.5t103 199.5q72 89 106 89q19 0 19 -20z" />
    <glyph glyph-name="parenright" unicode=")" horiz-adv-x="232" 
d="M233 328q0 -71 -21 -171t-103 -200q-72 -89 -106 -89q-19 0 -19 20q0 19 21 57q52 94 58 108q5 11 49 129q27 73 27 153q0 81 -28 167q-20 58 -53 119l-28 53v11q17 0 58 -36q145 -127 145 -321z" />
    <glyph glyph-name="asterisk" unicode="*" horiz-adv-x="387" 
d="M328 388l-109 55q6 -59 10 -116q-21 -37 -39 -37q-17 0 -37 34l-4 107l-91 -60q-8 -5 -16 -5q-15 0 -27.5 13t-12.5 28q0 16 15 25l102 62l-91 47q-30 15 -30 40q0 26 19 26q23 0 129 -55l-3 95q8 30 9 33q9 17 34 17q28 0 28 -46q0 -12 -2 -34t-2 -30q0 -12 2 -38l91 53
q15 9 33 9q10 0 23 -7.5t13 -16.5q0 -23 -114 -87q55 -24 105 -47q15 -27 15 -43q0 -22 -50 -22z" />
    <glyph glyph-name="plus" unicode="+" horiz-adv-x="476" 
d="M465 349q0 -33 -51 -33q-12 0 -38.5 2.5t-35.5 2.5q-11 -1 -64 -3l16 -160q-28 -38 -49 -38q-20 0 -45 35l-7 155q-78 -6 -153 -14q-41 28 -41 48q0 19 37 43l154 -13l-5 142q6 17 11 34q11 18 44 18q34 0 34 -48q0 -12 -3 -37t-3 -34q2 -20 4 -62q40 5 140 13
q32 -8 35 -9q20 -11 20 -42z" />
    <glyph glyph-name="comma" unicode="," horiz-adv-x="172" 
d="M143 63q0 -18 -4 -34q-10 -39 -55 -70q-40 -27 -67 -27q-12 0 -12 8q0 3 2 7q5 11 25 28q15 13 18 32q-39 18 -39 55q0 27 20 45t49 18q63 0 63 -62z" />
    <glyph glyph-name="hyphen" unicode="-" horiz-adv-x="463" 
d="M465 348q0 -28 -51 -28q-13 0 -39.5 2t-34.5 2q-123 -4 -302 -21q-41 23 -41 41q0 17 37 37l376 12q35 -8 35 -9q20 -9 20 -36z" />
    <glyph glyph-name="hyphen" unicode="&#x2010;" horiz-adv-x="463" 
d="M465 348q0 -28 -51 -28q-13 0 -39.5 2t-34.5 2q-123 -4 -302 -21q-41 23 -41 41q0 17 37 37l376 12q35 -8 35 -9q20 -9 20 -36z" />
    <glyph glyph-name="period" unicode="." horiz-adv-x="168" 
d="M148 68q0 -24 -19 -39.5t-49 -15.5q-27 0 -48 17.5t-21 38.5q0 24 20 40t49 16t48.5 -16.5t19.5 -40.5z" />
    <glyph glyph-name="slash" unicode="/" horiz-adv-x="463" 
d="M441 669q0 -25 -39 -86q-28 -44 -57 -89q-106 -194 -249 -479q-47 -33 -71 -33q-25 0 -25 47q0 15 2 33l326 582q17 19 33 38q21 20 40 20q40 0 40 -33z" />
    <glyph glyph-name="zero" unicode="0" horiz-adv-x="513" 
d="M507 309q0 -72 -13 -124q-18 -72 -75 -126q-59 -58 -128 -62q-59 -3 -123 21q-58 22 -84 50q-97 104 -97 280q0 115 46 204q50 96 135 125q47 16 89 16q118 0 185 -101q30 -45 47.5 -123.5t17.5 -159.5zM394 337q-2 107 -28 181q-28 79 -76 93q-17 5 -31 5q-65 0 -97 -89
q-26 -70 -26 -170q0 -48 7 -79q41 -180 146 -180q12 0 25 3q38 9 61 84q21 68 19 152z" />
    <glyph glyph-name="one" unicode="1" horiz-adv-x="277" 
d="M257 662l-18 -666l-123 2l3 490q0 15 1 40.5t1 34t2 8.5q-9 0 -47 -46q-10 -12 -19 -12q-10 0 -20 18t-19 35l74 90q3 19 25 32t55 13q76 0 85 -39z" />
    <glyph glyph-name="two" unicode="2" horiz-adv-x="583" 
d="M583 152l-41 -152h-495q-30 -5 -45.5 14t-15.5 50t23 57q24 37 132 103q143 87 180 115q90 70 90 131q0 45 -56 91.5t-112 46.5q-37 0 -89 -20q-12 -4 -70 -34q-45 -22 -58 -22q-8 0 -8 6q0 3 2 8q27 71 129 118q76 35 154 35q163 0 253 -152q12 -20 12 -46
q0 -48 -39.5 -105.5t-98.5 -103.5q-39 -30 -163 -97q-98 -53 -129 -95z" />
    <glyph glyph-name="three" unicode="3" horiz-adv-x="523" 
d="M528 227q0 -121 -117 -185q-29 -16 -89 -28q-67 -14 -130 -14q-82 0 -184 17l4 89q46 -17 54 -19q39 -11 92 -11q162 0 208 111q7 17 7 43q0 63 -35 110q-45 58 -128 58q-88 0 -134 -17l-4 18q2 0 -10 63q45 0 82 2t61 2q115 19 111 64q-5 52 -52 74q-39 17 -116 17
q-64 0 -109 -19q-3 -1 -10.5 25t-7.5 41q0 12 5 12q2 0 5 -2q23 3 118 12q11 1 35 1q58 0 116 -12q55 -12 77 -27q69 -47 69 -93q0 -63 -118 -108h2q94 -24 148 -88q50 -61 50 -136z" />
    <glyph glyph-name="four" unicode="4" horiz-adv-x="508" 
d="M517 248q0 -20 -9 -37.5t-18 -17.5l-99 3l-13 -198l-123 -2l-11 213q-196 14 -217 14q-28 0 -33 72q10 8 30 30l236 359q28 17 61 17q36 0 58 -14.5t22 -34.5l-6 -356l91 4q10 0 20.5 -16.5t10.5 -35.5zM267 613l-213 -311l10 -10q11 -10 26 -10q51 0 169 -2z" />
    <glyph glyph-name="five" unicode="5" horiz-adv-x="567" 
d="M570 227q0 -75 -54 -146q-28 -37 -115 -63q-83 -25 -167 -25q-53 0 -93 13q-35 11 -96 71.5t-61 86.5q0 20 16 34t35 14q21 0 30 -16q67 -115 158 -115q29 0 63 10q55 16 88 60q30 39 30 81q0 38 -26 52q-56 29 -85 39q-34 11 -74 11q-36 0 -209 -19l10 370l441 12
q24 4 39 -13.5t15 -42.5q0 -63 -73 -63q-33 0 -87 21.5t-129 21.5q-36 0 -85 -7l16 -212q29 -1 79 3.5t74 4.5q82 0 166 -36q94 -40 94 -147z" />
    <glyph glyph-name="six" unicode="6" horiz-adv-x="553" 
d="M555 214q0 -85 -66.5 -152.5t-160.5 -71.5q-63 -3 -129.5 16t-95.5 44q-97 84 -97 235q0 112 55 219t142 159q57 34 114 34q44 0 98.5 -26.5t54.5 -43.5q0 -18 -37 -18q-19 0 -60.5 7.5t-49.5 7.5q-7 0 -7 -3q-91 -9 -134 -86q-34 -60 -34 -152q0 -13 2 -37q71 64 163 71
q52 4 53 4q111 0 171 -129q18 -39 18 -78zM417 205q-21 71 -37 92q-25 35 -78 32q-87 -5 -140 -58q43 -156 187 -162q31 -1 52 30q17 27 17 55q0 7 -1 11z" />
    <glyph glyph-name="seven" unicode="7" horiz-adv-x="503" 
d="M509 597h-8l-275 -547q-2 -19 -22 -32q-23 -15 -58 -15t-59.5 15t-30.5 36l289 537l-311 -11q-14 0 -26 16.5t-12 42.5q0 50 37 62l476 -15v-89z" />
    <glyph glyph-name="eight" unicode="8" horiz-adv-x="479" 
d="M494 210q0 -12 -2 -25q-17 -114 -85 -153q-45 -26 -151 -28h-21q-89 0 -138 25q-68 33 -97 120q-11 33 -11 67q0 74 50 123q11 10 23.5 21.5t12.5 24.5q0 12 -28.5 55t-28.5 86q0 77 57 121q65 50 146 50q28 0 60 -6q46 -9 90 -49q40 -38 51 -73.5t11 -56.5
q0 -40 -54 -116q115 -80 115 -186zM337 490q0 29 -22 65q-20 31 -36 40q-59 32 -102 32q-31 0 -51 -20.5t-20 -54.5q0 -46 34 -80q39 -38 100 -38q97 0 97 56zM361 175q0 56 -33 105q-8 12 -52 27q-50 18 -96 18q-29 0 -51 -8q-43 -16 -43 -68q0 -37 20 -74t48 -51
q71 -36 123 -36q84 0 84 87z" />
    <glyph glyph-name="nine" unicode="9" horiz-adv-x="523" 
d="M524 396q0 -132 -71 -251q-74 -123 -184 -162q-28 -10 -44 -10q-39 0 -47 31q172 110 182 314q-71 -44 -151 -44q-13 0 -24 1q-77 7 -104 21q-67 34 -95 139q-6 22 -6 48q0 87 70.5 152t165.5 65q12 0 29 -2q62 -7 128 -39q61 -29 84 -57q67 -81 67 -206zM360 393
q-9 99 -47 158q-43 66 -115 66q-39 0 -59 -32t-20 -82q0 -64 17 -97q22 -42 76 -48q18 -2 28 -2q65 0 120 37z" />
    <glyph glyph-name="colon" unicode=":" horiz-adv-x="193" 
d="M157 376q0 -28 -19.5 -45t-49.5 -17q-28 0 -47.5 19t-19.5 42q0 27 20 45t49 18q28 0 47.5 -18t19.5 -44zM157 182q0 -27 -19 -44.5t-49 -17.5q-28 0 -48 19t-20 42q0 27 20 45t49 18t48 -17.5t19 -44.5z" />
    <glyph glyph-name="semicolon" unicode=";" horiz-adv-x="188" 
d="M152 292q0 -28 -19 -46.5t-49 -18.5q-28 0 -48 19.5t-20 43.5q0 28 20 47t49 19q28 0 47.5 -18t19.5 -46zM151 75q0 -18 -4 -34q-10 -39 -55 -71q-39 -28 -66 -28q-12 0 -12 8q0 4 2 8q5 11 25 27q16 13 18 33q-39 25 -39 55q0 28 20.5 46.5t49.5 18.5q61 0 61 -63z" />
    <glyph glyph-name="less" unicode="&#x3c;" horiz-adv-x="557" 
d="M518 56l-484 167v121l484 167v-118l-329 -110l329 -111v-116z" />
    <glyph glyph-name="equal" unicode="=" horiz-adv-x="453" 
d="M448 403q0 -31 -48 -31q-12 0 -40 2.5t-37 2.5q-311 -12 -311 -22q-32 23 -32 43q0 19 37 42l375 13l36 -10q20 -11 20 -40zM451 275q0 -19 -38 -41l-375 -14q-18 5 -36 11q-19 10 -19 40q0 31 48 31q13 0 40 -3t36 -3q312 12 312 22q32 -23 32 -43z" />
    <glyph glyph-name="greater" unicode="&#x3e;" horiz-adv-x="557" 
d="M524 223l-484 -167v117l331 110l-331 110v118l484 -167v-121z" />
    <glyph glyph-name="question" unicode="?" horiz-adv-x="423" 
d="M416 510q0 -74 -39 -109q-29 -26 -73 -54q-33 -21 -44 -35q-15 -21 -19 -65q-3 -27 -30 -54t-47 -27q-6 0 -10 4q-13 17 -15 41q-1 18 0 19q-1 58 43 119q0 1 82 95q44 52 44 86q0 27 -40 64q-44 40 -90 40q-38 0 -71 -32q-21 -20 -47 -62q-22 -35 -28 -38q-11 -5 -18 -5
q-20 0 -20 30q0 28 21.5 71t43.5 56q79 46 149 46q80 0 153 -57q55 -43 55 -133zM253 68q0 -28 -20 -46t-49 -18q-36 0 -55 27q-12 17 -12 37q0 27 20 45.5t49 18.5q27 0 47 -19t20 -45z" />
    <glyph glyph-name="at" unicode="@" horiz-adv-x="677" 
d="M662 188q8 -1 8 -6q0 -16 -77 -63q-148 -77 -156 -81q-79 -35 -147 -35q-69 0 -147 34q-74 32 -115 108q-39 71 -39 161q0 119 65 211q48 68 130 106q77 36 165 36q157 0 256 -102q41 -42 41 -123q0 -72 -31 -148t-77 -117v-17q-12 -2 -45 -10q-21 -5 -33 -5q-19 0 -40 9
q-3 2 -11 2q-10 0 -32.5 -4t-26.5 -4q-106 0 -149 33q-74 56 -74 166q0 71 34 126q37 59 99 74q47 11 73 11q45 0 83 -25q25 33 62 33q47 0 47 -47l-1 -222q36 45 36 156q0 51 -23 83q-59 81 -152 81q-28 0 -139 -24q-71 -15 -114 -80t-43 -159q0 -16 2 -38q9 -99 48 -148
q30 -38 99 -65q31 -12 78 -12q138 0 293 93q35 15 53 12zM423 232l-5 192q-83 77 -110 77q-58 0 -58 -134q0 -34 6 -52q31 -94 107 -90q23 1 60 7z" />
    <glyph glyph-name="A" unicode="A" 
d="M613 32q0 -32 -29 -32q-33 0 -63 30l-101 292l-171 -30l-87 -263q-28 -34 -80 -34q-35 0 -62.5 15.5t-27.5 37.5q0 19 13 38q48 50 94 181q25 70 69 233q36 132 53 163q13 24 36 32q19 6 61 6q33 0 44 -11q6 -5 23 -38q14 -28 96 -286q75 -235 125 -306q7 -15 7 -28z
M394 399l-56 163l-57 -170z" />
    <glyph glyph-name="B" unicode="B" horiz-adv-x="634" 
d="M643 226q0 -120 -117 -184q-29 -16 -90 -28q-68 -14 -132 -14q-65 0 -161 13v-13h-135l-10 663q29 34 78 34q40 0 71 -17q37 3 117 10q11 1 35 1q58 0 116 -12q55 -12 77 -27q69 -47 69 -93q0 -63 -118 -108h2q94 -24 148 -89q50 -61 50 -136zM431 530q-5 53 -52 74
q-38 17 -116 17q-59 0 -102 -16l-5 -164q76 25 163 25q116 19 112 64zM485 211q0 62 -45 119q-54 69 -139 69q-51 0 -147 -41l-9 -259q54 -23 129 -23q161 0 207 111q4 10 4 24z" />
    <glyph glyph-name="C" unicode="C" horiz-adv-x="618" 
d="M623 115q9 -9 9 -19q0 -35 -101 -70q-91 -32 -176 -36q-68 -4 -146 16q-72 18 -103 42q-123 95 -123 282q0 122 57 218q62 102 165 127q63 15 97 15q39 0 89 -19q25 -10 136 -61q57 -26 57 -56q0 -32 -50 -32q-64 0 -147 57q-51 35 -91 35q-70 0 -107 -95
q-30 -75 -30 -174q0 -40 8 -69q45 -163 211 -169q68 -2 129 15.5t67 17.5q25 0 49 -25z" />
    <glyph glyph-name="D" unicode="D" horiz-adv-x="619" 
d="M625 332q0 -179 -118 -274q-27 -22 -89 -40q-68 -21 -131 -21q-20 0 -38 2q-33 4 -97 12v-11h-135l-10 663q30 34 78 34q44 0 78 -23q56 20 121 20q155 0 248 -100.5t93 -261.5zM464 311q0 100 -43 196q-52 116 -134 116q-36 0 -118 -54l-13 -453q39 -15 92 -15
q166 0 211 169q5 19 5 41z" />
    <glyph glyph-name="E" unicode="E" horiz-adv-x="524" 
d="M543 61q0 -25 -12 -42t-26 -20l-458 1q0 3 -4 3q-7 0 -22 -8l-25 658q-1 18 22 33t58 15q28 0 47 -11l334 7q38 1 38 -53q0 -45 -43 -57l-289 5l-5 -123l239 10q21 -33 21 -52q0 -28 -34 -28q-106 0 -229 -23l-9 -271l359 13q14 0 26 -16t12 -41z" />
    <glyph glyph-name="F" unicode="F" horiz-adv-x="509" 
d="M527 636q0 -47 -37 -57l-313 6l-4 -111l247 5q-15 -81 -34 -81q-83 0 -216 -15l-12 -387l-122 2l-15 370q-11 -1 -20 -4q-10 0 -23.5 15.5t-13.5 33.5q0 19 14.5 38.5t25.5 19.5h13l-6 181q-1 19 22 34t58 15q32 0 57 -15l342 8q14 0 25.5 -16t11.5 -42z" />
    <glyph glyph-name="G" unicode="G" horiz-adv-x="623" 
d="M634 112q3 -8 3 -15q0 -44 -96 -75q-81 -27 -176 -32q-69 -4 -147 16q-72 18 -103 42q-122 95 -122 282q0 123 57 218q61 102 165 127q63 15 97 15q39 0 88 -19q25 -10 136 -61q58 -27 58 -56q0 -32 -51 -32q-65 0 -146 57q-50 35 -91 35q-70 0 -107 -95
q-30 -75 -30 -174q0 -40 8 -69q45 -163 210 -169q41 -1 71 6q22 7 44 13t22 43q0 31 -13.5 62.5t-30.5 36.5t-36 5h-18q-38 0 -52 16q-4 4 -4 8q0 15 39 26.5t88 11.5q65 0 99 -9q20 -5 27 -101q9 -109 11 -113z" />
    <glyph glyph-name="H" unicode="H" horiz-adv-x="513" 
d="M508 27q1 -33 -71 -33q-33 0 -39 1q-20 5 -26 24l-3 379q-98 -1 -219 -25l-6 -378l-123 2l-18 652q-1 20 18 36t55 16q66 0 81 -48l-5 -186l217 8l-2 221l124 2z" />
    <glyph glyph-name="I" unicode="I" horiz-adv-x="204" 
d="M179 653l-21 -657l-122 2l-25 654q-1 20 21.5 34.5t58.5 14.5q35 0 61 -16q22 -14 27 -32z" />
    <glyph glyph-name="J" unicode="J" horiz-adv-x="452" 
d="M433 237q-2 -59 -16 -104q-33 -106 -116 -118q-61 -9 -115 -9q-94 0 -157 28q-56 25 -56 53q0 27 37 27q23 0 106 -32t122 -32q68 0 67 95q-1 74 5 96l-14 403q13 48 69 48q32 0 50 -16t18 -36v-403z" />
    <glyph glyph-name="K" unicode="K" horiz-adv-x="549" 
d="M567 32q2 -4 2 -7q0 -20 -41 -20q-34 0 -97 12l-242 281q-15 -17 -45 -53l-11 -249l-115 2l-19 650q-1 20 18 35.5t54 15.5q57 0 71 -37l6 -281l315 320q76 -105 76 -132q0 -8 -7 -8q-88 0 -272 -184q37 -43 176 -174q92 -85 131 -171z" />
    <glyph glyph-name="L" unicode="L" horiz-adv-x="533" 
d="M556 57q0 -25 -12 -42t-26 -20l-374 11v-10l-123 1l-25 655q-1 19 22 34t58 15t61 -16q22 -14 27 -32l-18 -551l371 13q15 1 27 -16t12 -42z" />
    <glyph glyph-name="M" unicode="M" horiz-adv-x="652" 
d="M649 23q2 -33 -53 -33q-43 0 -75 22q0 22 10 231t10 290q0 35 -1 45q-17 -19 -121 -167q-84 -119 -100 -119q-10 0 -65 71q-81 103 -111 136l-10 -506l-115 2l-19 651q-1 21 17.5 36.5t54.5 15.5q54 0 70 -32l3 -2l205 -218l177 245q21 3 39 3q42 0 62 -28q15 -20 15 -46
q0 -7 -1 -10l1 -225q-5 -21 -5 -74t6 -160.5t6 -127.5z" />
    <glyph glyph-name="N" unicode="N" horiz-adv-x="548" 
d="M539 639q0 -8 -4 -24v-222q-6 -53 -6 -97q0 -53 3 -154.5t3 -118.5q-6 -31 -59 -31q-42 0 -75 25q0 23 2.5 91.5t2.5 101.5q0 65 -7 79q-22 43 -103 113q-76 63 -152 125l-11 -532l-115 2l-19 652q-1 20 18 36t54 16q54 0 70 -33l3 -2l255 -255l-3 251q22 31 68 31
q30 0 52.5 -15t22.5 -39z" />
    <glyph glyph-name="O" unicode="O" 
d="M615 305q0 -71 -16 -124q-22 -72 -90 -126q-72 -57 -156 -62q-69 -4 -147 21q-69 22 -101 50q-118 104 -118 281q0 115 56 206q60 97 163 127q52 15 106 15q142 0 223 -100q37 -46 59 -128q21 -78 21 -160zM481 335q-3 107 -35 180q-34 79 -93 94q-24 6 -39 6
q-79 0 -119 -90q-32 -71 -32 -171q0 -45 9 -78q23 -84 68 -132q48 -51 111 -51q11 0 32 4q47 9 75 85q25 69 23 153z" />
    <glyph glyph-name="P" unicode="P" horiz-adv-x="614" 
d="M610 426q0 -135 -122 -208q-34 -20 -107.5 -33.5t-153.5 -13.5q-21 0 -79 7l-5 -178h-135l-10 663q29 34 78 34q36 0 63 -14q57 18 119 18q70 0 147 -21q96 -26 152 -100q53 -69 53 -154zM446 408q0 74 -44 147q-54 87 -137 87q-49 0 -104 -32l-1 -1l-11 -350
q37 -7 76 -7q169 0 217 127q4 16 4 29z" />
    <glyph glyph-name="Q" unicode="Q" horiz-adv-x="603" 
d="M770 -36l-1 -20q-50 0 -119 -19t-88 -19q-49 0 -141 101q-43 -16 -78 -16q-74 0 -147 22q-69 21 -101 49q-118 104 -118 282q0 116 56 207q61 97 164 127q54 16 107 16q140 0 221 -101q38 -47 60 -129q21 -78 21 -160q0 -74 -16 -125q-19 -61 -76 -113q107 -85 256 -102z
M471 334q0 106 -35 183.5t-92 91.5q-24 6 -39 6q-79 0 -119 -89q-32 -71 -32 -171q0 -46 9 -80q24 -89 70 -135q50 9 70 26q5 5 17 26q6 11 26 9q30 -3 84 -57q41 74 41 190zM308 91q-3 0 -21 10q-23 12 -40 27l-9 -17q62 -15 70 -20z" />
    <glyph glyph-name="R" unicode="R" horiz-adv-x="594" 
d="M625 0l-175 2l-98 198q-39 -5 -96 -5h-29q-16 0 -40 3q-31 4 -38 5l-6 -202h-135l-10 662q29 34 78 34q37 0 64 -15q56 16 121 16q79 0 144 -19q81 -24 132 -99q48 -72 48 -156q0 -123 -96 -183q-4 -6 -8 -8zM446 421q0 70 -44 139q-54 82 -137 82q-21 0 -105 -31
l-10 -331q35 -7 75 -7q169 0 217 121q4 14 4 27z" />
    <glyph glyph-name="S" unicode="S" horiz-adv-x="556" 
d="M565 223q0 -74 -50 -141q-28 -38 -92 -66q-69 -29 -142 -29q-66 0 -123 26q-61 28 -88 49q-13 11 -26 31q-10 15 -30 25q-27 14 -27 34q0 17 22.5 31.5t46.5 14.5t33 -15q17 -34 35 -69q17 -27 57 -27q29 0 103 18q56 14 90 57q31 39 31 81q0 35 -22 47q-51 28 -84 28
q-16 0 -46.5 -8t-51.5 -8q-49 0 -116 29q-30 13 -54 63t-24 107q0 71 39 121q46 60 138 75q43 7 79 7q60 0 111 -26.5t78 -26.5q8 0 17 1q41 5 41 -47q0 -31 -18 -55q-21 -28 -54 -28q-42 0 -89 40q-78 66 -129 66q-70 0 -70 -104q0 -50 19 -91q20 -45 53 -54q22 -6 37 -6
q23 0 59.5 12.5t60.5 12.5q37 0 91 -23q95 -40 95 -152z" />
    <glyph glyph-name="T" unicode="T" horiz-adv-x="524" 
d="M534 640q0 -23 -11.5 -40t-25.5 -20l-157 -1l-11 -583l-127 2l-26 581l-188 -1l33 93l458 25q17 1 36 -16t19 -40z" />
    <glyph glyph-name="U" unicode="U" horiz-adv-x="613" 
d="M614 426q0 -155 -27 -241q-24 -75 -82 -129q-65 -58 -147 -63q-69 -4 -147 21q-70 22 -101 50q-108 97 -108 255q0 44 10.5 140t10.5 147q0 8 -2 24t-2 23q0 39 55 39q34 0 70.5 -8.5t39.5 -17.5q15 -34 15 -93q0 -47 -13 -140.5t-13 -124.5q0 -17 4 -32q23 -84 68 -132
q48 -51 111 -51q11 0 32 4q48 9 83 85q34 73 32 153q-4 151 -4 159q-4 61 -22 110q-3 9 -3 19q0 27 21.5 50t47.5 23q71 0 71 -270z" />
    <glyph glyph-name="V" unicode="V" horiz-adv-x="553" 
d="M584 616q-67 -102 -133 -267l-90 -240q-41 -105 -69 -106t-68 94q-45 111 -90 223q-68 157 -140 260q-12 26 -12 48q0 29 21 49t51 20q24 0 52.5 -14t38.5 -31l170 -410l171 408q21 36 51 36q9 0 18 -2q24 -6 29 -68z" />
    <glyph glyph-name="W" unicode="W" horiz-adv-x="882" 
d="M922 616q-67 -101 -133 -267q-45 -121 -90 -241q-42 -105 -70 -105q-29 0 -75 110q-52 126 -103 252l-96 -252q-44 -110 -73 -110q-28 0 -69 94q-44 112 -89 223q-67 157 -140 260q-11 25 -11 47q0 30 21 50t51 20q24 0 52.5 -14t38.5 -31l170 -410l94 225l-50 78
q-30 49 -30 82q0 29 21.5 49.5t50.5 20.5q21 0 48 -12t40 -28q11 30 47 30q9 0 19 -3q24 -6 29 -68q-20 -33 -46 -77l124 -297l170 408q26 37 53 37q8 0 17 -3q24 -6 29 -68z" />
    <glyph glyph-name="X" unicode="X" horiz-adv-x="607" 
d="M612 624q-129 -108 -227 -220q11 -19 75 -106q61 -84 138 -216q-21 -82 -65 -82q-47 0 -79 30q-52 90 -105 164t-64 93q-225 -287 -234 -273l-26 8q-25 9 -25 24q0 9 8 19q121 161 227 293q-161 161 -242 245q-13 19 -13 38q0 26 26 41q23 12 51 12q24 0 52 -10t39 -22
l181 -201l184 203q25 27 52 27q8 0 19 -2q26 -6 28 -65z" />
    <glyph glyph-name="Y" unicode="Y" horiz-adv-x="591" 
d="M618 631q-68 -73 -130 -185l-88 -170q-15 -29 -15 -204v-54q-32 -26 -74 -26q-47 0 -76 28q-1 67 -3 135q-3 89 -13 107q-44 81 -87 161q-64 108 -134 180q-13 19 -13 38q0 40 63 52q23 4 61 -7t47 -26l178 -307l180 306q28 28 54 28q8 0 17 -2q27 -6 33 -54z" />
    <glyph glyph-name="Z" unicode="Z" horiz-adv-x="553" 
d="M565 644q0 -25 -13 -67q-65 -42 -211 -199q-166 -179 -208 -278l430 48l-47 -143l-471 -6q-4 0 -11 -1h-10q-22 0 -37 51q-2 8 -2 16q0 29 30 47l351 450l-335 -20q-34 26 -34 69q0 22 11 50q14 33 32 28q128 -15 321 -15q89 0 176 7q28 2 28 -37z" />
    <glyph glyph-name="bracketleft" unicode="[" horiz-adv-x="343" 
d="M309 -178h-269v933h269v-126h-131v-679h131v-128z" />
    <glyph glyph-name="backslash" unicode="\" horiz-adv-x="427" 
d="M420 27q0 -43 -27 -43q-16 0 -41 14l-28 16q-68 136 -250 480q-29 45 -58 89q-39 61 -39 86q0 33 42 33q20 0 39 -19q16 -19 31 -38l327 -581q4 -21 4 -37z" />
    <glyph glyph-name="bracketright" unicode="]" horiz-adv-x="343" 
d="M303 -178h-273v128h135v679h-135v126h273v-933z" />
    <glyph glyph-name="asciicircum" unicode="^" horiz-adv-x="516" 
d="M500 363h-124l-118 253l-117 -253h-124l194 393h95z" />
    <glyph glyph-name="underscore" unicode="_" horiz-adv-x="604" 
d="M624 -55q0 -25 -69 -25q-17 0 -52.5 2t-47.5 2q-169 -3 -417 -19q-55 21 -54 38q0 14 49 33l516 10q41 -5 50 -8q25 -9 25 -33z" />
    <glyph glyph-name="grave" unicode="`" 
d="M362 733h-77l-107 109h121z" />
    <glyph glyph-name="a" unicode="a" horiz-adv-x="517" 
d="M481 428l-1 -426l-122 3l-4 6q-55 -12 -89 -12q-121 0 -170 38q-84 65 -84 190q0 82 39 146q42 69 113 86q54 13 82 13q52 0 98 -30q27 39 69 39q34 0 53 -17q16 -15 16 -36zM351 104l-6 223q-28 24 -56 47q-34 26 -57 26q-38 0 -62 -45q-21 -40 -21 -93q0 -39 7 -61
q35 -111 125 -106q32 2 70 9z" />
    <glyph glyph-name="b" unicode="b" horiz-adv-x="461" 
d="M448 230q0 -127 -84 -192q-21 -16 -70 -28q-53 -13 -101 -11q-59 3 -123 26q-70 24 -65 48v571q10 51 66 51q27 0 47 -16.5t23 -42.5l-7 -179q42 21 81 21q28 0 82 -13q71 -17 112 -87q39 -64 39 -148zM310 260q0 57 -15 96q-18 46 -52 49q-42 3 -69 -18q-15 -16 -44 -44
l-9 -240q42 -7 56 -7q93 0 126 107q7 23 7 57z" />
    <glyph glyph-name="c" unicode="c" horiz-adv-x="436" 
d="M432 72q0 -24 -67 -48q-62 -22 -120 -25q-47 -2 -100 10q-49 12 -70 28q-84 65 -84 189q0 83 39 147q42 70 113 86q57 13 83 13q29 0 98 -32q85 -39 85 -83q0 -33 -44 -33q-20 0 -85.5 35t-85.5 35q-66 0 -66 -126q0 -41 9 -68q36 -110 124 -105q19 1 56 7q33 5 49 5
q22 0 38 -7q28 -12 28 -28z" />
    <glyph glyph-name="d" unicode="d" horiz-adv-x="454" 
d="M434 74q6 -24 -64 -49q-65 -23 -125 -26q-47 -2 -100 11q-49 12 -70 28q-84 66 -84 191q0 84 39 149q42 71 113 87q52 12 82 12q37 0 80 -20l-6 179q3 26 22.5 42.5t47.5 16.5q57 0 65 -51v-570zM319 103l-10 240q-16 17 -44 44q-16 13 -34 14q5 0 -27 0q-39 0 -58 -46
q-16 -37 -16 -95q0 -38 6 -57q35 -112 125 -107q24 1 58 7z" />
    <glyph glyph-name="e" unicode="e" horiz-adv-x="443" 
d="M432 72q0 -24 -67 -48q-62 -22 -120 -25q-47 -2 -100 10q-49 12 -70 28q-84 65 -84 189q0 83 39 148q42 69 113 85q62 14 86 14q62 0 146 -67q41 -33 41 -62q0 -17 -14 -27q-7 -5 -102 -47q-108 -47 -164 -66q1 -5 1 -4q35 -110 124 -105q18 1 56 7q33 5 49 5q22 0 38 -7
q28 -12 28 -28zM299 343q-10 6 -30 19q-48 35 -82 35q-63 0 -61 -119q53 17 106 35q68 23 68 29q0 1 -1 1z" />
    <glyph glyph-name="f" unicode="f" horiz-adv-x="387" 
d="M396 451q0 -37 -36 -37h-144l14 -363q-16 -49 -70 -49q-60 0 -60 52v360h-120q-26 9 -26 32q0 27 26 37h120v46q0 72 17 101q23 37 96 58q21 6 42 6q51 0 94 -33q38 -30 38 -56q0 -14 -9 -14q-7 0 -54.5 25t-72.5 25q-37 0 -37 -79v-79h146q14 0 25 -9t11 -23z" />
    <glyph glyph-name="g" unicode="g" horiz-adv-x="486" 
d="M469 -55q0 -57 -49 -99q-34 -29 -71 -39q-44 -12 -96 -12q-107 0 -188 46q-87 50 -87 127q0 53 53 90q42 29 42 69q0 25 -15 40q-70 47 -70 130q0 84 66 136.5t165 52.5q32 0 95 -20t64 -20q9 0 27 8q10 4 19 4q19 0 31.5 -15t12.5 -34q0 -11 -13 -24t-13 -20
q0 -6 7.5 -27.5t7.5 -38.5q0 -22 -11 -48q-40 -93 -134 -109q130 -29 155 -175q2 -12 2 -22zM314 297q0 32 -21 68q-17 30 -33 40q-37 23 -67 23q-38 0 -61 -34q-20 -29 -20 -67q0 -36 24 -76q29 -47 68 -47q8 0 22 4q88 25 88 89zM323 -37q0 38 -36.5 68t-82.5 30
q-37 0 -68 -21q-38 -26 -38 -68q0 -26 13.5 -51t32.5 -35q26 -14 57 -14q46 0 84 27t38 64z" />
    <glyph glyph-name="h" unicode="h" horiz-adv-x="462" 
d="M452 120q0 -116 -53 -121q-55 -5 -55 104q0 12 1 35v31q0 179 -94 224q-23 11 -42 11q-53 0 -69 -102l-12 -296l-115 3l-3 639q13 49 76 49q34 0 52 -16.5t17 -36.5l-13 -206q48 35 108 35q80 0 127 -60q74 -95 74 -227q0 -10 1 -33v-33z" />
    <glyph glyph-name="i" unicode="i" horiz-adv-x="183" 
d="M148 539q0 -28 -20 -46t-49 -18q-39 0 -57 27q-11 16 -11 37q0 28 20.5 46t49.5 18q28 0 47.5 -19t19.5 -45zM149 -3l-122 3l-17 411q13 47 69 47q33 0 50 -16t17 -37z" />
    <glyph glyph-name="j" unicode="j" horiz-adv-x="317" 
d="M275 551q0 -29 -19 -47t-49 -18q-39 0 -57 27q-11 16 -11 37q0 28 20 46.5t49 18.5t48 -18t19 -46zM274 12q2 -192 -122 -211q-66 -10 -125 -10q-96 0 -162 27q-59 24 -59 52q0 13 13 20q9 5 25 5q23 0 109.5 -30t128.5 -30q75 0 74 97q0 57 -4 81l-14 408q14 48 69 48
q31 0 49 -16.5t18 -37.5v-403z" />
    <glyph glyph-name="k" unicode="k" horiz-adv-x="442" 
d="M448 90q0 -7 -21 -32.5t-16 -50.5q1 -6 -6 -6q-24 0 -114 56t-166 118l-5 -172l-115 -5v647q15 50 66 50q27 0 47 -17t23 -43l-9 -257q56 58 68 68q35 29 68 29q14 0 26 -3q116 -29 116 -114q0 -45 -39 -82q-42 -40 -116 -55q-9 -2 -9 -3q0 -22 94 -57q108 -40 108 -71z
M285 381q0 27 -23 27q-37 0 -131 -73l-2 -36q68 2 118 20q17 6 27.5 25t10.5 37z" />
    <glyph glyph-name="l" unicode="l" horiz-adv-x="203" 
d="M165 648l-2 -638l-115 -3l-28 637q-1 20 17 36.5t51 16.5q63 0 77 -49z" />
    <glyph glyph-name="m" unicode="m" horiz-adv-x="778" 
d="M753 115q0 -114 -52 -119q-56 -5 -56 109q0 12 1 34v30q0 177 -101 212q-46 16 -64 16q-41 0 -53 -68q23 -132 23 -146q0 -10 1 -32v-33q0 -113 -53 -119t-53 92q0 14 1 40t1 36q0 83 -30 136q-23 41 -75 79q-25 18 -43 18q-53 0 -57 -104l-10 -286l-120 -2l-9 432
q12 34 67 34q59 0 71 -29q47 24 99 24q38 0 78.5 -17t65.5 -47q41 63 122 63q69 0 143 -46q30 -19 62 -78q40 -75 40 -158q0 -11 1 -35v-36z" />
    <glyph glyph-name="n" unicode="n" horiz-adv-x="462" 
d="M452 108q0 -114 -53 -119q-62 -6 -62 89q0 14 3 52t3 57q0 82 -36 142q-39 64 -99 64q-36 0 -50 -15q-18 -19 -18 -68l-1 -314l-126 3l-11 430q12 39 69 39q54 0 64 -33q48 23 103 23q90 0 139 -60q74 -90 74 -225q0 -10 1 -32v-33z" />
    <glyph glyph-name="o" unicode="o" horiz-adv-x="435" 
d="M431 207q0 -23 -3 -41q-10 -58 -63 -107q-56 -51 -125 -60q-15 -2 -29 -2q-41 0 -84 14q-38 11 -57 26q-83 64 -83 188q0 81 39 148q41 71 110 94q36 12 65 12q50 0 99 -23q45 -22 73 -56q58 -71 58 -193zM313 238q0 80 -32 110q-59 56 -100 56q-65 0 -65 -124
q0 -51 23 -109q29 -76 79 -76q10 0 20 3q75 23 75 140z" />
    <glyph glyph-name="p" unicode="p" horiz-adv-x="462" 
d="M452 243q0 -84 -39 -149q-42 -71 -113 -87q-52 -12 -82 -12q-38 0 -80 21l7 -179q-4 -26 -23.5 -42.5t-46.5 -16.5q-58 0 -66 51v570q-6 23 64 48q64 23 124 26q48 3 101 -10q49 -12 70 -29q84 -66 84 -191zM315 204q0 37 -9 65q-48 150 -133 140q-31 -4 -41 -16l-8 -20
l9 -243q27 -15 40 -24q44 -32 74 -32q68 0 68 130z" />
    <glyph glyph-name="q" unicode="q" horiz-adv-x="466" 
d="M436 -171q-8 -51 -66 -51q-27 0 -46.5 16.5t-23.5 42.5l7 179q-42 -21 -81 -21q-29 0 -81 12q-71 16 -113 87q-39 65 -39 149q0 125 84 191q21 17 70 29q53 13 101 10q60 -3 124 -26q70 -24 64 -47v-571zM321 370q-36 6 -57 6q-92 0 -126 -107q-6 -19 -6 -56
q0 -62 15 -104q19 -53 58 -53q24 0 62 29q16 17 44 44z" />
    <glyph glyph-name="r" unicode="r" horiz-adv-x="433" 
d="M415 383q0 -23 -19 -44q-21 -24 -51 -24q-36 0 -71 36q-53 55 -89 55q-45 0 -45 -86l-1 -313l-126 3l-11 429q14 47 69 47q45 0 61 -33l15 9q41 14 77 14q35 0 75 -28q44 -30 92 -37q24 -3 24 -28z" />
    <glyph glyph-name="s" unicode="s" horiz-adv-x="446" 
d="M448 157q0 -42 -40 -100q-20 -30 -65.5 -48t-100.5 -18q-57 0 -128 27.5t-111 66.5q-15 15 -15 25q0 19 34 19q33 0 49 -8q35 -15 70 -29t66 -14q47 0 74 19.5t27 47.5q0 32 -29 46q-33 16 -61 16q-9 0 -27 -2t-29 -2q-53 0 -99 28q-64 39 -64 113q0 49 31 84
q38 42 115 53q40 6 71 6q36 0 75 -16q43 -17 91 -20q40 -2 40 -35q0 -20 -19 -36q-22 -19 -56 -19q-37 0 -78 23q-44 25 -73 25q-48 0 -48 -53q0 -25 13 -48t37 -31.5t108 -10.5q71 -2 93 -20q49 -41 49 -89z" />
    <glyph glyph-name="t" unicode="t" horiz-adv-x="411" 
d="M410 450q0 -31 -36 -31h-129l-7 -292q-2 -81 38 -81q22 0 65 25t52 25q12 0 12 -14q0 -27 -39 -57q-42 -33 -94 -33q-21 0 -42 6q-72 21 -95 57q-18 28 -18 96q0 127 -3 268l-120 1q-26 9 -26 36q0 24 26 32h120v96q0 21 17 36.5t51 15.5q56 0 69 -48l-4 -100h127
q36 0 36 -38z" />
    <glyph glyph-name="u" unicode="u" horiz-adv-x="482" 
d="M464 -3l-128 2l1 37q-60 -37 -134 -37q-96 0 -148 62q-55 66 -55 194q0 64 3 114q6 91 51 96q51 6 51 -83q0 -15 -1.5 -44.5t-1.5 -40.5q0 -85 35 -140q32 -50 87 -66q21 -6 36 -6q74 0 72 113l-5 231q14 47 69 47q33 0 52 -17q16 -15 16 -36v-426z" />
    <glyph glyph-name="v" unicode="v" horiz-adv-x="397" 
d="M409 417q-48 -70 -96 -185q-34 -82 -67 -164q-32 -72 -52 -72t-52 65q-35 77 -70 155q-51 109 -102 181q-3 10 -3 22q0 28 18.5 46t45.5 18q47 0 63 -26l119 -246l106 244q9 22 31 22q20 0 40 -17.5t20 -35.5q0 -4 -1 -7z" />
    <glyph glyph-name="w" unicode="w" horiz-adv-x="724" 
d="M735 418q-47 -70 -96 -185q-33 -83 -67 -165q-31 -72 -51 -72q-24 0 -70 100q-77 170 -103 216q-10 -20 -90 -216q-41 -100 -64 -100q-20 0 -52 65q-35 77 -70 155q-51 109 -102 181q-3 10 -3 22q0 28 18.5 46t45.5 18q47 0 63 -26l119 -246l84 194q4 25 7 50
q10 28 54 28q46 0 62 -26l120 -246l105 245q15 20 36 20q22 0 39.5 -18.5t14.5 -39.5z" />
    <glyph glyph-name="x" unicode="x" horiz-adv-x="412" 
d="M418 45q0 -18 -20 -31q-16 -10 -35 -10q-28 0 -56 22q-21 17 -27 32q-14 33 -101 116q-115 -122 -132 -152q-17 -18 -33 -18q-32 0 -32 40q0 8 2 16q12 32 136 172q-108 106 -142 154q-6 15 -6 31q0 44 47 55q6 2 15 2q46 0 59 -26l109 -126q60 65 118 125q14 22 35 22
q18 0 33 -15.5t15 -30.5q0 -8 -5 -14q-26 -29 -141 -149l140 -163q21 -30 21 -52z" />
    <glyph glyph-name="y" unicode="y" horiz-adv-x="491" 
d="M464 11q1 -191 -123 -210q-66 -10 -125 -10q-96 0 -162 26q-59 24 -59 52q0 26 38 26q23 0 109 -30t128 -30q75 0 75 96q0 57 -4 81v19q-54 -36 -124 -36q-106 0 -161.5 70.5t-55.5 197.5q0 11 1 36t1 39q0 130 52 137q51 7 51 -84q0 -15 -1.5 -45t-1.5 -41
q0 -86 35 -141q32 -51 87 -68q8 -3 17 -3q33 0 59 35t35 91l-8 219q14 48 69 48q33 0 52 -17q16 -15 16 -36v-422z" />
    <glyph glyph-name="z" unicode="z" horiz-adv-x="472" 
d="M460 44q0 -12 -20 -24.5t-38 -12.5q-5 0 -9 1l-325 -3q-5 8 -19 3q-6 0 -21 19t-10 34q8 27 109 136q84 89 169 179l-251 6q-44 1 -44 42q0 6 1 13q0 13 13.5 26.5t28.5 13.5q4 0 8 -1l317 -11q37 -1 42 -3q28 -7 28 -38q0 -4 -7.5 -17t-11.5 -16q-94 -99 -260 -275
l245 -14q56 -7 56 -47q0 -5 -1 -11z" />
    <glyph glyph-name="braceleft" unicode="{" horiz-adv-x="345" 
d="M322 -178h-104q-58 0 -89 39q-28 36 -28 98v195q0 73 -79 79v110q79 8 79 80v193q0 63 28 99q31 40 89 40h104v-107h-15q-64 0 -64 -64v-177q0 -52 -20 -77q-23 -28 -80 -30v-24q57 -2 80 -30q20 -25 20 -77v-176q0 -64 64 -64h15v-107z" />
    <glyph glyph-name="bar" unicode="|" horiz-adv-x="204" 
d="M157 24h-112v731h112v-731z" />
    <glyph glyph-name="braceright" unicode="}" horiz-adv-x="345" 
d="M323 233q-79 -6 -79 -79v-195q0 -137 -113 -137h-108v107h15q64 0 64 64v176q0 52 23 78.5t81 28.5v24q-58 2 -82 30q-22 25 -22 77v177q0 64 -64 64h-15v107h108q113 0 113 -139v-193q0 -72 79 -80v-110z" />
    <glyph glyph-name="asciitilde" unicode="~" horiz-adv-x="545" 
d="M535 473q-20 -56 -62 -92q-54 -46 -130 -46q-26 0 -71 18t-70 18q-52 0 -68 -29h-124q20 56 63 92q53 46 129 46q27 0 73 -19t68 -19q51 0 69 31h123z" />
    <glyph glyph-name="nonbreakingspace" unicode="&#xa0;" horiz-adv-x="500" 
 />
    <glyph glyph-name="exclamdown" unicode="&#xa1;" horiz-adv-x="168" 
d="M148 508q0 -28 -19.5 -46.5t-48.5 -18.5t-49 18.5t-20 45.5q0 28 19.5 46t49.5 18q40 0 57 -28q11 -18 11 -35zM154 -37q5 -27 -18.5 -52.5t-56.5 -25.5q-71 0 -82 71l33 438l96 5z" />
    <glyph glyph-name="cent" unicode="&#xa2;" horiz-adv-x="436" 
d="M432 71q0 -25 -67 -49q-61 -22 -119 -25q-18 -1 -45 1q-6 -20 -13 -36q-31 -26 -51 -26q-4 0 -7 1q-19 5 -34 45l11 37q-20 7 -33 17q-83 63 -83 190q0 84 39 149q42 69 113 86q55 13 83 13q6 0 28 -6l10 33q12 25 15 28q11 14 32 14q8 0 18 -2q25 -8 25 -34
q0 -14 -6 -33.5t-12 -36.5q73 -36 73 -79q0 -33 -44 -33q-20 0 -54 18q-26 -94 -78 -248q16 -2 28 -1q18 1 56 7q33 5 49 5q21 0 35 -5q31 -12 31 -30zM226 386q-20 10 -32 10q-66 0 -66 -128q0 -41 8.5 -66.5t16.5 -41.5z" />
    <glyph glyph-name="sterling" unicode="&#xa3;" horiz-adv-x="556" 
d="M552 39q-74 -55 -140 -55q-28 0 -99 22t-110 22q-46 0 -120 -42l-60 83q126 81 126 179q0 26 -16 60h-110v81h63q-37 70 -37 121q0 79 53 136q68 72 204 72q111 0 172 -69q53 -60 53 -148v-24h-108v18q0 57 -35 93.5t-92 36.5q-68 0 -105 -41q-28 -32 -28 -69
q0 -41 47 -126h171v-81h-135q6 -22 6 -54q0 -70 -75 -147q44 11 77 11q34 0 92 -17t76 -17q40 0 78 36z" />
    <glyph glyph-name="currency" unicode="&#xa4;" horiz-adv-x="556" 
d="M543 544l-56 -51q46 -58 46 -142q0 -83 -47 -142l55 -54l-59 -56l-56 55q-61 -48 -148 -48q-86 0 -148 48l-55 -55l-59 56l54 54q-47 59 -47 142q0 84 46 142l-55 51l62 59l57 -53q63 44 145 44t145 -44l58 53zM440 351q0 64 -47.5 111t-114.5 47t-114.5 -47t-47.5 -111
q0 -65 47 -112.5t115 -47.5t115 47.5t47 112.5z" />
    <glyph glyph-name="yen" unicode="&#xa5;" horiz-adv-x="556" 
d="M570 688l-192 -295h147v-75h-193v-63h193v-75h-193v-180h-108v180h-192v75h192v63h-192v75h146l-193 295h124l169 -277l169 277h123z" />
    <glyph glyph-name="brokenbar" unicode="&#xa6;" horiz-adv-x="260" 
d="M177 448h-93v289h93v-289zM177 -19h-93v306h93v-306z" />
    <glyph glyph-name="section" unicode="&#xa7;" horiz-adv-x="556" 
d="M522 245q0 -96 -98 -159q47 -50 47 -110q0 -75 -62 -123q-56 -44 -129 -44q-95 0 -148 47q-59 52 -59 157h108q0 -110 87 -110q95 0 95 71q0 37 -51 70l-210 137q-69 45 -69 127q0 100 94 158q-41 45 -41 95q0 67 43 117q52 59 147 59q79 0 129 -38q65 -51 65 -161h-104
q-4 46 -15 66q-20 39 -75 39q-31 0 -54 -15q-28 -19 -28 -54q0 -41 68 -80l146 -84q114 -66 114 -165zM419 226q0 51 -57 85l-169 102q-57 -30 -57 -83q0 -50 40 -75l184 -117q59 38 59 88z" />
    <glyph glyph-name="dieresis" unicode="&#xa8;" 
d="M425 745h-93v80h93v-80zM280 745h-94v80h94v-80z" />
    <glyph glyph-name="copyright" unicode="&#xa9;" horiz-adv-x="737" 
d="M762 360q0 -162 -115.5 -270.5t-276.5 -108.5q-162 0 -278 108.5t-116 270.5q0 160 117 270q115 107 277 107q161 0 275 -107q117 -110 117 -270zM666 360q0 126 -86 211t-210 85q-126 0 -212 -85t-86 -211q0 -128 86 -213t212 -85q125 0 210.5 85t85.5 213zM581 301
q-16 -83 -70 -130t-128 -47q-105 0 -169 67.5t-64 169.5q0 103 62 169t167 66q79 0 132 -43q57 -46 69 -130h-87q-20 89 -113 89q-64 0 -99 -42t-35 -108q0 -64 37.5 -109t99.5 -45q44 0 73 24.5t36 68.5h89z" />
    <glyph glyph-name="ordfeminine" unicode="&#xaa;" horiz-adv-x="259" 
d="M246 611l-1 -209l-70 2l-1 1q-21 -6 -41 -6q-62 0 -88 20q-44 34 -44 95q0 41 21 74.5t58 41.5q27 6 43 6q29 0 44 -10v-14q0 29 39 29q40 0 40 -30zM171 458l-3 102q-40 33 -52 33q-36 0 -36 -62q0 -27 11 -47q17 -31 49 -29q2 0 31 3z" />
    <glyph glyph-name="guillemotleft" unicode="&#xab;" horiz-adv-x="556" 
d="M469 108l-177 124v90l177 124v-101l-99 -68l99 -68v-101zM264 108l-177 124v90l177 124v-101l-99 -68l99 -68v-101z" />
    <glyph glyph-name="logicalnot" unicode="&#xac;" horiz-adv-x="584" 
d="M555 108h-93v195h-433v87h526v-282z" />
    <glyph glyph-name="minus" unicode="&#xad;" horiz-adv-x="463" 
d="M465 348q0 -28 -51 -28q-13 0 -39.5 2t-34.5 2q-123 -4 -302 -21q-41 23 -41 41q0 17 37 37l376 12q35 -8 35 -9q20 -9 20 -36z" />
    <glyph glyph-name="minus" unicode="&#x2212;" horiz-adv-x="463" 
d="M465 348q0 -28 -51 -28q-13 0 -39.5 2t-34.5 2q-123 -4 -302 -21q-41 23 -41 41q0 17 37 37l376 12q35 -8 35 -9q20 -9 20 -36z" />
    <glyph glyph-name="registered" unicode="&#xae;" horiz-adv-x="737" 
d="M762 360q0 -162 -115.5 -270.5t-276.5 -108.5q-162 0 -278 108.5t-116 270.5q0 160 117 270q115 107 277 107q161 0 275 -107q117 -110 117 -270zM666 360q0 126 -86 211t-210 85q-126 0 -212 -85t-86 -211q0 -128 86 -213t212 -85q125 0 210.5 85t85.5 213zM553 148h-93
l-109 175h-57v-175h-82v422h167q156 0 156 -124q0 -97 -102 -118zM451 449q0 51 -81 51h-76v-107h65q46 0 64 7q28 12 28 49z" />
    <glyph glyph-name="macron" unicode="&#xaf;" horiz-adv-x="333" 
d="M333 627h-333v57h333v-57z" />
    <glyph glyph-name="macron" unicode="&#x2c9;" horiz-adv-x="333" 
d="M333 627h-333v57h333v-57z" />
    <glyph glyph-name="degree" unicode="&#xb0;" horiz-adv-x="400" 
d="M356 557q0 -62 -44.5 -104t-111.5 -42t-111.5 42t-44.5 104t44.5 104t111.5 42t111.5 -42t44.5 -104zM288 557q0 34 -26 60.5t-62 26.5t-62 -26.5t-26 -60.5t26 -60.5t62 -26.5t62 26.5t26 60.5z" />
    <glyph glyph-name="plusminus" unicode="&#xb1;" horiz-adv-x="476" 
d="M465 346q0 -32 -51 -32q-12 0 -38.5 2t-35.5 2q-11 -1 -64 -3l16 -161q-28 -39 -49 -39q-20 0 -45 36l-7 157l-153 -15q-41 28 -41 49q0 19 37 43l154 -13l-5 144q6 17 11 34q11 18 44 18q34 0 34 -48q0 -13 -3 -38.5t-3 -33.5q2 -21 4 -63q40 5 140 14q34 -10 35 -10
q20 -12 20 -43zM465 56q0 -33 -51 -33q-13 0 -39.5 2.5t-34.5 2.5q-123 -6 -302 -25q-41 28 -41 48t37 44l376 13q32 -8 35 -9q20 -12 20 -43z" />
    <glyph glyph-name="twosuperior" unicode="&#xb2;" horiz-adv-x="292" 
d="M299 484l-24 -84h-250q-26 -5 -37 28q-4 22 13 38q12 18 66 50q72 42 89 55q45 33 45 63q0 19 -27.5 40.5t-51.5 21.5q-18 0 -43 -9q-66 -23 -67 -23q-9 0 -6 8q13 36 67 60q41 18 79 18q83 0 131 -77q6 -10 6 -24q0 -53 -71 -106q-21 -16 -74 -43q-47 -24 -63 -40z" />
    <glyph glyph-name="threesuperior" unicode="&#xb3;" horiz-adv-x="262" 
d="M269 515q0 -62 -61 -94q-41 -21 -112 -21q-7 0 -17 1q-38 2 -81 8l4 54q53 -17 77 -17q75 0 99 51q4 12 4 20q0 29 -17 50q-21 27 -60 27q-41 0 -65 -8l-4 18q-3 8 -14 30q29 0 49.5 1t30.5 1q53 8 51 26q-4 41 -79 41q-34 0 -54 -10q-2 0 -6 15t-4 24q0 12 7 8
q17 1 56 5q10 1 19 1q69 0 99 -20q37 -24 37 -49q0 -28 -49 -51q90 -30 90 -111z" />
    <glyph glyph-name="acute" unicode="&#xb4;" 
d="M444 842l-102 -109h-79l62 109h119z" />
    <glyph glyph-name="mu1" unicode="&#xb5;" horiz-adv-x="556" 
d="M499 -6h-103v55q-53 -69 -158 -69q-45 0 -72 20v-207h-108v730h108v-347q0 -103 91 -103q71 0 106 54q28 43 28 106v290h108v-529z" />
    <glyph glyph-name="mu1" unicode="&#x3bc;" horiz-adv-x="556" 
d="M499 -6h-103v55q-53 -69 -158 -69q-45 0 -72 20v-207h-108v730h108v-347q0 -103 91 -103q71 0 106 54q28 43 28 106v290h108v-529z" />
    <glyph glyph-name="paragraph" unicode="&#xb6;" horiz-adv-x="537" 
d="M507 -173h-93v813h-99v-813h-93v506q-95 3 -154.5 57t-59.5 132q0 196 241 196h258v-891z" />
    <glyph glyph-name="periodcentered" unicode="&#xb7;" horiz-adv-x="168" 
d="M148 348q0 -24 -19 -39.5t-49 -15.5q-27 0 -48 17.5t-21 38.5q0 24 20 40t49 16t48.5 -16.5t19.5 -40.5z" />
    <glyph glyph-name="periodcentered" unicode="&#x2219;" horiz-adv-x="168" 
d="M148 348q0 -24 -19 -39.5t-49 -15.5q-27 0 -48 17.5t-21 38.5q0 24 20 40t49 16t48.5 -16.5t19.5 -40.5z" />
    <glyph glyph-name="cedilla" unicode="&#xb8;" horiz-adv-x="333" 
d="M269 -131q0 -41 -34.5 -67.5t-93.5 -26.5q-48 0 -108 24l24 53q44 -15 70 -15q46 0 46 29q0 27 -38 27q-11 0 -41 -10l-27 28l71 89h72l-43 -53h8q49 0 74 -27q20 -21 20 -51z" />
    <glyph glyph-name="onesuperior" unicode="&#xb9;" horiz-adv-x="139" 
d="M134 731l-9 -329h-72l2 244q-1 13 1 32q-19 -25 -26 -25q-9 0 -27 32l39 45q6 25 44 25q42 0 48 -24z" />
    <glyph glyph-name="ordmasculine" unicode="&#xba;" horiz-adv-x="218" 
d="M221 504q0 -39 -30 -69t-70 -36h-8q-5 -1 -7 -1q-45 0 -74 21q-44 32 -44 94q0 40 21 74.5t57 46.5q18 6 35 6q55 0 90 -40q30 -35 30 -96zM152 519q0 37 -15 50q-30 26 -46 26q-28 0 -28 -56q0 -23 10 -49q13 -36 35 -36t34 23q10 18 10 42z" />
    <glyph glyph-name="guillemotright" unicode="&#xbb;" horiz-adv-x="556" 
d="M469 232l-177 -124v101l99 68l-99 68v101l177 -124v-90zM264 232l-177 -124v101l99 68l-99 68v101l177 -124v-90z" />
    <glyph glyph-name="onequarter" unicode="&#xbc;" horiz-adv-x="317" 
d="M201 736l-8 -308h-66l2 228q-1 11 1 29q-5 -7 -11.5 -15t-11.5 -8q-9 0 -24 31l35 42q7 23 40 23q39 0 43 -22zM318 362q0 -26 -49 -21q-33 3 -233 -2q-39 17 -39 38q0 19 36 32l233 -6l34 -4q18 -7 18 -37zM262 120q0 -11 -6 -20.5t-11 -9.5q-13 1 -41 2l-5 -91h-66
l-4 96q-105 7 -93 7q-16 0 -19 38q4 5 13 16l108 162q14 10 31 10q18 0 29.5 -8.5t11.5 -18.5l-3 -157l36 2q5 0 12 -9t7 -19zM130 270l-88 -130q3 -3 6.5 -7t11.5 -4q24 0 66 -1z" />
    <glyph glyph-name="onehalf" unicode="&#xbd;" horiz-adv-x="317" 
d="M201 736l-8 -308h-66l2 228q-1 11 1 29q-17 -22 -24 -22q-9 0 -23 30l35 42q7 23 40 23q39 0 43 -22zM318 362q0 -26 -49 -21q-33 3 -233 -2q-39 17 -39 38q0 19 36 32l233 -6l34 -4q18 -7 18 -37zM296 80l-21 -80h-227q-23 -5 -34 27q-4 20 13 36q9 14 100 70
q79 49 79 85q0 21 -24 39t-46 18q-20 0 -40 -8q-53 -21 -61 -21t-5 8q13 33 61 56q36 17 71 17q77 0 119 -72q6 -10 6 -22q0 -50 -65 -100q-18 -14 -65 -39q-42 -22 -57 -38z" />
    <glyph glyph-name="threequarters" unicode="&#xbe;" horiz-adv-x="317" 
d="M296 535q0 -56 -57 -89q-41 -19 -99 -19q-8 0 -16 1q-37 2 -73 9l3 52q34 -17 70 -17q70 0 90 46q3 15 3 19q0 26 -15 46q-20 25 -55 25q-36 0 -58 -8l-4 18q-3 8 -13 29q27 0 45 1h27q48 7 46 23q-4 37 -70 37q-33 0 -49 -8q-2 0 -6 14t-4 23q0 8 4 8q2 0 3 -1
q16 2 51 5q5 1 17 1q59 0 89 -18q34 -21 34 -47q0 -25 -44 -48q81 -27 81 -102zM318 368q0 -26 -49 -21q-33 3 -233 -2q-39 16 -39 38q0 19 36 32l233 -6l34 -4q18 -7 18 -37zM262 120q0 -11 -6 -20.5t-11 -9.5q-27 1 -41 1l-5 -90h-66l-4 96q-105 7 -93 7q-16 0 -19 38
q4 5 13 16l108 162q14 10 31 10q18 0 29.5 -8.5t11.5 -18.5l-3 -157l36 2q5 0 12 -9t7 -19zM139 284l-97 -144l6.5 -6.5t11.5 -3.5q24 0 75 -1z" />
    <glyph glyph-name="questiondown" unicode="&#xbf;" horiz-adv-x="423" 
d="M293 524q0 -27 -20 -45.5t-49 -18.5q-27 0 -47 19t-20 45q0 28 20 46t49 18q36 0 55 -26q12 -17 12 -38zM416 65q0 -28 -21 -70.5t-44 -55.5q-80 -47 -149 -47q-80 0 -153 57q-55 43 -55 133q0 75 39 110q30 26 73 54q33 21 44 35q15 20 19 64q3 27 30 54t47 27
q6 0 10 -4q13 -16 15 -40l1 -19q0 -59 -44 -120l-82 -95q-44 -52 -44 -86q0 -27 40 -64q44 -40 90 -40q38 0 72 32q21 20 46 62q22 35 28 38q11 5 18 5q20 0 20 -30z" />
    <glyph glyph-name="Agrave" unicode="&#xc0;" 
d="M613 32q0 -32 -29 -32q-33 0 -63 30l-101 288l-171 -29l-87 -260q-28 -34 -80 -34q-35 0 -62.5 15.5t-27.5 36.5q0 19 13 38q48 49 94 179q25 69 69 230q36 131 53 161q13 24 36 32q19 6 61 6q33 0 44 -11q6 -5 23 -38q14 -27 96 -282q75 -232 125 -303q7 -15 7 -27z
M394 394l-56 161l-57 -168zM362 736h-77l-107 128h121z" />
    <glyph glyph-name="Aacute" unicode="&#xc1;" 
d="M613 32q0 -32 -29 -32q-33 0 -63 30l-101 288l-171 -29l-87 -260q-28 -34 -80 -34q-35 0 -62.5 15.5t-27.5 36.5q0 19 13 38q48 49 94 179q25 69 69 230q36 131 53 161q13 24 36 32q19 6 61 6q33 0 44 -11q6 -5 23 -38q14 -27 96 -282q75 -232 125 -303q7 -15 7 -27z
M394 394l-56 161l-57 -168zM444 864l-102 -128h-79l62 128h119z" />
    <glyph glyph-name="Acircumflex" unicode="&#xc2;" 
d="M613 32q0 -32 -29 -32q-33 0 -63 30l-101 288l-171 -29l-87 -260q-28 -34 -80 -34q-35 0 -62.5 15.5t-27.5 36.5q0 19 13 38q48 49 94 179q25 69 69 230q36 131 53 161q13 24 36 32q19 6 61 6q33 0 44 -11q6 -5 23 -38q14 -27 96 -282q75 -232 125 -303q7 -15 7 -27z
M394 394l-56 161l-57 -168zM446 736h-106l-38 58l-39 -58h-105l99 128h85z" />
    <glyph glyph-name="Atilde" unicode="&#xc3;" 
d="M613 32q0 -32 -29 -32q-33 0 -63 30l-101 288l-171 -29l-87 -260q-28 -34 -80 -34q-35 0 -62.5 15.5t-27.5 36.5q0 19 13 38q48 49 94 179q25 69 69 230q36 131 53 161q13 23 36 31q19 7 61 7q33 0 44 -11q6 -5 23 -38q14 -27 96 -282q75 -233 125 -303q7 -15 7 -27z
M394 394l-56 161l-57 -168zM440 845q-3 -108 -87 -108q-10 0 -51 18t-52 18q-20 0 -20 -37h-72q0 49 24 78.5t66 29.5q9 0 49 -16.5t53 -16.5q11 0 14.5 6.5t5.5 27.5h70z" />
    <glyph glyph-name="Adieresis" unicode="&#xc4;" 
d="M613 32q0 -32 -29 -32q-33 0 -63 30l-101 288l-171 -30l-87 -259q-28 -34 -80 -34q-35 0 -62.5 15.5t-27.5 36.5q0 19 13 38q48 49 94 179q25 69 69 230q36 131 53 161q13 23 36 31q19 7 61 7q33 0 44 -11q6 -5 23 -38q14 -27 96 -282q75 -233 125 -303q7 -15 7 -27z
M394 394l-56 161l-57 -168zM425 736h-93v99h93v-99zM280 736h-94v99h94v-99z" />
    <glyph glyph-name="Aring" unicode="&#xc5;" 
d="M613 32q0 -32 -29 -32q-33 0 -63 30l-101 288l-171 -29l-87 -260q-28 -34 -80 -34q-35 0 -62.5 15.5t-27.5 36.5q0 19 13 38q48 49 94 179q25 69 69 230q36 131 53 161q13 24 36 32q19 6 61 6q33 0 44 -10q6 -6 23 -38q14 -28 96 -283q75 -232 125 -303q7 -15 7 -27z
M394 394l-56 162l-57 -169zM394 788q2 -33 -22 -57.5t-57 -25.5t-57.5 21t-25.5 56q-1 33 21.5 57.5t55.5 25.5q33 2 58.5 -21t26.5 -56zM344 790q-2 26 -30 26q-33 0 -31 -32q2 -27 31 -27q32 0 30 33z" />
    <glyph glyph-name="AE" unicode="&#xc6;" horiz-adv-x="1024" 
d="M1013 57q0 -25 -12 -42t-26 -20l-449 1q-8 6 -16 11h-20l-5 124l-65 191l-171 -30l-87 -263q-24 -30 -78 -30q-36 0 -64 14t-28 35q0 19 13 38q48 50 94 181q25 70 69 233q36 132 53 163q13 24 36 32q19 6 61 6q33 0 44 -11q6 -5 23 -38q22 -43 90 -265l-9 265
q-1 19 22 34t58 15q28 0 47 -11l334 7q38 1 38 -53q0 -23 -16 -41q-13 -13 -27 -17l-289 5l-5 -123l239 9q21 -33 21 -51q0 -28 -34 -28q-100 0 -229 -24l-9 -272l359 13q14 0 26 -16.5t12 -41.5zM394 399l-56 163l-57 -170z" />
    <glyph glyph-name="Ccedilla" unicode="&#xc7;" horiz-adv-x="618" 
d="M623 112q9 -10 9 -20q0 -37 -111 -72q-100 -32 -183 -34l-1 -4q64 -14 64 -64q0 -36 -38 -59t-97 -23q-27 0 -54 5l5 63q66 -2 56 -3q43 2 43 21q0 11 -17 13q-4 1 -48 3l16 54q-111 13 -161 52q-60 47 -93 125q-30 73 -30 159q0 123 57 219q62 103 165 128q63 15 97 15
q40 0 89 -19q29 -11 136 -61q57 -27 57 -57q0 -32 -50 -32q-65 0 -147 57q-52 36 -91 36q-70 0 -107 -96q-30 -76 -30 -175q0 -41 8 -70q45 -164 211 -170q68 -2 129 15.5t67 17.5q26 0 49 -24z" />
    <glyph glyph-name="Egrave" unicode="&#xc8;" horiz-adv-x="524" 
d="M543 60q0 -24 -12 -41t-26 -20l-458 1q0 3 -4 3q-7 0 -22 -8l-25 650q-1 19 22 33.5t58 14.5q28 0 47 -11l334 7q38 1 38 -52q0 -45 -43 -57l-289 5l-5 -121l239 9q21 -33 21 -51q0 -28 -34 -28q-106 0 -229 -22l-9 -268l359 13q14 0 26 -16t12 -41zM306 736h-77
l-107 128h121z" />
    <glyph glyph-name="Eacute" unicode="&#xc9;" horiz-adv-x="524" 
d="M543 60q0 -24 -12 -41t-26 -20l-458 1q0 3 -4 3q-7 0 -22 -8l-25 650q-1 19 22 33.5t58 14.5q28 0 47 -11l334 7q38 1 38 -52q0 -45 -43 -57l-289 5l-5 -121l239 9q21 -33 21 -51q0 -28 -34 -28q-106 0 -229 -22l-9 -268l359 13q14 0 26 -16t12 -41zM404 865l-102 -128
h-79l62 128h119z" />
    <glyph glyph-name="Ecircumflex" unicode="&#xca;" horiz-adv-x="524" 
d="M543 60q0 -24 -12 -41t-26 -20l-458 1q0 3 -4 3q-7 0 -22 -8l-25 650q-1 19 22 33.5t58 14.5q28 0 47 -11l334 7q38 1 38 -52q0 -45 -43 -57l-289 5l-5 -121l239 9q21 -33 21 -51q0 -28 -34 -28q-106 0 -229 -22l-9 -268l359 13q14 0 26 -16t12 -41zM410 736h-106l-38 58
l-39 -58h-105l99 128h85z" />
    <glyph glyph-name="Edieresis" unicode="&#xcb;" horiz-adv-x="524" 
d="M543 60q0 -24 -12 -41t-26 -20l-458 1q0 3 -4 3q-7 0 -22 -8l-25 650q-1 18 22 33t58 15q28 0 47 -11l334 7q38 0 38 -53q0 -44 -43 -56l-289 5l-5 -122l239 10q21 -33 21 -51q0 -28 -34 -28q-106 0 -229 -23l-9 -267l359 13q14 0 26 -16t12 -41zM381 737h-93v99h93v-99z
M236 737h-94v99h94v-99z" />
    <glyph glyph-name="Igrave" unicode="&#xcc;" horiz-adv-x="204" 
d="M179 645l-21 -649l-122 2l-25 646q-1 20 21.5 34.5t58.5 14.5q35 0 61 -16q22 -14 27 -32zM148 736h-77l-107 128h121z" />
    <glyph glyph-name="Iacute" unicode="&#xcd;" horiz-adv-x="204" 
d="M179 645l-21 -649l-122 2l-25 646q-1 20 21.5 34.5t58.5 14.5q35 0 61 -16q22 -14 27 -32zM232 865l-102 -128h-79l62 128h119z" />
    <glyph glyph-name="Icircumflex" unicode="&#xce;" horiz-adv-x="204" 
d="M179 645l-21 -649l-122 2l-25 646q-1 20 21.5 34.5t58.5 14.5q35 0 61 -16q22 -14 27 -32zM234 736h-106l-38 58l-39 -58h-105l99 128h85z" />
    <glyph glyph-name="Idieresis" unicode="&#xcf;" horiz-adv-x="204" 
d="M179 645l-21 -649l-122 2l-25 646q-1 20 21.5 34.5t58.5 14.5q35 0 61 -16q22 -14 27 -32zM213 736h-93v99h93v-99zM68 736h-94v99h94v-99z" />
    <glyph glyph-name="Eth" unicode="&#xd0;" horiz-adv-x="619" 
d="M625 332q0 -179 -118 -274q-27 -22 -89 -40q-68 -21 -131 -21q-20 0 -38 2q-33 4 -97 12v-11h-135l-5 288h-46v105h45l-4 270q30 34 78 34q44 0 78 -23q56 20 121 20q155 0 248 -100.5t93 -261.5zM464 311q0 100 -43 196q-52 116 -134 116q-36 0 -118 -54l-5 -176h92
v-105h-95l-5 -172q39 -15 92 -15q166 0 211 169q5 19 5 41z" />
    <glyph glyph-name="Ntilde" unicode="&#xd1;" horiz-adv-x="548" 
d="M539 631q0 -7 -4 -23v-220q-6 -52 -6 -96q0 -52 3 -152.5t3 -116.5q-6 -31 -59 -31q-42 0 -75 25q0 22 2.5 90t2.5 100q0 65 -7 79q-22 42 -103 111l-152 124l-11 -526l-115 2l-19 644q-1 20 18 36t54 16q54 0 70 -33l3 -2l255 -252l-3 248q22 30 68 30q30 0 52.5 -14.5
t22.5 -38.5zM414 845q-3 -108 -87 -108q-10 0 -51 18t-52 18q-20 0 -20 -37h-72q0 50 24 79t66 29q9 0 49 -16.5t53 -16.5q11 0 14.5 6.5t5.5 27.5h70z" />
    <glyph glyph-name="Ograve" unicode="&#xd2;" 
d="M615 301q0 -70 -16 -122q-22 -71 -90 -125q-72 -56 -156 -61q-69 -4 -147 21q-69 22 -101 49q-118 103 -118 278q0 114 56 204q60 96 163 125q52 15 106 15q142 0 223 -99q37 -45 59 -126q21 -77 21 -159zM481 331q-3 106 -35 178q-34 78 -93 93q-24 6 -39 6
q-79 0 -119 -89q-32 -70 -32 -169q0 -45 9 -77q23 -83 69.5 -132t109.5 -49q11 0 32 4q47 9 75 84q25 68 23 151zM360 736h-77l-107 128h121z" />
    <glyph glyph-name="Oacute" unicode="&#xd3;" 
d="M615 301q0 -70 -16 -122q-22 -71 -90 -125q-72 -56 -156 -61q-69 -4 -147 21q-69 22 -101 49q-118 103 -118 278q0 114 56 204q60 96 163 125q52 15 106 15q142 0 223 -99q37 -45 59 -126q21 -77 21 -159zM481 331q-3 106 -35 178q-34 78 -93 93q-24 6 -39 6
q-79 0 -119 -89q-32 -70 -32 -169q0 -45 9 -77q23 -83 69.5 -132t109.5 -49q11 0 32 4q47 9 75 84q25 68 23 151zM440 864l-102 -128h-79l62 128h119z" />
    <glyph glyph-name="Ocircumflex" unicode="&#xd4;" 
d="M615 301q0 -70 -16 -122q-22 -71 -90 -125q-72 -56 -156 -61q-69 -4 -147 21q-69 22 -101 49q-118 103 -118 278q0 114 56 204q60 96 163 125q52 15 106 15q142 0 223 -99q37 -45 59 -126q21 -77 21 -159zM481 331q-3 106 -35 178q-34 78 -93 93q-24 6 -39 6
q-79 0 -119 -89q-32 -70 -32 -169q0 -45 9 -77q23 -83 69.5 -132t109.5 -49q11 0 32 4q47 9 75 84q25 68 23 151zM450 736h-106l-38 58l-39 -58h-105l99 128h85z" />
    <glyph glyph-name="Otilde" unicode="&#xd5;" 
d="M615 301q0 -70 -16 -122q-22 -71 -90 -125q-72 -56 -156 -61q-69 -4 -147 21q-69 22 -101 49q-118 103 -118 278q0 114 56 204q60 96 163 125q52 15 106 15q142 0 223 -99q37 -45 59 -126q21 -77 21 -159zM481 331q-3 106 -35 178q-34 78 -93 93q-24 6 -39 6
q-79 0 -119 -89q-32 -70 -32 -169q0 -45 9 -77q23 -83 69.5 -132t109.5 -49q11 0 32 4q47 9 75 84q25 68 23 151zM456 846q-3 -108 -87 -108q-10 0 -51 18t-52 18q-20 0 -20 -37h-72q0 50 24 79t66 29q9 0 49 -16.5t53 -16.5q11 0 14.5 6.5t5.5 27.5h70z" />
    <glyph glyph-name="Odieresis" unicode="&#xd6;" 
d="M615 301q0 -70 -16 -122q-22 -71 -90 -125q-72 -56 -156 -61q-69 -4 -147 21q-69 22 -101 49q-118 103 -118 278q0 114 56 204q60 96 163 125q52 15 106 15q142 0 223 -99q37 -45 59 -126q21 -77 21 -159zM481 331q-3 106 -35 178q-34 78 -93 93q-24 6 -39 6
q-79 0 -119 -89q-32 -70 -32 -169q0 -45 9 -77q23 -83 69.5 -132t109.5 -49q11 0 32 4q47 9 75 84q25 68 23 151zM421 737h-93v99h93v-99zM276 737h-94v99h94v-99z" />
    <glyph glyph-name="multiply" unicode="&#xd7;" horiz-adv-x="584" 
d="M518 220l-72 -70l-154 143l-154 -143l-72 68l152 144l-153 145l75 67l152 -143l154 144l71 -69l-152 -144z" />
    <glyph glyph-name="Oslash" unicode="&#xd8;" 
d="M615 305q0 -72 -16 -125q-22 -71 -91 -125q-72 -58 -156 -62q-58 -3 -117 11l-8 -27h-98l20 59q-27 13 -44 28q-118 104 -118 280q0 115 56 206q60 98 163 129q50 15 105 15q20 0 30 -1l7 24h92l-13 -44q63 -23 108 -80q37 -46 59 -128q21 -78 21 -160zM481 335
q-3 177 -80 249l-133 -464q37 -26 83 -26q15 0 32 3q47 8 75 85q25 68 23 153zM319 616q-81 3 -123 -88q-33 -72 -33 -174q0 -85 37 -151z" />
    <glyph glyph-name="Ugrave" unicode="&#xd9;" horiz-adv-x="613" 
d="M614 421q0 -153 -27 -238q-24 -75 -82 -127q-65 -58 -147 -63q-69 -4 -147 21q-70 22 -101 49q-108 96 -108 252q0 44 10.5 138.5t10.5 145.5q0 8 -2 23.5t-2 22.5q0 39 55 39q34 0 70.5 -8.5t39.5 -17.5q15 -33 15 -92q0 -46 -13 -138.5t-13 -123.5q0 -17 4 -31
q23 -83 69.5 -132t109.5 -49q11 0 32 4q48 9 83 84q34 72 32 151q-4 150 -4 157q-4 60 -22 109q-3 9 -3 19q0 27 21.5 49.5t47.5 22.5q71 0 71 -267zM366 736h-77l-106 129h121z" />
    <glyph glyph-name="Uacute" unicode="&#xda;" horiz-adv-x="613" 
d="M614 421q0 -153 -27 -238q-24 -75 -82 -127q-65 -58 -147 -63q-69 -4 -147 21q-70 22 -101 49q-108 96 -108 252q0 44 10.5 138.5t10.5 145.5q0 8 -2 23.5t-2 22.5q0 39 55 39q34 0 70.5 -8.5t39.5 -17.5q15 -33 15 -92q0 -46 -13 -138.5t-13 -123.5q0 -17 4 -31
q23 -83 69.5 -132t109.5 -49q11 0 32 4q48 9 83 84q34 72 32 151q-4 150 -4 157q-4 60 -22 109q-3 9 -3 19q0 27 21.5 49.5t47.5 22.5q71 0 71 -267zM453 865l-101 -129h-79l62 129h118z" />
    <glyph glyph-name="Ucircumflex" unicode="&#xdb;" horiz-adv-x="613" 
d="M614 421q0 -153 -27 -238q-24 -75 -82 -127q-65 -58 -147 -63q-69 -4 -147 21q-70 22 -101 49q-108 96 -108 252q0 44 10.5 138.5t10.5 145.5q0 8 -2 23.5t-2 22.5q0 39 55 39q34 0 70.5 -8.5t39.5 -17.5q15 -33 15 -92q0 -46 -13 -138.5t-13 -123.5q0 -17 4 -31
q23 -83 69.5 -132t109.5 -49q11 0 32 4q48 9 83 84q34 72 32 151q-4 150 -4 157q-4 60 -22 109q-3 9 -3 19q0 27 21.5 49.5t47.5 22.5q71 0 71 -267zM472 737h-106l-38 60l-39 -60h-105l99 129h85z" />
    <glyph glyph-name="Udieresis" unicode="&#xdc;" horiz-adv-x="613" 
d="M614 421q0 -153 -27 -238q-24 -75 -82 -127q-65 -58 -147 -63q-69 -4 -147 21q-70 22 -101 49q-108 96 -108 252q0 43 10.5 138t10.5 146q0 8 -2 23.5t-2 22.5q0 39 55 39q34 0 70.5 -8.5t39.5 -17.5q15 -34 15 -92q0 -46 -13 -138.5t-13 -123.5q0 -17 4 -31
q23 -83 69.5 -132t109.5 -49q11 0 32 4q48 9 83 84q34 72 32 151q-4 150 -4 157q-4 60 -22 109q-3 9 -3 18q0 28 21.5 50.5t47.5 22.5q71 0 71 -267zM451 737h-94v99h94v-99zM305 737h-93v99h93v-99z" />
    <glyph glyph-name="Yacute" unicode="&#xdd;" horiz-adv-x="591" 
d="M618 624q-68 -73 -130 -183l-88 -168q-15 -29 -15 -202v-53q-32 -26 -74 -26q-47 0 -76 28q-1 66 -3 133q-3 88 -13 106q-44 80 -87 160q-64 106 -134 177q-13 19 -13 38q0 40 63 51q23 4 61 -7t47 -26l178 -303l180 302q28 28 54 28q8 0 17 -2q27 -6 33 -53zM452 865
l-101 -129h-79l62 129h118z" />
    <glyph glyph-name="Thorn" unicode="&#xde;" horiz-adv-x="556" 
d="M526 272q0 -118 -69 -198.5t-166 -80.5q-74 0 -127 50v-233h-108v915h108v-233q53 51 132 51q99 0 164.5 -77t65.5 -194zM416 273q0 87 -37 137q-34 46 -91 46q-55 0 -92 -49q-40 -53 -40 -142q0 -86 37 -135q34 -46 91 -46q59 0 94 46q38 50 38 143z" />
    <glyph glyph-name="germandbls" unicode="&#xdf;" horiz-adv-x="634" 
d="M643 227q0 -121 -117 -184q-29 -16 -90 -28q-68 -14 -132 -14q-53 0 -94 38q-37 34 -37 65q0 24 24 24q13 0 40 -20t45 -20q82 0 125 20q50 22 74 79q4 14 4 25q0 62 -45 119q-54 68 -139 68q-47 0 -99 -21q-27 -11 -48 -20l-10 -241q-4 -97 -135 -117l-10 591
q34 56 103 77q40 11 162 22q12 1 35 1q58 0 116 -12q55 -12 77 -27q69 -47 69 -93q0 -61 -118 -108h2q94 -24 148 -89q50 -60 50 -135zM431 530q-5 53 -52 74q-38 17 -116 17q-59 0 -102 -16l-5 -163q78 24 163 24q116 21 112 64z" />
    <glyph glyph-name="agrave" unicode="&#xe0;" horiz-adv-x="517" 
d="M481 422l-1 -420l-122 3l-4 6q-55 -12 -89 -12q-121 0 -170 37q-84 64 -84 188q0 80 40.5 145.5t111.5 82.5q54 13 82 13q52 0 98 -30q27 39 69 39q34 0 53 -17q16 -14 16 -35zM351 102l-6 220q-28 23 -56 47q-34 25 -57 25q-38 0 -62 -44q-21 -39 -21 -92q0 -38 7 -60
q35 -109 125 -104q32 1 70 8zM303 538h-77l-106 128h121z" />
    <glyph glyph-name="aacute" unicode="&#xe1;" horiz-adv-x="517" 
d="M481 422l-1 -420l-122 3l-4 6q-55 -12 -89 -12q-121 0 -170 37q-84 64 -84 188q0 80 40.5 145.5t111.5 82.5q54 13 82 13q52 0 98 -30q27 39 69 39q34 0 53 -17q16 -14 16 -35zM351 102l-6 220q-28 23 -56 47q-34 25 -57 25q-38 0 -62 -44q-21 -39 -21 -92q0 -38 7 -60
q35 -109 125 -104q32 1 70 8zM393 665l-101 -128h-79l62 128h118z" />
    <glyph glyph-name="acircumflex" unicode="&#xe2;" horiz-adv-x="517" 
d="M481 422l-1 -420l-122 3l-4 6q-55 -12 -89 -12q-121 0 -170 37q-84 64 -84 188q0 80 40.5 145.5t111.5 82.5q54 13 82 13q52 0 98 -30q27 39 69 39q34 0 53 -17q16 -14 16 -35zM351 102l-6 220q-28 23 -56 47q-34 25 -57 25q-38 0 -62 -44q-21 -39 -21 -92q0 -38 7 -60
q35 -109 125 -104q32 1 70 8zM409 538h-106l-38 59l-39 -59h-105l99 128h85z" />
    <glyph glyph-name="atilde" unicode="&#xe3;" horiz-adv-x="517" 
d="M481 421l-1 -419l-122 3l-4 6q-55 -12 -89 -12q-121 0 -170 37q-84 64 -84 188q0 80 39 143q42 68 113 85q54 13 82 13q52 0 98 -30q27 39 69 39q34 0 53 -17q16 -15 16 -36zM351 102l-6 220q-28 23 -56 47q-34 25 -57 25q-38 0 -62 -44q-21 -39 -21 -92q0 -38 7 -60
q35 -109 125 -104q32 1 70 8zM398 645q0 -106 -86 -106q-11 0 -52 17.5t-51 17.5q-19 0 -19 -37h-72q0 50 23.5 78.5t65.5 29.5q10 0 49.5 -16.5t52.5 -16.5q16 0 20 33h69z" />
    <glyph glyph-name="adieresis" unicode="&#xe4;" horiz-adv-x="517" 
d="M481 421l-1 -419l-122 3l-4 6q-55 -12 -89 -12q-121 0 -170 37q-84 64 -84 187q0 81 39 144q42 68 113 85q54 13 82 13q52 0 98 -30q27 39 69 39q34 0 53 -17q16 -15 16 -36zM351 102l-6 220q-28 23 -56 47q-34 25 -57 25q-38 0 -62 -44q-21 -40 -21 -92q0 -38 7 -60
q35 -109 125 -104q32 1 70 8zM362 538h-94v98h94v-98zM216 538h-94v98h94v-98z" />
    <glyph glyph-name="aring" unicode="&#xe5;" horiz-adv-x="517" 
d="M481 422l-1 -420l-122 3l-4 6q-55 -12 -89 -12q-121 0 -170 37q-84 64 -84 188q0 80 39 144q42 68 113 84q54 13 82 13q52 0 98 -30q27 39 69 39q34 0 53 -17q16 -14 16 -35zM351 102l-6 220q-28 23 -56 47q-34 25 -57 25q-38 0 -62 -44q-21 -39 -21 -92q0 -38 7 -60
q35 -109 125 -104q32 1 70 8zM348 589q0 -33 -23.5 -56.5t-56.5 -23.5t-56.5 23t-23.5 58q0 31 23.5 55.5t56.5 24.5t56.5 -23t23.5 -58zM269 558q30 0 30 33q0 31 -30 31q-29 0 -32 -33q0 -31 32 -31z" />
    <glyph glyph-name="ae" unicode="&#xe6;" horiz-adv-x="796" 
d="M782 72q0 -24 -67 -48q-62 -22 -120 -25q-56 -3 -115 15v-11l-122 2l-4 6q-55 -12 -89 -12q-121 0 -170 38q-84 65 -84 190q0 82 39 146q42 69 113 86q54 13 82 13q52 0 98 -30v-10q0 18 19 33.5t50 15.5q45 0 61 -28q51 20 106 20q62 0 146 -67q41 -33 41 -61
q0 -17 -14 -28q-6 -5 -102 -47q-107 -46 -164 -66q1 -1 1 -3q35 -111 124 -106q18 1 56 7q33 5 49 5q22 0 38 -7q28 -12 28 -28zM619 362q-48 35 -82 35q-44 0 -56 -63v-54q52 17 104 35q65 22 65 28q0 7 -12 11q-17 7 -19 8zM351 104l-2 56q-8 34 -8 68q0 24 5 54l-1 45
l-64 58q-41 34 -64 34q-37 0 -54 -53q-14 -42 -14 -104q0 -39 7 -61q34 -106 126 -106q22 0 69 9z" />
    <glyph glyph-name="ccedilla" unicode="&#xe7;" horiz-adv-x="436" 
d="M433 67q0 -26 -82 -51q-73 -22 -123 -22l-2 -7q67 -15 67 -63q0 -37 -38 -59.5t-96 -22.5q-27 0 -55 5l5 63q50 -3 57 -3q42 0 42 20q0 11 -17 13q-4 1 -48 3l15 58q-60 13 -83 31q-84 64 -84 192q0 83 39 148q42 69 113 86q59 14 83 14q29 0 98 -32q85 -40 85 -84
q0 -33 -44 -33q-20 0 -85.5 35t-85.5 35q-66 0 -66 -128q0 -40 9 -68q36 -111 124 -106q19 1 56 7q33 5 49 5q30 0 50 -13q17 -12 17 -23z" />
    <glyph glyph-name="egrave" unicode="&#xe8;" horiz-adv-x="443" 
d="M432 71q0 -24 -67 -47q-62 -22 -120 -25q-47 -2 -100 10q-49 12 -70 27q-84 64 -84 187q0 81 39 145q42 68 113 84q62 14 86 14q62 0 146 -66q41 -32 41 -61q0 -17 -14 -27q-7 -5 -102 -46q-108 -46 -164 -65q1 -5 1 -4q35 -108 124 -103q18 1 56 6q33 5 49 5q22 0 38 -6
q28 -12 28 -28zM299 338q-10 6 -30 19q-48 34 -82 34q-63 0 -61 -117l106 34q68 23 68 29zM268 537h-78l-106 128h121z" />
    <glyph glyph-name="eacute" unicode="&#xe9;" horiz-adv-x="443" 
d="M432 71q0 -24 -67 -47q-62 -22 -120 -25q-47 -2 -100 10q-49 12 -70 27q-84 64 -84 187q0 81 39 145q42 68 113 84q62 14 86 14q62 0 146 -66q41 -32 41 -61q0 -17 -14 -27q-7 -5 -102 -46q-108 -46 -164 -65q1 -5 1 -4q35 -108 124 -103q18 1 56 6q33 5 49 5q22 0 38 -6
q28 -12 28 -28zM299 338q-10 6 -30 19q-48 34 -82 34q-63 0 -61 -117l106 34q68 23 68 29zM342 665l-101 -128h-79l62 128h118z" />
    <glyph glyph-name="ecircumflex" unicode="&#xea;" horiz-adv-x="443" 
d="M432 71q0 -24 -67 -47q-62 -22 -120 -25q-47 -2 -100 10q-49 12 -70 27q-84 64 -84 187q0 81 39 145q42 68 113 84q62 14 86 14q62 0 146 -66q41 -32 41 -61q0 -17 -14 -27q-7 -5 -102 -46q-108 -46 -164 -65q1 -5 1 -4q35 -108 124 -103q18 1 56 6q33 5 49 5q22 0 38 -6
q28 -12 28 -28zM299 338q-10 6 -30 19q-48 34 -82 34q-63 0 -61 -117l106 34q68 23 68 29zM354 537l-106 3l-38 56l-39 -59h-106l100 128h84z" />
    <glyph glyph-name="edieresis" unicode="&#xeb;" horiz-adv-x="443" 
d="M432 71q0 -24 -67 -47q-62 -22 -120 -25q-47 -2 -100 10q-49 12 -70 27q-84 64 -84 186q0 82 39 146q42 68 113 84q62 14 86 14q62 0 146 -66q41 -32 41 -61q0 -17 -14 -27q-7 -5 -102 -46q-108 -46 -164 -65q1 -5 1 -4q35 -108 124 -103q18 1 56 6q33 5 49 5q22 0 38 -6
q28 -12 28 -28zM299 338l-30 18q-48 35 -82 35q-63 0 -61 -117l106 34q68 23 68 28q0 1 -1 2zM362 537h-93v98h93v-98zM216 537h-93v98h93v-98z" />
    <glyph glyph-name="igrave" unicode="&#xec;" horiz-adv-x="183" 
d="M149 -3l-122 3l-17 409q13 47 69 47q33 0 50 -16t17 -36zM129 501h-78l-106 128h121z" />
    <glyph glyph-name="iacute" unicode="&#xed;" horiz-adv-x="183" 
d="M149 -3l-122 3l-17 410q13 46 69 46q33 0 50 -15.5t17 -36.5zM218 665l-101 -128h-79l62 128h118z" />
    <glyph glyph-name="icircumflex" unicode="&#xee;" horiz-adv-x="183" 
d="M149 -3l-122 3l-17 410q13 46 69 46q33 0 50 -15.5t17 -36.5zM230 537h-106l-38 59l-39 -59h-105l99 128h85z" />
    <glyph glyph-name="idieresis" unicode="&#xef;" horiz-adv-x="183" 
d="M149 -3l-122 3l-17 410q13 46 69 46q33 0 50 -16t17 -36zM198 537h-92v98h92v-98zM53 537h-94v98h94v-98z" />
    <glyph glyph-name="eth" unicode="&#xf0;" horiz-adv-x="454" 
d="M436 264q0 -52 -1 -122t-1 -68q6 -24 -64 -49q-65 -23 -125 -26q-47 -2 -100 11q-49 12 -70 28q-84 66 -84 192q0 84 39 149q42 70 113 86q56 13 68 13q19 0 43 -10l-51 67q-32 -16 -47 -12q-36 10 -36 50q0 11 5 20q4 6 17 7q11 1 12 0l-39 52q-2 8 -2 17q0 47 44 64
q10 5 26 5q26 0 44 -16q6 -6 49 -60q28 20 51 20q18 0 32.5 -16t14.5 -35q0 -8 -2 -15q-6 -17 -38 -29q75 -97 95 -153q7 -15 7 -170zM319 103l-10 241q-6 5 -21.5 22t-22.5 21q-36 30 -62 30q-39 0 -58 -53q-15 -42 -15 -103q0 -39 6 -58q35 -112 125 -107q24 1 58 7z" />
    <glyph glyph-name="ntilde" unicode="&#xf1;" horiz-adv-x="462" 
d="M452 106q0 -112 -53 -117q-62 -6 -62 88q0 13 3 50.5t3 56.5q0 80 -36 139q-39 64 -99 64q-36 0 -50 -15q-18 -18 -18 -67l-1 -309l-126 3l-11 423q12 39 69 39q54 0 64 -33q48 23 103 23q90 0 139 -59q74 -89 74 -222q0 -9 1 -31v-33zM366 645q-3 -106 -87 -106
q-10 0 -51 17.5t-52 17.5q-20 0 -20 -37h-72q0 49 24 78t66 30q9 0 48.5 -16.5t53.5 -16.5q16 0 20 33h70z" />
    <glyph glyph-name="ograve" unicode="&#xf2;" horiz-adv-x="435" 
d="M431 204q0 -23 -3 -40q-10 -58 -63 -106q-56 -50 -125 -59q-15 -2 -29 -2q-41 0 -84 13q-38 12 -57 26q-83 63 -83 186q0 79 39 145q41 70 110 93q36 12 65 12q50 0 99 -23q45 -22 73 -55q58 -70 58 -190zM313 234q0 79 -32 109q-59 55 -100 55q-65 0 -65 -122
q0 -50 23 -107q29 -76 79 -76q10 0 20 4q75 22 75 137zM260 537h-77l-106 128h121z" />
    <glyph glyph-name="oacute" unicode="&#xf3;" horiz-adv-x="435" 
d="M431 204q0 -23 -3 -40q-10 -58 -63 -106q-56 -50 -125 -59q-15 -2 -29 -2q-41 0 -84 13q-38 12 -57 26q-83 63 -83 186q0 79 39 145q41 70 110 93q36 12 65 12q50 0 99 -23q45 -22 73 -55q58 -70 58 -190zM313 234q0 79 -32 109q-59 55 -100 55q-65 0 -65 -122
q0 -50 23 -107q29 -76 79 -76q10 0 20 4q75 22 75 137zM332 665l-101 -128h-79l62 128h118z" />
    <glyph glyph-name="ocircumflex" unicode="&#xf4;" horiz-adv-x="435" 
d="M431 204q0 -23 -3 -40q-10 -58 -63 -106q-56 -50 -125 -59q-15 -2 -29 -2q-41 0 -84 13q-38 12 -57 26q-83 63 -83 186q0 79 39 145q41 70 110 93q36 12 65 12q50 0 99 -23q45 -22 73 -55q58 -70 58 -190zM313 234q0 79 -32 109q-59 55 -100 55q-65 0 -65 -122
q0 -50 23 -107q29 -76 79 -76q10 0 20 4q75 22 75 137zM342 537h-106l-38 59l-39 -59h-105l99 128h85z" />
    <glyph glyph-name="otilde" unicode="&#xf5;" horiz-adv-x="435" 
d="M431 204q0 -23 -3 -41q-10 -57 -63 -105q-56 -50 -125 -59q-15 -2 -29 -2q-41 0 -84 13q-38 12 -57 26q-83 63 -83 186q0 79 39 145q41 70 110 93q36 12 65 12q50 0 99 -23q45 -22 73 -55q58 -70 58 -190zM313 234q0 79 -32 109q-59 55 -100 55q-65 0 -65 -122
q0 -50 23 -107q29 -76 79 -76q10 0 20 3q75 23 75 138zM357 645q-3 -106 -86 -106q-12 0 -52.5 17.5t-50.5 17.5q-20 0 -20 -37h-72q0 49 24 78t66 30q9 0 48.5 -16t53.5 -16q16 0 20 32h69z" />
    <glyph glyph-name="odieresis" unicode="&#xf6;" horiz-adv-x="435" 
d="M431 204q0 -23 -3 -41q-10 -57 -63 -105q-56 -50 -125 -59q-15 -2 -29 -2q-41 0 -84 13q-38 12 -57 26q-83 63 -83 185q0 80 39 146q41 70 110 93q36 12 65 12q50 0 99 -24q45 -21 73 -54q58 -70 58 -190zM313 234q0 79 -32 109q-59 55 -100 55q-65 0 -65 -122
q0 -50 23 -107q29 -76 79 -76q10 0 20 3q75 23 75 138zM328 537h-93v98h93v-98zM183 537h-94v98h94v-98z" />
    <glyph glyph-name="divide" unicode="&#xf7;" horiz-adv-x="439" 
d="M269 355h-100v94h100v-94zM419 252h-399v79h399v-79zM269 134h-100v94h100v-94z" />
    <glyph glyph-name="oslash" unicode="&#xf8;" horiz-adv-x="435" 
d="M431 208q0 -23 -3 -42q-9 -58 -64 -109t-124 -60q-15 -2 -29 -2q-21 0 -39 3l-19 -63h-79l25 84q-19 10 -29 17q-83 62 -83 189q0 82 39 149q41 71 110 95q35 12 65 12q17 0 30 -3l15 49h78l-21 -72q43 -21 69.5 -54t42.5 -87t16 -106zM313 238q0 81 -39 118l-74 -258
q8 -4 21 -4q47 0 72 49q20 39 20 95zM209 398q-19 7 -28 7q-65 0 -65 -124q0 -60 26 -115z" />
    <glyph glyph-name="ugrave" unicode="&#xf9;" horiz-adv-x="482" 
d="M464 -3l-128 2l1 36q-60 -36 -134 -36q-96 0 -148 61q-55 65 -55 191q0 64 3 112q6 90 51 95q51 6 51 -82q0 -15 -1.5 -43.5t-1.5 -39.5q0 -84 35 -138q32 -50 87 -65q21 -6 36 -6q74 0 72 111l-5 228q14 46 69 46q33 0 52 -17q16 -14 16 -35v-420zM272 538h-77l-106 128
h121z" />
    <glyph glyph-name="uacute" unicode="&#xfa;" horiz-adv-x="482" 
d="M464 -3l-128 2l1 36q-60 -36 -134 -36q-96 0 -148 61q-55 65 -55 191q0 64 3 112q6 90 51 95q51 6 51 -82q0 -15 -1.5 -43.5t-1.5 -39.5q0 -84 35 -138q32 -50 87 -65q21 -6 36 -6q74 0 72 111l-5 228q14 46 69 46q33 0 52 -17q16 -14 16 -35v-420zM341 665l-101 -128
h-79l62 128h118z" />
    <glyph glyph-name="ucircumflex" unicode="&#xfb;" horiz-adv-x="482" 
d="M464 -3l-128 2l1 36q-60 -36 -134 -36q-96 0 -148 61q-55 65 -55 191q0 64 3 112q6 90 51 95q51 6 51 -82q0 -15 -1.5 -43.5t-1.5 -39.5q0 -84 35 -138q32 -50 87 -65q21 -6 36 -6q74 0 72 111l-5 228q14 46 69 46q33 0 52 -17q16 -14 16 -35v-420zM356 538h-106l-38 59
l-39 -59h-105l99 128h85z" />
    <glyph glyph-name="udieresis" unicode="&#xfc;" horiz-adv-x="482" 
d="M464 -3l-128 2l1 36q-60 -36 -134 -36q-96 0 -148 61q-55 65 -55 191q0 63 3 112q6 89 51 95q51 6 51 -82q0 -15 -1.5 -43.5t-1.5 -40.5q0 -83 35 -137q32 -50 87 -65q21 -6 36 -6q74 0 72 111l-5 227q14 47 69 47q33 0 52 -17q16 -15 16 -36v-419zM339 538h-94v98h94
v-98zM193 538h-93v98h93v-98z" />
    <glyph glyph-name="yacute" unicode="&#xfd;" horiz-adv-x="491" 
d="M464 9q1 -190 -123 -208q-66 -10 -125 -10q-96 0 -162 26q-59 23 -59 51q0 26 38 26q23 0 109 -29.5t128 -29.5q75 0 75 94q0 56 -4 81v18q-54 -35 -124 -35q-106 0 -161.5 69.5t-55.5 195.5q0 11 1 35.5t1 38.5q0 129 52 135q51 7 51 -83q0 -15 -1.5 -44.5t-1.5 -40.5
q0 -85 35 -139q32 -51 87 -67q8 -3 17 -3q33 0 59 34.5t35 89.5l-8 217q14 47 69 47q33 0 52 -17q16 -14 16 -35v-417zM328 666l-101 -129h-79l62 129h118z" />
    <glyph glyph-name="thorn" unicode="&#xfe;" horiz-adv-x="556" 
d="M526 272q0 -118 -69 -198.5t-166 -80.5q-74 0 -127 50v-233h-108v915h108v-233q53 51 132 51q99 0 164.5 -77t65.5 -194zM416 273q0 87 -37 137q-34 46 -91 46q-55 0 -92 -49q-40 -53 -40 -142q0 -86 37 -135q34 -46 91 -46q59 0 94 46q38 50 38 143z" />
    <glyph glyph-name="ydieresis" unicode="&#xff;" horiz-adv-x="491" 
d="M464 8q1 -189 -123 -207q-66 -10 -125 -10q-96 0 -162 26q-59 23 -59 51q0 26 38 26q23 0 109 -30t128 -30q75 0 75 95q0 56 -4 80v19q-54 -35 -124 -35q-106 0 -161.5 69.5t-55.5 194.5q0 11 1 36t1 39q0 128 52 135q51 7 51 -83q0 -15 -1.5 -44.5t-1.5 -40.5
q0 -85 35 -140q32 -50 87 -67q8 -2 17 -2q33 0 59 34t35 90l-8 216q14 48 69 48q33 0 52 -17q16 -15 16 -36v-417zM332 536h-93v99h93v-99zM186 536h-93v99h93v-99z" />
    <glyph glyph-name="dotlessi" unicode="&#x131;" horiz-adv-x="183" 
d="M149 -3l-122 3l-17 416q13 47 69 47q33 0 50 -16t17 -37z" />
    <glyph glyph-name="OE" unicode="&#x152;" horiz-adv-x="1036" 
d="M1000 56q0 -25 -13.5 -42.5t-26.5 -17.5h-481l-1 37q-57 -38 -124 -42t-146 22q-69 23 -100 50q-118 103 -118 279q0 115 56 205q59 97 162 127q48 14 106 14q91 0 142 -32q34 39 81 39q23 0 46 -9l332 5q38 1 38 -52q0 -46 -43 -57l-287 4l-5 -121l238 9q20 -33 20 -51
q0 -29 -35 -29q-104 0 -227 -23l-8 -270l358 13q13 0 24.5 -16.5t11.5 -41.5zM472 230l-9 236q-35 121 -109 140q-20 5 -39 5q-78 0 -118 -89q-32 -71 -32 -171q0 -46 9 -78q23 -83 67 -130q48 -51 111 -51q17 0 32 3q61 12 88 135z" />
    <glyph glyph-name="oe" unicode="&#x153;" horiz-adv-x="776" 
d="M752 72q0 -24 -67 -48q-62 -22 -120 -25q-47 -2 -100 10q-48 12 -70 28q-7 5 -27 25q-68 -65 -157 -65q-41 0 -84 14q-38 11 -57 26q-83 64 -83 188q0 81 39 148q41 71 110 94q36 12 65 12q108 0 170 -78q66 72 178 72q62 0 146 -67q41 -33 41 -61q0 -18 -14 -28
q-7 -5 -102 -47q-108 -47 -164 -66q0 -1 1 -1v-2q35 -111 124 -106q18 1 56 7q33 5 49 5q22 0 38 -7q28 -12 28 -28zM589 362q-48 35 -82 35q-63 0 -61 -119q1 0 106 35q68 23 68 30q-13 8 -31 19zM313 238q0 80 -32 110q-59 56 -100 56q-65 0 -65 -124q0 -51 23 -109
q29 -76 79 -76q10 0 20 3q75 23 75 140z" />
    <glyph glyph-name="Scaron" unicode="&#x160;" horiz-adv-x="556" 
d="M565 220q0 -73 -50 -139q-28 -38 -92 -65q-69 -29 -142 -29q-66 0 -123 26q-61 27 -88 49q-13 10 -26 29q-10 15 -30 26q-27 13 -27 33q0 17 22.5 31.5t46.5 14.5t33 -15q17 -34 35 -68q17 -27 57 -27q29 0 103 18q56 13 90 56q31 38 31 80q0 35 -22 47q-51 27 -84 27
q-16 0 -46.5 -8t-51.5 -8q-49 0 -116 29q-30 13 -54 62.5t-24 105.5q0 71 39 120q46 59 138 74q43 7 79 7q60 0 111 -26.5t78 -26.5q8 0 17 1q41 6 41 -46q0 -31 -18 -55q-21 -27 -54 -27q-42 0 -89 39q-78 66 -129 66q-70 0 -70 -103q0 -49 19 -90q20 -45 53 -53
q23 -6 37 -6q23 0 59.5 12t60.5 12q37 0 91 -22q95 -40 95 -151zM395 864l-104 -128h-84l-100 128h106l39 -57l38 57h105z" />
    <glyph glyph-name="scaron" unicode="&#x161;" horiz-adv-x="446" 
d="M448 155q0 -42 -40 -99q-20 -29 -65.5 -47t-100.5 -18q-57 0 -128 27t-111 66q-15 14 -15 24q0 19 34 19q33 0 49 -8l70 -28t66 -14q47 0 74 19t27 47q0 31 -29 45q-33 16 -61 16q-9 0 -27 -2t-29 -2q-53 0 -99 28q-64 38 -64 111q0 48 31 82q38 42 115 53q40 6 71 6
q36 0 75 -16q43 -17 91 -20q40 -2 40 -34q0 -20 -19 -36q-22 -18 -56 -18q-37 0 -78 22q-44 25 -73 25q-48 0 -48 -52q0 -25 13 -47.5t37 -31t108 -10.5q71 -2 93 -20q49 -40 49 -87zM371 664l-104 -127h-84l-100 127h106l39 -57l38 57h105z" />
    <glyph glyph-name="Ydieresis" unicode="&#x178;" horiz-adv-x="591" 
d="M618 623q-68 -72 -130 -182l-88 -168q-15 -29 -15 -202v-53q-32 -26 -74 -26q-47 0 -76 28q-1 66 -3 133q-3 88 -13 106q-44 80 -87 159q-64 107 -134 178q-13 19 -13 37q0 40 63 52q23 4 61 -7t47 -26l178 -303l180 302q28 28 54 28q8 0 17 -2q27 -6 33 -54zM441 736
h-93v99h93v-99zM296 736h-94v99h94v-99z" />
    <glyph glyph-name="florin" unicode="&#x192;" horiz-adv-x="387" 
d="M378 590q-7 0 -54.5 25t-72.5 25q-37 0 -37 -80v-80h86q14 0 25 -9t11 -23q0 -38 -36 -38h-84q4 -109 13 -335q1 -43 3 -118q1 -14 -17 -44t-41.5 -50t-65.5 -32q-38 -12 -66 -12q-23 0 -24 8q-1 10 28 38q23 23 47 46q12 13 11 45q-1 40 -3 118q-1 38 -1 336h-80
q-26 9 -26 33q0 27 26 37h80v46q0 73 17 103q23 38 96 59q21 6 42 6q51 0 94 -34q38 -30 38 -56q0 -14 -9 -14z" />
    <glyph glyph-name="circumflex" unicode="&#x2c6;" 
d="M446 749h-106l-38 49l-39 -49h-105l99 109h85z" />
    <glyph glyph-name="ring" unicode="&#x2da;" 
d="M394 797q2 -30 -22 -51.5t-57 -22.5t-57.5 19t-25.5 49q-1 30 21.5 51.5t55.5 22.5q33 2 58.5 -18.5t26.5 -49.5zM344 798q-2 24 -30 24q-34 0 -31 -29q2 -23 31 -23q32 0 30 28z" />
    <glyph glyph-name="tilde" unicode="&#x2dc;" 
d="M440 831q-3 -89 -87 -89q-10 0 -51 14.5t-52 14.5q-20 0 -20 -30h-72q0 41 24 65t66 24q9 0 49 -13.5t53 -13.5q11 0 14.5 5.5t5.5 22.5h70z" />
    <glyph glyph-name="endash" unicode="&#x2013;" horiz-adv-x="540" 
d="M535 331q0 -27 -51 -27q-12 0 -38.5 2t-35.5 2q-125 -5 -373 -5q-40 23 -40 40t37 36l446 -5q18 -4 35 -8q20 -9 20 -35z" />
    <glyph glyph-name="emdash" unicode="&#x2014;" horiz-adv-x="816" 
d="M805 331q0 -27 -51 -27q-12 0 -38.5 2t-35.5 2q-125 -5 -643 -5q-40 23 -40 40t37 36l716 -5q18 -4 35 -8q20 -9 20 -35z" />
    <glyph glyph-name="quoteleft" unicode="&#x2018;" horiz-adv-x="168" 
d="M148 756q-46 -69 -42 -96q33 -12 33 -29q0 -55 -61 -55q-62 0 -62 55q0 24 34 59q39 41 98 66z" />
    <glyph glyph-name="quoteright" unicode="&#x2019;" horiz-adv-x="168" 
d="M154 699q0 -24 -34 -59q-39 -42 -97 -66q45 69 41 95q-33 15 -33 30q0 55 61 55q62 0 62 -55z" />
    <glyph glyph-name="quotesinglbase" unicode="&#x201a;" horiz-adv-x="172" 
d="M143 63q0 -18 -4 -34q-10 -39 -55 -70q-40 -27 -67 -27q-12 0 -12 8q0 3 2 7q5 11 25 28q15 13 18 32q-39 18 -39 55q0 27 20 45t49 18q63 0 63 -62z" />
    <glyph glyph-name="quotedblleft" unicode="&#x201c;" horiz-adv-x="334" 
d="M316 754q-46 -69 -42 -96q33 -12 33 -29q0 -55 -61 -55q-62 0 -62 55q0 24 34 59q39 41 98 66zM166 754q-46 -69 -42 -96q33 -12 33 -29q0 -55 -61 -55q-62 0 -62 55q0 24 34 59q39 41 98 66z" />
    <glyph glyph-name="quotedblright" unicode="&#x201d;" horiz-adv-x="334" 
d="M304 699q0 -24 -34 -59q-39 -42 -97 -66q45 69 41 95q-33 15 -33 30q0 55 61 55q62 0 62 -55zM154 699q0 -24 -34 -59q-39 -42 -97 -66q45 69 41 95q-33 15 -33 30q0 55 61 55q62 0 62 -55z" />
    <glyph glyph-name="quotedblbase" unicode="&#x201e;" horiz-adv-x="321" 
d="M293 63q0 -18 -4 -34q-10 -39 -55 -70q-40 -27 -67 -27q-12 0 -12 8q0 3 2 7q5 11 25 28q15 13 18 32q-39 18 -39 55q0 27 20 45t49 18q63 0 63 -62zM143 63q0 -18 -4 -34q-10 -39 -55 -70q-40 -27 -67 -27q-12 0 -12 8q0 3 2 7q5 11 25 28q15 13 18 32q-39 18 -39 55
q0 27 20 45t49 18q63 0 63 -62z" />
    <glyph glyph-name="dagger" unicode="&#x2020;" horiz-adv-x="203" 
d="M309 492q0 -34 -51 -34q-13 0 -39.5 2.5t-34.5 2.5q-6 0 -18 -1q0 -273 -21 -452q-9 -80 -27 -190h-20q-18 104 -30 191q-24 178 -28 441q-48 -5 -87 -10q-40 30 -40 51q0 19 37 44l90 -6v111q-4 55 58 55q34 0 53 -18q15 -14 14 -34v-34q1 -39 1 -76q29 4 88 10
q34 -10 35 -10q20 -12 20 -43z" />
    <glyph glyph-name="daggerdbl" unicode="&#x2021;" horiz-adv-x="203" 
d="M309 196q0 -34 -51 -34q-12 0 -40 3q-24 3 -33 2q-13 -1 -28 -1q-5 -86 -12 -146q-12 -103 -27 -190h-20q-14 77 -30 191q-7 49 -14 137l-100 -10q-41 28 -41 49q0 20 37 44l99 -6q-7 92 -9 227q-48 -5 -87 -10q-40 30 -40 51q0 19 37 44l90 -6v111q-4 55 58 55
q34 0 53 -18q15 -14 14 -34v-34q1 -39 1 -76q29 4 88 10q34 -10 35 -10q20 -12 20 -43q0 -34 -51 -34q-13 0 -39.5 2.5t-34.5 2.5q-6 0 -18 -1q0 -126 -5 -226l93 3q34 -10 35 -10q20 -12 20 -43z" />
    <glyph glyph-name="bullet" unicode="&#x2022;" horiz-adv-x="350" 
d="M343 359q0 -65 -49 -111t-119 -46t-118.5 45.5t-48.5 111.5t48.5 112t118.5 46t119 -46.5t49 -111.5z" />
    <glyph glyph-name="ellipsis" unicode="&#x2026;" horiz-adv-x="480" 
d="M468 54q0 -25 -19.5 -41t-48.5 -16q-69 0 -69 56q0 24 20 40t49 16t48.5 -15.5t19.5 -39.5zM303 52q0 -24 -19 -39.5t-49 -15.5q-29 0 -49 15t-20 41q0 24 20 40t49 16t48.5 -16.5t19.5 -40.5zM139 52q0 -24 -19 -39.5t-49 -15.5q-27 0 -46.5 16t-22.5 39t18.5 40
t50.5 17t48.5 -16.5t19.5 -40.5z" />
    <glyph glyph-name="perthousand" unicode="&#x2030;" horiz-adv-x="968" 
d="M944 149q0 -87 -67 -131q-36 -24 -80 -24q-80 0 -122 69q-25 41 -25 90q0 56 42.5 101.5t106.5 45.5q83 0 124 -70q21 -36 21 -81zM625 149q0 -87 -67 -131q-36 -24 -80 -24q-80 0 -122 69q-25 41 -25 90q0 56 42.5 101.5t106.5 45.5q83 0 124 -70q21 -36 21 -81z
M551 681l-2 -93h-9l-323 -532q-3 -19 -30 -37q-30 -20 -66 -20q-37 0 -51 14q-7 7 -14 34l363 522l-149 30q7 -22 7 -47q0 -86 -66 -131q-36 -25 -80 -25q-82 0 -123 70q-25 42 -25 89q0 57 43 102t107 45q31 0 76 -18q57 -23 151 -23q85 0 191 20zM860 121q0 46 -39 77
q-27 22 -48 22q-13 0 -24.5 -8t-11.5 -28q0 -36 23 -67q25 -34 58 -34q42 0 42 38zM187 523q0 36 -24.5 68t-56.5 32q-8 0 -18 -5q-16 -8 -16 -35q0 -34 23 -65q25 -34 57 -34q35 0 35 39zM541 121q0 46 -39 77q-27 22 -48 22q-13 0 -24.5 -8t-11.5 -28q0 -36 23 -67
q25 -34 58 -34q42 0 42 38z" />
    <glyph glyph-name="guilsinglleft" unicode="&#x2039;" horiz-adv-x="333" 
d="M255 108l-177 124v90l177 124v-101l-99 -68l99 -68v-101z" />
    <glyph glyph-name="guilsinglright" unicode="&#x203a;" horiz-adv-x="333" 
d="M255 232l-177 -124v101l99 68l-99 68v101l177 -124v-90z" />
    <glyph glyph-name="trademark" unicode="&#x2122;" horiz-adv-x="648" 
d="M646 406q1 -23 -33 -23q-22 0 -42 14q0 12 5 116.5t5 145.5v12q-3 -3 -61 -83q-40 -53 -48 -53q-5 0 -32 31q-50 61 -53 64l-5 -244h-70l-9 331q-1 30 42 30q29 0 40 -18l102 -106l86 117q5 6 14 6q19 0 39 -18.5t16 -30.5v-112q-2 -7 -2 -35q0 -26 3 -80t3 -64zM286 714
q0 -31 -24 -35h-75l-6 -293l-75 2l-14 291l-98 -1l20 56l238 12q10 0 22 -9.5t12 -22.5z" />
    </font>
</defs>
</svg>
